<svg xmlns="http://www.w3.org/2000/svg" width="467" height="465.052" viewBox="0 0 467 465.052">
  <g id="グループ_635" data-name="グループ 635" transform="translate(0 0)">
    <g id="グループ_636" data-name="グループ 636" transform="translate(0 142.799)">
      <circle id="楕円形_1038" data-name="楕円形 1038" cx="83.859" cy="83.859" r="83.859" transform="translate(0 118.595) rotate(-45)" fill="#f8cd16"/>
      <g id="グループ_635-2" data-name="グループ 635" transform="translate(58.545 106.456)">
        <path id="パス_371" data-name="パス 371" d="M282.742,694.428a79.514,79.514,0,0,0-8.7-6.117l3.311-3.942c2.554,1.577,5.833,3.784,8.513,5.707a37.746,37.746,0,0,0,3.311-7.347,25.056,25.056,0,0,0,.851-3.279l5.9,2.049a26.307,26.307,0,0,0-1.514,3.185,50.959,50.959,0,0,1-4.257,8.7,79.7,79.7,0,0,1,7.788,7.157l-3.973,4.446a66.1,66.1,0,0,0-7.094-7.157,41.873,41.873,0,0,1-12.045,10.058l-4.446-3.973A35.89,35.89,0,0,0,282.742,694.428Z" transform="translate(-270.382 -679.451)" fill="#fff"/>
        <path id="パス_372" data-name="パス 372" d="M352.423,694.78V683.586A25.754,25.754,0,0,0,352.3,681h5.644c-.063.788-.127,1.419-.127,2.585v11.257c0,.82.064,2.175.127,3h-5.676C352.3,697.208,352.423,695.82,352.423,694.78Zm12.643,5.644c2.207-2.4,2.68-4.792,2.68-9.522v-6.685a21.265,21.265,0,0,0-.252-3.5h5.676c-.063.946-.157,2.081-.157,3.5v7.032c0,6.779-1.482,10.027-4,12.675a20.094,20.094,0,0,1-8.072,4.793l-4.036-4.225A15.556,15.556,0,0,0,365.066,700.424Z" transform="translate(-317.611 -680.181)" fill="#fff"/>
        <path id="パス_373" data-name="パス 373" d="M428.246,696.67c.883,1.8,2.428,5.675,3.09,7.6L426.669,706a63.952,63.952,0,0,0-3.027-7.694Zm10.5,10.468a22.167,22.167,0,0,0,4.1-11.351l5.392,1.734c-.441,1.23-.662,1.987-.883,2.743a27.525,27.525,0,0,1-4.478,9.491,25.946,25.946,0,0,1-11.162,8.387l-4-4.1A22.324,22.324,0,0,0,438.746,707.138Zm-2.838-12.266c.662,1.45,2.3,5.771,2.775,7.315l-4.572,1.576a59.728,59.728,0,0,0-2.743-7.41Z" transform="translate(-358.78 -688.346)" fill="#fff"/>
        <path id="パス_374" data-name="パス 374" d="M510.3,702.669V683.75a23.439,23.439,0,0,0-.378-4.225h5.959a39.994,39.994,0,0,0-.315,4.225v4.6a111.938,111.938,0,0,1,13.715,5.045l-2.175,5.329a107.291,107.291,0,0,0-11.54-4.792v8.734c0,.915.189,3.437.346,4.887h-5.991A36.882,36.882,0,0,0,510.3,702.669Z" transform="translate(-408.545 -679.494)" fill="#fff"/>
      </g>
    </g>
    <g id="グループ_638" data-name="グループ 638" transform="translate(272.227 117.933)">
      <circle id="楕円形_1039" data-name="楕円形 1039" cx="68.863" cy="68.863" r="68.863" transform="translate(0 97.387) rotate(-45)" fill="#eb6100"/>
      <g id="グループ_637" data-name="グループ 637" transform="translate(41.706 85.464)">
        <path id="パス_375" data-name="パス 375" d="M873.83,579.953a17.067,17.067,0,0,0,2.41.184h15.79a17.732,17.732,0,0,0,2.319-.184v3.626c-.62-.046-1.607-.069-2.319-.069h-5.508a15.486,15.486,0,0,1-1.584,6.013,11.467,11.467,0,0,1-4.888,4.728l-3.259-2.341a9.924,9.924,0,0,0,4.292-3.373,10.059,10.059,0,0,0,1.538-5.027h-6.38c-.711,0-1.721.046-2.41.092Zm2.777-6.2a21.493,21.493,0,0,0,2.731.207h7.689a22.887,22.887,0,0,0,2.5-.161c-.138-.252-.3-.482-.436-.689l2.18-.9c.6.9,1.446,2.456,1.882,3.3l-2.2.941c-.321-.666-.734-1.469-1.17-2.249v3.121c-.872-.069-1.859-.091-2.754-.091h-7.689c-.849,0-1.974.023-2.731.091Zm17.58-2.662a29.394,29.394,0,0,1,1.928,3.259l-2.18.941a28.292,28.292,0,0,0-1.905-3.328Z" transform="translate(-873.83 -571.094)" fill="#fff"/>
        <path id="パス_376" data-name="パス 376" d="M938.306,587.094a57.859,57.859,0,0,0-6.335-4.453l2.41-2.869c1.859,1.147,4.246,2.754,6.2,4.154a27.5,27.5,0,0,0,2.41-5.347,18.3,18.3,0,0,0,.619-2.387l4.292,1.491A19.166,19.166,0,0,0,946.8,580a37.068,37.068,0,0,1-3.1,6.334,57.973,57.973,0,0,1,5.669,5.21l-2.892,3.236a48.178,48.178,0,0,0-5.164-5.21,30.475,30.475,0,0,1-8.767,7.321L929.309,594A26.124,26.124,0,0,0,938.306,587.094Z" transform="translate(-905.83 -574.034)" fill="#fff"/>
        <path id="パス_377" data-name="パス 377" d="M989.024,587.349V579.2a18.742,18.742,0,0,0-.091-1.882h4.108c-.046.573-.092,1.033-.092,1.882v8.193c0,.6.046,1.584.092,2.18H988.91C988.933,589.117,989.024,588.107,989.024,587.349Zm9.2,4.108c1.607-1.744,1.951-3.488,1.951-6.931v-4.866a15.5,15.5,0,0,0-.184-2.548h4.131c-.046.689-.115,1.515-.115,2.548v5.118c0,4.934-1.078,7.3-2.915,9.226a14.622,14.622,0,0,1-5.876,3.489l-2.937-3.075A11.324,11.324,0,0,0,998.228,591.457Z" transform="translate(-940.206 -574.566)" fill="#fff"/>
        <path id="パス_378" data-name="パス 378" d="M1044.215,588.725c.643,1.308,1.767,4.131,2.249,5.531l-3.4,1.262a46.583,46.583,0,0,0-2.2-5.6Zm7.643,7.62a16.137,16.137,0,0,0,2.983-8.262l3.925,1.262c-.321.9-.482,1.446-.643,2a20.029,20.029,0,0,1-3.259,6.908,18.881,18.881,0,0,1-8.124,6.1l-2.915-2.984A16.246,16.246,0,0,0,1051.858,596.345Zm-2.066-8.928c.482,1.056,1.675,4.2,2.02,5.325l-3.328,1.147a43.463,43.463,0,0,0-2-5.393Z" transform="translate(-970.173 -580.509)" fill="#fff"/>
        <path id="パス_379" data-name="パス 379" d="M1103.94,593.091v-13.77a17.055,17.055,0,0,0-.275-3.075H1108a29.1,29.1,0,0,0-.229,3.075v3.351a81.511,81.511,0,0,1,9.984,3.672l-1.584,3.879a78.17,78.17,0,0,0-8.4-3.489v6.357c0,.666.137,2.5.252,3.558h-4.361A26.82,26.82,0,0,0,1103.94,593.091Z" transform="translate(-1006.395 -574.066)" fill="#fff"/>
      </g>
    </g>
    <g id="グループ_643" data-name="グループ 643" transform="translate(32.959 274.017)">
      <rect id="長方形_254" data-name="長方形 254" width="252.577" height="10.955" transform="translate(85.637 102.594) rotate(-16.413)" fill="#474645"/>
      <path id="パス_380" data-name="パス 380" d="M672.887,866.458h0a18.064,18.064,0,0,1,18.064,18.064v65.112H654.823V884.521A18.064,18.064,0,0,1,672.887,866.458Z" transform="translate(-466.536 -812.076)" fill="#fe9247"/>
      <circle id="楕円形_1040" data-name="楕円形 1040" cx="10.825" cy="10.825" r="10.825" transform="translate(191.043 72.165) rotate(-45)" fill="#ffb423"/>
      <g id="グループ_640" data-name="グループ 640" transform="translate(0 60.827)">
        <rect id="長方形_255" data-name="長方形 255" width="9.025" height="110.443" transform="translate(90.149 126.153) rotate(180)" fill="#767676"/>
        <rect id="長方形_256" data-name="長方形 256" width="2.829" height="110.443" transform="translate(85.637 126.153) rotate(180)" fill="#bdbebf"/>
        <path id="パス_381" data-name="パス 381" d="M380.1,920.292v28.826a13.935,13.935,0,0,0,13.935,13.935h0a13.935,13.935,0,0,0,13.935-13.935V920.292Z" transform="translate(-308.078 -903.954)" fill="#fe9247"/>
        <g id="グループ_639" data-name="グループ 639">
          <path id="パス_382" data-name="パス 382" d="M370.061,898.93H217.01l-7.084-17.243H377.164Z" transform="translate(-209.925 -881.687)" fill="#ffaa23"/>
          <path id="パス_383" data-name="パス 383" d="M263.422,898.93H245.684l-3.81-17.243h17.737Z" transform="translate(-228.353 -881.687)" fill="#fcc46b"/>
          <path id="パス_384" data-name="パス 384" d="M342.9,898.93h-7.407l-3.81-17.243h7.407Z" transform="translate(-280.153 -881.687)" fill="#fcc46b"/>
        </g>
      </g>
      <g id="グループ_642" data-name="グループ 642" transform="translate(250.114)">
        <rect id="長方形_257" data-name="長方形 257" width="9.025" height="141.221" transform="translate(90.736 157.168) rotate(180)" fill="#767676"/>
        <rect id="長方形_258" data-name="長方形 258" width="2.829" height="141.221" transform="translate(86.223 157.168) rotate(180)" fill="#bdbebf"/>
        <path id="パス_385" data-name="パス 385" d="M972.469,777.126v28.826A13.935,13.935,0,0,0,986.4,819.888h0a13.935,13.935,0,0,0,13.935-13.935V777.126Z" transform="translate(-899.863 -760.55)" fill="#fe9247"/>
        <g id="グループ_641" data-name="グループ 641">
          <path id="パス_386" data-name="パス 386" d="M808.014,755.2H961.065l7.085-17.243H800.911Z" transform="translate(-800.911 -737.961)" fill="#ffaa23"/>
          <path id="パス_387" data-name="パス 387" d="M1138.4,755.2h9.748l3.81-17.243h-9.748Z" transform="translate(-995.57 -737.961)" fill="#fcc46b"/>
          <path id="パス_388" data-name="パス 388" d="M1116.147,755.2h7.407l3.81-17.243h-7.407Z" transform="translate(-982.734 -737.961)" fill="#fcc46b"/>
        </g>
      </g>
      <path id="パス_389" data-name="パス 389" d="M253.858,1063.423h379.77l-7.634-20.207H261.552Z" transform="translate(-235.265 -914.028)" fill="#eb6100"/>
      <path id="パス_417" data-name="パス 417" d="M0,0H379.77V41.639H0Z" transform="translate(398.363 191.035) rotate(180)" fill="#fe9247"/>
    </g>
    <g id="グループ_654" data-name="グループ 654" transform="translate(191.258 0)">
      <g id="グループ_644" data-name="グループ 644" transform="translate(30.684)">
        <path id="パス_390" data-name="パス 390" d="M686.32,172.625a5.087,5.087,0,0,0-6.127.63,5.113,5.113,0,0,0,3.465,8.819,4.935,4.935,0,0,0,3.837-1.689,4.989,4.989,0,0,0,1.289-3.408A4.786,4.786,0,0,0,686.32,172.625Z" transform="translate(-669.227 -137.437)" fill="#e23c30"/>
        <path id="パス_391" data-name="パス 391" d="M681.09,111.194a19.69,19.69,0,0,0,4.466-3.436,8.754,8.754,0,0,0,2.319-6.156q0-5.641-5.268-8.675a21.243,21.243,0,0,0-10.651-2.433q-7.7,0-12.4,4.123-3.091,2.72-3.092,5.382a3.152,3.152,0,0,0,1.4,2.75,4.107,4.107,0,0,0,2.434.772,4.051,4.051,0,0,0,3.436-1.832q3.349-4.64,8.045-4.639a8.752,8.752,0,0,1,4.925,1.288,4.113,4.113,0,0,1,2.033,3.579q0,2.892-3.751,5.583a23.576,23.576,0,0,0-5.927,5.641,9.3,9.3,0,0,0-1.461,5.211,3.237,3.237,0,0,0,.974,2.52,3.643,3.643,0,0,0,2.606.945,4.142,4.142,0,0,0,2.376-.659,2.477,2.477,0,0,0,1.089-2.033,5.937,5.937,0,0,1,1.375-3.866A20.327,20.327,0,0,1,681.09,111.194Z" transform="translate(-656.466 -90.494)" fill="#e23c30"/>
      </g>
      <g id="グループ_653" data-name="グループ 653" transform="translate(0 55.938)">
        <path id="パス_392" data-name="パス 392" d="M684.265,684.044l9.091-124.159-20.831.027-20.831-.027,8.285,124.159h9.7l1.151-111.117,2.273.014,1.457,111.1Z" transform="translate(-623.03 -417.169)" fill="#3f5475"/>
        <g id="グループ_647" data-name="グループ 647" transform="translate(25.426 48.798)">
          <path id="パス_393" data-name="パス 393" d="M670.929,344.171l-20.874,6.779-.6,86.309h42.855V351.727Z" transform="translate(-647.164 -341.546)" fill="#aaddf8"/>
          <path id="パス_394" data-name="パス 394" d="M689.762,442.3l7.574-8.4-5.672-69.8,3.358-11.18H684.5l3.359,11.18-5.672,69.8Z" transform="translate(-666.044 -346.592)" fill="#004092"/>
          <g id="グループ_645" data-name="グループ 645" transform="translate(13.635)">
            <path id="パス_395" data-name="パス 395" d="M696.78,342.115l-10.292-4.146-10.229,4.146v12.762L686.4,348.4l11.042,6.2Z" transform="translate(-676.26 -337.969)" fill="#65c4f2"/>
          </g>
          <path id="パス_396" data-name="パス 396" d="M670.439,445.359H691.6V350.582l-13.4-2.817-10.744,54.321-9.776-54.321-11.944,3.358-1.691,94.236h20.725l2.686-6.027Z" transform="translate(-644.042 -343.619)" fill="#526c96"/>
          <g id="グループ_646" data-name="グループ 646" transform="translate(6.914 5.963)">
            <path id="パス_397" data-name="パス 397" d="M702.787,404.7a.412.412,0,0,0,.2.052.419.419,0,0,0,.366-.215l13.947-25.18a.418.418,0,0,0-.12-.54l-4.308-3.123,4.619-1.381a.419.419,0,0,0,.3-.441l-2.059-21.432a.419.419,0,0,0-.411-.378l-.045,0a.419.419,0,0,0-.376.456l2.027,21.09-5.1,1.524a.417.417,0,0,0-.126.738l4.693,3.4-13.769,24.856A.418.418,0,0,0,702.787,404.7Z" transform="translate(-684.715 -352.06)" fill="#30415c"/>
            <path id="パス_398" data-name="パス 398" d="M662.9,352.063a.5.5,0,0,0-.051,0,.418.418,0,0,0-.411.378L660.38,373.87a.419.419,0,0,0,.3.441l4.619,1.381-4.308,3.123a.418.418,0,0,0-.12.54l13.947,25.18a.419.419,0,0,0,.366.215.417.417,0,0,0,.365-.62l-13.768-24.856,4.692-3.4a.417.417,0,0,0-.125-.738l-5.1-1.524,2.026-21.09A.416.416,0,0,0,662.9,352.063Z" transform="translate(-660.379 -352.06)" fill="#30415c"/>
          </g>
        </g>
        <g id="グループ_649" data-name="グループ 649" transform="translate(67.831 55.76)">
          <path id="パス_399" data-name="パス 399" d="M756.418,507.785c-.143,1.912,4.333,1.631,6.181.835a22.118,22.118,0,0,0,2.844-2.4,7.312,7.312,0,0,1-1.9,3.549c-1.729,1.568-4.61.876-4.314,2.194.495,2.21,5.567.652,7.129-1.247a35.409,35.409,0,0,1,2.84-2.973,14.552,14.552,0,0,1-1.038,2.736c-.992,1.905-4.808,3.81-3.346,5.141.614.56,4.416-2.017,6.237-4.55,1.227-1.706,2.091-2.941,2.091-2.941a13.874,13.874,0,0,1-1.091,2.784c-1.079,2.093-4.292,4.273-3.757,5.192,1.052,1.807,4.914-2.13,6.83-5.645,1.681-3.083,3.052-5.465,3.432-8.061.163-1.113.451-6.3.451-6.3l2-8.521-8.778-2.369-2.03,7.6s-8.316,1.552-10.113,3.553-.67,6.008.289,6.143.944-2.441,1.733-3.382c.939-1.122,3.613-1.616,3.8-.861s-2.893,6.181-3.6,6.736C760.823,506.17,756.48,506.965,756.418,507.785Z" transform="translate(-751.262 -429.856)" fill="#efa491"/>
          <g id="グループ_648" data-name="グループ 648" transform="translate(18.688 56.393)">
            <path id="パス_400" data-name="パス 400" d="M789.648,487.671,788.4,492.5l10.176,2.728,1.33-4.744Z" transform="translate(-788.397 -487.671)" fill="#65c4f2"/>
          </g>
          <path id="パス_401" data-name="パス 401" d="M782.741,386.053l-33.348-31.632-5.153,2.892,3.41,16.949,29.165,22.953Z" transform="translate(-744.24 -354.421)" fill="#526c96"/>
          <path id="パス_402" data-name="パス 402" d="M798.029,418.429l-4.854,4.288-6.439,26.378,13.1,3.625,7.415-29.747Z" transform="translate(-768.751 -391.34)" fill="#526c96"/>
        </g>
        <g id="グループ_651" data-name="グループ 651" transform="translate(0 31.285)">
          <path id="パス_403" data-name="パス 403" d="M615.023,355.7,590.8,397.365l12.142,4.158,12.683-18.644Z" transform="translate(-587.906 -330.683)" fill="#3f5475"/>
          <path id="パス_404" data-name="パス 404" d="M605.476,302.1c.689-.115,7.119-1.5,6.011-4.787-.7-2.07-6.514.919-7.972,1.226s-5.484,7.169-6.34,8.135c-2.615,2.95-2.615,23.5-2.615,23.5l7.15.676-.036-4.274s5.007-2.549,6.177-3.8a3.727,3.727,0,0,0,.9-2.906s1.889-.477,2.622-.652,1.415-4.859,1.225-5.795-2.128-1.775-2.128-1.775a2.851,2.851,0,0,0-.013-2.208c-.539-.946-2.212-.9-2.212-.9a2.187,2.187,0,0,0-.493-2.093c-.873-.752-4.788.555-4.788.555S604.786,302.215,605.476,302.1Z" transform="translate(-590.075 -296.588)" fill="#efa491"/>
          <g id="グループ_650" data-name="グループ 650" transform="translate(2.239 31.354)">
            <path id="パス_405" data-name="パス 405" d="M589.489,370.674l-.233,4.732,11.1.112.179-4.182Z" transform="translate(-589.256 -370.674)" fill="#65c4f2"/>
          </g>
          <path id="パス_406" data-name="パス 406" d="M598.532,378.654l-14.568-.734.726,38.476,10.774,4.269L599,414.339Z" transform="translate(-583.964 -343.499)" fill="#526c96"/>
        </g>
        <path id="パス_407" data-name="パス 407" d="M693.06,335.592l0,0v0l5.4-3.127-1.445-15.649H689.1l-1.445,15.649,5.4,3.127v0Z" transform="translate(-643.771 -276.97)" fill="#eca189"/>
        <g id="グループ_652" data-name="グループ 652" transform="translate(25.193)">
          <path id="パス_408" data-name="パス 408" d="M658.472,264.26l18.968-5.736s5.959-28.808-8.57-34.546a8.062,8.062,0,0,0-5.739-.167s-7.787-4.51-16.214,4.38c-5.605,7.841-2.641,19.744-2.641,19.744Z" transform="translate(-643.492 -222.667)" fill="#573924"/>
          <path id="パス_409" data-name="パス 409" d="M657.065,298.707l-2.558-9.211s-2.526-.643-3.492.542-.8,3.868.046,5.262C652.939,298.412,657.065,298.707,657.065,298.707Z" transform="translate(-647.452 -261.112)" fill="#eca189"/>
          <path id="パス_410" data-name="パス 410" d="M723.637,273.185c-.072-1.628-1.417-3.955-2.878-4.406s-3.207,1.484-3.207,1.484l2.974,9.085S723.8,276.816,723.637,273.185Z" transform="translate(-686.209 -249.224)" fill="#eca189"/>
          <path id="パス_411" data-name="パス 411" d="M675.746,277.831s7.365-3.126,10.169-9.025c.449-3.867-1.5-12.446-6.9-22.381-5.092-9.374-14.533-5.847-14.533-5.847s-9.813,2.3-8.857,12.92c1.013,11.261,3.938,17.216,7.314,22.223C667.98,279.248,675.746,277.831,675.746,277.831Z" transform="translate(-650.454 -232.623)" fill="#eca189"/>
          <path id="パス_412" data-name="パス 412" d="M669.859,239.662c2.5,3.495,8.586,5.135,8.586,5.135l2.469,5.209s-3.438-19.441-18.509-14.883-7.195,22.566-7.195,22.566l-.591-5.994S666.082,244.252,669.859,239.662Z" transform="translate(-649.065 -229.453)" fill="#573924"/>
          <path id="パス_413" data-name="パス 413" d="M666.108,270.314l-8.519,2.576a1.28,1.28,0,0,0-.854,1.594l.086.283-1,.3.329.846.979-.133.843,2.789a3,3,0,0,0,3.737,2l5.229-1.581a2.993,2.993,0,0,0,2-3.727l-1-3.31a6.13,6.13,0,0,1,1.188-.489,7.3,7.3,0,0,1,1.418-.282l1,3.294a2.993,2.993,0,0,0,3.727,2l5.229-1.581a3,3,0,0,0,2-3.737l-.843-2.789.889-.432-.2-.887-1,.3-.085-.283a1.28,1.28,0,0,0-1.594-.854l-8.519,2.576a1.273,1.273,0,0,0-.849,1.585l.123.406a7.717,7.717,0,0,0-1.416.29,6.683,6.683,0,0,0-1.19.48l-.118-.389A1.273,1.273,0,0,0,666.108,270.314Zm2.156,5.155a2.293,2.293,0,0,1-1.53,2.856l-5.229,1.581a2.3,2.3,0,0,1-2.865-1.535l-1.236-4.088a.58.58,0,0,1,.387-.722l8.519-2.577a.573.573,0,0,1,.713.382Zm2.7-5.295a.572.572,0,0,1,.382-.713l8.519-2.577a.58.58,0,0,1,.722.387l1.236,4.088a2.3,2.3,0,0,1-1.534,2.865l-5.229,1.581a2.293,2.293,0,0,1-2.855-1.529Z" transform="translate(-650.603 -247.753)" fill="#474645"/>
          <path id="パス_414" data-name="パス 414" d="M688.236,285.2l-.486,7.881,3.113.805Z" transform="translate(-669.02 -258.736)" fill="#e17461"/>
        </g>
        <path id="パス_415" data-name="パス 415" d="M663.038,853.256l-4.167,4.91-1.646,3s-1.442,3.453,2.928,4.152c14.161,2.754,13.33-7.168,13.33-7.168l-.743-4.895Z" transform="translate(-626.089 -586.381)" fill="#563011"/>
        <path id="パス_416" data-name="パス 416" d="M714.407,853.256l4.167,4.91,1.646,3s1.442,3.453-2.928,4.152c-14.161,2.754-13.33-7.168-13.33-7.168l.743-4.895Z" transform="translate(-653.172 -586.381)" fill="#563011"/>
      </g>
    </g>
  </g>
</svg>
