<svg xmlns="http://www.w3.org/2000/svg" width="280" height="89.97" viewBox="0 0 280 89.97">
  <g id="グループ_3159" data-name="グループ 3159" transform="translate(-20 -1604.908)">
    <path id="パス_2664" data-name="パス 2664" d="M0,0H120V9.35H0Z" transform="translate(99.897 1620.734)" fill="#fcee21"/>
    <g id="グループ_826" data-name="グループ 826" transform="translate(596.196 1429.07)">
      <path id="パス_1306" data-name="パス 1306" d="M-600.827,221.992h-260.4l-9.8-10.407v-52.84l9.8-10.4h52.778v2.187h-52.262l-8.766,9.311v50.656l8.766,9.311h259.371l8.767-9.313V159.838l-8.767-9.311H-652.37V148.34h51.543l9.8,10.4v52.84Z" transform="translate(294.832 43.816)"/>
      <path id="パス_1307" data-name="パス 1307" d="M-597.259,222.634H-853.767l-7.719-8.221V166.1l7.719-8.218h50.788v1.047h-50.543l-7.225,7.692v47.271l7.225,7.695H-597.5l7.227-7.695V166.621l-7.227-7.692h-49.184v-1.047h49.43l7.721,8.218v48.313Z" transform="translate(289.329 38.723)"/>
      <g id="グループ_825" data-name="グループ 825">
        <g id="グループ_821" data-name="グループ 821" transform="translate(6)">
          <g id="グループ_819" data-name="グループ 819">
            <path id="パス_1308" data-name="パス 1308" d="M-615.2,141.485a1.1,1.1,0,0,1-.4-.077c-4.629-1.825-7.863-7.917-7.863-14.812,0-6.4,2.806-12.186,6.977-14.4a1.1,1.1,0,0,1,1.479.452,1.1,1.1,0,0,1-.452,1.479c-3.481,1.848-5.817,6.862-5.817,12.474,0,6.02,2.662,11.275,6.477,12.779a1.092,1.092,0,0,1,.616,1.417A1.091,1.091,0,0,1-615.2,141.485Z" transform="translate(105.706 63.775)"/>
          </g>
          <g id="グループ_820" data-name="グループ 820">
            <path id="パス_1309" data-name="パス 1309" d="M-606.209,141.7a.58.58,0,0,1-.195-.033c-4.251-1.517-7.219-6.646-7.219-12.467,0-5.408,2.58-10.285,6.423-12.136a.581.581,0,0,1,.773.269.579.579,0,0,1-.27.773c-3.453,1.661-5.771,6.119-5.771,11.094,0,5.342,2.654,10.021,6.454,11.379a.578.578,0,0,1,.349.739A.576.576,0,0,1-606.209,141.7Z" transform="translate(100.29 61.054)"/>
          </g>
        </g>
        <g id="グループ_824" data-name="グループ 824">
          <g id="グループ_822" data-name="グループ 822" transform="translate(-15)">
            <path id="パス_1310" data-name="パス 1310" d="M-258.146,141.485a1.1,1.1,0,0,1-.965-.58,1.1,1.1,0,0,1,.452-1.479c3.478-1.848,5.814-6.862,5.814-12.473,0-6.022-2.662-11.276-6.476-12.778a1.092,1.092,0,0,1-.616-1.417,1.093,1.093,0,0,1,1.417-.616c4.628,1.825,7.863,7.914,7.863,14.811,0,6.4-2.8,12.186-6.974,14.4A1.09,1.09,0,0,1-258.146,141.485Z" transform="translate(-94.259 63.775)"/>
          </g>
          <g id="グループ_823" data-name="グループ 823" transform="translate(-15)">
            <path id="パス_1311" data-name="パス 1311" d="M-265.5,142.314a.578.578,0,0,1-.521-.326.579.579,0,0,1,.269-.773c3.453-1.663,5.773-6.122,5.773-11.094,0-5.342-2.654-10.022-6.453-11.379a.579.579,0,0,1-.35-.739.577.577,0,0,1,.74-.349c4.251,1.519,7.218,6.646,7.218,12.468,0,5.409-2.582,10.286-6.425,12.136A.584.584,0,0,1-265.5,142.314Z" transform="translate(-90.514 60.716)"/>
          </g>
        </g>
      </g>
    </g>
    <text id="ライフスタイルの変化に合わせて_カーライフをアレンジ_" data-name="ライフスタイルの変化に合わせて
カーライフをアレンジ！" transform="translate(164.856 1655.75)" stroke="rgba(0,0,0,0)" stroke-width="0.857" font-size="16" font-family="HiraginoSans-W8, Hiragino Sans"><tspan x="-119.36" y="0">ライフスタイルの変化に合わせて</tspan><tspan y="0" font-family="NotoSans-ExtraBold, Noto Sans" font-weight="800"></tspan><tspan x="-87.68" y="22.4">カーライフをアレンジ！</tspan></text>
    <text id="支払い事例" transform="translate(159.627 1624.561)" fill="#eb6100" stroke="rgba(0,0,0,0)" stroke-width="0.857" font-size="14" font-family="HiraginoSans-W8, Hiragino Sans" letter-spacing="0.225em"><tspan x="-41.297" y="0">支払い事例</tspan></text>
  </g>
</svg>
