<svg xmlns="http://www.w3.org/2000/svg" width="879.38" height="200.01" viewBox="0 0 879.38 200.01">
  <g id="グループ_3153" data-name="グループ 3153" transform="translate(-160.31 -2554.72)">
    <g id="グループ_819" data-name="グループ 819" transform="translate(1031.338 2442.656)">
      <rect id="長方形_331" data-name="長方形 331" width="319.952" height="20.786" transform="translate(-591.315 147.247)" fill="#fcee21"/>
      <g id="グループ_826" data-name="グループ 826">
        <path id="パス_1306" data-name="パス 1306" d="M-22.424,312.073H-840.257l-30.771-23.135V171.47l30.771-23.129h210V153.2H-838.636l-27.53,20.7V286.513l27.53,20.7H-24.045l27.535-20.7V173.9l-27.535-20.7H-232.423V148.34h210L8.352,171.47V288.938Z"/>
        <path id="パス_1307" data-name="パス 1307" d="M-25.614,302.531H-837.067l-24.419-18.364V176.241l24.419-18.359h206.809v2.34H-836.291L-859.146,177.4V283l22.855,17.189h809.9L-3.529,283V177.4l-22.861-17.183H-232.423v-2.34H-25.614L-1.19,176.241V284.167Z"/>
        <g id="グループ_825" data-name="グループ 825">
          <g id="グループ_821" data-name="グループ 821">
            <g id="グループ_819-2" data-name="グループ 819">
              <path id="パス_1308" data-name="パス 1308" d="M-605.1,177.468a2.443,2.443,0,0,1-.89-.172c-10.29-4.057-17.48-17.6-17.48-32.928,0-14.221,6.237-27.09,15.511-32.02a2.434,2.434,0,0,1,3.287,1,2.434,2.434,0,0,1-1,3.287c-7.739,4.109-12.932,15.254-12.932,27.729,0,13.383,5.918,25.064,14.4,28.408a2.428,2.428,0,0,1,1.37,3.151A2.427,2.427,0,0,1-605.1,177.468Z"/>
            </g>
            <g id="グループ_820" data-name="グループ 820">
              <path id="パス_1309" data-name="パス 1309" d="M-597.142,171.909a1.289,1.289,0,0,1-.433-.074c-9.451-3.373-16.048-14.775-16.048-27.718,0-12.024,5.735-22.867,14.278-26.981a1.292,1.292,0,0,1,1.718.6,1.288,1.288,0,0,1-.6,1.718c-7.676,3.692-12.829,13.6-12.829,24.664,0,11.876,5.9,22.279,14.347,25.3a1.286,1.286,0,0,1,.776,1.644A1.28,1.28,0,0,1-597.142,171.909Z"/>
            </g>
          </g>
          <g id="グループ_824" data-name="グループ 824">
            <g id="グループ_822" data-name="グループ 822">
              <path id="パス_1310" data-name="パス 1310" d="M-255.861,177.468a2.433,2.433,0,0,1-2.146-1.29,2.437,2.437,0,0,1,1-3.287c7.733-4.109,12.926-15.255,12.926-27.73,0-13.388-5.918-25.069-14.4-28.408a2.427,2.427,0,0,1-1.37-3.15,2.43,2.43,0,0,1,3.15-1.369c10.289,4.057,17.48,17.594,17.48,32.927,0,14.222-6.232,27.091-15.5,32.021A2.423,2.423,0,0,1-255.861,177.468Z"/>
            </g>
            <g id="グループ_823" data-name="グループ 823">
              <path id="パス_1311" data-name="パス 1311" d="M-263.9,172.52a1.286,1.286,0,0,1-1.158-.725,1.288,1.288,0,0,1,.6-1.718c7.676-3.7,12.834-13.61,12.834-24.664,0-11.876-5.9-22.28-14.346-25.3a1.287,1.287,0,0,1-.777-1.644,1.284,1.284,0,0,1,1.644-.776c9.45,3.378,16.047,14.775,16.047,27.718,0,12.024-5.741,22.867-14.284,26.981A1.3,1.3,0,0,1-263.9,172.52Z"/>
            </g>
          </g>
        </g>
      </g>
    </g>
    <g id="グループ_3152" data-name="グループ 3152">
      <text id="ライフスタイルの変化に合わせて_カーライフをアレンジ_" data-name="ライフスタイルの変化に合わせて
カーライフをアレンジ！" transform="translate(600 2665.73)" stroke="rgba(0,0,0,0)" stroke-width="0.857" font-size="36" font-family="HiraginoSans-W8, Hiragino Sans"><tspan x="-268.56" y="0">ライフスタイルの変化に合わせて</tspan><tspan y="0" font-family="NotoSans-ExtraBold, Noto Sans" font-weight="800"></tspan><tspan x="-197.28" y="55">カーライフをアレンジ！</tspan></text>
      <text id="支払い事例" transform="translate(600 2597.73)" fill="#eb6100" stroke="rgba(0,0,0,0)" stroke-width="0.857" font-size="30" font-family="HiraginoSans-W8, Hiragino Sans" letter-spacing="0.5em"><tspan x="-105" y="0">支払い事例</tspan></text>
    </g>
  </g>
</svg>
