<svg xmlns="http://www.w3.org/2000/svg" width="101.343" height="17.085" viewBox="0 0 101.343 17.085">
  <g id="グループ_700" data-name="グループ 700" transform="translate(-84.198 -120.258)">
    <g id="グループ_699" data-name="グループ 699">
      <g id="グループ_696" data-name="グループ 696">
        <g id="グループ_695" data-name="グループ 695">
          <path id="パス_420" data-name="パス 420" d="M129.323,126.305h-3.658a.185.185,0,0,0-.182.178v9.98a.187.187,0,0,0,.182.188h3.658c2.524,0,4.664-.936,4.664-5.136C133.987,127.295,131.655,126.305,129.323,126.305Zm-.05,9.256h-1.552v-8.042h1.552c1.4,0,2.462.7,2.462,4.02S130.675,135.561,129.273,135.561Z" transform="translate(-9.387 -2.495)" fill="none" stroke="#fff" stroke-linecap="round" stroke-linejoin="round" stroke-width="3.476"/>
          <path id="パス_421" data-name="パス 421" d="M137.81,126.305h-1.868a.186.186,0,0,0-.188.178v9.98a.188.188,0,0,0,.188.188h1.868a.187.187,0,0,0,.182-.188v-9.98A.185.185,0,0,0,137.81,126.305Z" transform="translate(0.884 -2.495)" fill="none" stroke="#fff" stroke-linecap="round" stroke-linejoin="round" stroke-width="3.476"/>
          <path id="パス_422" data-name="パス 422" d="M135.751,126.305h-1.79a.257.257,0,0,0-.238.172l-3.374,10a.125.125,0,0,0,.122.174h.906a.28.28,0,0,0,.238-.174l.846-2.508h3.692l.85,2.508a.271.271,0,0,0,.238.174h2a.125.125,0,0,0,.122-.174l-3.374-10A.26.26,0,0,0,135.751,126.305Zm-2.92,6.574,1.48-4.382,1.478,4.382Z" transform="translate(-4.529 -2.495)" fill="none" stroke="#fff" stroke-linecap="round" stroke-linejoin="round" stroke-width="3.476"/>
          <path id="パス_423" data-name="パス 423" d="M148.618,126.305h-1.786a.265.265,0,0,0-.238.172l-3.369,10a.122.122,0,0,0,.122.174h.906a.276.276,0,0,0,.24-.174l.846-2.508h3.689l.846,2.508a.283.283,0,0,0,.238.174h2a.121.121,0,0,0,.122-.174l-3.369-10A.267.267,0,0,0,148.618,126.305Zm-2.911,6.574,1.476-4.382,1.482,4.382Z" transform="translate(8.344 -2.495)" fill="none" stroke="#fff" stroke-linecap="round" stroke-linejoin="round" stroke-width="3.476"/>
          <path id="パス_424" data-name="パス 424" d="M146.252,126.305h-1.874a.181.181,0,0,0-.178.178v4.252h-3.542v-4.252a.185.185,0,0,0-.186-.178H138.6a.185.185,0,0,0-.182.178v9.98a.187.187,0,0,0,.182.188h1.87a.187.187,0,0,0,.186-.188v-4.644H144.2v4.644a.183.183,0,0,0,.178.188h1.874a.183.183,0,0,0,.182-.188v-9.98A.181.181,0,0,0,146.252,126.305Z" transform="translate(3.55 -2.495)" fill="none" stroke="#fff" stroke-linecap="round" stroke-linejoin="round" stroke-width="3.476"/>
          <path id="パス_425" data-name="パス 425" d="M155.124,126.305h-7.583a.185.185,0,0,0-.184.178v.724a.184.184,0,0,0,.184.186h2.682v9.07a.182.182,0,0,0,.176.188h1.874a.182.182,0,0,0,.178-.188v-9.07h2.674a.184.184,0,0,0,.182-.186v-.724A.185.185,0,0,0,155.124,126.305Z" transform="translate(12.488 -2.495)" fill="none" stroke="#fff" stroke-linecap="round" stroke-linejoin="round" stroke-width="3.476"/>
          <path id="パス_426" data-name="パス 426" d="M155.682,130.77c-.808-.6-2.318-1.42-2.318-2.448,0-.85.94-1.1,1.4-1.1a5.085,5.085,0,0,1,2.416.72v-1.084a4.19,4.19,0,0,0-2.416-.566c-1.284,0-3.168.458-3.168,2.716,0,1.4,1.632,2.794,2.276,3.258.832.592,2.126,1.358,2.126,2.4,0,1.106-1.214,1.126-1.636,1.126a7.962,7.962,0,0,1-2.532-.684v1.066a4.94,4.94,0,0,0,2.472.618c1.846,0,3.528-.828,3.528-2.65A4.287,4.287,0,0,0,155.682,130.77Z" transform="translate(16.727 -2.512)" fill="none" stroke="#fff" stroke-linecap="round" stroke-linejoin="round" stroke-width="3.476"/>
          <path id="パス_427" data-name="パス 427" d="M162.9,126.305h-.88a.182.182,0,0,0-.182.178v7.452c0,.828-.43,1.78-2.074,1.78-2.042,0-1.948-1.938-1.948-2.9v-6.336a.181.181,0,0,0-.178-.178h-1.87a.182.182,0,0,0-.186.178v6.336c0,1.85.86,3.92,4.084,3.92,2.462,0,3.416-1.164,3.416-3.056v-7.2A.179.179,0,0,0,162.9,126.305Z" transform="translate(20.717 -2.495)" fill="none" stroke="#fff" stroke-linecap="round" stroke-linejoin="round" stroke-width="3.476"/>
          <path id="パス_428" data-name="パス 428" d="M110.4,139.006h25.7V125.4H110.4Z" transform="translate(-24.466 -3.402)" fill="none" stroke="#fff" stroke-linecap="round" stroke-linejoin="round" stroke-width="3.476"/>
        </g>
        <path id="パス_429" data-name="パス 429" d="M112.742,126.874l5.772,5.814a74.4,74.4,0,0,0,8.168-.878c4.524-.87,6.242-1.29,6.242-1.958,0-.534-3.294-1.314-6.364-1.682a80.461,80.461,0,0,0-9.23-.472l4.342,4.392-3.108.206-5.388-5.44c2.646-.056,6.45.052,8.556.22,2.828.216,11.876,1.074,11.876,2.832,0,1.976-10.594,4.356-17.922,5.468L117.3,133l-6.01-6.05C111.686,126.908,112.186,126.894,112.742,126.874Z" transform="translate(-23.582 -1.959)" fill="none" stroke="#fff" stroke-linecap="round" stroke-linejoin="round" stroke-width="3.476"/>
      </g>
      <g id="グループ_698" data-name="グループ 698">
        <g id="グループ_697" data-name="グループ 697">
          <path id="パス_430" data-name="パス 430" d="M129.323,126.305h-3.658a.185.185,0,0,0-.182.178v9.98a.187.187,0,0,0,.182.188h3.658c2.524,0,4.664-.936,4.664-5.136C133.987,127.295,131.655,126.305,129.323,126.305Zm-.05,9.256h-1.552v-8.042h1.552c1.4,0,2.462.7,2.462,4.02S130.675,135.561,129.273,135.561Z" transform="translate(-9.387 -2.495)" fill="#e50012" stroke="rgba(0,0,0,0)" stroke-width="2" fill-rule="evenodd"/>
          <path id="パス_431" data-name="パス 431" d="M137.81,126.305h-1.868a.186.186,0,0,0-.188.178v9.98a.188.188,0,0,0,.188.188h1.868a.187.187,0,0,0,.182-.188v-9.98A.185.185,0,0,0,137.81,126.305Z" transform="translate(0.884 -2.495)" fill="#e50012" stroke="rgba(0,0,0,0)" stroke-width="2" fill-rule="evenodd"/>
          <path id="パス_432" data-name="パス 432" d="M135.751,126.305h-1.79a.257.257,0,0,0-.238.172l-3.374,10a.125.125,0,0,0,.122.174h.906a.28.28,0,0,0,.238-.174l.846-2.508h3.692l.85,2.508a.271.271,0,0,0,.238.174h2a.125.125,0,0,0,.122-.174l-3.374-10A.26.26,0,0,0,135.751,126.305Zm-2.92,6.574,1.48-4.382,1.478,4.382Z" transform="translate(-4.529 -2.495)" fill="#e50012" stroke="rgba(0,0,0,0)" stroke-width="2" fill-rule="evenodd"/>
          <path id="パス_433" data-name="パス 433" d="M148.618,126.305h-1.786a.265.265,0,0,0-.238.172l-3.369,10a.122.122,0,0,0,.122.174h.906a.276.276,0,0,0,.24-.174l.846-2.508h3.689l.846,2.508a.283.283,0,0,0,.238.174h2a.121.121,0,0,0,.122-.174l-3.369-10A.267.267,0,0,0,148.618,126.305Zm-2.911,6.574,1.476-4.382,1.482,4.382Z" transform="translate(8.344 -2.495)" fill="#e50012" stroke="rgba(0,0,0,0)" stroke-width="2" fill-rule="evenodd"/>
          <path id="パス_434" data-name="パス 434" d="M146.252,126.305h-1.874a.181.181,0,0,0-.178.178v4.252h-3.542v-4.252a.185.185,0,0,0-.186-.178H138.6a.185.185,0,0,0-.182.178v9.98a.187.187,0,0,0,.182.188h1.87a.187.187,0,0,0,.186-.188v-4.644H144.2v4.644a.183.183,0,0,0,.178.188h1.874a.183.183,0,0,0,.182-.188v-9.98A.181.181,0,0,0,146.252,126.305Z" transform="translate(3.55 -2.495)" fill="#e50012" stroke="rgba(0,0,0,0)" stroke-width="2" fill-rule="evenodd"/>
          <path id="パス_435" data-name="パス 435" d="M155.124,126.305h-7.583a.185.185,0,0,0-.184.178v.724a.184.184,0,0,0,.184.186h2.682v9.07a.182.182,0,0,0,.176.188h1.874a.182.182,0,0,0,.178-.188v-9.07h2.674a.184.184,0,0,0,.182-.186v-.724A.185.185,0,0,0,155.124,126.305Z" transform="translate(12.488 -2.495)" fill="#e50012" stroke="rgba(0,0,0,0)" stroke-width="2" fill-rule="evenodd"/>
          <path id="パス_436" data-name="パス 436" d="M155.682,130.77c-.808-.6-2.318-1.42-2.318-2.448,0-.85.94-1.1,1.4-1.1a5.085,5.085,0,0,1,2.416.72v-1.084a4.19,4.19,0,0,0-2.416-.566c-1.284,0-3.168.458-3.168,2.716,0,1.4,1.632,2.794,2.276,3.258.832.592,2.126,1.358,2.126,2.4,0,1.106-1.214,1.126-1.636,1.126a7.962,7.962,0,0,1-2.532-.684v1.066a4.94,4.94,0,0,0,2.472.618c1.846,0,3.528-.828,3.528-2.65A4.287,4.287,0,0,0,155.682,130.77Z" transform="translate(16.727 -2.512)" fill="#e50012" stroke="rgba(0,0,0,0)" stroke-width="2" fill-rule="evenodd"/>
          <path id="パス_437" data-name="パス 437" d="M162.9,126.305h-.88a.182.182,0,0,0-.182.178v7.452c0,.828-.43,1.78-2.074,1.78-2.042,0-1.948-1.938-1.948-2.9v-6.336a.181.181,0,0,0-.178-.178h-1.87a.182.182,0,0,0-.186.178v6.336c0,1.85.86,3.92,4.084,3.92,2.462,0,3.416-1.164,3.416-3.056v-7.2A.179.179,0,0,0,162.9,126.305Z" transform="translate(20.717 -2.495)" fill="#e50012" stroke="rgba(0,0,0,0)" stroke-width="2" fill-rule="evenodd"/>
          <path id="パス_438" data-name="パス 438" d="M110.4,139.006h25.7V125.4H110.4Z" transform="translate(-24.466 -3.402)" fill="#e50012" stroke="rgba(0,0,0,0)" stroke-width="2" fill-rule="evenodd"/>
        </g>
        <path id="パス_439" data-name="パス 439" d="M112.742,126.874l5.772,5.814a74.4,74.4,0,0,0,8.168-.878c4.524-.87,6.242-1.29,6.242-1.958,0-.534-3.294-1.314-6.364-1.682a80.461,80.461,0,0,0-9.23-.472l4.342,4.392-3.108.206-5.388-5.44c2.646-.056,6.45.052,8.556.22,2.828.216,11.876,1.074,11.876,2.832,0,1.976-10.594,4.356-17.922,5.468L117.3,133l-6.01-6.05C111.686,126.908,112.186,126.894,112.742,126.874Z" transform="translate(-23.582 -1.959)" fill="#fff" stroke="rgba(0,0,0,0)" stroke-width="2" fill-rule="evenodd"/>
      </g>
    </g>
  </g>
</svg>
