<svg xmlns="http://www.w3.org/2000/svg" width="200" height="120" viewBox="0 0 200 120">
  <g id="グループ_3169" data-name="グループ 3169" transform="translate(-386 -1905.586)">
    <rect id="長方形_709" data-name="長方形 709" width="200" height="120" transform="translate(386 1905.586)" fill="#ffb423"/>
    <g id="グループ_2800" data-name="グループ 2800" transform="translate(224.675 1763.102)">
      <path id="パス_4548" data-name="パス 4548" d="M215.591,234.074l10.988-25.53H296.07l10.988,25.53Z" fill="#fff"/>
      <g id="グループ_2806" data-name="グループ 2806">
        <rect id="長方形_711" data-name="長方形 711" width="43.451" height="27.459" transform="translate(239.774 165.719)" fill="#fc3"/>
        <g id="グループ_2804" data-name="グループ 2804">
          <path id="パス_4549" data-name="パス 4549" d="M213.769,236.475a1.2,1.2,0,0,1-1.1-1.675l12.02-27.931a1.2,1.2,0,0,1,1.1-.725h30.094a1.2,1.2,0,1,1,0,2.4h-29.3l-10.988,25.53h91.467l-10.988-25.53H267.132a1.2,1.2,0,0,1,0-2.4h29.729a1.2,1.2,0,0,1,1.1.725l12.02,27.931a1.2,1.2,0,0,1-1.1,1.675Z"/>
          <g id="グループ_2800-2" data-name="グループ 2800">
            <path id="パス_4550" data-name="パス 4550" d="M227.951,228.594a1.2,1.2,0,0,1,0-2.4h15.755a1.2,1.2,0,0,1,0,2.4Z"/>
          </g>
          <g id="グループ_2801" data-name="グループ 2801">
            <path id="パス_4551" data-name="パス 4551" d="M253.13,228.594a1.2,1.2,0,1,1,0-2.4h15.754a1.2,1.2,0,1,1,0,2.4Z"/>
          </g>
          <g id="グループ_2802" data-name="グループ 2802">
            <path id="パス_4552" data-name="パス 4552" d="M278.308,228.594a1.2,1.2,0,0,1,0-2.4h15.755a1.2,1.2,0,0,1,0,2.4Z"/>
          </g>
          <path id="パス_4553" data-name="パス 4553" d="M240.366,194.153a2.458,2.458,0,0,1-2.455-2.455V166.68a2.458,2.458,0,0,1,2.455-2.455h41.917a2.457,2.457,0,0,1,2.455,2.455v26.2a1.2,1.2,0,1,1-2.4,0v-26.2l-41.972-.055-.054,25.073,39.686.055a1.2,1.2,0,1,1,0,2.4Z"/>
          <g id="グループ_2803" data-name="グループ 2803">
            <path id="パス_4554" data-name="パス 4554" d="M259.289,212.182a1.2,1.2,0,0,1-1.2-1.2v-16.76a1.2,1.2,0,0,1,2.4,0v16.76A1.2,1.2,0,0,1,259.289,212.182Z"/>
            <path id="パス_4555" data-name="パス 4555" d="M263.481,212.182a1.2,1.2,0,0,1-1.2-1.2v-16.76a1.2,1.2,0,0,1,2.4,0v16.76A1.2,1.2,0,0,1,263.481,212.182Z"/>
          </g>
          <path id="パス_4556" data-name="パス 4556" d="M213.769,241.006a1.2,1.2,0,0,1-1.2-1.2v-4.532a1.2,1.2,0,1,1,2.4,0v3.332H307.68v-3.332a1.2,1.2,0,0,1,2.4,0v4.532a1.2,1.2,0,0,1-1.2,1.2Z"/>
        </g>
        <g id="グループ_2805" data-name="グループ 2805">
          <path id="パス_4557" data-name="パス 4557" d="M245.215,178.165a2.343,2.343,0,0,0,1.207-.22q.332-.219.332-1.02v-1.84a1.025,1.025,0,0,0-.256-.72.9.9,0,0,0-.694-.28.8.8,0,0,0-.731.34,1.222,1.222,0,0,0-.219.66v1.16h-1.938v-1.179a3.1,3.1,0,0,1,.228-1.18,2.879,2.879,0,0,1,.627-.961,3.114,3.114,0,0,1,.931-.64,2.742,2.742,0,0,1,1.14-.24,2.435,2.435,0,0,1,1.321.33,3.088,3.088,0,0,1,.788.67,4.331,4.331,0,0,1,.333.48,2.408,2.408,0,0,1,.237.581,8.366,8.366,0,0,1,.171,1.96q0,.74-.028,1.2a2.621,2.621,0,0,1-.143.759,1.537,1.537,0,0,1-.37.541,4.452,4.452,0,0,1-.656.479,3.752,3.752,0,0,1,.694.561,1.657,1.657,0,0,1,.351.6,3.268,3.268,0,0,1,.133.851q.02.489.019,1.25,0,.7-.028,1.159a6.269,6.269,0,0,1-.086.761,2.5,2.5,0,0,1-.152.54,3.5,3.5,0,0,1-.247.46,3.137,3.137,0,0,1-.921.929,2.631,2.631,0,0,1-1.473.37,3.249,3.249,0,0,1-.969-.16,2.606,2.606,0,0,1-.931-.519,2.808,2.808,0,0,1-.693-.941,3.286,3.286,0,0,1-.276-1.42v-1.16h1.938v1.061a1.2,1.2,0,0,0,.257.789.931.931,0,0,0,1.387,0,1.258,1.258,0,0,0,.256-.829v-2.04a1.453,1.453,0,0,0-.3-1.1.83.83,0,0,0-.465-.2,6.091,6.091,0,0,0-.77-.04Z"/>
          <path id="パス_4558" data-name="パス 4558" d="M250.25,186.4v-14.24h2.907a4.093,4.093,0,0,1,1.406.221,2.688,2.688,0,0,1,1.1.779,3.115,3.115,0,0,1,.684,1.311,8.581,8.581,0,0,1,.19,2.029,10.665,10.665,0,0,1-.1,1.62,3.494,3.494,0,0,1-.447,1.24,2.9,2.9,0,0,1-1.064,1.09,3.431,3.431,0,0,1-1.748.391h-.988V186.4Zm1.938-12.32v4.84h.931a1.9,1.9,0,0,0,.912-.18,1.108,1.108,0,0,0,.475-.5,1.907,1.907,0,0,0,.181-.74c.019-.293.028-.619.028-.98q0-.5-.019-.95a2.16,2.16,0,0,0-.171-.79,1.113,1.113,0,0,0-.456-.519,1.733,1.733,0,0,0-.874-.181Z"/>
          <path id="パス_4559" data-name="パス 4559" d="M257.983,186.4v-14.24h1.938v12.2h3.838v2.04Z"/>
          <path id="パス_4560" data-name="パス 4560" d="M264.139,186.4l3.021-14.24h1.615L271.8,186.4h-1.938l-.57-3.059h-2.641l-.57,3.059Zm4.788-4.98-.95-5.159h-.038l-.95,5.159Z"/>
          <path id="パス_4561" data-name="パス 4561" d="M272.67,186.4v-14.24h1.862l2.926,8.58h.038v-8.58h1.938V186.4H277.61l-2.964-8.559h-.038V186.4Z"/>
        </g>
      </g>
    </g>
  </g>
</svg>
