<svg xmlns="http://www.w3.org/2000/svg" width="200" height="120" viewBox="0 0 200 120">
  <g id="グループ_3168" data-name="グループ 3168" transform="translate(-612 -1654.586)">
    <rect id="長方形_705" data-name="長方形 705" width="200" height="120" transform="translate(612 1654.586)" fill="#ffb423"/>
    <g id="グループ_2779" data-name="グループ 2779" transform="translate(285.574 1633.057)">
      <path id="パス_4404" data-name="パス 4404" d="M427.923,99.582a1.03,1.03,0,0,0-.441-.293,1.152,1.152,0,0,0-.534-.144v-.5l-.044.5-.471.064a1.488,1.488,0,0,0-.576.361l-.261.345a1.591,1.591,0,0,0-.163.842,1.039,1.039,0,0,0,.112.541,1.126,1.126,0,0,0,.3.492,1.013,1.013,0,0,0,.441.294,1.15,1.15,0,0,0,.537.145l.511-.066a1.459,1.459,0,0,0,.575-.361l.263-.346a1.462,1.462,0,0,0,.161-.68V100.6a.993.993,0,0,0-.111-.519A1.131,1.131,0,0,0,427.923,99.582Z" fill="none"/>
      <path id="パス_4405" data-name="パス 4405" d="M427.924,89.309a1.024,1.024,0,0,0-.442-.295,1.142,1.142,0,0,0-.534-.145v-.5l-.044.5-.471.065a1.454,1.454,0,0,0-.575.361l-.261.344a1.587,1.587,0,0,0-.164.843,1.043,1.043,0,0,0,.112.541,1.126,1.126,0,0,0,.3.492,1.013,1.013,0,0,0,.441.294,1.142,1.142,0,0,0,.533.144l.515-.065a1.463,1.463,0,0,0,.575-.362l.263-.345a1.462,1.462,0,0,0,.161-.68V90.32a.988.988,0,0,0-.111-.519A1.119,1.119,0,0,0,427.924,89.309Z" fill="none"/>
      <path id="パス_4406" data-name="パス 4406" d="M427.923,79.032a1.03,1.03,0,0,0-.441-.294,1.152,1.152,0,0,0-.534-.144v-.5l-.044.5-.471.064a1.469,1.469,0,0,0-.575.362l-.261.343a1.593,1.593,0,0,0-.164.844,1.037,1.037,0,0,0,.112.54,1.113,1.113,0,0,0,.3.491,1,1,0,0,0,.442.295,1.133,1.133,0,0,0,.533.145l.515-.066a1.448,1.448,0,0,0,.575-.361l.263-.346a1.453,1.453,0,0,0,.161-.678v-.183a.994.994,0,0,0-.111-.52A1.133,1.133,0,0,0,427.923,79.032Z" fill="none"/>
      <path id="パス_4407" data-name="パス 4407" d="M416.914,89.309a1.006,1.006,0,0,0-.442-.295,1.136,1.136,0,0,0-.533-.145v-.5l-.044.5-.471.065a1.458,1.458,0,0,0-.576.361l-.261.345a1.591,1.591,0,0,0-.163.842,1.039,1.039,0,0,0,.111.539,1.133,1.133,0,0,0,.3.494,1.016,1.016,0,0,0,.44.294,1.154,1.154,0,0,0,.534.144l.515-.065a1.463,1.463,0,0,0,.575-.362l.262-.344a1.455,1.455,0,0,0,.162-.682V90.32a.991.991,0,0,0-.111-.519A1.111,1.111,0,0,0,416.914,89.309Z" fill="none"/>
      <path id="パス_4408" data-name="パス 4408" d="M416.913,99.582a1.019,1.019,0,0,0-.441-.293,1.145,1.145,0,0,0-.533-.144v-.5l-.044.5-.441.06a1.442,1.442,0,0,0-.607.365l-.26.345a1.591,1.591,0,0,0-.163.842,1.034,1.034,0,0,0,.111.539,1.133,1.133,0,0,0,.3.494,1.016,1.016,0,0,0,.44.294,1.16,1.16,0,0,0,.538.145l.511-.066a1.459,1.459,0,0,0,.575-.361l.262-.345a1.455,1.455,0,0,0,.162-.682V100.6a.993.993,0,0,0-.111-.519A1.122,1.122,0,0,0,416.913,99.582Z" fill="none"/>
      <path id="パス_4409" data-name="パス 4409" d="M416.913,79.032a1.013,1.013,0,0,0-.441-.294,1.145,1.145,0,0,0-.533-.144v-.5l-.044.5-.471.064a1.473,1.473,0,0,0-.576.362l-.261.344a1.6,1.6,0,0,0-.163.843,1.033,1.033,0,0,0,.111.538,1.119,1.119,0,0,0,.3.493,1,1,0,0,0,.441.295,1.145,1.145,0,0,0,.534.145l.515-.066a1.448,1.448,0,0,0,.575-.361l.262-.345a1.449,1.449,0,0,0,.162-.68v-.182a1,1,0,0,0-.111-.52A1.124,1.124,0,0,0,416.913,79.032Z" fill="none"/>
      <path id="パス_4410" data-name="パス 4410" d="M438.931,99.582a1.016,1.016,0,0,0-.44-.293,1.149,1.149,0,0,0-.534-.144v-.5l-.044.5-.471.064a1.488,1.488,0,0,0-.576.361l-.26.345a1.573,1.573,0,0,0-.163.842,1.015,1.015,0,0,0,.111.539,1.132,1.132,0,0,0,.3.494,1.018,1.018,0,0,0,.441.294,1.154,1.154,0,0,0,.538.145l.51-.066a1.452,1.452,0,0,0,.575-.361l.261-.345a1.43,1.43,0,0,0,.163-.682V100.6a1,1,0,0,0-.111-.519A1.113,1.113,0,0,0,438.931,99.582Z" fill="none"/>
      <path id="パス_4411" data-name="パス 4411" d="M441.586,55.974c-2.156-.073-4.519-.108-7.224-.108-2.417,0-4.835.027-7.252.054s-4.834.054-7.245.054c-.845,0-1.694-.015-2.545-.03s-1.7-.029-2.544-.029-1.68.014-2.513.058c-2.979.157-3.086,2.993-2.917,6.684.025.543.048,1.056.048,1.511,0,.487-.029,1.051-.06,1.656-.2,3.814-.12,6.987,2.882,7.181l6.1.012q4.419.011,8.841.014c6.121,0,10.841-.032,15.3-.1,1.533-.263,2.219-1.436,2.219-3.914V62.9c0-.351.009-.721.018-1.1C444.777,58.454,444.6,56.074,441.586,55.974Z" fill="none"/>
      <path id="パス_4412" data-name="パス 4412" d="M438.932,89.309a1.009,1.009,0,0,0-.441-.295,1.139,1.139,0,0,0-.534-.145v-.5l-.044.5-.471.065a1.454,1.454,0,0,0-.575.361l-.261.345a1.573,1.573,0,0,0-.163.842,1.02,1.02,0,0,0,.111.539,1.132,1.132,0,0,0,.3.494,1.018,1.018,0,0,0,.441.294,1.148,1.148,0,0,0,.533.144l.515-.065a1.456,1.456,0,0,0,.575-.362l.261-.344a1.43,1.43,0,0,0,.163-.682V90.32a.99.99,0,0,0-.111-.519A1.117,1.117,0,0,0,438.932,89.309Z" fill="none"/>
      <path id="パス_4413" data-name="パス 4413" d="M438.931,79.032a1.016,1.016,0,0,0-.44-.294,1.149,1.149,0,0,0-.534-.144v-.5l-.044.5-.471.064a1.469,1.469,0,0,0-.575.362l-.261.344a1.579,1.579,0,0,0-.163.843,1.014,1.014,0,0,0,.111.538,1.118,1.118,0,0,0,.3.493,1,1,0,0,0,.442.295,1.139,1.139,0,0,0,.533.145l.515-.066a1.441,1.441,0,0,0,.575-.361l.261-.345a1.425,1.425,0,0,0,.163-.68v-.182a1,1,0,0,0-.111-.52A1.115,1.115,0,0,0,438.931,79.032Z" fill="none"/>
      <path id="パス_4414" data-name="パス 4414" d="M451.024,77.333a1.24,1.24,0,0,1-.527.314l-.431-.006a1.407,1.407,0,0,1-1.043-.353c-.478-.5-.449-1.586-.424-2.547.008-.3.015-.6.01-.868V61.481c0-.854.035-1.732.07-2.619a33.259,33.259,0,0,0-.092-5.624c-.455-3.419-3.8-3.419-5.41-3.419l-1.409.013q-2.177.009-4.352.008-4.777,0-9.556-.023t-9.56-.022q-4.377,0-8.757.037c-2.6.034-4.148,1.854-4.148,4.866v52.881c0,1.6,0,5.361,3.924,5.56q3.792.018,7.589.017,4.509,0,9.021-.012t9.02-.013q2.691,0,5.382.008c.385,0,.823.022,1.289.047.546.027,1.129.057,1.711.057a6.3,6.3,0,0,0,3.781-.934c1.835-1.435,1.677-4.372,1.551-6.733-.028-.517-.054-1-.054-1.423V83.628a1.343,1.343,0,0,1,1.446-1.382,1.569,1.569,0,0,1,1.031.363l.353.313V76.916Zm-33.7,23.443a1.455,1.455,0,0,1-.162.682l-.262.345a1.459,1.459,0,0,1-.575.361l-.511.066a1.16,1.16,0,0,1-.538-.145,1.016,1.016,0,0,1-.44-.294,1.133,1.133,0,0,1-.3-.494,1.034,1.034,0,0,1-.111-.539,1.591,1.591,0,0,1,.163-.842l.26-.345a1.442,1.442,0,0,1,.607-.365l.441-.06.044-.5v.5a1.145,1.145,0,0,1,.533.144,1.019,1.019,0,0,1,.441.293,1.122,1.122,0,0,1,.3.494.993.993,0,0,1,.111.519Zm0-10.275a1.455,1.455,0,0,1-.162.682l-.262.344a1.463,1.463,0,0,1-.575.362l-.515.065a1.154,1.154,0,0,1-.534-.144,1.016,1.016,0,0,1-.44-.294,1.133,1.133,0,0,1-.3-.494,1.039,1.039,0,0,1-.111-.539,1.591,1.591,0,0,1,.163-.842l.261-.345a1.458,1.458,0,0,1,.576-.361l.471-.065.044-.5v.5a1.136,1.136,0,0,1,.533.145,1.006,1.006,0,0,1,.442.295,1.111,1.111,0,0,1,.3.492.991.991,0,0,1,.111.519Zm0-10.274a1.449,1.449,0,0,1-.162.68l-.262.345a1.448,1.448,0,0,1-.575.361l-.515.066a1.145,1.145,0,0,1-.534-.145,1,1,0,0,1-.441-.295,1.119,1.119,0,0,1-.3-.493,1.033,1.033,0,0,1-.111-.538,1.6,1.6,0,0,1,.163-.843l.261-.344a1.473,1.473,0,0,1,.576-.362l.471-.064.044-.5v.5a1.145,1.145,0,0,1,.533.144,1.013,1.013,0,0,1,.441.294,1.124,1.124,0,0,1,.3.493,1,1,0,0,1,.111.52Zm11.009,20.55a1.462,1.462,0,0,1-.161.68l-.263.346a1.459,1.459,0,0,1-.575.361l-.511.066a1.15,1.15,0,0,1-.537-.145,1.013,1.013,0,0,1-.441-.294,1.126,1.126,0,0,1-.3-.492,1.039,1.039,0,0,1-.112-.541,1.591,1.591,0,0,1,.163-.842l.261-.345a1.488,1.488,0,0,1,.576-.361l.471-.064.044-.5v.5a1.152,1.152,0,0,1,.534.144,1.03,1.03,0,0,1,.441.293,1.131,1.131,0,0,1,.3.494.993.993,0,0,1,.111.519Zm0-10.275a1.462,1.462,0,0,1-.161.68l-.263.345a1.463,1.463,0,0,1-.575.362l-.515.065a1.142,1.142,0,0,1-.533-.144,1.013,1.013,0,0,1-.441-.294,1.126,1.126,0,0,1-.3-.492,1.043,1.043,0,0,1-.112-.541,1.587,1.587,0,0,1,.164-.843l.261-.344a1.454,1.454,0,0,1,.575-.361l.471-.065.044-.5v.5a1.142,1.142,0,0,1,.534.145,1.024,1.024,0,0,1,.442.295,1.119,1.119,0,0,1,.3.492.988.988,0,0,1,.111.519Zm0-10.274a1.453,1.453,0,0,1-.161.678l-.263.346a1.448,1.448,0,0,1-.575.361l-.515.066a1.133,1.133,0,0,1-.533-.145,1,1,0,0,1-.442-.295,1.113,1.113,0,0,1-.3-.491,1.037,1.037,0,0,1-.112-.54,1.593,1.593,0,0,1,.164-.844l.261-.343a1.469,1.469,0,0,1,.575-.362l.471-.064.044-.5v.5a1.152,1.152,0,0,1,.534.144,1.03,1.03,0,0,1,.441.294,1.133,1.133,0,0,1,.3.493.994.994,0,0,1,.111.52Zm11.009,20.548a1.43,1.43,0,0,1-.163.682l-.261.345a1.452,1.452,0,0,1-.575.361l-.51.066a1.154,1.154,0,0,1-.538-.145,1.018,1.018,0,0,1-.441-.294,1.132,1.132,0,0,1-.3-.494,1.015,1.015,0,0,1-.111-.539,1.573,1.573,0,0,1,.163-.842l.26-.345a1.488,1.488,0,0,1,.576-.361l.471-.064.044-.5v.5a1.149,1.149,0,0,1,.534.144,1.016,1.016,0,0,1,.44.293,1.113,1.113,0,0,1,.3.494,1,1,0,0,1,.111.519Zm0-10.275a1.43,1.43,0,0,1-.163.682l-.261.344a1.456,1.456,0,0,1-.575.362l-.515.065a1.148,1.148,0,0,1-.533-.144,1.018,1.018,0,0,1-.441-.294,1.132,1.132,0,0,1-.3-.494,1.02,1.02,0,0,1-.111-.539,1.573,1.573,0,0,1,.163-.842l.261-.345a1.454,1.454,0,0,1,.575-.361l.471-.065.044-.5v.5a1.139,1.139,0,0,1,.534.145,1.009,1.009,0,0,1,.441.295,1.117,1.117,0,0,1,.3.492.99.99,0,0,1,.111.519Zm0-10.274a1.425,1.425,0,0,1-.163.68l-.261.345a1.441,1.441,0,0,1-.575.361l-.515.066a1.139,1.139,0,0,1-.533-.145,1,1,0,0,1-.442-.295,1.118,1.118,0,0,1-.3-.493,1.014,1.014,0,0,1-.111-.538,1.579,1.579,0,0,1,.163-.843l.261-.344a1.469,1.469,0,0,1,.575-.362l.471-.064.044-.5v.5a1.149,1.149,0,0,1,.534.144,1.016,1.016,0,0,1,.44.294,1.115,1.115,0,0,1,.3.493,1,1,0,0,1,.111.52ZM444.7,61.805c-.009.379-.018.749-.018,1.1v6.11c0,2.478-.686,3.651-2.219,3.914-4.464.07-9.184.1-15.3.1q-4.422,0-8.841-.014l-6.1-.012c-3-.194-3.082-3.367-2.882-7.181.031-.6.06-1.169.06-1.656,0-.455-.023-.968-.048-1.511-.169-3.691-.062-6.527,2.917-6.684.833-.044,1.672-.058,2.513-.058s1.7.015,2.544.029,1.7.03,2.545.03c2.411,0,4.827-.028,7.245-.054s4.835-.054,7.252-.054c2.7,0,5.068.035,7.224.108C444.6,56.074,444.777,58.454,444.7,61.805Z" fill="#fff"/>
      <g id="グループ_2697" data-name="グループ 2697">
        <path id="パス_4415" data-name="パス 4415" d="M424.347,70.115c-4.611,0-8.163-.024-11.515-.078l-.479-.008-.012-.478c-.094-3.538-.084-6.773.03-10.18l.016-.48.481,0q4.524-.024,9.052-.022,5.565,0,11.128.018l8.649.015.022.477c.09,2.018.076,4.023.061,5.961-.009,1.217-.018,2.437,0,3.672l-.009.591,0,.506-.506,0q-2.1-.009-4.2-.008-3.181,0-6.361.01T424.347,70.115Z" fill="#fc3"/>
        <path id="パス_4416" data-name="パス 4416" d="M412.1,59.41c-.117.075-.2.179,0,0Z" fill="#ffdc50"/>
        <path id="パス_4417" data-name="パス 4417" d="M417.825,80.045a2.168,2.168,0,0,0-.571-1.379,2.174,2.174,0,0,0-1.379-.571l-.518.069a1.946,1.946,0,0,0-.861.5c-.1.131-.2.263-.3.395a2.064,2.064,0,0,0-.266,1.167,2,2,0,0,0,1.95,1.95l.518-.07a1.94,1.94,0,0,0,.861-.5c.1-.132.2-.263.3-.4A2.072,2.072,0,0,0,417.825,80.045Z" fill="#323232"/>
        <path id="パス_4418" data-name="パス 4418" d="M428.834,80.045a2.168,2.168,0,0,0-.571-1.379,2.174,2.174,0,0,0-1.379-.571l-.518.069a1.951,1.951,0,0,0-.861.5l-.3.395a2.064,2.064,0,0,0-.266,1.167,2,2,0,0,0,1.95,1.95l.518-.07a1.935,1.935,0,0,0,.861-.5l.3-.4A2.064,2.064,0,0,0,428.834,80.045Z" fill="#323232"/>
        <path id="パス_4419" data-name="パス 4419" d="M439.843,80.045a1.473,1.473,0,0,0-.168-.752,2,2,0,0,0-1.782-1.2l-.518.069a1.957,1.957,0,0,0-.861.5l-.3.395a2.072,2.072,0,0,0-.266,1.167,2,2,0,0,0,1.95,1.95l.519-.07a1.937,1.937,0,0,0,.86-.5c.1-.132.2-.263.3-.4A2.064,2.064,0,0,0,439.843,80.045Z" fill="#323232"/>
        <path id="パス_4420" data-name="パス 4420" d="M417.825,90.32a2,2,0,0,0-1.95-1.95l-.518.07a1.935,1.935,0,0,0-.861.5l-.3.395a2.064,2.064,0,0,0-.266,1.167,1.885,1.885,0,0,0,1.2,1.783,1.457,1.457,0,0,0,.751.167l.518-.069a1.951,1.951,0,0,0,.861-.5l.3-.394A2.077,2.077,0,0,0,417.825,90.32Z" fill="#323232"/>
        <path id="パス_4421" data-name="パス 4421" d="M428.834,90.32a2,2,0,0,0-1.95-1.95l-.518.07a1.94,1.94,0,0,0-.861.5c-.1.132-.2.263-.3.395a2.064,2.064,0,0,0-.266,1.167,1.885,1.885,0,0,0,1.2,1.783,1.459,1.459,0,0,0,.751.167l.518-.069a1.946,1.946,0,0,0,.861-.5l.3-.394A2.069,2.069,0,0,0,428.834,90.32Z" fill="#323232"/>
        <path id="パス_4422" data-name="パス 4422" d="M439.843,90.32a2,2,0,0,0-1.95-1.95l-.518.07a1.945,1.945,0,0,0-.861.5c-.1.132-.2.263-.3.395a2.072,2.072,0,0,0-.266,1.167,1.885,1.885,0,0,0,1.2,1.783,1.459,1.459,0,0,0,.751.167l.519-.069a1.948,1.948,0,0,0,.86-.5l.3-.394A2.069,2.069,0,0,0,439.843,90.32Z" fill="#323232"/>
        <path id="パス_4423" data-name="パス 4423" d="M416.626,98.813a1.47,1.47,0,0,0-.751-.168l-.518.07a1.953,1.953,0,0,0-.861.5l-.3.395a2.065,2.065,0,0,0-.266,1.168,2,2,0,0,0,1.95,1.95l.518-.07a1.951,1.951,0,0,0,.861-.5l.3-.394a2.075,2.075,0,0,0,.266-1.168,1.881,1.881,0,0,0-1.2-1.782Z" fill="#323232"/>
        <path id="パス_4424" data-name="パス 4424" d="M427.635,98.813a1.47,1.47,0,0,0-.751-.168l-.518.07a1.959,1.959,0,0,0-.861.5c-.1.132-.2.263-.3.395a2.065,2.065,0,0,0-.266,1.168,2,2,0,0,0,1.95,1.95l.518-.07a1.946,1.946,0,0,0,.861-.5l.3-.394a2.067,2.067,0,0,0,.266-1.168,1.881,1.881,0,0,0-1.2-1.782Z" fill="#323232"/>
        <path id="パス_4425" data-name="パス 4425" d="M438.645,98.813a1.474,1.474,0,0,0-.752-.168l-.518.07a1.964,1.964,0,0,0-.861.5c-.1.132-.2.263-.3.395a2.073,2.073,0,0,0-.266,1.168,2,2,0,0,0,1.95,1.95l.519-.07a1.948,1.948,0,0,0,.86-.5l.3-.394a2.067,2.067,0,0,0,.266-1.168,1.882,1.882,0,0,0-1.2-1.782Z" fill="#323232"/>
      </g>
      <path id="パス_4426" data-name="パス 4426" d="M409.811,116.093a7.074,7.074,0,0,1-7.248-6.053,24.969,24.969,0,0,1-.089-3.539c.011-.474.021-.946.021-1.413V56.7c-.284-3.415.311-5.928,1.767-7.512,1.41-1.533,3.615-2.278,6.744-2.278.273,0,.555.007.841.019,1.918.005,3.817.006,5.716.006q4.766,0,9.532-.009t9.529-.01q4.007,0,8.01.013a6.774,6.774,0,0,1,5.043,2.229,7.582,7.582,0,0,1,1.834,5.8l0,21.293a1.308,1.308,0,0,1-.379.971l-.073.074a1.32,1.32,0,0,1-.711.38l-.281-.041a1.4,1.4,0,0,1-1.039-.352c-.483-.5-.454-1.605-.428-2.578.008-.291.015-.577.011-.846V61.481c0-.854.035-1.732.07-2.619a33.259,33.259,0,0,0-.092-5.624c-.455-3.419-3.8-3.419-5.41-3.419l-1.407.013q-2.193.009-4.381.008-4.775,0-9.551-.023t-9.554-.022q-4.369,0-8.739.037c-2.6.034-4.15,1.854-4.15,4.866V107.58c0,1.6,0,5.358,3.9,5.558,2.553.013,5.082.018,7.613.018q4.509,0,9.02-.012t9.021-.013q2.689,0,5.38.008c.387,0,.825.022,1.291.047.547.027,1.13.057,1.712.057a6.291,6.291,0,0,0,3.779-.933c1.836-1.436,1.678-4.373,1.552-6.735-.028-.517-.054-1-.054-1.423V83.628a1.343,1.343,0,0,1,1.446-1.382,1.569,1.569,0,0,1,1.031.363c.507.445.466,1.334.427,2.195a8.672,8.672,0,0,0,0,1.173c0,2.505.008,5.056.018,7.609.02,5.018.04,10.206-.02,15.305a7.037,7.037,0,0,1-7.194,7.148q-4,.006-8.008,0l-19.474-.008-6.077,0A8.868,8.868,0,0,1,409.811,116.093Z" fill="#323232"/>
      <path id="パス_4427" data-name="パス 4427" d="M427.2,73.03q-4.483,0-8.967-.014L412.184,73c-2.97-.192-3.05-3.365-2.85-7.179.031-.6.06-1.169.06-1.656,0-.455-.023-.968-.048-1.511-.169-3.691-.062-6.527,2.917-6.684l.82,0c3.168,0,6.34-.025,9.513-.048s6.348-.048,9.521-.048c3.545,0,6.644.031,9.474.095,3.011.1,3.186,2.48,3.1,5.831-.009.379-.018.749-.018,1.1v6.11c0,2.478-.686,3.651-2.294,3.921C438.06,73,433.211,73.03,427.2,73.03Zm-14.856-3.479.012.473.475.013c2.434.063,4.843.071,6.878.071l22.066,0,0-.5c-.007-1.174,0-2.337.01-3.5.016-2.19.033-4.455-.06-6.727l-.02-.479-8.651-.015q-5.562-.013-11.128-.018-4.527,0-9.052.022l-.482,0S412.252,66.179,412.341,69.551Z" fill="#323232"/>
    </g>
  </g>
</svg>
