<svg xmlns="http://www.w3.org/2000/svg" width="200" height="120" viewBox="0 0 200 120">
  <g id="グループ_3171" data-name="グループ 3171" transform="translate(-838 -1905.586)">
    <rect id="長方形_707" data-name="長方形 707" width="200" height="120" transform="translate(838 1905.586)" fill="#ffb423"/>
    <g id="グループ_2807" data-name="グループ 2807" transform="translate(365.95 1763.58)">
      <path id="パス_4562" data-name="パス 4562" d="M596.818,220.815a.92.92,0,0,0-.051-.332,4.7,4.7,0,0,0,.04-.58l-.074-10.257c-.023-3.317-3.088-7.628-5-10a5.469,5.469,0,0,0,1.322-3.745,3.558,3.558,0,0,0-1.263-2.948c-.462-.338-1.356-.725-4.19-.725l-.338,0c-1.294-2.919-2.293-4.984-2.968-6.137-2.325-3.954-6.291-6.024-12.125-6.325-3.9-.2-8.462-.3-8.967-.306h-.1c-.842.029-5.228.19-8.933.432-5.829.391-9.766,2.518-12.036,6.5-.661,1.16-1.628,3.232-2.875,6.159-3.252,0-4.226.422-4.711.789a3.556,3.556,0,0,0-1.215,2.958,5.346,5.346,0,0,0,1.531,3.869c-2.008,2.519-5.211,6.959-5.189,9.6l.072,10.612a1.951,1.951,0,0,0,.052.473,1.785,1.785,0,0,0-.055.437l.057,7.711a3.483,3.483,0,0,0,2.991,3.3,14.4,14.4,0,0,0,2.559.147l.012,1.7a4.049,4.049,0,0,0,4.05,4.025h.028l4.073-.028a4.056,4.056,0,0,0,4.023-4.079l-.011-1.713c.45,0,.9,0,1.354,0,2.408,0,4.542.024,6.539.07l.01,1.474a.932.932,0,0,0,.932.926h.006l14.362-.1a.931.931,0,0,0,.925-.938l-.01-1.476c2.754-.111,5.579-.176,8.258-.215l.012,1.754a4.051,4.051,0,0,0,4.051,4.025h.028l4.073-.027a4.053,4.053,0,0,0,4.023-4.079l-.012-1.78a9.526,9.526,0,0,0,1.881-.13c1.835-.513,2.924-1.759,2.913-3.33Z" fill="#fff"/>
      <path id="パス_4563" data-name="パス 4563" d="M584.281,209.229h-.034a4.938,4.938,0,0,0-3.9,7.912.932.932,0,0,0,1.306.181c.005,0,.007-.01.012-.014l.257.15c-.009.018-.025.03-.032.048a.932.932,0,0,0,.5,1.219,4.893,4.893,0,0,0,1.886.375h.035a4.936,4.936,0,0,0-.033-9.871Z" fill="#fc3"/>
      <g id="グループ_2815" data-name="グループ 2815">
        <g id="グループ_2813" data-name="グループ 2813">
          <path id="パス_4564" data-name="パス 4564" d="M574.371,172.045l12.091-17.777,50.557,32.727-11.45,18.518Z" fill="#fc3"/>
          <g id="グループ_2812" data-name="グループ 2812">
            <g id="グループ_2807-2" data-name="グループ 2807">
              <path id="パス_4565" data-name="パス 4565" d="M625.367,206.253a.992.992,0,0,1-.831-1.53l11.1-17.125a.409.409,0,0,0-.121-.566L586.9,155.5a.408.408,0,0,0-.566.121l-10.385,16.017a.411.411,0,0,0,.121.566l47.838,31.023a.991.991,0,1,1-1.078,1.663L574.993,173.87a2.391,2.391,0,0,1-.706-3.307l10.384-16.017a2.391,2.391,0,0,1,3.306-.705l48.618,31.528a2.394,2.394,0,0,1,.706,3.307L626.2,205.8A.992.992,0,0,1,625.367,206.253Z"/>
            </g>
            <g id="グループ_2811" data-name="グループ 2811">
              <g id="グループ_2810" data-name="グループ 2810">
                <g id="グループ_2809" data-name="グループ 2809">
                  <path id="パス_4566" data-name="パス 4566" d="M536.168,232.461a19.411,19.411,0,0,1-3.377-.15,3.483,3.483,0,0,1-2.991-3.3l-.057-7.711a1.785,1.785,0,0,1,.055-.437,1.951,1.951,0,0,1-.052-.473l-.072-10.612c-.022-2.642,3.181-7.082,5.189-9.6a5.346,5.346,0,0,1-1.531-3.869,3.556,3.556,0,0,1,1.215-2.958c.485-.367,1.459-.788,4.711-.789,1.247-2.927,2.214-5,2.875-6.159,2.27-3.984,6.207-6.111,12.036-6.5,3.705-.242,8.091-.4,8.933-.432h.1c.505.01,5.071.1,8.967.306,5.834.3,9.8,2.371,12.125,6.325.675,1.153,1.674,3.218,2.968,6.137l.338,0c2.834,0,3.728.387,4.19.725a3.558,3.558,0,0,1,1.263,2.948,5.469,5.469,0,0,1-1.322,3.745c1.913,2.37,4.978,6.681,5,10l.074,10.257a4.7,4.7,0,0,1-.04.58.92.92,0,0,1,.051.332l.052,7.724c.011,1.571-1.078,2.817-2.913,3.33-.467.127-1.637.146-6.441.171-4.473.024-10.6.056-16.347.3h0a1.132,1.132,0,0,1-.092-2.263c5.791-.244,11.941-.276,16.431-.3,2.679-.013,5.45-.028,5.889-.1.543-.156,1.218-.484,1.213-1.124l-.052-7.658a.8.8,0,0,1-.052-.217,1.093,1.093,0,0,1-.005-.28l.017-.149a2.9,2.9,0,0,0,.029-.332l-.075-10.258c-.014-2.133-2.048-5.8-5.309-9.562a1.131,1.131,0,0,1,.37-1.764l.255-.114a2.575,2.575,0,0,0,.328-.161,3.189,3.189,0,0,0,.678-2.14,1.55,1.55,0,0,0-.341-1.141c-.011-.006-.484-.285-2.9-.285-.3,0-.628.005-.989.015h0a1.137,1.137,0,0,1-1.065-.677c-1.388-3.161-2.478-5.439-3.153-6.59-1.935-3.292-5.2-4.947-10.29-5.21-3.663-.191-8.026-.287-8.864-.3-1.23.044-5.372.2-8.869.428-5.082.341-8.33,2.046-10.22,5.365-.655,1.151-1.71,3.438-3.051,6.616a1.131,1.131,0,0,1-1.043.692c-.275-.006-.515-.008-.741-.008-2.781,0-3.338.325-3.36.338a1.517,1.517,0,0,0-.308,1.133,3.208,3.208,0,0,0,.7,2.129,3.852,3.852,0,0,0,.69.325,1.166,1.166,0,0,1,.732.8,1.135,1.135,0,0,1-.234,1c-3.173,3.758-5.557,7.718-5.543,9.211l.071,10.613a2.6,2.6,0,0,0,.032.294l.019.132a1.154,1.154,0,0,1,0,.322c-.013.083-.031.162-.051.241l.058,7.635c0,.738.871,1.024,1.245,1.113a28.178,28.178,0,0,0,2.851.089c1.346,0,3.015-.019,4.731-.039,2.428-.027,5.156-.058,8-.058,2.631,0,4.947.027,7.081.081a1.132,1.132,0,0,1-.031,2.263c-2.144-.054-4.444-.081-7.06-.081-2.827,0-5.543.032-7.936.059C538.964,232.444,537.391,232.461,536.168,232.461Z"/>
                  <path id="パス_4567" data-name="パス 4567" d="M537.958,217.377a.932.932,0,0,1-.809-.468,4.936,4.936,0,1,1,9.218-2.485.932.932,0,0,1-.926.938h-.006a.932.932,0,0,1-.932-.926,3.073,3.073,0,0,0-3.068-3.053h-.022a3.072,3.072,0,0,0-2.648,4.6.931.931,0,0,1-.343,1.272A.922.922,0,0,1,537.958,217.377Z"/>
                  <path id="パス_4568" data-name="パス 4568" d="M541.434,219.39a4.9,4.9,0,0,1-2.792-.864.932.932,0,1,1,1.055-1.537,3.054,3.054,0,0,0,1.737.537h.021a3.071,3.071,0,0,0,3.048-3.089.933.933,0,0,1,.926-.939h.006a.932.932,0,0,1,.932.926,4.932,4.932,0,0,1-4.9,4.966Z"/>
                  <path id="パス_4569" data-name="パス 4569" d="M581.093,217.511a.934.934,0,0,1-.745-.37,4.938,4.938,0,0,1,3.9-7.912h.034a4.943,4.943,0,0,1,4.937,4.9.932.932,0,0,1-.925.938h-.007a.931.931,0,0,1-.931-.926,3.078,3.078,0,0,0-3.074-3.053h-.021a3.074,3.074,0,0,0-2.425,4.924.932.932,0,0,1-.742,1.494Z"/>
                  <path id="パス_4570" data-name="パス 4570" d="M584.279,219.1a4.893,4.893,0,0,1-1.886-.375.932.932,0,0,1,.716-1.721,3.072,3.072,0,0,0,4.246-2.858.931.931,0,0,1,.925-.938h.007a.931.931,0,0,1,.931.926,4.932,4.932,0,0,1-4.9,4.966Z"/>
                  <path id="パス_4571" data-name="パス 4571" d="M556.36,234.833a.932.932,0,0,1-.932-.926l-.052-7.7a.93.93,0,0,1,.926-.938l14.361-.1h.007a.931.931,0,0,1,.931.925l.052,7.7a.931.931,0,0,1-.925.938l-14.362.1Zm.886-7.708.04,5.838,12.5-.085-.039-5.837Z"/>
                  <path id="パス_4572" data-name="パス 4572" d="M550.715,211.219a.932.932,0,0,1-.006-1.864l23.693-.161h.007a.932.932,0,0,1,.006,1.864l-23.693.161Z"/>
                  <path id="パス_4573" data-name="パス 4573" d="M550.747,215.833a.932.932,0,0,1-.007-1.863l23.694-.161h.006a.932.932,0,0,1,.006,1.864l-23.693.16Z"/>
                  <path id="パス_4574" data-name="パス 4574" d="M550.778,220.448a.932.932,0,0,1-.006-1.864l23.693-.16h.006a.932.932,0,0,1,.006,1.864l-23.692.16Z"/>
                  <g id="グループ_2808" data-name="グループ 2808">
                    <path id="パス_4575" data-name="パス 4575" d="M542.048,201.542a.933.933,0,0,1-.812-1.389c2.3-4.088,5.043-8.845,5.945-10.407l.306-.53c.958-1.682,2.855-3.961,8.249-4.324,3.1-.2,6.788-.334,7.2-.348a.43.43,0,0,1,.051,0c.407.008,4.064.083,7.2.247,5.4.278,7.327,2.529,8.308,4.2l.184.309c2.46,4.15,4.521,7.707,6.126,10.572a.932.932,0,0,1-.806,1.388l-37.078.251h-.006a.932.932,0,0,1-.006-1.864l35.494-.24c-1.468-2.589-3.256-5.661-5.328-9.156l-.187-.317c-1.565-2.662-4.315-3.152-6.8-3.28-3.066-.16-6.746-.237-7.118-.244-.516.018-4.1.148-7.115.344-4.42.3-5.894,1.879-6.753,3.387l-.31.538c-.9,1.561-3.643,6.31-5.935,10.389A.933.933,0,0,1,542.048,201.542Z"/>
                  </g>
                </g>
                <path id="パス_4576" data-name="パス 4576" d="M539.412,238.187a4.049,4.049,0,0,1-4.05-4.025l-.02-2.757a1.133,1.133,0,0,1,2.265-.014l.019,2.757a1.79,1.79,0,0,0,1.786,1.774l4.085-.027a1.789,1.789,0,0,0,1.775-1.8l-.019-2.865a1.132,1.132,0,1,1,2.264-.015l.019,2.864a4.056,4.056,0,0,1-4.023,4.079l-4.073.028Z"/>
                <path id="パス_4577" data-name="パス 4577" d="M583.964,237.885a4.051,4.051,0,0,1-4.051-4.025L579.9,231.1a1.132,1.132,0,1,1,2.264-.015l.018,2.757a1.793,1.793,0,0,0,1.787,1.775l4.085-.028a1.789,1.789,0,0,0,1.775-1.8l-.02-2.865a1.133,1.133,0,1,1,2.265-.015l.019,2.865a4.053,4.053,0,0,1-4.023,4.079l-4.073.027Z"/>
              </g>
            </g>
          </g>
        </g>
        <g id="グループ_2814" data-name="グループ 2814">
          <path id="パス_4578" data-name="パス 4578" d="M581.705,172.543l7.756-11.943,1.562,1.013L588.8,170.4l.032.022,4.673-7.195,1.625,1.054-7.755,11.944-1.53-.994,2.176-8.793-.032-.02L583.33,173.6Z"/>
          <path id="パス_4579" data-name="パス 4579" d="M594.673,167.992a3.862,3.862,0,0,1,1.067-1.121,3.269,3.269,0,0,1,1.237-.508,3.149,3.149,0,0,1,1.216.028,3.193,3.193,0,0,1,1.96,1.273,3.409,3.409,0,0,1,.537,1.111,3.356,3.356,0,0,1,.022,1.325,3.792,3.792,0,0,1-.589,1.431l-4.095,6.307a3.807,3.807,0,0,1-1.078,1.137,3.159,3.159,0,0,1-1.2.484,3.228,3.228,0,0,1-1.244-.019,3.268,3.268,0,0,1-1.1-.454,3.23,3.23,0,0,1-.86-.82,3.02,3.02,0,0,1-.509-1.117,3.053,3.053,0,0,1-.06-1.3,3.75,3.75,0,0,1,.6-1.445Zm-2.47,7.362a1.393,1.393,0,0,0-.267,1.127,1.39,1.39,0,0,0,1.545,1,1.4,1.4,0,0,0,.921-.7l4.1-6.306a1.389,1.389,0,0,0,.267-1.125,1.384,1.384,0,0,0-1.545-1,1.389,1.389,0,0,0-.92.7Z"/>
          <path id="パス_4580" data-name="パス 4580" d="M598.595,183.512l7.756-11.944,1.625,1.055-6.645,10.233,3.219,2.089-1.111,1.711Z"/>
          <path id="パス_4581" data-name="パス 4581" d="M604.4,187.277l5.522-8.5,1.626,1.056-5.523,8.5Zm6.644-10.232,1.112-1.711,1.625,1.057-1.111,1.711Z"/>
          <path id="パス_4582" data-name="パス 4582" d="M607.359,189.2l5.522-8.5,1.626,1.055-.534.822.032.02a2.867,2.867,0,0,1,1.043-.264,1.819,1.819,0,0,1,1.085.336,1.668,1.668,0,0,1,.7.836,3.234,3.234,0,0,1,.192.961,4.17,4.17,0,0,1,1.061-.17,2.134,2.134,0,0,1,1.184.41,2.329,2.329,0,0,1,.55.514,1.8,1.8,0,0,1,.34.732,2.263,2.263,0,0,1-.006.916,3.065,3.065,0,0,1-.466,1.067l-4.237,6.525-1.626-1.055,3.823-5.886a1.418,1.418,0,0,0,.273-.873.841.841,0,0,0-.416-.653.807.807,0,0,0-.834-.111,2.093,2.093,0,0,0-.741.758l-3.715,5.719-1.625-1.055,3.823-5.887a1.411,1.411,0,0,0,.273-.873.833.833,0,0,0-.416-.65.8.8,0,0,0-.833-.114,2.11,2.11,0,0,0-.742.758l-3.714,5.721Z"/>
          <path id="パス_4583" data-name="パス 4583" d="M616.792,195.328l5.523-8.5,1.625,1.057-5.523,8.5Zm6.645-10.232,1.111-1.711,1.625,1.056-1.111,1.711Z"/>
          <path id="パス_4584" data-name="パス 4584" d="M625.278,188.75l1.677-2.584,1.626,1.055L626.9,189.8l1,.652-.871,1.342-1-.652-3.061,4.712a1.9,1.9,0,0,0-.249.506.554.554,0,0,0,.019.371.79.79,0,0,0,.246.3c.115.09.262.194.443.313l-1.045,1.609-.669-.436a2.463,2.463,0,0,1-.813-.789,1.99,1.99,0,0,1-.292-.857,2.235,2.235,0,0,1,.092-.859,2.974,2.974,0,0,1,.348-.762l3.355-5.168-.812-.527.872-1.34Z"/>
        </g>
      </g>
      <path id="パス_4585" data-name="パス 4585" d="M543.665,199.64c2.094-3.7,4.333-7.581,5.131-8.963l.31-.538c.859-1.508,2.333-3.09,6.753-3.387,3.011-.2,6.6-.326,7.115-.345.372.008,4.052.085,7.118.245,2.483.128,5.233.618,6.8,3.28l.187.317c2.072,3.5,3.86,6.567,5.328,9.156Z" fill="#fc3"/>
      <path id="パス_4586" data-name="パス 4586" d="M541.455,217.526h-.021a3.054,3.054,0,0,1-1.737-.537.687.687,0,0,1-.932-1.009,3.072,3.072,0,0,1,2.648-4.6h.022a3.073,3.073,0,0,1,3.068,3.053h0A3.071,3.071,0,0,1,541.455,217.526Z" fill="#fc3"/>
    </g>
  </g>
</svg>
