<svg xmlns="http://www.w3.org/2000/svg" width="200" height="120" viewBox="0 0 200 120">
  <g id="グループ_3166" data-name="グループ 3166" transform="translate(-159 -1654.586)">
    <rect id="長方形_704" data-name="長方形 704" width="200" height="120" transform="translate(159 1654.586)" fill="#ffb423"/>
    <g id="グループ_2778" data-name="グループ 2778" transform="translate(181.95 1631.057)">
      <g id="グループ_2695" data-name="グループ 2695">
        <path id="パス_4390" data-name="パス 4390" d="M98.61,71.713c-.054.284.037.1.1-.133l-.088-.176A1.549,1.549,0,0,1,98.61,71.713Z" fill="#fff"/>
        <path id="パス_4391" data-name="パス 4391" d="M98.623,71.4c0-.1-.006-.2-.01-.3a.327.327,0,0,0-.128.061A1.127,1.127,0,0,1,98.623,71.4Z" fill="#fff"/>
        <path id="パス_4392" data-name="パス 4392" d="M85.383,118.755a3.185,3.185,0,0,1-.628-.063c-2.727-.555-2.682-3.182-2.648-5.1,0-.218.007-.431.007-.636a1.508,1.508,0,0,0-1.308-1.457c-1.568.15-3.128.225-4.73.225-1.215,0-2.45-.043-3.672-.127h0a1.507,1.507,0,0,0-1.413,1.451c0,.254.012.522.024.8a5.972,5.972,0,0,1-.471,3.285,3.292,3.292,0,0,1-2.838,1.611,3.234,3.234,0,0,1-2.3-.949,4.321,4.321,0,0,1-.963-3.414l.005-.447a9.427,9.427,0,0,1,.008-1.76c.084-1.346.163-2.616-.742-3.189a21.318,21.318,0,0,1-6.273-5.624,1.761,1.761,0,0,0-1.35-.764,1.26,1.26,0,0,0-.754.257l-.5.36-.254-.558c-.155-.341-.3-.688-.453-1.035L53.9,101.1l.309-.237a1.417,1.417,0,0,0,.436-1.859A19.912,19.912,0,0,1,52.32,84.076a38.442,38.442,0,0,1,4.121-10.937,1.4,1.4,0,0,0,.156-.721l-.021-1.024.033.024V62.71c0-.144-.013-.316-.027-.5a2.709,2.709,0,0,1,.35-2.041,1.154,1.154,0,0,1,.877-.357l.1,0a33.512,33.512,0,0,1,4.941,1.543,37.408,37.408,0,0,0,4.253,1.388,2.277,2.277,0,0,0,.609.084,4.875,4.875,0,0,0,1.444-.31l.335-.1a22.311,22.311,0,0,1,5.984-.981c.2-.005.389-.007.583-.007a22.036,22.036,0,0,1,4.888.535c.4.09.8.225,1.213.362a6.666,6.666,0,0,0,2,.458,2.147,2.147,0,0,0,.518-.058,39.54,39.54,0,0,0,4.3-1.384,36.632,36.632,0,0,1,4.771-1.5,1.709,1.709,0,0,1,.294-.027,1.114,1.114,0,0,1,.845.342,2.476,2.476,0,0,1,.338,1.872c-.011.167-.022.328-.022.469,0,1.024-.037,2.07-.075,3.123a43.707,43.707,0,0,0,.071,6.223,13.529,13.529,0,0,0,1.335,3,16.727,16.727,0,0,1,1.53,3.446c3.156,8.614,2.289,16.621-2.592,23.76a21.33,21.33,0,0,1-6.4,6.649c-.762,1.066-.623,2.693-.49,4.266a9.612,9.612,0,0,1-.145,3.714A3.321,3.321,0,0,1,85.383,118.755ZM71.713,98.92c1.015.02,2.03.025,3.046.025s2.037,0,3.055-.012,2.039-.013,3.058-.013a7.286,7.286,0,0,0,5.546-11.9c-1.793-2.191-4.308-2.638-7.533-2.638-.5,0-.99.009-1.482.018s-.974.017-1.451.017c-.752-.027-1.5-.054-2.255-.054-3.015,0-6.342.408-8.168,3.427a6.936,6.936,0,0,0-.246,7.229,7.2,7.2,0,0,0,6.294,3.9h.136Zm12.7-22.545A1.611,1.611,0,1,0,86,77.985,1.533,1.533,0,0,0,84.417,76.375Zm-16.756,0a1.611,1.611,0,1,0,1.58,1.611A1.533,1.533,0,0,0,67.661,76.375Z" fill="#fff"/>
        <path id="パス_4393" data-name="パス 4393" d="M84.417,75.875a2.111,2.111,0,0,1,0,4.221A2.111,2.111,0,0,1,84.417,75.875Zm-16.756,0a2.111,2.111,0,0,1,0,4.221A2.111,2.111,0,0,1,67.661,75.875ZM65.1,87.528c2.344-3.877,6.855-3.762,10.85-3.614,3.827,0,8.116-.557,10.847,2.78A7.785,7.785,0,0,1,80.872,99.42c-3.054,0-6.114.057-9.168,0C65.743,99.521,61.77,92.534,65.1,87.528Z" fill="#fff"/>
        <path id="パス_4394" data-name="パス 4394" d="M68.291,60.049a1.112,1.112,0,0,1-.348-.078l-2.472-.791-.074-.258a10.677,10.677,0,0,1,1.878-9.411,11.15,11.15,0,0,1,8.786-4.539,10.3,10.3,0,0,1,2.067.211,11.189,11.189,0,0,1,9.13,10.943,11.4,11.4,0,0,1-.362,2.6l-.065.266-.26.088c-.56.189-1.122.366-1.684.544l-.8.254-.16-.057A22.863,22.863,0,0,0,76.2,58.537a27.239,27.239,0,0,0-5.62.594c-.164.036-.372.071-.6.109-.352.06-.809.137-1.192.244a.577.577,0,0,1,0,.142l-.067.423Zm7.357-11.78a7.16,7.16,0,0,0-6.985,7.083,1.505,1.505,0,0,0,.446,1.043,1.327,1.327,0,0,0,.931.417,1.451,1.451,0,0,0,1.1-.461,1.98,1.98,0,0,0,.459-1.465l0-.064.012-.061a4.111,4.111,0,0,1,.779-1.883,6.408,6.408,0,0,1,.847-.855,6.335,6.335,0,0,1,.882-.518,6.168,6.168,0,0,1,1.04-.291l.15-.017c.148-.013.3-.026.445-.027a1.45,1.45,0,0,0-.016-2.9Z" fill="#fc3"/>
        <path id="パス_4395" data-name="パス 4395" d="M75.753,51.67c-.17,0-.338.02-.506.035a5.94,5.94,0,0,0-.916.251,5.879,5.879,0,0,0-.777.45,5.967,5.967,0,0,0-.754.754,5.85,5.85,0,0,0-.451.778,5.91,5.91,0,0,0-.251.916,2.134,2.134,0,0,1-1.985,2.455,1.97,1.97,0,0,1-1.95-1.95,7.655,7.655,0,0,1,7.59-7.589A1.95,1.95,0,0,1,75.753,51.67Z" fill="#ffdc50"/>
        <path id="パス_4396" data-name="パス 4396" d="M75.753,47.77a7.655,7.655,0,0,0-7.59,7.589c.257,2.915,4.184,2.377,3.935-.505a5.91,5.91,0,0,1,.251-.916,5.85,5.85,0,0,1,.451-.778,5.967,5.967,0,0,1,.754-.754,5.879,5.879,0,0,1,.777-.45,5.94,5.94,0,0,1,.916-.251C78.2,51.919,78.625,48.052,75.753,47.77Z" fill="#fff"/>
        <path id="パス_4397" data-name="パス 4397" d="M67.689,121.648a5.959,5.959,0,0,1-2.406-.512c-3.893-1.669-3.825-5.634-3.759-9.468l.01-.646-.232-.151a26.245,26.245,0,0,1-6.443-6.151,1.023,1.023,0,0,1-.169-.783,1.677,1.677,0,0,1,.635-1.079,1.269,1.269,0,0,1,.759-.26,1.76,1.76,0,0,1,1.347.76,21.349,21.349,0,0,0,6.3,5.64,1.451,1.451,0,0,1,.713,1.249v3.688l-.005.449A4.317,4.317,0,0,0,65.4,117.8a3.232,3.232,0,0,0,2.3.949,3.292,3.292,0,0,0,2.838-1.611,5.97,5.97,0,0,0,.471-3.285c-.012-.278-.024-.546-.024-.8a1.5,1.5,0,0,1,1.344-1.454c1.294.087,2.529.13,3.744.13,1.6,0,3.162-.075,4.638-.221h.006a1.509,1.509,0,0,1,1.394,1.453c0,.205,0,.418-.007.636-.034,1.917-.079,4.544,2.648,5.1a3.185,3.185,0,0,0,.628.063,3.315,3.315,0,0,0,3.055-2.047,9.619,9.619,0,0,0,.154-3.744c-.133-1.572-.272-3.2.491-4.263a21.4,21.4,0,0,0,6.411-6.673c4.864-7.111,5.731-15.119,2.564-23.777a16.653,16.653,0,0,0-1.516-3.4A13.279,13.279,0,0,1,95.2,71.788a44.17,44.17,0,0,1-.062-6.166c.038-1.053.075-2.1.075-3.122,0-.141.011-.3.022-.47a2.475,2.475,0,0,0-.338-1.871,1.114,1.114,0,0,0-.845-.342,1.655,1.655,0,0,0-.262.021,36.632,36.632,0,0,0-4.806,1.5,39.38,39.38,0,0,1-4.3,1.384,2.175,2.175,0,0,1-.52.058,6.681,6.681,0,0,1-2-.457c-.413-.137-.82-.272-1.216-.362a22.015,22.015,0,0,0-4.89-.536c-.193,0-.386,0-.579.007a22.351,22.351,0,0,0-5.985.981l-.334.1a4.875,4.875,0,0,1-1.444.31,2.216,2.216,0,0,1-.6-.081,37.535,37.535,0,0,1-4.271-1.392,34.1,34.1,0,0,0-4.868-1.531l-.05-.011h-.125a1.153,1.153,0,0,0-.876.356,2.709,2.709,0,0,0-.35,2.041c.014.182.027.354.027.5v8.9l-.016-.009,0,.819a1.4,1.4,0,0,1-.156.721,38.45,38.45,0,0,0-4.126,10.966,19.9,19.9,0,0,0,2.344,14.919,1.408,1.408,0,0,1-.446,1.84,1.639,1.639,0,0,1-.973.352,1.172,1.172,0,0,1-1.073-.706c-4.724-7.667-4.179-17.963,1.481-28.279l.061-.113v-9.65C53.6,60.394,53.974,58.9,54.824,58a3.6,3.6,0,0,1,2.733-1.014,10.774,10.774,0,0,1,3.962.922l.767.314-.081-.826a13.647,13.647,0,0,1,3.55-10.6,14.137,14.137,0,0,1,10.419-4.7,13.532,13.532,0,0,1,4.812.89A14.192,14.192,0,0,1,90.158,56.14c0,.338-.029.687-.06,1.036l-.072.814.757-.306a9.13,9.13,0,0,1,3.348-.731,3.655,3.655,0,0,1,3.836,2.787,49.1,49.1,0,0,1,.153,6.746c-.031,1.424-.065,2.893-.017,4.338l-1.162.877,1.169-.028a.6.6,0,0,0,.126.513l.149.162h.151a35.759,35.759,0,0,1,4.107,13c1.059,9.084-3.31,19.115-10.873,24.965l-.2.154.023.97c.1,3.815.2,7.76-3.416,9.546a6.042,6.042,0,0,1-2.733.661h0a6.252,6.252,0,0,1-4.494-1.961,6.183,6.183,0,0,1-1.713-4.609l.027-.553-.554.03c-.858.047-1.744.07-2.633.07q-.85,0-1.695-.028l-.541-.018.024.541a6.271,6.271,0,0,1-6.175,6.53Zm8.372-76.676a11.15,11.15,0,0,0-8.785,4.538A10.679,10.679,0,0,0,65.4,58.922l.074.258s2.062.663,2.462.788a1.16,1.16,0,0,0,.358.081h.428l.066-.422a.532.532,0,0,0,0-.142c.383-.107.84-.184,1.192-.244.229-.038.437-.073.6-.11a27.213,27.213,0,0,1,5.614-.593,22.883,22.883,0,0,1,7.725,1.281l.16.057.816-.258c.557-.176,1.114-.352,1.669-.54l.26-.088.066-.265a11.408,11.408,0,0,0,.361-2.584,11.194,11.194,0,0,0-9.136-10.958A10.267,10.267,0,0,0,76.061,44.972Z" fill="#323232"/>
        <path id="パス_4398" data-name="パス 4398" d="M102.643,85.35a35.771,35.771,0,0,0-4.107-13L98.1,70.824c-.048-1.445-.014-2.914.017-4.337a49.108,49.108,0,0,0-.153-6.747,3.655,3.655,0,0,0-3.836-2.787,9.13,9.13,0,0,0-3.348.731l-.757.306.072-.814c.031-.348.055-.7.06-1.036a14.191,14.191,0,0,0-9.172-13.157,13.532,13.532,0,0,0-4.812-.89,14.136,14.136,0,0,0-10.418,4.7,13.646,13.646,0,0,0-3.551,10.6l.081.826-.767-.314a10.774,10.774,0,0,0-3.962-.922A3.6,3.6,0,0,0,54.824,58c-.851.9-1.226,2.391-1.115,4.465v9.65l-.062.113c-5.659,10.316-6.2,20.612-1.48,28.279a1.172,1.172,0,0,0,1.073.706,1.65,1.65,0,0,0,.973-.35,1.412,1.412,0,0,0,.446-1.842,19.9,19.9,0,0,1-2.344-14.919,38.45,38.45,0,0,1,4.126-10.966,1.4,1.4,0,0,0,.156-.721l-.086-1.067.1.073V62.71c0-.144-.013-.316-.027-.5a2.709,2.709,0,0,1,.35-2.041,1.153,1.153,0,0,1,.876-.356h.125l.05.011a34.1,34.1,0,0,1,4.868,1.531,37.535,37.535,0,0,0,4.271,1.392,2.216,2.216,0,0,0,.6.081,4.875,4.875,0,0,0,1.444-.31l.334-.1a22.351,22.351,0,0,1,5.985-.981c.194-.005.388-.007.582-.007a22.036,22.036,0,0,1,4.888.535c.4.09.8.225,1.213.362a6.666,6.666,0,0,0,2,.458,2.175,2.175,0,0,0,.52-.058,39.38,39.38,0,0,0,4.3-1.384,36.632,36.632,0,0,1,4.806-1.5,1.655,1.655,0,0,1,.262-.021,1.114,1.114,0,0,1,.845.342,2.475,2.475,0,0,1,.338,1.871c-.011.168-.022.329-.022.47,0,1.024-.037,2.069-.075,3.122a44.17,44.17,0,0,0,.062,6.166,13.279,13.279,0,0,0,1.345,3.059,16.653,16.653,0,0,1,1.516,3.4c3.167,8.658,2.3,16.666-2.564,23.777a21.4,21.4,0,0,1-6.411,6.673c-.763,1.067-.624,2.691-.491,4.263a9.619,9.619,0,0,1-.154,3.744,3.315,3.315,0,0,1-3.055,2.047,3.185,3.185,0,0,1-.628-.063c-2.727-.555-2.682-3.182-2.648-5.1,0-.218.007-.431.007-.636A1.509,1.509,0,0,0,80.72,111.5h-.006c-1.476.146-3.036.221-4.638.221-1.215,0-2.45-.043-3.743-.13a1.5,1.5,0,0,0-1.345,1.454c0,.254.012.522.024.8a5.972,5.972,0,0,1-.471,3.285,3.292,3.292,0,0,1-2.838,1.611,3.236,3.236,0,0,1-2.3-.949,4.319,4.319,0,0,1-.963-3.413l0-.448v-3.688A1.453,1.453,0,0,0,63.728,109a21.347,21.347,0,0,1-6.3-5.64,1.76,1.76,0,0,0-1.347-.76,1.216,1.216,0,0,0-.4.066c.8,1.671,1.7,2.881,3.255,3.4l-.317.949a6.567,6.567,0,0,1-3.722-3.675,1.719,1.719,0,0,0-.213.6,1.023,1.023,0,0,0,.169.783,26.181,26.181,0,0,0,6.443,6.15l.232.152-.01.646c-.066,3.834-.134,7.8,3.758,9.467a5.969,5.969,0,0,0,2.408.512,6.271,6.271,0,0,0,6.174-6.529l-.024-.541.541.018q.845.027,1.695.028c.889,0,1.775-.023,2.633-.07l.554-.03-.027.553a6.183,6.183,0,0,0,1.713,4.609,6.252,6.252,0,0,0,4.494,1.961h0a6.042,6.042,0,0,0,2.733-.661c3.618-1.786,3.516-5.731,3.416-9.546l-.023-.97.2-.154C99.333,104.465,103.7,94.434,102.643,85.35ZM86.9,58.724l-.065.266-.26.088c-.56.189-1.122.366-1.683.544l-.8.254-.16-.057A22.867,22.867,0,0,0,76.2,58.537a27.247,27.247,0,0,0-5.616.593c-.168.037-.376.072-.6.11-.352.06-.809.137-1.192.244l-1.447.295-1.872-.6-.074-.258a10.679,10.679,0,0,1,1.879-9.412,11.15,11.15,0,0,1,8.785-4.538,10.267,10.267,0,0,1,2.061.21A11.194,11.194,0,0,1,87.258,56.14,11.386,11.386,0,0,1,86.9,58.724Z" fill="#323232"/>
        <path id="パス_4399" data-name="パス 4399" d="M67.661,80.1a2.111,2.111,0,0,0,0-4.221A2.111,2.111,0,0,0,67.661,80.1Z" fill="#323232"/>
        <path id="パス_4400" data-name="パス 4400" d="M82.307,77.986a2.11,2.11,0,0,0,4.22,0A2.11,2.11,0,0,0,82.307,77.986Z" fill="#323232"/>
        <path id="パス_4401" data-name="パス 4401" d="M72.344,92.938a2.174,2.174,0,0,0,1.379.571l.519-.07a1.946,1.946,0,0,0,.86-.5l.305-.4a2.22,2.22,0,0,0,.266-1.278,2,2,0,0,0-1.95-1.95l-.518.069a1.957,1.957,0,0,0-.861.5l-.3.395a2.212,2.212,0,0,0-.267,1.278,2.174,2.174,0,0,0,.571,1.379Z" fill="#323232"/>
        <path id="パス_4402" data-name="パス 4402" d="M77.792,92.938a2.174,2.174,0,0,0,1.379.571l.518-.07a1.95,1.95,0,0,0,.861-.5c.1-.132.2-.263.305-.4a2.22,2.22,0,0,0,.266-1.278,2,2,0,0,0-1.95-1.95l-.519.069a1.948,1.948,0,0,0-.86.5l-.305.395a2.22,2.22,0,0,0-.266,1.278,2.174,2.174,0,0,0,.571,1.379Z" fill="#323232"/>
      </g>
      <path id="パス_4403" data-name="パス 4403" d="M73.93,99.024c-3.257,0-6.538-.436-8.474-3.6a6.945,6.945,0,0,1-.142-7.172,7.221,7.221,0,0,1,6.276-3.845h.126c.483-.008.95-.01,1.417-.01l2.819.01c.478,0,.964-.009,1.452-.017s.983-.018,1.475-.018c3.229,0,5.745.448,7.533,2.632a7.285,7.285,0,0,1-5.54,11.91c-.463-.033-.974-.046-1.5-.046-.869,0-1.77.036-2.681.074S74.847,99.024,73.93,99.024Zm3.376-11.778c-2.161,0-4.351.059-6.282.11a4.366,4.366,0,0,0-.677,8.463,27.408,27.408,0,0,0,4.016.248c.824,0,1.65-.019,2.476-.039s1.636-.038,2.451-.038c.522,0,1.043.008,1.562.03a4.357,4.357,0,0,0,.363-8.7C79.986,87.271,78.718,87.246,77.306,87.246Z" fill="#323232"/>
    </g>
  </g>
</svg>
