<svg xmlns="http://www.w3.org/2000/svg" width="200" height="120" viewBox="0 0 200 120">
  <g id="グループ_3168" data-name="グループ 3168" transform="translate(-159 -1905.586)">
    <rect id="長方形_710" data-name="長方形 710" width="200" height="120" transform="translate(159 1905.586)" fill="#ffb423"/>
    <g id="グループ_2791" data-name="グループ 2791" transform="translate(168.95 1763.58)">
      <g id="グループ_2794" data-name="グループ 2794">
        <g id="グループ_2791-2" data-name="グループ 2791">
          <path id="パス_4524" data-name="パス 4524" d="M126.842,184.009a6.578,6.578,0,0,1-6.858-6.828,7,7,0,0,1,1.981-5.017,6.947,6.947,0,0,1,9.743.057,6.922,6.922,0,0,1,2.024,4.954,6.74,6.74,0,0,1-6.822,6.834h-.068Zm-.015-11.736a4.733,4.733,0,0,0-3.392,1.353,4.932,4.932,0,0,0-1.377,3.546,4.512,4.512,0,0,0,4.8,4.763,4.661,4.661,0,0,0,4.8-4.771,4.854,4.854,0,0,0-1.418-3.479,4.776,4.776,0,0,0-3.406-1.412l-.007-.2Z"/>
          <path id="パス_4525" data-name="パス 4525" d="M122.273,238.527a4.1,4.1,0,0,1-4.1-4.093c-.006-6.025.08-38.048.085-40.11l-12.232-19.182a3.778,3.778,0,1,1,6.488-3.872l8.094,13.684,12.475.052,8.021-13.551a3.8,3.8,0,0,1,3.255-1.852,3.738,3.738,0,0,1,1.5.313,3.777,3.777,0,0,1,1.747,5.382l-12.3,19.283,0,39.85a3.9,3.9,0,0,1-1.959,3.479,4.776,4.776,0,0,1-4.655-.005,3.9,3.9,0,0,1-1.955-3.48l.022-23.941a.074.074,0,0,0-.074-.076l-.255-.007-.278.077h.2l.024,23.867a4.173,4.173,0,0,1-3.955,4.18Zm-13.007-67.04a1.717,1.717,0,0,0-.79.2,1.7,1.7,0,0,0-.686,2.365l12.383,19.418a1.044,1.044,0,0,1,.163.56c0,.327-.093,34.2-.085,40.406a2.022,2.022,0,0,0,2.022,2.022,2.1,2.1,0,0,0,2.026-2.107l-.024-23.867a2.147,2.147,0,0,1,2.152-2.152l.313.007a2.138,2.138,0,0,1,2.09,2.151l-.022,23.941a1.822,1.822,0,0,0,.919,1.684,2.7,2.7,0,0,0,2.581,0,1.823,1.823,0,0,0,.921-1.683l.006-40.258a1.04,1.04,0,0,1,.331-.759l.082-.077,12.187-19.11a1.7,1.7,0,0,0-2.943-1.715l-8.118,13.714a2.1,2.1,0,0,1-.663.689,1.027,1.027,0,0,1-.563.166l-13.453-.056a1.049,1.049,0,0,1-.639-.223,2.079,2.079,0,0,1-.5-.573l-8.224-13.9A1.713,1.713,0,0,0,109.266,171.487Z"/>
        </g>
        <g id="グループ_2792" data-name="グループ 2792">
          <path id="パス_4526" data-name="パス 4526" d="M97.814,191.657a.838.838,0,0,1-.822-.679c-1.012-5.276-1.59-5.854-6.866-6.866a.837.837,0,0,1,0-1.644c5.276-1.012,5.854-1.59,6.866-6.866a.837.837,0,0,1,1.644,0c1.012,5.276,1.59,5.854,6.866,6.866a.837.837,0,0,1,0,1.644c-5.276,1.012-5.854,1.59-6.866,6.866A.837.837,0,0,1,97.814,191.657Zm-4.052-8.367a5.739,5.739,0,0,1,4.052,4.052,5.739,5.739,0,0,1,4.052-4.052,5.739,5.739,0,0,1-4.052-4.052A5.739,5.739,0,0,1,93.762,183.29Z"/>
        </g>
        <g id="グループ_2793" data-name="グループ 2793">
          <path id="パス_4527" data-name="パス 4527" d="M31.417,213.339a.838.838,0,0,1-.822-.679c-1.012-5.277-1.59-5.854-6.866-6.867a.837.837,0,0,1,0-1.644c5.276-1.012,5.854-1.589,6.866-6.866a.837.837,0,0,1,1.644,0c1.013,5.277,1.59,5.854,6.866,6.866a.837.837,0,0,1,0,1.644c-5.276,1.013-5.853,1.59-6.866,6.867A.836.836,0,0,1,31.417,213.339Zm-4.052-8.368a5.736,5.736,0,0,1,4.052,4.052,5.739,5.739,0,0,1,4.052-4.052,5.736,5.736,0,0,1-4.052-4.051A5.733,5.733,0,0,1,27.365,204.971Z"/>
        </g>
      </g>
      <path id="パス_4528" data-name="パス 4528" d="M27.365,204.971a5.736,5.736,0,0,1,4.052,4.052,5.739,5.739,0,0,1,4.052-4.052,5.736,5.736,0,0,1-4.052-4.051A5.733,5.733,0,0,1,27.365,204.971Z" fill="#fc3"/>
      <path id="パス_4529" data-name="パス 4529" d="M93.762,183.29a5.738,5.738,0,0,1,4.052,4.052,5.739,5.739,0,0,1,4.052-4.052,5.739,5.739,0,0,1-4.052-4.052A5.738,5.738,0,0,1,93.762,183.29Z" fill="#fc3"/>
      <g id="グループ_2799" data-name="グループ 2799">
        <path id="パス_4530" data-name="パス 4530" d="M101.143,222.052a.841.841,0,0,0-.046-.3,4.193,4.193,0,0,0,.036-.521l-.067-9.222c-.02-2.981-2.775-6.858-4.5-8.988a4.915,4.915,0,0,0,1.189-3.366,3.2,3.2,0,0,0-1.136-2.651c-.415-.3-1.218-.652-3.766-.652l-.3,0c-1.163-2.624-2.061-4.48-2.669-5.517-2.089-3.555-5.655-5.415-10.9-5.687-3.5-.182-7.607-.266-8.061-.274h-.091c-.756.026-4.7.171-8.031.388-5.24.352-8.78,2.264-10.821,5.846-.593,1.042-1.463,2.9-2.584,5.536-2.923,0-3.8.379-4.235.709a3.2,3.2,0,0,0-1.092,2.66,4.8,4.8,0,0,0,1.376,3.478c-1.805,2.265-4.685,6.256-4.664,8.632l.064,9.539a1.783,1.783,0,0,0,.047.426,1.584,1.584,0,0,0-.049.393l.051,6.932a3.129,3.129,0,0,0,2.689,2.969,12.822,12.822,0,0,0,2.3.132l.01,1.533a3.641,3.641,0,0,0,3.642,3.617h.025l3.661-.024a3.648,3.648,0,0,0,3.618-3.667l-.011-1.541c.405,0,.807,0,1.218,0,2.164,0,4.083.021,5.878.063l.009,1.325a.838.838,0,0,0,.838.832h.006l12.911-.087a.838.838,0,0,0,.832-.844l-.009-1.327c2.476-.1,5.015-.158,7.424-.193l.01,1.577a3.641,3.641,0,0,0,3.642,3.618h.025l3.662-.024a3.643,3.643,0,0,0,3.617-3.667l-.011-1.6a8.583,8.583,0,0,0,1.691-.117A3.155,3.155,0,0,0,101.19,229Z" fill="#fff"/>
        <path id="パス_4531" data-name="パス 4531" d="M89.872,211.637h-.03a4.438,4.438,0,0,0-3.505,7.112.837.837,0,0,0,.669.333.828.828,0,0,0,.5-.17l.011-.012.231.135c-.008.016-.022.026-.029.043a.837.837,0,0,0,.452,1.1,4.394,4.394,0,0,0,1.695.338H89.9a4.437,4.437,0,0,0-.03-8.874Z" fill="#fc3"/>
        <g id="グループ_2798" data-name="グループ 2798">
          <g id="グループ_2797" data-name="グループ 2797">
            <g id="グループ_2796" data-name="グループ 2796">
              <path id="パス_4532" data-name="パス 4532" d="M46.619,232.522a17.443,17.443,0,0,1-3.036-.135,3.129,3.129,0,0,1-2.689-2.969l-.051-6.932a1.584,1.584,0,0,1,.049-.393,1.783,1.783,0,0,1-.047-.426l-.064-9.539c-.021-2.376,2.859-6.367,4.664-8.632a4.8,4.8,0,0,1-1.376-3.478,3.2,3.2,0,0,1,1.092-2.66c.436-.33,1.312-.708,4.235-.709,1.121-2.631,1.991-4.494,2.584-5.536,2.041-3.582,5.581-5.494,10.821-5.846,3.331-.217,7.275-.362,8.031-.388h.091c.454.008,4.559.092,8.061.274,5.245.272,8.811,2.132,10.9,5.687.608,1.037,1.506,2.893,2.669,5.517l.3,0c2.548,0,3.351.349,3.766.652a3.2,3.2,0,0,1,1.136,2.651,4.915,4.915,0,0,1-1.189,3.366c1.721,2.13,4.476,6.007,4.5,8.988l.067,9.222a4.193,4.193,0,0,1-.036.521.841.841,0,0,1,.046.3L101.19,229a3.155,3.155,0,0,1-2.619,2.994,42.923,42.923,0,0,1-5.791.154c-4.021.021-9.528.05-14.7.268h0A1.018,1.018,0,0,1,78,230.378c5.206-.219,10.735-.248,14.772-.269,2.408-.013,4.9-.026,5.294-.089.488-.14,1.094-.435,1.09-1.01l-.047-6.885a.732.732,0,0,1-.047-.2,1,1,0,0,1,0-.251l.015-.135a2.446,2.446,0,0,0,.025-.3l-.066-9.222c-.013-1.917-1.842-5.211-4.774-8.6a1.017,1.017,0,0,1,.333-1.585l.229-.1a2.338,2.338,0,0,0,.3-.145,2.868,2.868,0,0,0,.609-1.923,1.4,1.4,0,0,0-.306-1.026,6.638,6.638,0,0,0-2.607-.256c-.27,0-.565,0-.889.013h0a1.025,1.025,0,0,1-.958-.608c-1.248-2.842-2.227-4.89-2.834-5.925-1.74-2.959-4.679-4.447-9.25-4.683-3.294-.172-7.217-.258-7.969-.274-1.106.039-4.83.18-7.974.385-4.569.307-7.488,1.839-9.187,4.823-.589,1.035-1.538,3.091-2.744,5.948a1.018,1.018,0,0,1-.938.622c-.246-.005-.462-.007-.665-.007-2.5,0-3,.292-3.021.3a1.364,1.364,0,0,0-.277,1.018,2.886,2.886,0,0,0,.628,1.914,3.5,3.5,0,0,0,.62.293,1.046,1.046,0,0,1,.658.717,1.021,1.021,0,0,1-.21.9c-2.853,3.379-5,6.939-4.984,8.281l.065,9.541a2.033,2.033,0,0,0,.028.265l.017.118a1,1,0,0,1,0,.29,2.2,2.2,0,0,1-.046.217l.052,6.863c0,.663.784.92,1.12,1a25.029,25.029,0,0,0,2.563.081c1.21,0,2.711-.017,4.254-.035,2.182-.025,4.635-.053,7.188-.053,2.366,0,4.448.025,6.366.073a1.018,1.018,0,0,1-.027,2.035c-1.928-.049-4-.073-6.347-.073-2.542,0-4.983.028-7.135.053C49.132,232.507,47.718,232.522,46.619,232.522Z"/>
              <path id="パス_4533" data-name="パス 4533" d="M48.228,218.961a.836.836,0,0,1-.727-.42,4.437,4.437,0,1,1,8.286-2.234.837.837,0,0,1-.832.843h-.006a.837.837,0,0,1-.837-.832,2.762,2.762,0,0,0-2.759-2.745h-.019a2.762,2.762,0,0,0-2.381,4.133.837.837,0,0,1-.725,1.255Z"/>
              <path id="パス_4534" data-name="パス 4534" d="M51.352,220.772a4.416,4.416,0,0,1-2.509-.778.838.838,0,1,1,.948-1.381,2.751,2.751,0,0,0,1.562.483h.019a2.762,2.762,0,0,0,2.74-2.778.838.838,0,0,1,.832-.843h.006a.837.837,0,0,1,.837.832,4.435,4.435,0,0,1-4.4,4.465Z"/>
              <path id="パス_4535" data-name="パス 4535" d="M87.006,219.082a.837.837,0,0,1-.669-.333,4.438,4.438,0,0,1,3.505-7.112h.03a4.444,4.444,0,0,1,4.439,4.409.838.838,0,0,1-.832.843h-.006a.838.838,0,0,1-.838-.832,2.767,2.767,0,0,0-2.763-2.745h-.019a2.763,2.763,0,0,0-2.179,4.427.839.839,0,0,1-.668,1.343Z"/>
              <path id="パス_4536" data-name="パス 4536" d="M89.87,220.511a4.394,4.394,0,0,1-1.695-.338.838.838,0,1,1,.643-1.547,2.76,2.76,0,0,0,3.817-2.569.838.838,0,0,1,.832-.843h.006a.838.838,0,0,1,.838.832,4.435,4.435,0,0,1-4.409,4.465Z"/>
              <path id="パス_4537" data-name="パス 4537" d="M64.771,234.654a.838.838,0,0,1-.838-.832l-.047-6.923a.84.84,0,0,1,.832-.844l12.911-.087h.006a.838.838,0,0,1,.838.832l.047,6.923a.838.838,0,0,1-.832.844l-12.911.087Zm.8-6.929.035,5.248,11.235-.076-.035-5.248Z"/>
              <path id="パス_4538" data-name="パス 4538" d="M59.7,213.425a.838.838,0,0,1,0-1.675l21.3-.145H81a.838.838,0,0,1,0,1.676l-21.3.144Z"/>
              <path id="パス_4539" data-name="パス 4539" d="M59.724,217.574a.838.838,0,0,1,0-1.676l21.3-.144h.006a.838.838,0,0,1,.006,1.676l-21.3.144Z"/>
              <path id="パス_4540" data-name="パス 4540" d="M59.753,221.723a.838.838,0,0,1-.006-1.676l21.3-.144h.006a.838.838,0,0,1,.006,1.675l-21.3.145Z"/>
              <g id="グループ_2795" data-name="グループ 2795">
                <path id="パス_4541" data-name="パス 4541" d="M51.9,204.726a.839.839,0,0,1-.73-1.249c2.066-3.675,4.534-7.951,5.345-9.356l.275-.476c.861-1.513,2.567-3.561,7.416-3.887,2.784-.182,6.1-.3,6.472-.313h.045c.366.008,3.654.075,6.476.222,4.853.251,6.587,2.274,7.47,3.775l.164.278c2.212,3.731,4.065,6.928,5.508,9.5a.837.837,0,0,1-.725,1.247l-33.333.226h0a.838.838,0,0,1-.006-1.676l31.91-.216c-1.32-2.327-2.927-5.088-4.79-8.231l-.168-.284c-1.408-2.393-3.879-2.834-6.112-2.949-2.756-.144-6.065-.213-6.4-.22-.464.016-3.689.133-6.4.31-3.974.267-5.3,1.689-6.071,3.044l-.279.484c-.81,1.4-3.275,5.673-5.336,9.34A.837.837,0,0,1,51.9,204.726Z"/>
              </g>
            </g>
            <path id="パス_4542" data-name="パス 4542" d="M49.535,237.669a3.641,3.641,0,0,1-3.642-3.617l-.017-2.479a1.018,1.018,0,0,1,2.036-.013l.017,2.478a1.61,1.61,0,0,0,1.606,1.6l3.672-.025a1.608,1.608,0,0,0,1.6-1.617l-.018-2.576a1.018,1.018,0,1,1,2.036-.013l.018,2.575a3.648,3.648,0,0,1-3.618,3.667l-3.661.024Z"/>
            <path id="パス_4543" data-name="パス 4543" d="M89.587,237.4a3.641,3.641,0,0,1-3.642-3.618l-.016-2.478a1.018,1.018,0,1,1,2.035-.013l.017,2.478a1.61,1.61,0,0,0,1.606,1.6l3.673-.025a1.607,1.607,0,0,0,1.6-1.617l-.017-2.576a1.018,1.018,0,1,1,2.035-.013l.018,2.575a3.643,3.643,0,0,1-3.617,3.667l-3.662.024Z"/>
          </g>
        </g>
        <path id="パス_4544" data-name="パス 4544" d="M53.358,203.016c1.883-3.328,3.9-6.816,4.613-8.058l.279-.484c.772-1.355,2.1-2.777,6.071-3.044,2.707-.177,5.932-.294,6.4-.31.334.007,3.643.076,6.4.22,2.233.115,4.7.556,6.112,2.949l.168.284c1.863,3.143,3.47,5.9,4.79,8.231Z" fill="#fc3"/>
        <path id="パス_4545" data-name="パス 4545" d="M51.372,219.1h-.019a2.751,2.751,0,0,1-1.562-.483.831.831,0,0,0-.87-.037.832.832,0,0,0,.032-.87,2.762,2.762,0,0,1,2.381-4.133h.019a2.762,2.762,0,0,1,2.759,2.745h0A2.762,2.762,0,0,1,51.372,219.1Z" fill="#fc3"/>
      </g>
      <path id="パス_4546" data-name="パス 4546" d="M126.827,172.273a4.733,4.733,0,0,0-3.392,1.353,4.932,4.932,0,0,0-1.377,3.546,4.512,4.512,0,0,0,4.8,4.763,4.661,4.661,0,0,0,4.8-4.771,4.854,4.854,0,0,0-1.418-3.479,4.776,4.776,0,0,0-3.406-1.412l-.007-.2Z" fill="#fc3"/>
      <path id="パス_4547" data-name="パス 4547" d="M109.266,171.487a1.717,1.717,0,0,0-.79.2,1.7,1.7,0,0,0-.686,2.365l12.383,19.418a1.044,1.044,0,0,1,.163.56c0,.327-.093,34.2-.085,40.406a2.022,2.022,0,0,0,2.022,2.022,2.1,2.1,0,0,0,2.026-2.107l-.024-23.867a2.147,2.147,0,0,1,2.152-2.152l.313.007a2.138,2.138,0,0,1,2.09,2.151l-.022,23.941a1.822,1.822,0,0,0,.919,1.684,2.7,2.7,0,0,0,2.581,0,1.823,1.823,0,0,0,.921-1.683l.006-40.258a1.04,1.04,0,0,1,.331-.759l.082-.077,12.187-19.11a1.7,1.7,0,0,0-2.943-1.715l-8.118,13.714a2.1,2.1,0,0,1-.663.689,1.027,1.027,0,0,1-.563.166l-13.453-.056a1.049,1.049,0,0,1-.639-.223,2.079,2.079,0,0,1-.5-.573l-8.224-13.9A1.713,1.713,0,0,0,109.266,171.487Z" fill="#fc3"/>
    </g>
  </g>
</svg>
