<svg xmlns="http://www.w3.org/2000/svg" width="200" height="120" viewBox="0 0 200 120">
  <g id="グループ_3169" data-name="グループ 3169" transform="translate(-838 -1654.586)">
    <rect id="長方形_706" data-name="長方形 706" width="200" height="120" transform="translate(838 1654.586)" fill="#ffb423"/>
    <g id="グループ_2784" data-name="グループ 2784" transform="translate(375.919 1638.057)">
      <path id="パス_4507" data-name="パス 4507" d="M559.587,108.274c.191.077,1.6.642,3.837,1.512,1.2-.509,2.245-.92,3.236-1.27,7.139-2.522,16.8-10.392,24.619-20.052,5.261-6.5,14.088-19.321,14.088-32.126A21.352,21.352,0,0,0,599.631,41.6a19.3,19.3,0,0,0-14.17-6.139,21.988,21.988,0,0,0-12.954,3.987,22.993,22.993,0,0,0-8.4,12.228,1,1,0,0,1-.955.7h-.215a1,1,0,0,1-.954-.7,23.136,23.136,0,0,0-8.336-12.231,21.569,21.569,0,0,0-12.8-3.984A19.493,19.493,0,0,0,526.7,41.528a21.207,21.207,0,0,0-5.863,14.81c0,7.2,2.337,18.583,13.467,31.875C541.436,96.731,551.122,104.416,559.587,108.274Z" fill="#fff"/>
      <path id="パス_4508" data-name="パス 4508" d="M580.882,81.064c0-2.124,0-4.3,0-5.778,0-1.888-1.566-4.234-2.691-5.676a3.183,3.183,0,0,0,.563-1.2,2.839,2.839,0,0,0-.694-2.83L578,65.531a4.088,4.088,0,0,0-2.488-.495c-2.637-7.078-6.66-7.163-12.164-7.279-.539-.011-1.1-.023-1.68-.041H561.6c-.569.018-1.118.03-1.648.041-5.523.12-9.561.208-12.187,7.278-1.69.012-2.253.243-2.6.5-.025.019-.049.039-.073.06a2.874,2.874,0,0,0-.653,2.9,3.17,3.17,0,0,0,.618,1.208c-1.129,1.422-2.863,3.859-2.86,5.4,0,1.5,0,3.7,0,5.851,0,1.891,0,3.741,0,5.037a1,1,0,0,0,1,1h2.3v.7a2.719,2.719,0,0,0,2.716,2.716h2.938a2.719,2.719,0,0,0,2.715-2.716v-.7h2.7v1.18a1,1,0,0,0,1,1h8.129a1,1,0,0,0,1-1V86.98h3.259v.71a2.719,2.719,0,0,0,2.715,2.716h2.938a2.719,2.719,0,0,0,2.716-2.716v-.71h1.551a1,1,0,0,0,1-1C580.885,84.712,580.884,82.908,580.882,81.064Z" fill="#fc3"/>
      <g id="グループ_2790" data-name="グループ 2790">
        <g id="グループ_2784-2" data-name="グループ 2784">
          <path id="パス_4509" data-name="パス 4509" d="M525.958,126.529a1.2,1.2,0,0,1-.274-2.368c9.014-2.121,25.375-8.979,34.628-13.015-.987-.391-1.546-.616-1.567-.624-8.928-4.064-18.677-11.788-26.125-20.681-11.554-13.8-13.98-25.718-13.98-33.287a23.4,23.4,0,0,1,6.477-16.336,21.677,21.677,0,0,1,15.734-6.739c10.121,0,18.187,5.431,22.2,14.922,4.025-9.491,12.168-14.922,22.413-14.922a21.476,21.476,0,0,1,15.772,6.83,23.551,23.551,0,0,1,6.334,16.245c0,5.787-1.894,17.837-14.578,33.511-8.054,9.952-18.1,18.093-25.6,20.742-.224.079-.451.162-.683.248,9.894,3.74,27.4,10.1,37.243,12.029a1.2,1.2,0,1,1-.444,2.358c-6.046-1.138-15.42-4-27.862-8.5-4.893-1.768-9.311-3.454-12.18-4.565l-.246.107c-7.76,3.422-26.9,11.635-36.99,14.009A1.194,1.194,0,0,1,525.958,126.529Zm14.893-90.65a19.3,19.3,0,0,0-14.005,6,21.009,21.009,0,0,0-5.806,14.671c0,7.172,2.328,18.5,13.42,31.747,7.114,8.495,16.776,16.161,25.214,20.008.181.072,1.559.625,3.75,1.477,1.167-.5,2.206-.9,3.173-1.242,7.108-2.512,16.736-10.358,24.53-19.99,5.245-6.481,14.043-19.255,14.043-32a21.157,21.157,0,0,0-5.681-14.6,19.1,19.1,0,0,0-14.025-6.075,21.777,21.777,0,0,0-12.836,3.949A22.791,22.791,0,0,0,564.3,51.953a1.193,1.193,0,0,1-1.145.844h-.215a1.2,1.2,0,0,1-1.146-.844,22.925,22.925,0,0,0-8.262-12.128A21.365,21.365,0,0,0,540.851,35.879Z"/>
          <path id="パス_4510" data-name="パス 4510" d="M525.958,126.329a1,1,0,0,1-.228-1.973c9.316-2.193,26.656-9.527,35.1-13.221-1.261-.5-1.987-.789-2.01-.8l-.041-.017c-8.856-4.032-18.579-11.735-26.008-20.607C521.257,75.961,518.84,64.09,518.84,56.554a23.2,23.2,0,0,1,6.421-16.2,21.48,21.48,0,0,1,15.59-6.678c10.181,0,18.323,5.649,22.2,15.244,3.887-9.6,12.106-15.244,22.413-15.244a21.278,21.278,0,0,1,15.626,6.767,23.346,23.346,0,0,1,6.28,16.108c0,5.761-1.888,17.758-14.533,33.384-8.033,9.927-18.045,18.044-25.507,20.68-.382.135-.773.279-1.179.436,9.683,3.711,27.7,10.33,37.768,12.227a1,1,0,1,1-.37,1.965c-6.033-1.136-15.4-3.992-27.831-8.488-4.809-1.738-9.167-3.4-12.252-4.594l-.323.141c-7.755,3.419-26.882,11.627-36.955,14A1.01,1.01,0,0,1,525.958,126.329ZM559.59,108.49c.192.077,1.6.642,3.838,1.512,1.2-.509,2.244-.92,3.236-1.27,7.138-2.522,16.8-10.393,24.618-20.052,5.262-6.5,14.088-19.321,14.088-32.126a21.356,21.356,0,0,0-5.735-14.736,19.3,19.3,0,0,0-14.171-6.139,21.983,21.983,0,0,0-12.953,3.987,22.988,22.988,0,0,0-8.4,12.228,1,1,0,0,1-.955.7h-.215a1,1,0,0,1-.955-.7,23.134,23.134,0,0,0-8.335-12.231,21.572,21.572,0,0,0-12.8-3.984A19.5,19.5,0,0,0,526.7,41.744a21.21,21.21,0,0,0-5.862,14.81c0,7.2,2.336,18.583,13.467,31.875C541.44,96.947,551.126,104.632,559.59,108.49Z"/>
        </g>
        <g id="グループ_2789" data-name="グループ 2789">
          <g id="グループ_2788" data-name="グループ 2788">
            <g id="グループ_2787" data-name="グループ 2787">
              <g id="グループ_2786" data-name="グループ 2786">
                <path id="パス_4511" data-name="パス 4511" d="M543.233,87.215a1.2,1.2,0,0,1-1.2-1.2c0-1.295.005-9.551,0-10.888,0-1.5,1.5-3.742,2.8-5.4a3.407,3.407,0,0,1-.556-1.155,3.076,3.076,0,0,1,.712-3.1l.085-.07a4.165,4.165,0,0,1,2.578-.538c2.674-7.069,6.725-7.157,12.319-7.279,0,0,1.122-.024,1.649-.041.656.019,1.215.03,1.754.041,5.577.118,9.615.2,12.3,7.281a4.015,4.015,0,0,1,2.468.534,3.044,3.044,0,0,1,.827,3.083,3.44,3.44,0,0,1-.508,1.152c1.227,1.592,2.641,3.827,2.641,5.679L581.114,86a1.2,1.2,0,0,1-1.2,1.2H566.046a1.2,1.2,0,1,1,0-2.4h12.668l-.006-9.494c0-1.032-1.165-3.116-2.834-5.07a1.2,1.2,0,0,1,.639-1.947,3.269,3.269,0,0,0,.16-.532,1.2,1.2,0,0,0-.008-.416,8.132,8.132,0,0,0-1.4-.086l-.408,0a1.207,1.207,0,0,1-1.16-.815c-2.135-6.294-4.887-6.351-10.37-6.466,0,0-1.136-.026-1.671-.041-.513.015-1.627.041-1.627.041-5.506.119-8.269.178-10.393,6.467a1.21,1.21,0,0,1-1.129.817c-.229,0-.4-.007-.563-.007a8.013,8.013,0,0,0-1.377.086,1.216,1.216,0,0,0,.027.586.824.824,0,0,0,.227.419,1.177,1.177,0,0,1,.871.773,1.206,1.206,0,0,1-.221,1.174c-2.075,2.424-3.04,4.313-3.039,4.827,0,1.338,0,9.691,0,9.691h12.786a1.2,1.2,0,1,1,0,2.4Z"/>
                <path id="パス_4512" data-name="パス 4512" d="M557.219,87.015H543.233a1,1,0,0,1-1-1c0-1.3,0-3.146,0-5.036,0-2.153,0-4.357,0-5.852,0-1.544,1.731-3.981,2.86-5.4a3.169,3.169,0,0,1-.618-1.208,2.874,2.874,0,0,1,.653-2.9c.024-.021.048-.041.073-.06.342-.254.905-.485,2.6-.5,2.626-7.07,6.664-7.158,12.187-7.278.529-.011,1.078-.023,1.648-.041.021,0,.043,0,.064,0,.581.018,1.141.03,1.68.041,5.5.117,9.527.2,12.164,7.279a4.077,4.077,0,0,1,2.488.5c.019.014.038.029.056.045a2.839,2.839,0,0,1,.7,2.83,3.183,3.183,0,0,1-.563,1.2c1.125,1.443,2.69,3.788,2.69,5.676,0,1.477,0,3.654,0,5.778,0,1.844,0,3.648,0,4.916a1,1,0,0,1-1,1H566.046a1,1,0,0,1,0-2h12.868c0-1.137,0-2.514,0-3.915,0-2.124,0-4.3,0-5.78,0-1.091-1.158-3.18-2.882-5.2a1,1,0,0,1,.533-1.624,1.092,1.092,0,0,0,.312-.7,1.152,1.152,0,0,0-.053-.615,8.112,8.112,0,0,0-1.961-.112h-.02a1,1,0,0,1-.947-.679c-2.18-6.426-4.978-6.485-10.554-6.6-.536-.011-1.093-.023-1.67-.041-.565.018-1.111.029-1.637.041-5.6.121-8.41.182-10.578,6.6a1,1,0,0,1-.972.68,8.448,8.448,0,0,0-2.059.108,1.249,1.249,0,0,0-.014.811c.1.356.279.538.349.552a1,1,0,0,1,.567,1.631c-1.934,2.259-3.088,4.295-3.086,4.957,0,1.5,0,3.7,0,5.857,0,1.445,0,2.866,0,4.034h12.987a1,1,0,0,1,0,2ZM546.337,67.2Zm30.56,0Z"/>
                <path id="パス_4513" data-name="パス 4513" d="M547.258,79.933a1,1,0,0,1-.893-.549,3.106,3.106,0,0,1,.316-3.6,3.607,3.607,0,0,1,3.772-.992,3.109,3.109,0,0,1,2.043,2.985,1,1,0,0,1-2,.091,1.165,1.165,0,0,0-.707-1.188,1.576,1.576,0,0,0-1.606.422,1.164,1.164,0,0,0-.035,1.381,1,1,0,0,1-.892,1.451Z"/>
                <path id="パス_4514" data-name="パス 4514" d="M549.185,81.087a3.072,3.072,0,0,1-1.841-.6,1,1,0,0,1,1.189-1.607,1.284,1.284,0,0,0,1.965-1.025,1,1,0,0,1,2-.062,3.174,3.174,0,0,1-1.753,2.906A3.357,3.357,0,0,1,549.185,81.087Z"/>
                <path id="パス_4515" data-name="パス 4515" d="M571.671,80.174a1,1,0,0,1-.843-.462,3.156,3.156,0,0,1-.033-3.75,3.568,3.568,0,0,1,3.742-1.242,3.161,3.161,0,0,1,2.212,3.03,1,1,0,1,1-1.995.143c-.05-.694-.313-1.116-.782-1.254a1.57,1.57,0,0,0-1.578.524,1.226,1.226,0,0,0,.119,1.473,1,1,0,0,1-.842,1.538Z"/>
                <path id="パス_4516" data-name="パス 4516" d="M573.467,81.091a3.11,3.11,0,0,1-1.27-.27A1,1,0,1,1,573.011,79a1.222,1.222,0,0,0,1.175-.131,1.2,1.2,0,0,0,.566-1.019,1,1,0,0,1,.976-1.023h.024a1,1,0,0,1,1,.977,3.191,3.191,0,0,1-1.456,2.73A3.294,3.294,0,0,1,573.467,81.091Z"/>
                <path id="パス_4517" data-name="パス 4517" d="M565.735,89.194h-8.129a1,1,0,0,1-1-1V83.835a1,1,0,0,1,1-1h8.129a1,1,0,0,1,1,1v4.359A1,1,0,0,1,565.735,89.194Zm-7.129-2h6.129V84.835h-6.129Z"/>
                <path id="パス_4518" data-name="パス 4518" d="M548.25,90.63a2.92,2.92,0,0,1-2.916-2.916v-1.7a1.2,1.2,0,0,1,2.4,0v1.7a.517.517,0,0,0,.516.516h2.938a.516.516,0,0,0,.515-.516v-1.7a1.2,1.2,0,0,1,2.4,0v1.7a2.92,2.92,0,0,1-2.915,2.916Z"/>
                <path id="パス_4519" data-name="パス 4519" d="M551.188,90.43H548.25a2.719,2.719,0,0,1-2.716-2.716v-1.7a1,1,0,0,1,2,0v1.7a.717.717,0,0,0,.716.716h2.938a.716.716,0,0,0,.715-.716v-1.7a1,1,0,0,1,2,0v1.7A2.718,2.718,0,0,1,551.188,90.43Z"/>
                <path id="パス_4520" data-name="パス 4520" d="M572.709,90.63a2.92,2.92,0,0,1-2.915-2.916v-1.7a1.2,1.2,0,1,1,2.4,0v1.7a.516.516,0,0,0,.515.516h2.938a.517.517,0,0,0,.516-.516v-1.7a1.2,1.2,0,1,1,2.4,0v1.7a2.92,2.92,0,0,1-2.916,2.916Z"/>
                <path id="パス_4521" data-name="パス 4521" d="M575.647,90.43h-2.938a2.718,2.718,0,0,1-2.715-2.716v-1.7a1,1,0,0,1,2,0v1.7a.716.716,0,0,0,.715.716h2.938a.717.717,0,0,0,.716-.716v-1.7a1,1,0,0,1,2,0v1.7A2.719,2.719,0,0,1,575.647,90.43Z"/>
                <g id="グループ_2785" data-name="グループ 2785">
                  <path id="パス_4522" data-name="パス 4522" d="M551.464,70.332a1,1,0,0,1-.861-1.507c.579-.985,1.046-1.829,1.458-2.573,2.5-4.509,3.063-5.085,9.464-5.1,6.566.031,6.952.455,9.986,6.032.275.5.575,1.057.908,1.66a1,1,0,0,1-.875,1.484h-16.7a1,1,0,0,1,0-2h15.008l-.1-.188c-1.372-2.522-2.06-3.787-2.985-4.359-.891-.551-2.283-.615-5.247-.629-5.464.009-5.506.085-7.711,4.066-.418.754-.892,1.609-1.484,2.617A1,1,0,0,1,551.464,70.332Z"/>
                </g>
              </g>
            </g>
          </g>
          <path id="パス_4523" data-name="パス 4523" d="M566.869,78.821H555.626a1,1,0,0,1,0-2h11.243a1,1,0,0,1,0,2Z"/>
        </g>
      </g>
    </g>
  </g>
</svg>
