<svg xmlns="http://www.w3.org/2000/svg" width="200" height="120" viewBox="0 0 200 120">
  <g id="グループ_3170" data-name="グループ 3170" transform="translate(-612 -1905.586)">
    <rect id="長方形_708" data-name="長方形 708" width="200" height="120" transform="translate(612 1905.586)" fill="#ffb423"/>
    <g id="グループ_2839" data-name="グループ 2839" transform="translate(287.147 1765.977)">
      <path id="パス_4590" data-name="パス 4590" d="M462.506,220.815a.92.92,0,0,0-.051-.332,4.323,4.323,0,0,0,.04-.58l-.074-10.257c-.023-3.317-3.087-7.628-5-10a5.474,5.474,0,0,0,1.323-3.745,3.559,3.559,0,0,0-1.264-2.948c-.462-.338-1.355-.725-4.19-.725l-.337,0c-1.295-2.919-2.293-4.984-2.969-6.137-2.324-3.954-6.291-6.024-12.125-6.325-3.9-.2-8.461-.3-8.967-.306h-.1c-.842.029-5.229.19-8.934.432-5.829.391-9.766,2.518-12.036,6.5-.661,1.16-1.628,3.232-2.875,6.159-3.252,0-4.225.422-4.711.789a3.556,3.556,0,0,0-1.215,2.958,5.346,5.346,0,0,0,1.531,3.869c-2.007,2.519-5.211,6.959-5.188,9.6l.072,10.612a2.014,2.014,0,0,0,.051.473,1.792,1.792,0,0,0-.054.437l.057,7.711a3.482,3.482,0,0,0,2.991,3.3,14.373,14.373,0,0,0,2.558.147l.012,1.7a4.049,4.049,0,0,0,4.05,4.025h.028l4.073-.028a4.057,4.057,0,0,0,4.024-4.079l-.012-1.713c.45,0,.9,0,1.354,0,2.408,0,4.542.024,6.539.07l.01,1.474a.934.934,0,0,0,.932.926h.007l14.361-.1a.932.932,0,0,0,.926-.938l-.01-1.476c2.754-.111,5.578-.176,8.258-.215l.012,1.754a4.049,4.049,0,0,0,4.05,4.025h.028l4.073-.027a4.053,4.053,0,0,0,4.023-4.079l-.012-1.78a9.541,9.541,0,0,0,1.882-.13,3.509,3.509,0,0,0,2.913-3.33Z" fill="#fff"/>
      <path id="パス_4591" data-name="パス 4591" d="M449.969,209.229h-.033a4.938,4.938,0,0,0-3.9,7.912.931.931,0,0,0,1.305.181s.007-.01.012-.014l.257.15c-.008.018-.024.03-.032.048a.932.932,0,0,0,.5,1.219,4.885,4.885,0,0,0,1.885.375H450a4.936,4.936,0,0,0-.033-9.871Z" fill="#fc3"/>
      <g id="グループ_2842" data-name="グループ 2842">
        <g id="グループ_2841" data-name="グループ 2841">
          <g id="グループ_2840" data-name="グループ 2840">
            <path id="パス_4592" data-name="パス 4592" d="M401.856,232.461a19.387,19.387,0,0,1-3.376-.15,3.482,3.482,0,0,1-2.991-3.3l-.057-7.711a1.792,1.792,0,0,1,.054-.437,2.014,2.014,0,0,1-.051-.473l-.072-10.612c-.023-2.642,3.181-7.082,5.188-9.6a5.346,5.346,0,0,1-1.531-3.869,3.556,3.556,0,0,1,1.215-2.958c.486-.367,1.459-.788,4.711-.789,1.247-2.927,2.214-5,2.875-6.159,2.27-3.984,6.207-6.111,12.036-6.5,3.705-.242,8.092-.4,8.934-.432h.1c.506.01,5.071.1,8.967.306,5.834.3,9.8,2.371,12.125,6.325.676,1.153,1.674,3.218,2.969,6.137l.337,0c2.835,0,3.728.387,4.19.725a3.559,3.559,0,0,1,1.264,2.948,5.474,5.474,0,0,1-1.323,3.745c1.914,2.37,4.978,6.681,5,10l.074,10.257a4.323,4.323,0,0,1-.04.58.92.92,0,0,1,.051.332l.053,7.724a3.509,3.509,0,0,1-2.913,3.33c-.467.127-1.638.146-6.442.171-4.473.024-10.6.056-16.347.3h0a1.132,1.132,0,0,1-.093-2.263c5.791-.244,11.941-.276,16.431-.3,2.68-.013,5.45-.028,5.889-.1.544-.156,1.218-.484,1.213-1.124l-.052-7.658a.8.8,0,0,1-.052-.217,1.094,1.094,0,0,1,0-.28l.017-.149a3.13,3.13,0,0,0,.028-.332l-.074-10.258c-.014-2.133-2.049-5.8-5.31-9.562a1.133,1.133,0,0,1,.37-1.764l.255-.114a2.593,2.593,0,0,0,.329-.161,3.2,3.2,0,0,0,.678-2.14,1.559,1.559,0,0,0-.341-1.141c-.011-.006-.485-.285-2.9-.285q-.449,0-.988.015h0a1.139,1.139,0,0,1-1.065-.677c-1.388-3.161-2.478-5.439-3.152-6.59-1.936-3.292-5.205-4.947-10.29-5.21-3.663-.191-8.027-.287-8.864-.3-1.23.044-5.373.2-8.87.428-5.082.341-8.329,2.046-10.219,5.365-.656,1.151-1.711,3.438-3.052,6.616a1.131,1.131,0,0,1-1.043.692c-.274-.006-.515-.008-.74-.008-2.782,0-3.338.325-3.361.338a1.527,1.527,0,0,0-.308,1.133,3.214,3.214,0,0,0,.7,2.129,3.887,3.887,0,0,0,.69.325,1.163,1.163,0,0,1,.732.8,1.135,1.135,0,0,1-.234,1c-3.173,3.758-5.556,7.718-5.543,9.211l.072,10.613a2.206,2.206,0,0,0,.032.294l.019.132a1.154,1.154,0,0,1,0,.322c-.013.083-.031.162-.051.241l.058,7.635c0,.738.871,1.024,1.245,1.113a28.2,28.2,0,0,0,2.852.089c1.345,0,3.014-.019,4.731-.039,2.427-.027,5.155-.058,8-.058,2.631,0,4.947.027,7.081.081a1.132,1.132,0,0,1-.031,2.263c-2.144-.054-4.444-.081-7.06-.081-2.827,0-5.543.032-7.936.059C404.652,232.444,403.079,232.461,401.856,232.461Z"/>
            <path id="パス_4593" data-name="パス 4593" d="M403.646,217.377a.931.931,0,0,1-.808-.468,4.935,4.935,0,1,1,9.217-2.485.931.931,0,0,1-.925.938h-.007a.931.931,0,0,1-.931-.926,3.074,3.074,0,0,0-3.069-3.053H407.1a3.074,3.074,0,0,0-2.649,4.6.931.931,0,0,1-.343,1.272A.919.919,0,0,1,403.646,217.377Z"/>
            <path id="パス_4594" data-name="パス 4594" d="M407.122,219.39a4.9,4.9,0,0,1-2.791-.864.932.932,0,0,1,1.054-1.537,3.057,3.057,0,0,0,1.737.537h.022a3.072,3.072,0,0,0,3.048-3.089.932.932,0,0,1,.925-.939h.007a.931.931,0,0,1,.931.926,4.932,4.932,0,0,1-4.9,4.966Z"/>
            <path id="パス_4595" data-name="パス 4595" d="M446.781,217.511a.931.931,0,0,1-.744-.37,4.937,4.937,0,0,1,3.9-7.912h.034a4.944,4.944,0,0,1,4.938,4.9.933.933,0,0,1-.926.938h-.006a.932.932,0,0,1-.932-.926,3.078,3.078,0,0,0-3.074-3.053h-.021a3.073,3.073,0,0,0-2.424,4.924.933.933,0,0,1-.743,1.494Z"/>
            <path id="パス_4596" data-name="パス 4596" d="M449.967,219.1a4.885,4.885,0,0,1-1.885-.375A.932.932,0,1,1,448.8,217a3.071,3.071,0,0,0,4.246-2.858.931.931,0,0,1,.925-.938h.007a.932.932,0,0,1,.932.926A4.932,4.932,0,0,1,450,219.1Z"/>
            <path id="パス_4597" data-name="パス 4597" d="M422.048,234.833a.934.934,0,0,1-.932-.926l-.052-7.7a.932.932,0,0,1,.926-.938l14.361-.1h.007a.932.932,0,0,1,.932.925l.052,7.7a.932.932,0,0,1-.926.938l-14.361.1Zm.887-7.708.039,5.838,12.5-.085-.039-5.837Z"/>
            <path id="パス_4598" data-name="パス 4598" d="M416.4,211.219a.932.932,0,0,1-.006-1.864l23.692-.161h.007a.932.932,0,0,1,.006,1.864l-23.693.161Z"/>
            <path id="パス_4599" data-name="パス 4599" d="M416.435,215.833a.932.932,0,0,1-.006-1.863l23.693-.161h.006a.932.932,0,0,1,.007,1.864l-23.694.16Z"/>
            <path id="パス_4600" data-name="パス 4600" d="M416.466,220.448a.932.932,0,0,1-.006-1.864l23.693-.16h.007a.932.932,0,0,1,.006,1.864l-23.693.16Z"/>
            <g id="グループ_2839-2" data-name="グループ 2839">
              <path id="パス_4601" data-name="パス 4601" d="M407.736,201.542a.933.933,0,0,1-.812-1.389c2.3-4.088,5.044-8.845,5.946-10.407.166-.289.273-.473.3-.53.958-1.682,2.856-3.961,8.249-4.324,3.1-.2,6.788-.334,7.2-.348a.431.431,0,0,1,.051,0c.406.008,4.063.083,7.2.247,5.4.278,7.327,2.529,8.309,4.2l.183.309c2.46,4.15,4.521,7.707,6.127,10.572a.932.932,0,0,1-.807,1.388l-37.077.251h-.007a.932.932,0,0,1-.006-1.864l35.495-.24c-1.469-2.589-3.256-5.661-5.328-9.156l-.188-.317c-1.565-2.662-4.314-3.152-6.8-3.28-3.067-.16-6.747-.237-7.119-.244-.515.018-4.1.148-7.114.344-4.421.3-5.895,1.879-6.754,3.387l-.31.538c-.9,1.561-3.642,6.31-5.935,10.389A.932.932,0,0,1,407.736,201.542Z"/>
            </g>
          </g>
          <path id="パス_4602" data-name="パス 4602" d="M405.1,238.187a4.049,4.049,0,0,1-4.05-4.025l-.019-2.757a1.132,1.132,0,0,1,2.264-.014l.019,2.757a1.791,1.791,0,0,0,1.787,1.774l4.085-.027a1.789,1.789,0,0,0,1.774-1.8l-.019-2.865a1.132,1.132,0,1,1,2.264-.015l.02,2.864a4.057,4.057,0,0,1-4.024,4.079l-4.073.028Z"/>
          <path id="パス_4603" data-name="パス 4603" d="M449.652,237.885a4.049,4.049,0,0,1-4.05-4.025l-.019-2.756a1.132,1.132,0,1,1,2.264-.015l.019,2.757a1.791,1.791,0,0,0,1.786,1.775l4.085-.028a1.788,1.788,0,0,0,1.775-1.8l-.019-2.865a1.132,1.132,0,1,1,2.264-.015l.019,2.865a4.053,4.053,0,0,1-4.023,4.079l-4.073.027Z"/>
        </g>
      </g>
      <path id="パス_4604" data-name="パス 4604" d="M409.354,199.64c2.093-3.7,4.332-7.581,5.13-8.963l.31-.538c.859-1.508,2.333-3.09,6.754-3.387,3.011-.2,6.6-.326,7.114-.345.372.008,4.052.085,7.119.245,2.482.128,5.232.618,6.8,3.28l.188.317c2.072,3.5,3.859,6.567,5.328,9.156Z" fill="#fc3"/>
      <path id="パス_4605" data-name="パス 4605" d="M407.144,217.526h-.022a3.057,3.057,0,0,1-1.737-.537.687.687,0,0,1-.932-1.009,3.072,3.072,0,0,1,2.649-4.6h.021a3.074,3.074,0,0,1,3.069,3.053h0A3.072,3.072,0,0,1,407.144,217.526Z" fill="#fc3"/>
      <path id="パス_4606" data-name="パス 4606" d="M467.608,227.564a1.187,1.187,0,0,1-1.187-1.179l-.055-8.058-.086-.179.041-.342a3.627,3.627,0,0,0,.034-.459l-.078-10.734c-.016-2.288-1.827-5.833-4.97-9.726l-.681-.843.778-.754a4.606,4.606,0,0,0,1.023-3.058,2.587,2.587,0,0,0-.84-2.139c-.6-.436-2.33-.527-3.68-.527l-1.123.005-.315-.709c-1.338-3.017-2.363-5.138-3.046-6.3-2.213-3.766-6.049-5.74-11.727-6.034-4.288-.223-9.293-.317-9.344-.318h-.083a1.187,1.187,0,0,1-.011-2.373h.105c.083,0,5.129.1,9.457.321,6.535.338,11,2.695,13.65,7.2.672,1.147,1.631,3.108,2.854,5.838,2.973.041,4.03.518,4.668.985a4.866,4.866,0,0,1,1.808,4.036,7.617,7.617,0,0,1-1.057,3.925c2.35,3.032,4.884,7.08,4.907,10.456l.078,10.733a5.145,5.145,0,0,1-.026.531,2.586,2.586,0,0,1,.037.428l.055,8.08a1.187,1.187,0,0,1-1.178,1.195Z"/>
      <path id="パス_4607" data-name="パス 4607" d="M473.886,222.3a1.186,1.186,0,0,1-1.186-1.179l-.055-8.059-.086-.181.041-.339a3.617,3.617,0,0,0,.033-.458l-.077-10.734c-.016-2.288-1.827-5.833-4.97-9.727l-.682-.844.78-.753a4.607,4.607,0,0,0,1.023-3.058,2.593,2.593,0,0,0-.841-2.138c-.47-.344-1.744-.528-3.68-.528l-1.123.006-.315-.709c-1.337-3.016-2.362-5.136-3.046-6.3-2.214-3.767-6.05-5.74-11.726-6.034-3.755-.2-8.1-.293-9.342-.318h-.086a1.187,1.187,0,0,1-.011-2.374h.106c1.29.025,5.667.124,9.456.322,6.534.337,11,2.693,13.65,7.2.673,1.148,1.632,3.11,2.854,5.838,2.964.039,4,.5,4.669.986a4.872,4.872,0,0,1,1.808,4.033,7.62,7.62,0,0,1-1.058,3.927c2.35,3.032,4.884,7.079,4.907,10.455l.078,10.735a5.116,5.116,0,0,1-.026.53,2.569,2.569,0,0,1,.037.428l.055,8.08a1.187,1.187,0,0,1-1.178,1.194Z"/>
      <path id="パス_4608" data-name="パス 4608" d="M414.869,199.318a4.5,4.5,0,0,1-4.5,4.5H384.375a4.5,4.5,0,0,1-4.5-4.5V173.325a4.5,4.5,0,0,1,4.5-4.5l2.753-2a4.5,4.5,0,0,1,4.247-3.008h20a8.5,8.5,0,0,1,8.5,8.5v20a4.5,4.5,0,0,1-3.008,4.247Zm-31.994-25.993v25.993a1.5,1.5,0,0,0,1.5,1.5h25.994a1.5,1.5,0,0,0,1.5-1.5V173.325a1.5,1.5,0,0,0-1.5-1.5H384.375A1.5,1.5,0,0,0,382.875,173.325Z" fill="#fc3"/>
      <rect id="長方形_714" data-name="長方形 714" width="28.994" height="28.994" rx="1.5" transform="translate(382.853 171.916)" fill="#fff"/>
      <path id="パス_4609" data-name="パス 4609" d="M387.106,166.917a4.5,4.5,0,0,1,4.247-3.007h20a8.5,8.5,0,0,1,8.5,8.5v20a4.5,4.5,0,0,1-3.008,4.246l.007-4.194V172.41a5.5,5.5,0,0,0-5.5-5.5h-20l-.1.008Zm-7.253,6.5a4.5,4.5,0,0,1,4.5-4.5h25.993a4.5,4.5,0,0,1,4.5,4.5V199.41a4.5,4.5,0,0,1-4.5,4.5H384.353a4.5,4.5,0,0,1-4.5-4.5Zm3,0V199.41a1.5,1.5,0,0,0,1.5,1.5h25.993a1.5,1.5,0,0,0,1.5-1.5V173.416a1.5,1.5,0,0,0-1.5-1.5H384.353A1.5,1.5,0,0,0,382.853,173.416Z"/>
      <path id="パス_4610" data-name="パス 4610" d="M395.141,187.947l7.777-7.777a1.5,1.5,0,0,1,2.267,1.953l-.146.168-9,9a1.5,1.5,0,0,1-2.113.008l-.147-.169-3-4a1.5,1.5,0,0,1,2.254-1.967l.146.167,1.962,2.617,7.777-7.777Z"/>
    </g>
  </g>
</svg>
