<svg xmlns="http://www.w3.org/2000/svg" width="200" height="120" viewBox="0 0 200 120">
  <g id="グループ_3167" data-name="グループ 3167" transform="translate(-386 -1654.586)">
    <rect id="長方形_703" data-name="長方形 703" width="200" height="120" transform="translate(386 1654.586)" fill="#ffb423"/>
    <g id="グループ_2777" data-name="グループ 2777" transform="translate(226.932 1633.057)">
      <g id="グループ_2689" data-name="グループ 2689">
        <path id="パス_4382" data-name="パス 4382" d="M287.573,79.452a3.54,3.54,0,0,1-3.011-1.673,29.468,29.468,0,0,0-50.108,0,3.54,3.54,0,0,1-6.015-3.734,36.548,36.548,0,0,1,62.138,0,3.54,3.54,0,0,1-3,5.407Z" fill="#fc3"/>
        <path id="パス_4383" data-name="パス 4383" d="M287.573,80.88a4.941,4.941,0,0,1-4.224-2.349,28.041,28.041,0,0,0-47.681,0,4.968,4.968,0,1,1-8.441-5.24,37.975,37.975,0,0,1,64.563,0,4.968,4.968,0,0,1-4.217,7.588ZM259.508,62.4a30.741,30.741,0,0,1,26.268,14.628,2.157,2.157,0,0,0,2.907.681,2.11,2.11,0,0,0,.681-2.907,35.12,35.12,0,0,0-59.711,0,2.112,2.112,0,0,0,.68,2.908,2.117,2.117,0,0,0,2.908-.682A30.741,30.741,0,0,1,259.508,62.4Z" fill="#231815"/>
      </g>
      <g id="グループ_2690" data-name="グループ 2690">
        <path id="パス_4384" data-name="パス 4384" d="M289.274,79a3.518,3.518,0,0,1-4.712-1.226,29.468,29.468,0,0,0-50.108,0A3.532,3.532,0,0,1,229.745,79,32.877,32.877,0,0,0,226.5,93.3v8.113a11.64,11.64,0,0,0,11.64,11.64H280.88a11.639,11.639,0,0,0,11.64-11.64V93.3A32.882,32.882,0,0,0,289.274,79Z" fill="#fff"/>
        <path id="パス_4385" data-name="パス 4385" d="M280.88,114.478H238.136a13.082,13.082,0,0,1-13.068-13.068V93.3a34.125,34.125,0,0,1,3.39-14.916,1.429,1.429,0,0,1,1.976-.632,2.1,2.1,0,0,0,2.807-.725,30.9,30.9,0,0,1,52.535,0,2.114,2.114,0,0,0,2.809.729,1.429,1.429,0,0,1,1.976.632A34.118,34.118,0,0,1,293.948,93.3v8.113A13.082,13.082,0,0,1,280.88,114.478ZM230.5,80.777a31.305,31.305,0,0,0-2.578,12.52v8.113a10.224,10.224,0,0,0,10.212,10.212H280.88a10.223,10.223,0,0,0,10.212-10.212V93.3a31.289,31.289,0,0,0-2.574-12.511,4.961,4.961,0,0,1-5.169-2.255,28.041,28.041,0,0,0-47.681,0A4.948,4.948,0,0,1,230.5,80.777Z" fill="#231815"/>
      </g>
      <g id="グループ_2693" data-name="グループ 2693">
        <g id="グループ_2691" data-name="グループ 2691">
          <path id="パス_4386" data-name="パス 4386" d="M259.508,51.29a5.049,5.049,0,1,1-5.05-5.05A5.049,5.049,0,0,1,259.508,51.29Z" fill="#fc3"/>
          <path id="パス_4387" data-name="パス 4387" d="M254.459,57.767a6.477,6.477,0,1,1,6.478-6.477A6.485,6.485,0,0,1,254.459,57.767Zm0-10.1a3.622,3.622,0,1,0,3.621,3.622A3.626,3.626,0,0,0,254.459,47.668Z" fill="#231815"/>
        </g>
        <g id="グループ_2692" data-name="グループ 2692">
          <path id="パス_4388" data-name="パス 4388" d="M269.608,51.29a5.05,5.05,0,1,1-5.05-5.05A5.049,5.049,0,0,1,269.608,51.29Z" fill="#fc3"/>
          <path id="パス_4389" data-name="パス 4389" d="M264.558,57.767a6.477,6.477,0,1,1,6.478-6.477A6.485,6.485,0,0,1,264.558,57.767Zm0-10.1a3.622,3.622,0,1,0,3.621,3.622A3.626,3.626,0,0,0,264.558,47.668Z" fill="#231815"/>
        </g>
      </g>
    </g>
  </g>
</svg>
