<svg xmlns="http://www.w3.org/2000/svg" width="79.355" height="17.81" viewBox="0 0 79.355 17.81">
  <g id="グループ_717" data-name="グループ 717" transform="translate(-129.26 -121.707)">
    <g id="グループ_714" data-name="グループ 714">
      <path id="パス_440" data-name="パス 440" d="M235.65,141.557c1.034-1.152,6.184-4.33,7.444-4.47-.584-.464-9.082-6.362-9.22-6.438-.266-.148.12-.564.448-.3.22.184,2.934,1.982,3.276,2.228,1.738,1.236,4.53.182,5.554-.562-.612-.49-7.126-4.88-7.292-5.2l.022.024c-.754,1.21-6,4.4-7.266,4.542.582.464,8.836,6.334,8.972,6.408.45.246.028.526-.392.274-.248-.148-3.12-2.176-3.478-2.39a5.056,5.056,0,0,0-5.232.746c.61.49,6.994,4.814,7.164,5.132Z" transform="translate(-96.84 -3.77)" fill="none" stroke="#fff" stroke-linecap="round" stroke-linejoin="round" stroke-width="2.688"/>
      <g id="グループ_713" data-name="グループ 713">
        <path id="パス_441" data-name="パス 441" d="M239.863,133.609a2.442,2.442,0,0,1-2.238-2.418c0-1.748,1.94-2.742,5.022-2.742,2.624,0,5.042.872,5.042,2.832h-3.744c-.022-.644-.976-1.018-1.6-1-.664.022-1.194.326-1.194.582,0,.482.538.486.974.594.8.184,2.462.364,3.526.716,1.332.446,2.284,1.3,2.284,2.322,0,2.072-2.432,2.968-5.414,2.924-3.1-.042-5.078-.716-5.078-2.918h4.16a.794.794,0,0,0,.364.676,4.892,4.892,0,0,0,1.3.234c.61,0,1-.316,1-.69,0-.314-.31-.554-.884-.626a25.354,25.354,0,0,1-3.526-.49Z" transform="translate(-87.883 -2.142)" fill="none" stroke="#fff" stroke-linecap="round" stroke-linejoin="round" stroke-width="2.688"/>
        <path id="パス_442" data-name="パス 442" d="M252.871,134.185c0,2.35-1.44,3.126-4.875,3.126-3.188,0-5.005-.6-5.005-3.126v-5.624h3.188v5.484c0,.826.732,1.184,1.834,1.184,1.006,0,1.71-.422,1.71-1.184v-5.484h3.15v5.624Z" transform="translate(-82.337 -2.03)" fill="none" stroke="#fff" stroke-linecap="round" stroke-linejoin="round" stroke-width="2.688"/>
        <path id="パス_443" data-name="パス 443" d="M248.274,135.272l4.925-4.516h-4.7v-2.2h9.734v1.857l-4.921,4.545h4.876v2.152h-9.914v-1.842Z" transform="translate(-77.052 -2.03)" fill="none" stroke="#fff" stroke-linecap="round" stroke-linejoin="round" stroke-width="2.688"/>
        <path id="パス_444" data-name="パス 444" d="M263.51,134.185c0,2.4-1.856,3.126-5.046,3.126s-4.834-.51-4.834-3.126v-5.624h3.17v5.484c0,.664.712,1.114,1.688,1.114,1.13,0,1.838-.45,1.838-1.114v-5.484h3.184v5.624Z" transform="translate(-71.698 -2.03)" fill="none" stroke="#fff" stroke-linecap="round" stroke-linejoin="round" stroke-width="2.688"/>
        <path id="パス_445" data-name="パス 445" d="M258.94,128.561h3.215v2.987h.029l3.607-2.987h4.124l-4.813,4.182,4.654,4.394H265.6l-3.417-3.019h-.029v3.019H258.94v-8.575Z" transform="translate(-66.387 -2.03)" fill="none" stroke="#fff" stroke-linecap="round" stroke-linejoin="round" stroke-width="2.688"/>
        <path id="パス_446" data-name="パス 446" d="M264.671,128.561h3.256v8.554h-3.256v-8.554Z" transform="translate(-60.656 -2.03)" fill="none" stroke="#fff" stroke-linecap="round" stroke-linejoin="round" stroke-width="2.688"/>
      </g>
    </g>
    <g id="グループ_716" data-name="グループ 716">
      <path id="パス_447" data-name="パス 447" d="M235.65,141.557c1.034-1.152,6.184-4.33,7.444-4.47-.584-.464-9.082-6.362-9.22-6.438-.266-.148.12-.564.448-.3.22.184,2.934,1.982,3.276,2.228,1.738,1.236,4.53.182,5.554-.562-.612-.49-7.126-4.88-7.292-5.2l.022.024c-.754,1.21-6,4.4-7.266,4.542.582.464,8.836,6.334,8.972,6.408.45.246.028.526-.392.274-.248-.148-3.12-2.176-3.478-2.39a5.056,5.056,0,0,0-5.232.746c.61.49,6.994,4.814,7.164,5.132Z" transform="translate(-96.84 -3.77)" fill="#e5001f" stroke="rgba(0,0,0,0)" stroke-width="2" fill-rule="evenodd"/>
      <g id="グループ_715" data-name="グループ 715">
        <path id="パス_448" data-name="パス 448" d="M239.863,133.609a2.442,2.442,0,0,1-2.238-2.418c0-1.748,1.94-2.742,5.022-2.742,2.624,0,5.042.872,5.042,2.832h-3.744c-.022-.644-.976-1.018-1.6-1-.664.022-1.194.326-1.194.582,0,.482.538.486.974.594.8.184,2.462.364,3.526.716,1.332.446,2.284,1.3,2.284,2.322,0,2.072-2.432,2.968-5.414,2.924-3.1-.042-5.078-.716-5.078-2.918h4.16a.794.794,0,0,0,.364.676,4.892,4.892,0,0,0,1.3.234c.61,0,1-.316,1-.69,0-.314-.31-.554-.884-.626a25.354,25.354,0,0,1-3.526-.49Z" transform="translate(-87.883 -2.142)" fill="#0068b6" stroke="rgba(0,0,0,0)" stroke-width="2" fill-rule="evenodd"/>
        <path id="パス_449" data-name="パス 449" d="M252.871,134.185c0,2.35-1.44,3.126-4.875,3.126-3.188,0-5.005-.6-5.005-3.126v-5.624h3.188v5.484c0,.826.732,1.184,1.834,1.184,1.006,0,1.71-.422,1.71-1.184v-5.484h3.15v5.624Z" transform="translate(-82.337 -2.03)" fill="#0068b6" stroke="rgba(0,0,0,0)" stroke-width="2" fill-rule="evenodd"/>
        <path id="パス_450" data-name="パス 450" d="M248.274,135.272l4.925-4.516h-4.7v-2.2h9.734v1.857l-4.921,4.545h4.876v2.152h-9.914v-1.842Z" transform="translate(-77.052 -2.03)" fill="#0068b6" stroke="rgba(0,0,0,0)" stroke-width="2" fill-rule="evenodd"/>
        <path id="パス_451" data-name="パス 451" d="M263.51,134.185c0,2.4-1.856,3.126-5.046,3.126s-4.834-.51-4.834-3.126v-5.624h3.17v5.484c0,.664.712,1.114,1.688,1.114,1.13,0,1.838-.45,1.838-1.114v-5.484h3.184v5.624Z" transform="translate(-71.698 -2.03)" fill="#0068b6" stroke="rgba(0,0,0,0)" stroke-width="2" fill-rule="evenodd"/>
        <path id="パス_452" data-name="パス 452" d="M258.94,128.561h3.215v2.987h.029l3.607-2.987h4.124l-4.813,4.182,4.654,4.394H265.6l-3.417-3.019h-.029v3.019H258.94v-8.575Z" transform="translate(-66.387 -2.03)" fill="#0068b6" stroke="rgba(0,0,0,0)" stroke-width="2" fill-rule="evenodd"/>
        <path id="パス_453" data-name="パス 453" d="M264.671,128.561h3.256v8.554h-3.256v-8.554Z" transform="translate(-60.656 -2.03)" fill="#0068b6" stroke="rgba(0,0,0,0)" stroke-width="2" fill-rule="evenodd"/>
      </g>
    </g>
  </g>
</svg>
