<svg xmlns="http://www.w3.org/2000/svg" xmlns:xlink="http://www.w3.org/1999/xlink" width="203.673" height="171.389" viewBox="0 0 203.673 171.389">
  <defs>
    <linearGradient id="linear-gradient" x1="-4.478" y1="1.469" x2="-3.478" y2="1.469" gradientUnits="objectBoundingBox">
      <stop offset="0" stop-color="#fff3a6"/>
      <stop offset="0.077" stop-color="#f9df7b"/>
      <stop offset="0.163" stop-color="#e0bc54"/>
      <stop offset="0.249" stop-color="#cda136"/>
      <stop offset="0.332" stop-color="#bf8d21"/>
      <stop offset="0.414" stop-color="#b78114"/>
      <stop offset="0.489" stop-color="#b57e10"/>
      <stop offset="0.559" stop-color="#b78114"/>
      <stop offset="0.632" stop-color="#bf8d20"/>
      <stop offset="0.706" stop-color="#cca035"/>
      <stop offset="0.781" stop-color="#dfba52"/>
      <stop offset="0.856" stop-color="#f7dc77"/>
      <stop offset="0.862" stop-color="#f9df7b"/>
      <stop offset="1" stop-color="#fff3a6"/>
    </linearGradient>
    <linearGradient id="linear-gradient-2" x1="-4.265" y1="1.101" x2="-3.558" y2="1.808" xlink:href="#linear-gradient"/>
    <linearGradient id="linear-gradient-3" x1="0.173" y1="0.173" x2="0.583" y2="0.583" gradientUnits="objectBoundingBox">
      <stop offset="0" stop-color="#fff"/>
      <stop offset="1" stop-color="#805c44"/>
    </linearGradient>
    <linearGradient id="linear-gradient-4" x1="0.213" y1="0.988" x2="0.832" y2="0.054" gradientUnits="objectBoundingBox">
      <stop offset="0" stop-color="#fff4a3"/>
      <stop offset="0.077" stop-color="#f9c600"/>
      <stop offset="0.088" stop-color="#f5c200"/>
      <stop offset="0.193" stop-color="#d9a407"/>
      <stop offset="0.296" stop-color="#c58f0c"/>
      <stop offset="0.396" stop-color="#b9820f"/>
      <stop offset="0.489" stop-color="#b57e10"/>
      <stop offset="0.575" stop-color="#b8820f"/>
      <stop offset="0.664" stop-color="#c48e0c"/>
      <stop offset="0.755" stop-color="#d8a307"/>
      <stop offset="0.847" stop-color="#f3c001"/>
      <stop offset="0.862" stop-color="#f9c600"/>
      <stop offset="1" stop-color="#fff4a3"/>
    </linearGradient>
    <linearGradient id="linear-gradient-5" x1="0.393" y1="0.612" x2="0.799" y2="-0.02" gradientUnits="objectBoundingBox">
      <stop offset="0" stop-color="#f9c600"/>
      <stop offset="0.026" stop-color="#f5c200"/>
      <stop offset="0.281" stop-color="#d9a407"/>
      <stop offset="0.531" stop-color="#c58f0c"/>
      <stop offset="0.774" stop-color="#b9820f"/>
      <stop offset="1" stop-color="#b57e10"/>
    </linearGradient>
    <linearGradient id="linear-gradient-6" x1="-17.179" y1="0.988" x2="-16.56" y2="0.054" xlink:href="#linear-gradient-4"/>
    <linearGradient id="linear-gradient-7" x1="-44.796" y1="0.612" x2="-44.39" y2="-0.02" xlink:href="#linear-gradient-5"/>
    <linearGradient id="linear-gradient-8" y1="0.5" x2="1" y2="0.5" gradientUnits="objectBoundingBox">
      <stop offset="0" stop-color="#b57e10"/>
      <stop offset="0.2" stop-color="#f9df7b"/>
      <stop offset="0.203" stop-color="#f7dc78"/>
      <stop offset="0.258" stop-color="#dab34b"/>
      <stop offset="0.307" stop-color="#c6962a"/>
      <stop offset="0.347" stop-color="#b98417"/>
      <stop offset="0.375" stop-color="#b57e10"/>
      <stop offset="0.48" stop-color="#c18811"/>
      <stop offset="0.5" stop-color="#c48b12"/>
      <stop offset="0.617" stop-color="#b78010"/>
      <stop offset="0.639" stop-color="#b57e10"/>
      <stop offset="0.668" stop-color="#bc881c"/>
      <stop offset="0.719" stop-color="#d1a63c"/>
      <stop offset="0.787" stop-color="#f2d570"/>
      <stop offset="0.8" stop-color="#f9df7b"/>
      <stop offset="0.886" stop-color="#ddb74f"/>
      <stop offset="1" stop-color="#b57e10"/>
    </linearGradient>
    <linearGradient id="linear-gradient-9" y1="0.5" x2="1" y2="0.5" gradientUnits="objectBoundingBox">
      <stop offset="0.14" stop-color="#f9c600"/>
      <stop offset="0.258" stop-color="#fff4a3"/>
      <stop offset="0.36" stop-color="#f9c600"/>
      <stop offset="0.613" stop-color="#f9c600"/>
      <stop offset="0.72" stop-color="#fff4a3"/>
      <stop offset="0.839" stop-color="#f9c600"/>
    </linearGradient>
    <linearGradient id="linear-gradient-10" x1="-35.581" y1="37.176" x2="-35.215" y2="36.129" gradientUnits="objectBoundingBox">
      <stop offset="0" stop-color="#c8972e"/>
      <stop offset="0.151" stop-color="#b57e10"/>
      <stop offset="0.43" stop-color="#f9c600"/>
      <stop offset="0.591" stop-color="#fff4a3"/>
      <stop offset="0.726" stop-color="#f9c600"/>
      <stop offset="0.926" stop-color="#b57e10"/>
      <stop offset="1" stop-color="#cd9000"/>
    </linearGradient>
    <linearGradient id="linear-gradient-11" x1="-55.984" y1="56.091" x2="-55.618" y2="55.044" xlink:href="#linear-gradient-10"/>
    <linearGradient id="linear-gradient-12" x1="-88.057" y1="-35.987" x2="-87.176" y2="-35.366" xlink:href="#linear-gradient-10"/>
    <linearGradient id="linear-gradient-13" x1="-0.442" y1="1.504" x2="2.768" y2="-1.717" xlink:href="#linear-gradient-10"/>
    <linearGradient id="linear-gradient-14" x1="-1.086" y1="2.086" x2="2.498" y2="-1.396" xlink:href="#linear-gradient-10"/>
    <linearGradient id="linear-gradient-15" x1="-1.136" y1="2.245" x2="1.323" y2="-0.331" xlink:href="#linear-gradient-10"/>
  </defs>
  <g id="グループ_381" data-name="グループ 381" transform="translate(-300 -3583.306)">
    <g id="グループ_380" data-name="グループ 380" transform="translate(81.25 3460.43)" style="isolation: isolate">
      <g id="グループ_377" data-name="グループ 377" transform="translate(218.75 122.876)">
        <g id="グループ_364" data-name="グループ 364" transform="translate(16.142 0)">
          <g id="グループ_363" data-name="グループ 363">
            <path id="パス_182" data-name="パス 182" d="M291.641,151.094c2.636-2.636,7.615-2.535,10.5-4.741,2.95-2.258,4.161-7.084,7.322-8.892,3.215-1.838,7.992-.428,11.376-1.8,3.3-1.339,5.617-5.639,9.034-6.534,3.44-.9,7.567,1.715,11.078,1.263s6.852-4.026,10.4-4.026,6.876,3.573,10.4,4.026,7.637-2.164,11.078-1.263c3.417.9,5.731,5.195,9.034,6.534,3.384,1.372,8.161-.038,11.376,1.8,3.161,1.808,4.372,6.633,7.322,8.892,2.881,2.206,7.86,2.1,10.5,4.741s2.535,7.615,4.741,10.5c2.258,2.95,7.084,4.161,8.892,7.322,1.839,3.215.428,7.992,1.8,11.376,1.339,3.3,5.639,5.617,6.534,9.034.9,3.44-1.714,7.567-1.263,11.078s4.026,6.852,4.026,10.4-3.573,6.876-4.026,10.4,2.164,7.638,1.263,11.078c-.9,3.417-5.2,5.731-6.534,9.034-1.372,3.384.038,8.162-1.8,11.377-1.808,3.161-6.633,4.372-8.892,7.322-2.206,2.882-2.1,7.861-4.741,10.5s-7.615,2.535-10.5,4.741c-2.95,2.258-4.161,7.084-7.322,8.892-3.215,1.838-7.992.428-11.376,1.8-3.3,1.339-5.617,5.639-9.034,6.534-3.44.9-7.567-1.715-11.078-1.263s-6.852,4.026-10.4,4.026-6.876-3.573-10.4-4.026-7.637,2.165-11.078,1.263c-3.417-.9-5.731-5.195-9.034-6.534-3.384-1.372-8.161.038-11.376-1.8-3.161-1.807-4.372-6.633-7.322-8.892-2.882-2.206-7.861-2.1-10.5-4.741s-2.535-7.615-4.741-10.5c-2.258-2.95-7.084-4.161-8.892-7.322-1.838-3.215-.428-7.992-1.8-11.377-1.339-3.3-5.639-5.616-6.534-9.034-.9-3.44,1.715-7.567,1.263-11.078s-4.026-6.852-4.026-10.4,3.573-6.876,4.026-10.4-2.164-7.637-1.263-11.078c.9-3.417,5.2-5.731,6.534-9.034,1.372-3.384-.038-8.161,1.8-11.376,1.808-3.161,6.633-4.372,8.892-7.322C289.107,158.71,289.005,153.73,291.641,151.094Z" transform="translate(-265.651 -125.104)" fill="url(#linear-gradient)"/>
            <g id="グループ_362" data-name="グループ 362">
              <path id="パス_183" data-name="パス 183" d="M349.118,294.265c-2.219,0-4.225-1.115-6.166-2.194a8.93,8.93,0,0,0-9.088-1.172c-2.156.554-4.385,1.127-6.54.562-2.138-.56-3.793-2.146-5.394-3.679a13.383,13.383,0,0,0-3.794-2.906,14.223,14.223,0,0,0-4.839-.623c-2.3-.051-4.681-.1-6.69-1.252-1.966-1.124-3.206-3.125-4.4-5.06a14.451,14.451,0,0,0-3.058-3.925,14.13,14.13,0,0,0-4.474-1.865c-2.212-.657-4.5-1.337-6.147-2.985s-2.328-3.936-2.985-6.148a14.122,14.122,0,0,0-1.865-4.474,14.443,14.443,0,0,0-3.924-3.057c-1.935-1.2-3.936-2.439-5.06-4.4-1.149-2.009-1.2-4.388-1.252-6.69a14.215,14.215,0,0,0-.623-4.839,13.392,13.392,0,0,0-2.907-3.794c-1.533-1.6-3.119-3.256-3.679-5.394-.564-2.155.009-4.384.563-6.54a13.291,13.291,0,0,0,.67-4.7,13.336,13.336,0,0,0-1.842-4.392c-1.079-1.941-2.194-3.948-2.194-6.166s1.116-4.225,2.195-6.166a13.336,13.336,0,0,0,1.842-4.392,13.293,13.293,0,0,0-.67-4.7c-.554-2.155-1.127-4.384-.563-6.54.56-2.138,2.146-3.794,3.679-5.394a13.4,13.4,0,0,0,2.906-3.794,14.226,14.226,0,0,0,.623-4.839c.051-2.3.1-4.68,1.252-6.69,1.124-1.966,3.125-3.206,5.06-4.4a14.446,14.446,0,0,0,3.924-3.058,14.122,14.122,0,0,0,1.865-4.474c.657-2.212,1.337-4.5,2.985-6.147h0c1.648-1.648,3.935-2.328,6.148-2.986a14.122,14.122,0,0,0,4.474-1.865A14.44,14.44,0,0,0,302.2,139.2c1.2-1.935,2.439-3.936,4.405-5.06,2.009-1.149,4.389-1.2,6.69-1.252a14.232,14.232,0,0,0,4.839-.623,13.392,13.392,0,0,0,3.794-2.907c1.6-1.533,3.256-3.119,5.394-3.679,2.156-.564,4.384.009,6.54.563a8.93,8.93,0,0,0,9.088-1.172c1.941-1.079,3.948-2.195,6.166-2.195s4.225,1.116,6.166,2.195a8.93,8.93,0,0,0,9.089,1.172c2.155-.554,4.384-1.127,6.539-.563,2.138.56,3.794,2.146,5.394,3.679a13.4,13.4,0,0,0,3.794,2.907,14.233,14.233,0,0,0,4.839.623c2.3.051,4.681.1,6.69,1.252,1.966,1.124,3.206,3.125,4.4,5.06a14.426,14.426,0,0,0,3.058,3.924,14.11,14.11,0,0,0,4.474,1.865c2.212.658,4.5,1.338,6.147,2.986s2.328,3.935,2.985,6.147a14.112,14.112,0,0,0,1.865,4.475,14.446,14.446,0,0,0,3.924,3.058c1.935,1.2,3.936,2.439,5.06,4.4,1.149,2.009,1.2,4.388,1.252,6.69a14.232,14.232,0,0,0,.623,4.839,13.386,13.386,0,0,0,2.906,3.794c1.533,1.6,3.119,3.256,3.679,5.394.565,2.155-.008,4.384-.562,6.54a13.294,13.294,0,0,0-.67,4.7,13.344,13.344,0,0,0,1.842,4.392c1.079,1.941,2.194,3.948,2.194,6.166s-1.115,4.225-2.194,6.166a13.338,13.338,0,0,0-1.842,4.392,13.291,13.291,0,0,0,.67,4.7c.554,2.156,1.127,4.384.562,6.54-.56,2.138-2.146,3.793-3.679,5.394a13.373,13.373,0,0,0-2.906,3.794,14.232,14.232,0,0,0-.623,4.839c-.05,2.3-.1,4.681-1.252,6.69-1.124,1.966-3.125,3.206-5.06,4.4a14.438,14.438,0,0,0-3.924,3.057,14.115,14.115,0,0,0-1.865,4.475c-.657,2.212-1.337,4.5-2.985,6.147s-3.935,2.328-6.147,2.985a14.128,14.128,0,0,0-4.475,1.865,14.441,14.441,0,0,0-3.058,3.925c-1.2,1.935-2.439,3.936-4.4,5.06-2.009,1.149-4.388,1.2-6.689,1.252a14.225,14.225,0,0,0-4.839.623,13.4,13.4,0,0,0-3.794,2.906c-1.6,1.534-3.256,3.119-5.394,3.679-2.155.564-4.384-.008-6.539-.562a8.93,8.93,0,0,0-9.089,1.172C353.343,293.149,351.336,294.265,349.118,294.265Zm-11.257-6.6a7.976,7.976,0,0,1,1.02.063,15.293,15.293,0,0,1,5.295,2.139c1.736.965,3.377,1.876,4.942,1.876s3.205-.912,4.942-1.876a11.253,11.253,0,0,1,10.94-1.41c1.929.5,3.75.965,5.274.565,1.506-.394,2.858-1.69,4.289-3.061a15.351,15.351,0,0,1,4.59-3.422,16.208,16.208,0,0,1,5.73-.807c2.078-.046,4.04-.089,5.494-.92,1.411-.807,2.432-2.455,3.513-4.2a16.447,16.447,0,0,1,3.668-4.6,16.089,16.089,0,0,1,5.288-2.28c2-.594,3.887-1.155,5.084-2.352s1.757-3.084,2.351-5.083a16.106,16.106,0,0,1,2.28-5.289,16.438,16.438,0,0,1,4.6-3.668c1.745-1.081,3.393-2.1,4.2-3.514.831-1.453.874-3.416.92-5.494a16.207,16.207,0,0,1,.807-5.73,15.348,15.348,0,0,1,3.422-4.59c1.371-1.432,2.667-2.784,3.06-4.289.4-1.523-.069-3.345-.565-5.274a11.252,11.252,0,0,1,1.41-10.94c.965-1.737,1.877-3.377,1.877-4.942s-.912-3.206-1.877-4.942a15.3,15.3,0,0,1-2.139-5.294,15.255,15.255,0,0,1,.729-5.646c.5-1.929.964-3.751.565-5.273-.394-1.506-1.689-2.858-3.061-4.289a15.363,15.363,0,0,1-3.422-4.59,16.208,16.208,0,0,1-.807-5.73c-.046-2.078-.089-4.041-.92-5.494-.808-1.411-2.455-2.432-4.2-3.514a16.439,16.439,0,0,1-4.6-3.668,16.1,16.1,0,0,1-2.28-5.288c-.594-2-1.155-3.887-2.351-5.083s-3.085-1.758-5.084-2.352a16.091,16.091,0,0,1-5.288-2.28,16.44,16.44,0,0,1-3.668-4.6c-1.081-1.745-2.1-3.393-3.513-4.2-1.454-.831-3.416-.874-5.494-.92a16.209,16.209,0,0,1-5.73-.807,15.355,15.355,0,0,1-4.59-3.422c-1.432-1.371-2.784-2.667-4.289-3.061-1.522-.4-3.345.069-5.273.565a11.254,11.254,0,0,1-10.94-1.41c-1.737-.965-3.377-1.877-4.942-1.877s-3.205.912-4.942,1.877a11.254,11.254,0,0,1-10.94,1.41c-1.929-.5-3.751-.964-5.274-.565-1.506.394-2.858,1.69-4.289,3.061a15.361,15.361,0,0,1-4.591,3.422,16.207,16.207,0,0,1-5.73.807c-2.078.046-4.04.089-5.494.92-1.412.807-2.432,2.455-3.514,4.2a16.432,16.432,0,0,1-3.668,4.6,16.093,16.093,0,0,1-5.288,2.28c-2,.594-3.887,1.155-5.084,2.352h0c-1.2,1.2-1.757,3.084-2.352,5.083a16.088,16.088,0,0,1-2.28,5.288,16.449,16.449,0,0,1-4.6,3.668c-1.745,1.081-3.393,2.1-4.2,3.514-.831,1.453-.874,3.416-.919,5.494a16.218,16.218,0,0,1-.807,5.731,15.363,15.363,0,0,1-3.422,4.59c-1.371,1.431-2.667,2.784-3.061,4.289-.4,1.522.07,3.344.565,5.273a15.256,15.256,0,0,1,.728,5.646,15.288,15.288,0,0,1-2.139,5.295c-.965,1.737-1.877,3.377-1.877,4.942s.912,3.205,1.877,4.942a11.254,11.254,0,0,1,1.41,10.94c-.5,1.929-.964,3.751-.565,5.274.395,1.506,1.69,2.858,3.061,4.289a15.354,15.354,0,0,1,3.422,4.59,16.206,16.206,0,0,1,.807,5.73c.046,2.078.089,4.04.92,5.494.808,1.411,2.456,2.432,4.2,3.514a16.449,16.449,0,0,1,4.6,3.668,16.1,16.1,0,0,1,2.28,5.288c.594,2,1.155,3.887,2.352,5.084s3.084,1.758,5.083,2.352a16.094,16.094,0,0,1,5.289,2.28,16.449,16.449,0,0,1,3.668,4.6c1.081,1.745,2.1,3.393,3.514,4.2,1.454.831,3.416.874,5.494.92a16.215,16.215,0,0,1,5.73.807,15.356,15.356,0,0,1,4.59,3.422c1.432,1.371,2.784,2.667,4.289,3.061,1.523.4,3.345-.069,5.274-.565A18.916,18.916,0,0,1,337.861,287.666Z" transform="translate(-263.423 -122.876)" fill="url(#linear-gradient-2)"/>
            </g>
          </g>
          <circle id="楕円形_1036" data-name="楕円形 1036" cx="72.235" cy="72.235" r="72.235" transform="translate(13.459 13.459)"/>
          <path id="パス_184" data-name="パス 184" d="M324.911,284.058A70.556,70.556,0,0,1,424.665,184.3C414.529,194.752,335.358,273.923,324.911,284.058Z" transform="translate(-290.243 -149.636)" opacity="0.2" fill="url(#linear-gradient-3)"/>
          <path id="パス_185" data-name="パス 185" d="M384.1,309.431a65.934,65.934,0,1,1,46.623-19.311A65.5,65.5,0,0,1,384.1,309.431Z" transform="translate(-298.405 -157.803)" fill="none" stroke="#d4aa41" stroke-linecap="round" stroke-linejoin="round" stroke-width="6.975" stroke-dasharray="0 22.051"/>
        </g>
        <g id="グループ_372" data-name="グループ 372" transform="translate(0 131.056)">
          <g id="グループ_366" data-name="グループ 366" transform="translate(0 3.802)">
            <path id="パス_186" data-name="パス 186" d="M269.569,532.337a324.732,324.732,0,0,1-50.819-12.1q8.281-4.572,16.095-9.554-4.372-7.241-8.25-14.589a299.373,299.373,0,0,0,46.847,11.15Q271.506,519.794,269.569,532.337Z" transform="translate(-218.75 -496.099)" fill="url(#linear-gradient-4)"/>
            <g id="グループ_365" data-name="グループ 365" transform="translate(1.778 1.897)">
              <path id="パス_187" data-name="パス 187" d="M288.881,512.08a301.862,301.862,0,0,1-45.6-10.732c.169.315.337.63.508.945a302.667,302.667,0,0,0,44.978,10.526Z" transform="translate(-236.196 -501.348)" fill="#d4aa41" style="mix-blend-mode: multiply;isolation: isolate"/>
              <path id="パス_188" data-name="パス 188" d="M272.941,570.877l.114-.739a323.539,323.539,0,0,1-48.49-11.38q-.445.252-.892.5A324.271,324.271,0,0,0,272.941,570.877Z" transform="translate(-223.672 -538.014)" fill="#d4aa41" style="mix-blend-mode: multiply;isolation: isolate"/>
            </g>
          </g>
          <path id="パス_189" data-name="パス 189" d="M306.892,560.15q9.132,6.829,18.971,13.095.714-4.628,1.428-9.255Q317.047,562.409,306.892,560.15Z" transform="translate(-275.043 -533.205)" fill="url(#linear-gradient-5)"/>
          <g id="グループ_368" data-name="グループ 368" transform="translate(148.981 3.802)">
            <path id="パス_190" data-name="パス 190" d="M634.934,532.337a324.752,324.752,0,0,0,50.819-12.1q-8.282-4.572-16.095-9.554,4.371-7.241,8.25-14.589a299.388,299.388,0,0,1-46.847,11.15Q633,519.794,634.934,532.337Z" transform="translate(-631.061 -496.099)" fill="url(#linear-gradient-6)"/>
            <g id="グループ_367" data-name="グループ 367" transform="translate(0.228 1.897)">
              <path id="パス_191" data-name="パス 191" d="M631.806,512.819a302.657,302.657,0,0,0,44.978-10.526c.171-.315.339-.63.508-.945a301.833,301.833,0,0,1-45.6,10.732Z" transform="translate(-631.692 -501.348)" fill="#d4aa41" style="mix-blend-mode: multiply;isolation: isolate"/>
              <path id="パス_192" data-name="パス 192" d="M689.322,558.759a323.6,323.6,0,0,1-48.491,11.38l.018.115.1.624a324.354,324.354,0,0,0,49.269-11.617Z" transform="translate(-637.529 -538.015)" fill="#d4aa41" style="mix-blend-mode: multiply;isolation: isolate"/>
            </g>
          </g>
          <path id="パス_193" data-name="パス 193" d="M658.224,560.15q-9.132,6.829-18.97,13.095l-1.429-9.255Q648.069,562.409,658.224,560.15Z" transform="translate(-486.4 -533.205)" fill="url(#linear-gradient-7)"/>
          <g id="グループ_369" data-name="グループ 369" transform="translate(31.849)">
            <path id="パス_194" data-name="パス 194" d="M306.892,512.523,313,485.578a288.951,288.951,0,0,0,127.759,0l6.108,26.945A316.579,316.579,0,0,1,306.892,512.523Z" transform="translate(-306.892 -485.578)" fill="#b88315"/>
          </g>
          <g id="グループ_371" data-name="グループ 371" transform="translate(32.338 0.449)">
            <path id="パス_195" data-name="パス 195" d="M308.246,513.044l5.908-26.224a289.323,289.323,0,0,0,127.18,0l5.909,26.224A316.2,316.2,0,0,1,308.246,513.044Z" transform="translate(-308.246 -486.82)" fill="url(#linear-gradient-8)"/>
            <g id="グループ_370" data-name="グループ 370">
              <path id="パス_196" data-name="パス 196" d="M443.046,490.541a290.443,290.443,0,0,1-125.431,0l-5.32,24.056a315.093,315.093,0,0,0,136.072,0Z" transform="translate(-310.831 -489.197)" fill="none"/>
              <path id="パス_197" data-name="パス 197" d="M441.335,486.82a289.323,289.323,0,0,1-127.18,0l-5.908,26.224a316.2,316.2,0,0,0,139,0Zm-131.626,25.4,5.32-24.056a290.443,290.443,0,0,0,125.431,0l5.32,24.056A315.091,315.091,0,0,1,309.709,512.221Z" transform="translate(-308.246 -486.82)" fill="url(#linear-gradient-9)"/>
            </g>
          </g>
          <path id="パス_198" data-name="パス 198" d="M389.289,498.258h-.039a292.787,292.787,0,0,1-62.928-6.862l.161-.73a292.049,292.049,0,0,0,62.767,6.845h.039a292.046,292.046,0,0,0,62.729-6.828l.161.73A292.8,292.8,0,0,1,389.289,498.258Z" transform="translate(-287.453 -488.827)" fill="#d4aa41" style="mix-blend-mode: multiply;isolation: isolate"/>
          <path id="パス_199" data-name="パス 199" d="M380.354,563.113a314.46,314.46,0,0,1-68.023-7.458l.162-.73a313.221,313.221,0,0,0,135.721,0l.162.73A314.459,314.459,0,0,1,380.354,563.113Z" transform="translate(-278.517 -529.868)" fill="#d4aa41" style="mix-blend-mode: multiply;isolation: isolate"/>
        </g>
        <g id="グループ_376" data-name="グループ 376" transform="translate(81.502 26.575)">
          <g id="グループ_373" data-name="グループ 373" transform="translate(13.863)">
            <path id="パス_200" data-name="パス 200" d="M482.675,201.5l4.828-.7,2.159-4.375,2.159,4.375,4.828.7-3.493,3.405.825,4.808-4.318-2.27-4.318,2.27.825-4.808Z" transform="translate(-482.675 -196.423)" fill="url(#linear-gradient-10)"/>
          </g>
          <g id="グループ_374" data-name="グループ 374" transform="translate(0 8.286)">
            <path id="パス_201" data-name="パス 201" d="M444.309,222.551l3.04-.442,1.359-2.754,1.359,2.754,3.04.442-2.2,2.144.519,3.027-2.719-1.429-2.719,1.429.519-3.027Z" transform="translate(-444.309 -219.355)" fill="url(#linear-gradient-11)"/>
          </g>
          <g id="グループ_375" data-name="グループ 375" transform="translate(31.871 8.286)">
            <path id="パス_202" data-name="パス 202" d="M541.312,222.551l-3.04-.442-1.359-2.754-1.359,2.754-3.04.442,2.2,2.144-.519,3.027,2.719-1.429,2.719,1.429-.519-3.027Z" transform="translate(-532.514 -219.355)" fill="url(#linear-gradient-12)"/>
          </g>
        </g>
      </g>
      <g id="グループ_378" data-name="グループ 378" transform="translate(268.478 189.247)">
        <path id="パス_203" data-name="パス 203" d="M361.361,320.267a4.794,4.794,0,0,1,.036.723c0,2.71-1.446,3.975-3.072,3.975a1.782,1.782,0,0,1-1.951-1.879,2.992,2.992,0,0,1,1.626-2.6,3.938,3.938,0,0,0,1.662-3.541l.578-.108a8.26,8.26,0,0,1,.723,1.626h4.661a1.633,1.633,0,0,1-1.337-1.553,8.179,8.179,0,0,0-1.662-4.409l.361-.4c3.216.758,4.951,2.565,4.951,4.3a1.873,1.873,0,0,1-1.518,2.06h10.3A41.573,41.573,0,0,0,379,310.98c-5.131.506-10.3.759-15.466.759-1.265,0-2.53,0-3.794-.036l-.108-.542a136.643,136.643,0,0,0,21.284-4.3c3.361,2.276,3.83,2.782,3.83,3.18,0,.361-.253.614-1.156.614-.289,0-.65-.036-1.12-.072-.976.144-1.988.253-3.036.361,4.156,1.156,4.517,1.553,4.517,2.023s-.434.687-1.518.795a32.4,32.4,0,0,1-4.047,4.7h5.89c.687-1.228,1.048-1.553,1.518-1.553s1.048.253,2.457,1.481c1.12.976,1.409,1.446,1.409,1.879s-.289.8-2.1,1.157a20.338,20.338,0,0,1-4.011,2.746l-.434-.325a29.6,29.6,0,0,0,1.192-3.578Zm16.045,4.047c.758-1.192,1.12-1.445,1.481-1.445.434,0,.9.144,2.1,1.156,1.626,1.373,1.807,1.734,1.807,2.168,0,.542-.65.939-1.807,1.229a25.994,25.994,0,0,1-4.878,5.746,38.891,38.891,0,0,0,13.3,3l-.109.542a5.061,5.061,0,0,0-2.674,2.422c-.325.65-.506.867-.976.867a3.125,3.125,0,0,1-.542-.036,24.867,24.867,0,0,1-11.888-4.625c-4.192,2.638-9.468,4.228-16.406,4.7l-.181-.506a37.771,37.771,0,0,0,14.093-6.432,21.441,21.441,0,0,1-4.3-6.974h-1.3l-3.252.181v-2.168l3.252.181Zm-9.9,1.807a20.964,20.964,0,0,0,1.915,2.421,22.287,22.287,0,0,0,3.324,2.782,24.458,24.458,0,0,0,4.083-5.2ZM370,311.7c3.541.976,4.914,2.927,4.914,4.553a1.937,1.937,0,0,1-1.988,2.132,1.689,1.689,0,0,1-1.807-1.734A7.751,7.751,0,0,0,369.6,312.1Z" transform="translate(-356.375 -306.753)" fill="#d6a10a"/>
        <path id="パス_204" data-name="パス 204" d="M456.275,340.058c4.192-1.229,8.528-3.216,11.274-5.564,3.433,1.879,3.65,2.168,3.65,2.638,0,.361-.506.578-1.554.578h-.434a32.064,32.064,0,0,1-12.792,2.819Zm28.113-27.824c.758-1.265,1.011-1.445,1.481-1.445s.867.181,2.24,1.3c1.265,1.012,1.445,1.481,1.445,1.915,0,.4-.434.867-2.1,1.084a34.623,34.623,0,0,1-3.469,2.1l-.433-.325a18.076,18.076,0,0,0,.795-2.818H461.334v.145c0,2.927-1.482,4.156-3,4.156a1.792,1.792,0,0,1-1.951-1.734,2.756,2.756,0,0,1,1.518-2.2,3.586,3.586,0,0,0,1.915-3.433l.505-.072a5.07,5.07,0,0,1,.651,1.337h4.517a2.415,2.415,0,0,1-.578-1.047,7.225,7.225,0,0,0-2.529-3.252l.217-.47c3.83.253,6.071,1.554,6.071,3.216a1.9,1.9,0,0,1-.65,1.554h2.963v-1.807a32.662,32.662,0,0,0-.181-3.866c4.7.434,5.457.723,5.457,1.229s-.4.759-1.446,1.192v3.252h2.493a47.878,47.878,0,0,0,2.168-5.275c3.831,1.409,4.372,1.807,4.372,2.276s-.434.687-1.482.759a30.956,30.956,0,0,1-3.216,2.24Zm-4.047,10.552c.434-.687.723-.867,1.048-.867.47,0,.831.072,2.168,1.012,1.047.723,1.192,1.12,1.192,1.445,0,.434-.253.687-1.12,1.265v1.229c0,3.614.145,5.2.145,6,0,1.048-.976,1.59-2.782,1.59a.966.966,0,0,1-.759-.253H465.67c-.253.578-1.084,1.012-2.638,1.012-.65,0-1.012-.326-1.012-.94s.145-2.6.145-7.661c0-2.349-.036-3.5-.145-4.914,1.843.506,2.964.831,3.65,1.084Zm-13.262-1.553a3.149,3.149,0,0,1-2.384.758c-.614,0-.94-.289-.94-.9,0-.434.108-1.771.108-3.5,0-1.373-.036-2.024-.108-3.108,1.7.47,2.782.8,3.433,1.048h11.2c.434-.831.723-1.156,1.048-1.156.47,0,.976.181,2.132,1.084s1.337,1.228,1.337,1.553c0,.434-.253.759-1.156,1.192v.4c0,.795.108,1.3.108,1.7,0,1.048-1.048,1.482-2.638,1.482-.506,0-.795-.145-.9-.542Zm-1.156,3.36-.144.145V326h14.237v-1.41Zm14.093,4.625v-1.409H465.779v1.409Zm0,3.18v-1.373H465.779V332.4Zm-1.735-12.973v-2.1H467.441l-.108.108v1.987Zm-2.2,15.322a23.3,23.3,0,0,1,6.938,1.047c2.1.759,3.361,1.952,3.361,3.216a1.627,1.627,0,0,1-1.771,1.807,2.7,2.7,0,0,1-1.987-.9,17.724,17.724,0,0,0-6.721-4.662Z" transform="translate(-420.178 -306.561)" fill="#d6a10a"/>
        <path id="パス_205" data-name="パス 205" d="M582.9,309.706c.723-.9,1.446-1.771,2.277-2.746,3.469,2.71,4.083,3.288,4.083,3.686,0,.469-.181.867-.578.867H561.829l-.072.072v7.986c0,8.6-1.229,12.539-5.312,16.948l-.47-.289c1.7-4.191,2.023-6.974,2.023-16.911,0-6.288-.108-9.9-.217-11.094a29.784,29.784,0,0,1,3.939,1.481Zm-10.154,22.476c0-1.843-.036-3.216-.145-4.733,5.023.434,5.348.686,5.348,1.12,0,.4-.289.687-1.3,1.084v2.313h3.541c.795-.939,1.554-1.843,2.529-2.855,3.614,3.18,3.758,3.505,3.758,3.867,0,.47-.216.8-.578.8h-9.251v3.613h5.89c.831-1.012,1.626-1.952,2.674-3.036,3.759,2.927,4.156,3.541,4.156,3.939,0,.578-.216.9-.578.9H561.142l-3.614.144v-2.132l3.614.181h3.144v-2.349c0-1.843-.036-3.216-.145-4.734,4.951.434,5.276.686,5.276,1.12,0,.4-.289.687-1.3,1.084v4.878h4.625ZM569.815,319.5a7.094,7.094,0,0,1,3.252.723,2.013,2.013,0,0,1,1.229,1.771,1.314,1.314,0,0,1-1.3,1.446,1.481,1.481,0,0,1-1.554-.976,7,7,0,0,0-1.59-2.168c.036,4.662.144,6.757.144,7.661,0,.831-1.012,1.373-2.421,1.373-.614,0-.976-.326-.976-.795,0-.868.108-2.53.145-6.324a20.546,20.546,0,0,1-4.878,4.553l-.4-.361a26.167,26.167,0,0,0,4.409-8.058h-.759l-2.457.145v-2.132l2.457.181h1.662c0-1.409-.036-2.782-.145-4.191,3.831.4,4.373.614,4.373,1.012,0,.434-.289.578-1.193.976v2.2h.578c.578-.723,1.265-1.518,1.7-1.987,2.674,2.349,2.854,2.638,2.854,3,0,.47-.217.795-.578.795h-4.553Zm12.683-1.157a17.22,17.22,0,0,0,7.408,5.24l-.036.506a4.6,4.6,0,0,0-2.385,1.409c-.361.4-.542.614-.759.614s-.4-.145-.759-.47a15,15,0,0,1-4.047-6.468c.036,5.312.181,7.48.181,8.456,0,.795-1.048,1.337-2.457,1.337-.614,0-.976-.326-.976-.795,0-.868.108-2.53.181-6.18a22.8,22.8,0,0,1-7.841,5.42l-.289-.4a25,25,0,0,0,7.227-8.673h-.578l-2.168.145v-2.132l2.168.181h1.518c0-1.987-.073-2.891-.145-4.119,3.83.4,4.372.614,4.372,1.012,0,.434-.289.578-1.193.976v2.132h2.023a28.031,28.031,0,0,1,1.952-2.349c3.144,2.71,3.252,3.071,3.252,3.36,0,.47-.217.795-.578.795Z" transform="translate(-483.853 -306.816)" fill="#d6a10a"/>
      </g>
      <path id="パス_206" data-name="パス 206" d="M361.361,320.267a4.794,4.794,0,0,1,.036.723c0,2.71-1.446,3.975-3.072,3.975a1.782,1.782,0,0,1-1.951-1.879,2.992,2.992,0,0,1,1.626-2.6,3.938,3.938,0,0,0,1.662-3.541l.578-.108a8.26,8.26,0,0,1,.723,1.626h4.661a1.633,1.633,0,0,1-1.337-1.553,8.179,8.179,0,0,0-1.662-4.409l.361-.4c3.216.758,4.951,2.565,4.951,4.3a1.873,1.873,0,0,1-1.518,2.06h10.3A41.573,41.573,0,0,0,379,310.98c-5.131.506-10.3.759-15.466.759-1.265,0-2.53,0-3.794-.036l-.108-.542a136.643,136.643,0,0,0,21.284-4.3c3.361,2.276,3.83,2.782,3.83,3.18,0,.361-.253.614-1.156.614-.289,0-.65-.036-1.12-.072-.976.144-1.988.253-3.036.361,4.156,1.156,4.517,1.553,4.517,2.023s-.434.687-1.518.795a32.4,32.4,0,0,1-4.047,4.7h5.89c.687-1.228,1.048-1.553,1.518-1.553s1.048.253,2.457,1.481c1.12.976,1.409,1.446,1.409,1.879s-.289.8-2.1,1.157a20.338,20.338,0,0,1-4.011,2.746l-.434-.325a29.6,29.6,0,0,0,1.192-3.578Zm16.045,4.047c.758-1.192,1.12-1.445,1.481-1.445.434,0,.9.144,2.1,1.156,1.626,1.373,1.807,1.734,1.807,2.168,0,.542-.65.939-1.807,1.229a25.994,25.994,0,0,1-4.878,5.746,38.891,38.891,0,0,0,13.3,3l-.109.542a5.061,5.061,0,0,0-2.674,2.422c-.325.65-.506.867-.976.867a3.125,3.125,0,0,1-.542-.036,24.867,24.867,0,0,1-11.888-4.625c-4.192,2.638-9.468,4.228-16.406,4.7l-.181-.506a37.771,37.771,0,0,0,14.093-6.432,21.441,21.441,0,0,1-4.3-6.974h-1.3l-3.252.181v-2.168l3.252.181Zm-9.9,1.807a20.964,20.964,0,0,0,1.915,2.421,22.287,22.287,0,0,0,3.324,2.782,24.458,24.458,0,0,0,4.083-5.2ZM370,311.7c3.541.976,4.914,2.927,4.914,4.553a1.937,1.937,0,0,1-1.988,2.132,1.689,1.689,0,0,1-1.807-1.734A7.751,7.751,0,0,0,369.6,312.1Z" transform="translate(-87.897 -117.505)" fill="url(#linear-gradient-13)"/>
      <path id="パス_207" data-name="パス 207" d="M456.275,340.058c4.192-1.229,8.528-3.216,11.274-5.564,3.433,1.879,3.65,2.168,3.65,2.638,0,.361-.506.578-1.554.578h-.434a32.064,32.064,0,0,1-12.792,2.819Zm28.113-27.824c.758-1.265,1.011-1.445,1.481-1.445s.867.181,2.24,1.3c1.265,1.012,1.445,1.481,1.445,1.915,0,.4-.434.867-2.1,1.084a34.623,34.623,0,0,1-3.469,2.1l-.433-.325a18.076,18.076,0,0,0,.795-2.818H461.334v.145c0,2.927-1.482,4.156-3,4.156a1.792,1.792,0,0,1-1.951-1.734,2.756,2.756,0,0,1,1.518-2.2,3.586,3.586,0,0,0,1.915-3.433l.505-.072a5.07,5.07,0,0,1,.651,1.337h4.517a2.415,2.415,0,0,1-.578-1.047,7.225,7.225,0,0,0-2.529-3.252l.217-.47c3.83.253,6.071,1.554,6.071,3.216a1.9,1.9,0,0,1-.65,1.554h2.963v-1.807a32.662,32.662,0,0,0-.181-3.866c4.7.434,5.457.723,5.457,1.229s-.4.759-1.446,1.192v3.252h2.493a47.878,47.878,0,0,0,2.168-5.275c3.831,1.409,4.372,1.807,4.372,2.276s-.434.687-1.482.759a30.956,30.956,0,0,1-3.216,2.24Zm-4.047,10.552c.434-.687.723-.867,1.048-.867.47,0,.831.072,2.168,1.012,1.047.723,1.192,1.12,1.192,1.445,0,.434-.253.687-1.12,1.265v1.229c0,3.614.145,5.2.145,6,0,1.048-.976,1.59-2.782,1.59a.966.966,0,0,1-.759-.253H465.67c-.253.578-1.084,1.012-2.638,1.012-.65,0-1.012-.326-1.012-.94s.145-2.6.145-7.661c0-2.349-.036-3.5-.145-4.914,1.843.506,2.964.831,3.65,1.084Zm-13.262-1.553a3.149,3.149,0,0,1-2.384.758c-.614,0-.94-.289-.94-.9,0-.434.108-1.771.108-3.5,0-1.373-.036-2.024-.108-3.108,1.7.47,2.782.8,3.433,1.048h11.2c.434-.831.723-1.156,1.048-1.156.47,0,.976.181,2.132,1.084s1.337,1.228,1.337,1.553c0,.434-.253.759-1.156,1.192v.4c0,.795.108,1.3.108,1.7,0,1.048-1.048,1.482-2.638,1.482-.506,0-.795-.145-.9-.542Zm-1.156,3.36-.144.145V326h14.237v-1.41Zm14.093,4.625v-1.409H465.779v1.409Zm0,3.18v-1.373H465.779V332.4Zm-1.735-12.973v-2.1H467.441l-.108.108v1.987Zm-2.2,15.322a23.3,23.3,0,0,1,6.938,1.047c2.1.759,3.361,1.952,3.361,3.216a1.627,1.627,0,0,1-1.771,1.807,2.7,2.7,0,0,1-1.987-.9,17.724,17.724,0,0,0-6.721-4.662Z" transform="translate(-151.7 -117.314)" fill="url(#linear-gradient-14)"/>
      <path id="パス_208" data-name="パス 208" d="M582.9,309.706c.723-.9,1.446-1.771,2.277-2.746,3.469,2.71,4.083,3.288,4.083,3.686,0,.469-.181.867-.578.867H561.829l-.072.072v7.986c0,8.6-1.229,12.539-5.312,16.948l-.47-.289c1.7-4.191,2.023-6.974,2.023-16.911,0-6.288-.108-9.9-.217-11.094a29.784,29.784,0,0,1,3.939,1.481Zm-10.154,22.476c0-1.843-.036-3.216-.145-4.733,5.023.434,5.348.686,5.348,1.12,0,.4-.289.687-1.3,1.084v2.313h3.541c.795-.939,1.554-1.843,2.529-2.855,3.614,3.18,3.758,3.505,3.758,3.867,0,.47-.216.8-.578.8h-9.251v3.613h5.89c.831-1.012,1.626-1.952,2.674-3.036,3.759,2.927,4.156,3.541,4.156,3.939,0,.578-.216.9-.578.9H561.142l-3.614.144v-2.132l3.614.181h3.144v-2.349c0-1.843-.036-3.216-.145-4.734,4.951.434,5.276.686,5.276,1.12,0,.4-.289.687-1.3,1.084v4.878h4.625ZM569.815,319.5a7.094,7.094,0,0,1,3.252.723,2.013,2.013,0,0,1,1.229,1.771,1.314,1.314,0,0,1-1.3,1.446,1.481,1.481,0,0,1-1.554-.976,7,7,0,0,0-1.59-2.168c.036,4.662.144,6.757.144,7.661,0,.831-1.012,1.373-2.421,1.373-.614,0-.976-.326-.976-.795,0-.868.108-2.53.145-6.324a20.546,20.546,0,0,1-4.878,4.553l-.4-.361a26.167,26.167,0,0,0,4.409-8.058h-.759l-2.457.145v-2.132l2.457.181h1.662c0-1.409-.036-2.782-.145-4.191,3.831.4,4.373.614,4.373,1.012,0,.434-.289.578-1.193.976v2.2h.578c.578-.723,1.265-1.518,1.7-1.987,2.674,2.349,2.854,2.638,2.854,3,0,.47-.217.795-.578.795h-4.553Zm12.683-1.157a17.22,17.22,0,0,0,7.408,5.24l-.036.506a4.6,4.6,0,0,0-2.385,1.409c-.361.4-.542.614-.759.614s-.4-.145-.759-.47a15,15,0,0,1-4.047-6.468c.036,5.312.181,7.48.181,8.456,0,.795-1.048,1.337-2.457,1.337-.614,0-.976-.326-.976-.795,0-.868.108-2.53.181-6.18a22.8,22.8,0,0,1-7.841,5.42l-.289-.4a25,25,0,0,0,7.227-8.673h-.578l-2.168.145v-2.132l2.168.181h1.518c0-1.987-.073-2.891-.145-4.119,3.83.4,4.372.614,4.372,1.012,0,.434-.289.578-1.193.976v2.132h2.023a28.031,28.031,0,0,1,1.952-2.349c3.144,2.71,3.252,3.071,3.252,3.36,0,.47-.217.795-.578.795Z" transform="translate(-215.375 -117.569)" fill="url(#linear-gradient-15)"/>
      <g id="グループ_379" data-name="グループ 379" transform="translate(273.041 264.848)">
        <path id="パス_209" data-name="パス 209" d="M376.991,520.875c-.845-1.983-1.977-3.123-3.291-3.305a1.785,1.785,0,0,0-2.094,1.525c-.143,1.032.541,1.856,2.279,2.657a7.387,7.387,0,0,1,2.619,1.669,3.212,3.212,0,0,1,.755,2.632,3.567,3.567,0,0,1-4.124,3.076,3.667,3.667,0,0,1-1.642-.635,1.8,1.8,0,0,0-.622-.29c-.183-.025-.342.021-1.317.327l-.55-3.5.6-.154c.9,2.059,2.224,3.294,3.739,3.5a2.025,2.025,0,0,0,2.408-1.7,1.867,1.867,0,0,0-.435-1.519,5.7,5.7,0,0,0-1.861-1.14c-2.593-1.242-3.528-2.456-3.277-4.271a3.3,3.3,0,0,1,3.664-2.937,3.22,3.22,0,0,1,1.071.352,2.073,2.073,0,0,0,.819.334,3.308,3.308,0,0,0,1.337-.1l.528,3.3Z" transform="translate(-369.003 -516.421)"/>
        <path id="パス_210" data-name="パス 210" d="M399.36,531.931l-4.925-.553.075-.667.3.034c1.052.118,1.229-.1,1.375-1.4l.819-7.3c.146-1.3.015-1.486-1.031-1.654l-.3-.051.073-.651,4.925.553-.073.651-.286-.015c-1.059-.051-1.243.08-1.389,1.383l-.82,7.3c-.146,1.3-.005,1.555,1.046,1.673l.284.032Z" transform="translate(-385.246 -518.282)"/>
        <path id="パス_211" data-name="パス 211" d="M420.614,534.165l-5.687-10.209-.56,6.832c-.1,1.205.222,2.024,1.12,2.165l.216.034-.055.67-3.768-.309.055-.67h.219c.926.008,1.354-.682,1.465-2.038l.614-7.485a1.893,1.893,0,0,0-1.45-.827l.058-.7,3.064.251,5.1,8.982.454-5.542c.1-1.256-.055-2.213-1.1-2.383l-.216-.035.055-.67,3.768.309-.055.67h-.219c-.995,0-1.363.6-1.508,2.354l-.711,8.673Z" transform="translate(-396.388 -519.518)"/>
        <path id="パス_212" data-name="パス 212" d="M456.868,533.2c-1.11,2.271-2.636,3.314-4.717,3.221-2.97-.131-4.9-2.521-4.75-5.877.161-3.625,2.644-6.542,5.464-6.417a4.213,4.213,0,0,1,1.529.4,1.154,1.154,0,0,0,.4.119,10.707,10.707,0,0,0,1.388-.207l.8,3.247-.615.225c-.905-1.957-2.086-3-3.48-3.063-1.963-.087-3.255,1.739-3.392,4.827-.147,3.323,1.141,5.365,3.474,5.468a3.56,3.56,0,0,0,3.362-2.238Z" transform="translate(-419.068 -521.112)"/>
        <path id="パス_213" data-name="パス 213" d="M487.114,534.247l-1.082,3.117-8.954-.068,0-.672.3,0c1.059.008,1.212-.226,1.221-1.537l.056-7.341c.01-1.31-.14-1.48-1.2-1.538l-.3-.019.005-.655,8.685.066.968,3.031-.556.281c-1.2-1.807-2.434-2.572-4.147-2.585-1.193-.009-1.514.274-1.522,1.384l-.024,3.208.5,0c1.7.013,2.271-.42,2.585-1.9l.622.005-.035,4.7-.6,0c-.19-1.5-.892-2.04-2.589-2.052l-.487,0-.027,3.562c-.009,1.142.224,1.4,1.283,1.4a4.688,4.688,0,0,0,3.216-1.017,13.6,13.6,0,0,0,1.558-1.668Z" transform="translate(-438.027 -522.014)"/>
        <path id="パス_214" data-name="パス 214" d="M522.46,535.474a19.091,19.091,0,0,1,2.9-3.67c2.385-2.562,2.989-3.673,2.919-5.28a1.946,1.946,0,0,0-2.116-2.1c-.993.043-1.709.634-1.676,1.393a1.775,1.775,0,0,0,.154.626,1.692,1.692,0,0,1,.171.608,1.152,1.152,0,0,1-1.032,1.22,1.31,1.31,0,0,1-1.251-1.32c-.076-1.769,1.651-3.236,3.853-3.331,2.365-.1,4.029,1.165,4.114,3.132.071,1.661-.713,2.779-3.336,4.828a14.893,14.893,0,0,0-3.025,2.825l3.538-.152c1.625-.07,1.974-.356,2.545-2.207l.658.152-.718,3.919-7.653.33Z" transform="translate(-467.011 -520.788)"/>
        <path id="パス_215" data-name="パス 215" d="M554.03,521.968c2.431-.186,4.557,2.5,4.834,6.116s-1.416,6.595-3.847,6.781c-2.414.185-4.6-2.583-4.87-6.113C549.874,525.185,551.6,522.154,554.03,521.968Zm.912,12.16c1.459-.112,2.035-2.058,1.744-5.859-.293-3.837-1.159-5.673-2.6-5.563-1.459.112-2.069,2.079-1.8,5.663C552.6,532.369,553.448,534.242,554.942,534.128Z" transform="translate(-484.676 -519.729)"/>
        <path id="パス_216" data-name="パス 216" d="M581.88,519.39c2.424-.267,4.638,2.343,5.034,5.953s-1.2,6.638-3.621,6.9c-2.406.264-4.683-2.43-5.07-5.949C577.832,522.742,579.455,519.656,581.88,519.39Zm1.315,12.123c1.454-.16,1.965-2.124,1.549-5.914-.42-3.825-1.346-5.631-2.783-5.473-1.455.16-2,2.146-1.607,5.72C580.792,529.832,581.7,531.677,583.194,531.513Z" transform="translate(-502.588 -518.077)"/>
        <path id="パス_217" data-name="パス 217" d="M606.763,528.033a19.1,19.1,0,0,1,2.519-3.94c2.119-2.787,2.608-3.953,2.38-5.544a1.946,1.946,0,0,0-2.314-1.877c-.984.141-1.637.8-1.529,1.552a1.781,1.781,0,0,0,.215.608,1.688,1.688,0,0,1,.23.588,1.151,1.151,0,0,1-.906,1.317,1.31,1.31,0,0,1-1.376-1.19c-.251-1.752,1.321-3.384,3.5-3.7,2.343-.337,4.125.758,4.405,2.708.236,1.646-.432,2.837-2.84,5.136a14.887,14.887,0,0,0-2.729,3.112l3.506-.5c1.61-.231,1.929-.551,2.313-2.45l.67.086-.324,3.971L606.9,529Z" transform="translate(-520.337 -515.789)"/>
      </g>
    </g>
  </g>
</svg>
