<svg xmlns="http://www.w3.org/2000/svg" width="142.467" height="91.836" viewBox="0 0 142.467 91.836">
  <g id="グループ_2745" data-name="グループ 2745" transform="translate(-131.98 -342.968)">
    <path id="パス_302" data-name="パス 302" d="M274.447,395.46c0,2.334-31.893,4.227-71.235,4.227s-71.233-1.893-71.233-4.227,31.893-4.226,71.233-4.226S274.447,393.127,274.447,395.46Z" transform="translate(0 35.117)" fill="#d9d9d9"/>
    <g id="グループ_529" data-name="グループ 529" transform="translate(143.25 342.968)">
      <g id="グループ_527" data-name="グループ 527" transform="translate(25.314 21.321)">
        <path id="パス_303" data-name="パス 303" d="M161.313,369.394s-8.493.48-8.145-3.7c.207-2.536,4.506-3.27,6.116-2.536.878.4,2.477,1.266,1.515,2.641s1.259,2.116,1.259,2.116Z" transform="translate(-153.157 -349.797)" fill="#5e7d28"/>
        <path id="パス_304" data-name="パス 304" d="M188.919,369.394s8.493.48,8.149-3.7c-.207-2.536-4.509-3.27-6.117-2.536-.879.4-2.476,1.266-1.517,2.641s-1.254,2.116-1.254,2.116Z" transform="translate(-127.675 -349.797)" fill="#5e7d28"/>
        <path id="パス_305" data-name="パス 305" d="M161.7,397.929h-4.269a2.891,2.891,0,0,1-2.889-2.892v-9h10.049v9A2.893,2.893,0,0,1,161.7,397.929Z" transform="translate(-152.149 -332.952)" fill="#595552"/>
        <path id="パス_306" data-name="パス 306" d="M193.238,397.929h-4.269a2.892,2.892,0,0,1-2.89-2.892v-9h10.049v9A2.891,2.891,0,0,1,193.238,397.929Z" transform="translate(-129.204 -332.952)" fill="#595552"/>
        <path id="パス_307" data-name="パス 307" d="M154,379.57v7.743c0,4.791,3.88,6.359,8.669,6.359h49.139c4.789,0,8.671-1.569,8.671-6.359V379.57a280.514,280.514,0,0,1-66.479,0Z" transform="translate(-152.541 -337.658)" fill="#86b339"/>
        <path id="パス_308" data-name="パス 308" d="M219.692,385.788a54.61,54.61,0,0,0-4.412-7.416c-1.733-2.021-1.446-5.492-2.31-6.648s-4.341-15-6.94-15.32a162.746,162.746,0,0,0-37.578,0c-2.6.29-6.067,14.164-6.936,15.32s-.577,4.626-2.311,6.648a54.611,54.611,0,0,0-4.414,7.416,8.417,8.417,0,0,0-.788,3.281v8.152a280.51,280.51,0,0,0,66.479,0v-8.152A8.418,8.418,0,0,0,219.692,385.788Z" transform="translate(-152.541 -355.309)" fill="#95c740"/>
        <g id="グループ_524" data-name="グループ 524" transform="translate(10.285 5.431)">
          <path id="パス_309" data-name="パス 309" d="M183.346,372.609c-5.352,0-21.937-.572-22.1-.577a1.887,1.887,0,0,1-1.558-.674,1.8,1.8,0,0,1-.249-1.588l3.236-10.5c2.215-.081,15.9-.567,20.676-.567s18.463.485,20.674.567l3.239,10.521a1.776,1.776,0,0,1-.251,1.572,1.876,1.876,0,0,1-1.541.672C205.284,372.037,188.7,372.609,183.346,372.609Z" transform="translate(-158.931 -358.273)" fill="#262529"/>
          <g id="グループ_523" data-name="グループ 523">
            <path id="パス_310" data-name="パス 310" d="M183.526,359.3c4.594,0,17.417.453,20.358.558l3.139,10.2a1.36,1.36,0,0,1-.173,1.216,1.48,1.48,0,0,1-1.23.5c-.169.007-16.75.579-22.094.579s-21.921-.572-22.12-.579a1.465,1.465,0,0,1-1.2-.5,1.347,1.347,0,0,1-.181-1.187l3.148-10.229c2.944-.105,15.766-.558,20.358-.558Zm0-.852c-5.25,0-20.993.579-20.993.579L159.2,369.841a2.127,2.127,0,0,0,2.2,2.8s16.7.577,22.12.577,22.122-.577,22.122-.577a2.127,2.127,0,0,0,2.2-2.8l-3.326-10.809s-15.745-.579-21-.579Z" transform="translate(-159.11 -358.453)" fill="#212121"/>
          </g>
        </g>
        <path id="パス_311" data-name="パス 311" d="M184.732,382.38h-27.28s.4,6.319,7.047,6.319h40.468c6.648,0,7.047-6.319,7.047-6.319Z" transform="translate(-150.032 -335.614)" fill="#5e7d28"/>
        <path id="パス_312" data-name="パス 312" d="M158.768,372.184s9.937.581,10.806,3.759-2.6,3.756-2.6,3.756-10.345,2.92-11.262-3.756C155.112,371.607,158.768,372.184,158.768,372.184Z" transform="translate(-151.348 -343.051)" fill="#5e7d28"/>
        <path id="パス_313" data-name="パス 313" d="M161.5,377.879c-4.405,0-4.7-2.106-4.8-2.9-.154-1.119.088-1.5.168-1.588a1.148,1.148,0,0,1,.769-.235l.085.014.226.009c4.818.285,8.994,1.6,9.239,2.489.168.613.022.845-.026.923a2.1,2.1,0,0,1-1.211.679A18.859,18.859,0,0,1,161.5,377.879Z" transform="translate(-150.621 -342.323)" fill="#fff"/>
        <path id="パス_314" data-name="パス 314" d="M193.645,372.184s-9.937.581-10.806,3.759,2.6,3.756,2.6,3.756,10.346,2.92,11.264-3.756C197.3,371.607,193.645,372.184,193.645,372.184Z" transform="translate(-131.663 -343.051)" fill="#5e7d28"/>
        <path id="パス_315" data-name="パス 315" d="M189.459,377.879c4.405,0,4.7-2.106,4.8-2.9.154-1.119-.086-1.5-.166-1.588a1.152,1.152,0,0,0-.77-.235l-.083.014-.226.009c-4.818.285-8.994,1.6-9.241,2.489-.168.613-.022.845.026.923a2.1,2.1,0,0,0,1.211.679A18.859,18.859,0,0,0,189.459,377.879Z" transform="translate(-130.936 -342.323)" fill="#fff"/>
        <g id="グループ_526" data-name="グループ 526" transform="translate(23.559 41.385)">
          <path id="長方形_232" data-name="長方形 232" d="M1,0H20.218a1,1,0,0,1,1,1v4.21a1,1,0,0,1-1,1H1a1,1,0,0,1-1-1V1A1,1,0,0,1,1,0Z" transform="translate(0.53 0.527)" fill="#fff"/>
          <g id="グループ_525" data-name="グループ 525">
            <path id="パス_316" data-name="パス 316" d="M186.813,386.543H169.059a2.268,2.268,0,0,1-2.265-2.265v-2.75a2.268,2.268,0,0,1,2.265-2.263h17.754a2.268,2.268,0,0,1,2.263,2.263v2.75A2.268,2.268,0,0,1,186.813,386.543Zm-17.754-6.223a1.21,1.21,0,0,0-1.206,1.208v2.75a1.207,1.207,0,0,0,1.206,1.2h17.754a1.2,1.2,0,0,0,1.2-1.2v-2.75a1.207,1.207,0,0,0-1.2-1.208Z" transform="translate(-166.794 -379.265)" fill="#5e7d28"/>
          </g>
        </g>
        <path id="パス_317" data-name="パス 317" d="M198.779,377.6a127.39,127.39,0,0,1-35.937,0q.228-1.612.458-3.227a124.261,124.261,0,0,0,35.021,0C198.473,375.447,198.629,376.524,198.779,377.6Z" transform="translate(-146.11 -341.441)" fill="#5e7d28"/>
      </g>
      <rect id="長方形_233" data-name="長方形 233" width="5.567" height="73.707" transform="translate(10.447 13.281)" fill="#f4a600"/>
      <rect id="長方形_234" data-name="長方形 234" width="5.557" height="73.707" transform="translate(103.193 13.281)" fill="#f4a600"/>
      <g id="グループ_528" data-name="グループ 528">
        <path id="パス_318" data-name="パス 318" d="M260.254,363.7l-60.005-10.217L140.243,363.7,138.5,353.482l61.745-10.514,61.744,10.514Z" transform="translate(-138.504 -342.968)" fill="#d12700"/>
      </g>
    </g>
  </g>
</svg>
