<svg xmlns="http://www.w3.org/2000/svg" xmlns:xlink="http://www.w3.org/1999/xlink" width="185.998" height="89.602" viewBox="0 0 185.998 89.602">
  <defs>
    <linearGradient id="linear-gradient" x1="-1.922" y1="1.931" x2="-1.922" y2="5.286" gradientUnits="objectBoundingBox">
      <stop offset="0" stop-color="#5f5a5e"/>
      <stop offset="0.275" stop-color="#262529"/>
      <stop offset="0.476" stop-color="#29272b"/>
      <stop offset="0.629" stop-color="#323134"/>
      <stop offset="0.765" stop-color="#424144"/>
      <stop offset="0.809" stop-color="#4a484b"/>
    </linearGradient>
    <linearGradient id="linear-gradient-2" x1="-31.84" y1="15.716" x2="-31.84" y2="16.713" gradientUnits="objectBoundingBox">
      <stop offset="0" stop-color="#5f5a5e"/>
      <stop offset="0.275"/>
      <stop offset="0.754"/>
      <stop offset="0.809"/>
    </linearGradient>
    <linearGradient id="linear-gradient-3" x1="-20.448" y1="27.499" x2="-19.449" y2="27.499" xlink:href="#linear-gradient"/>
  </defs>
  <g id="グループ_2744" data-name="グループ 2744" transform="translate(-244.996 -356.4)">
    <path id="パス_319" data-name="パス 319" d="M430.995,396.751c0,3.047-41.637,5.519-93,5.519s-93-2.472-93-5.519,41.637-5.517,93-5.517S430.995,393.706,430.995,396.751Z" transform="translate(0 43.732)" fill="#d9d9d9"/>
    <g id="グループ_560" data-name="グループ 560" transform="translate(248.256 356.4)">
      <g id="グループ_531" data-name="グループ 531" transform="translate(3.626 22.859)">
        <path id="パス_320" data-name="パス 320" d="M292.831,384.218l-2.287,1.238-11.171,6.051,11.379.169-.3.471-.986,1.083-2.37,2.6-7.15-.952,6.326,5.176-1.022-.165.708,3.794-.171-.086-1.692,1.9-.056.065-.286-.011-.972-.038-.532.311-.311-.176-1.886-1.065-1.732,1.295-1.24.927-1,.747-2.508-8.586-2.731,7.65-1.646,1.825-.74-1.247-.943-1.588-1.847-.036-1.18-.025.036-.974.167-4.626,3.241-3.085-5.217-.038,1.827-2.35-6.7-.068-2.429-.029,1.455-1.811-1.775-.961.566-.2,4.233-1.5-.162-.219,11.674.609-10.377-6.744-2.761-1.8,4.8,1.047,8.593,6.2-2.05-4.66.706.814.009-7.646,4.17,6.376.875-4.779,2.122-1.491,1.556-1.087.381-.271.884.507.271.158.293.1.679.237-.056.187-3.471,11.255,8.839-7.786,1.583-1.4.711,1.955-1.038,1.653,4.527,1.056.178.045Zm8.618,4.3-9.324-.138,6.635-3.6.8-2.535-3.471-.677-2.677-.629,2.58-4.114-4.558,1.153-.679-1.868.374-3.388-6.453,5.693,1.847-6-3.018,1.987-1.538-.53-1.446-.825-.422-6.516-2.955,7.265-1.552,1.092-1.777-5.742-1.087,5.954-2.246-3.431-1.852-.088-1.619.769,0,3.9-6.069-7.005.167,3.983,2.61,5.934-8.131-5.866,2.589,5.025-4.664-1.017-1.834,1.45-1.083,1.955,8.627,5.609-6.358-.332,1.689,2.271-3.764,1.34-2.736,1.96,3.739,2.021-1.761,2.2,1.256,1.858,6.525.065-1.843,2.375,3.721.027-5.052,4.806-1.261,3.413,7.829-3.888-.083,2.285-2.7,5.925,5.278-3.809,1.9.034.979,1.649-.613,6.421,3.282-3.627.81,5.372,3.2-8.97,1.342,4.606,2.05,3.771,1.947-1.513.471-7.132,1.241-.925,1.976,1.114,1.34-.785,1.854.072,1.1-1.234,3.767,1.883-.485-3.113-.483-2.585,3.453.537,5.174.925-6.9-5.643,6.471.859,1.822-1.54-7.479-3.557,1.18-1.29.936-1.466,3-1.741,4.414-2.454Z" transform="translate(-248.049 -366.535)" fill="#fecd0e"/>
      </g>
      <g id="グループ_559" data-name="グループ 559">
        <g id="グループ_558" data-name="グループ 558">
          <g id="グループ_554" data-name="グループ 554" transform="translate(16.693 15.567)">
            <path id="パス_321" data-name="パス 321" d="M304.867,374.9s2.382-3.158,4.98-6.128a51.645,51.645,0,0,1,3.746-3.927c.271-.255.528-.48.76-.665a6.159,6.159,0,0,1,.616-.483c.345-.253.553-.392.553-.392s-.2.149-.541.408a7.543,7.543,0,0,0-.6.5c-.232.194-.474.426-.735.688a51.47,51.47,0,0,0-3.615,4.028c-2.5,3.043-4.77,6.254-4.77,6.254Z" transform="translate(-189.785 -363.302)" fill="#28272b"/>
            <g id="グループ_553" data-name="グループ 553" transform="translate(0 11.573)">
              <g id="グループ_550" data-name="グループ 550">
                <path id="パス_322" data-name="パス 322" d="M382.883,369.549s-10.986-1.565-28.615-.988c-16.839.55-32.205,1.38-41.858,5.645-5.745,2.537-17.18,9.746-21.731,10.955s-25.5,2.831-34.734,11.392c-2.6,2.411-3.049,9.22.133,12.024s-3.155,5.666,13.79,5.413c9.186-.138,107.431-1.595,107.431-1.595l20.635-2.456-.133-8.893-.147-9.991-1.229-5.693Z" transform="translate(-253.843 -368.433)" fill="#fe5c14"/>
                <path id="パス_323" data-name="パス 323" d="M258.587,394.98s-1.38-13.26,26.652-13.318,84.96-1.5,84.96-1.5l11.241,10.131-3.877,6.636-117.492,2.334Z" transform="translate(-247.9 -353.709)" fill="#f73706"/>
                <g id="グループ_532" data-name="グループ 532" transform="translate(1.205 24.493)">
                  <path id="パス_324" data-name="パス 324" d="M261.545,379.293l8.277.613c-1.6.684-4.042,1.78-6.423,3.056a17.7,17.7,0,0,1-6.2,1.64,20.769,20.769,0,0,0-2.826.5,5.29,5.29,0,0,1,1.211-1.845,25.4,25.4,0,0,1,5.957-3.961Z" transform="translate(-254.377 -379.293)" fill="#fff"/>
                </g>
                <g id="グループ_533" data-name="グループ 533" transform="translate(33.798 4.1)">
                  <path id="パス_325" data-name="パス 325" d="M286.427,376.819c3.882-2.314,8.282-4.766,11.566-6.568-1.57.519-3.04,1.076-4.4,1.674-5.745,2.537-17.18,9.746-21.731,10.955-.679.18-1.728.368-3.038.586C274.027,383.614,280.507,380.351,286.427,376.819Z" transform="translate(-268.828 -370.251)" fill="url(#linear-gradient)"/>
                </g>
                <g id="グループ_534" data-name="グループ 534" transform="translate(103.289 30.471)">
                  <path id="パス_326" data-name="パス 326" d="M312.762,381.945a13.339,13.339,0,0,0-11.949,7.862l-1.051,3.67a12.62,12.62,0,0,0-.122,1.989l2.533-.038,24.115-.356A13.346,13.346,0,0,0,312.762,381.945Z" transform="translate(-299.638 -381.943)"/>
                  <path id="パス_327" data-name="パス 327" d="M323.32,394.038a11.419,11.419,0,1,1-11.584-11.25A11.419,11.419,0,0,1,323.32,394.038Z" transform="translate(-298.579 -380.885)" fill="#504e51"/>
                  <path id="パス_328" data-name="パス 328" d="M309.356,398.217a6.66,6.66,0,1,1,6.559-6.757A6.669,6.669,0,0,1,309.356,398.217Z" transform="translate(-295.931 -378.234)" fill="#e3e3e3"/>
                  <path id="パス_329" data-name="パス 329" d="M306.634,390.812a1.9,1.9,0,1,1,1.877-1.931A1.909,1.909,0,0,1,306.634,390.812Z" transform="translate(-293.283 -375.586)" fill="#1c2426"/>
                </g>
                <path id="パス_330" data-name="パス 330" d="M264.268,388.981l-1.419-2.17-7.387-.142c-.1,0-.187.007-.282.011,1.229,2.447-1.937,4.635,13.007,4.416l3.816-.059-.034-2.167Z" transform="translate(-252.162 -345.54)" fill="#4a484b"/>
                <g id="グループ_535" data-name="グループ 535" transform="translate(18.922 32)">
                  <path id="パス_331" data-name="パス 331" d="M275.358,382.623a13.341,13.341,0,0,0-11.954,7.858l-1.053,3.674a12.81,12.81,0,0,0-.117,1.985c1.507-.022,2.531-.036,2.531-.036l24.11-.359A13.337,13.337,0,0,0,275.358,382.623Z" transform="translate(-262.232 -382.621)"/>
                  <path id="パス_332" data-name="パス 332" d="M285.911,394.712a11.418,11.418,0,1,1-11.584-11.246A11.42,11.42,0,0,1,285.911,394.712Z" transform="translate(-261.173 -381.562)" fill="#504e51"/>
                  <path id="パス_333" data-name="パス 333" d="M271.941,398.9a6.661,6.661,0,1,1,6.566-6.762A6.666,6.666,0,0,1,271.941,398.9Z" transform="translate(-258.524 -378.914)" fill="#e3e3e3"/>
                  <path id="パス_334" data-name="パス 334" d="M269.227,391.49a1.9,1.9,0,1,1,1.874-1.933A1.909,1.909,0,0,1,269.227,391.49Z" transform="translate(-255.877 -376.264)" fill="#1c2426"/>
                </g>
                <g id="グループ_536" data-name="グループ 536" transform="translate(129.663 35.874)">
                  <path id="パス_335" data-name="パス 335" d="M325.677,384.339l-10.469.711-3.877,6.634,14.429-1.714Z" transform="translate(-311.332 -384.339)" fill="#262529" style="mix-blend-mode: multiply;isolation: isolate"/>
                </g>
                <path id="パス_336" data-name="パス 336" d="M299.986,372.463s-16.273,1.946-26.849,12.635l82.461-3.647s.832-6.178-.129-8.753C347.582,368.647,321.173,369.746,299.986,372.463Z" transform="translate(-229.62 -366.426)" fill="#5f5f5f"/>
                <path id="パス_337" data-name="パス 337" d="M289.028,371.515l.147,9.753,5.068-.072s-1.419-8.115.431-10.467Z" transform="translate(-209.67 -365.552)" fill="#212121"/>
                <path id="パス_338" data-name="パス 338" d="M307.073,370.512c-.789-.007-1.38.952-1.813.507l.151,9.976,1.971-.029S307.046,373.629,307.073,370.512Z" transform="translate(-189.292 -365.824)" fill="#212121"/>
                <path id="パス_339" data-name="パス 339" d="M325.887,371.976c13.057-.194,24.212.318,28.9,1.29-.063,1.861-.255,4.475-.4,6.333l-76.053,3.349c9.822-7.321,22.34-9.261,22.478-9.281l.045-.009.05-.007c4.382-.871,13.954-1.513,24.981-1.676Zm-.027-1.843c-10.413.156-20.513.76-25.317,1.71,0,0-16.83,2.488-27.406,13.176l82.948-3.654s.611-6.841.573-9.514c-4.254-1.4-17.773-1.91-30.8-1.719Z" transform="translate(-229.62 -366.348)" fill="#303030"/>
                <g id="グループ_539" data-name="グループ 539" transform="translate(69.614 22.951)">
                  <g id="グループ_538" data-name="グループ 538">
                    <g id="グループ_537" data-name="グループ 537">
                      <path id="パス_340" data-name="パス 340" d="M291.513,379.335a.474.474,0,0,1-.465.485l-5.862.106a.47.47,0,0,1-.478-.467h0a.47.47,0,0,1,.458-.483l5.878-.368c.262,0,.692.156.469.726Z" transform="translate(-284.708 -378.609)" fill="#fff"/>
                    </g>
                  </g>
                </g>
                <g id="グループ_542" data-name="グループ 542" transform="translate(100.158 22.497)">
                  <g id="グループ_541" data-name="グループ 541">
                    <g id="グループ_540" data-name="グループ 540">
                      <path id="パス_341" data-name="パス 341" d="M305.057,379.13a.47.47,0,0,1-.46.487l-5.862.108a.476.476,0,0,1-.485-.467h0a.483.483,0,0,1,.465-.485l5.875-.365c.264,0,.695.156.467.722Z" transform="translate(-298.25 -378.408)" fill="#fff"/>
                    </g>
                  </g>
                </g>
                <path id="パス_342" data-name="パス 342" d="M274.96,375.787l-1.073,1.194.7.652,1.489-.511Z" transform="translate(-228.678 -359.201)" fill="url(#linear-gradient-2)"/>
                <path id="パス_343" data-name="パス 343" d="M278.643,378.422l-.519-3.453c-.1-.623-.855-.943-1.656-.634-1.734.668-2.348,4.312-2.262,4.473.478.886,1.651.805,3.031.783C278.108,379.572,278.74,379.04,278.643,378.422Z" transform="translate(-228.287 -361.173)" fill="#fff"/>
                <g id="グループ_543" data-name="グループ 543" transform="translate(26.565 25.644)">
                  <path id="パス_344" data-name="パス 344" d="M270.308,380.468a.67.67,0,0,1-.663.679l-3.343.05a.672.672,0,0,1-.681-.661h0a.669.669,0,0,1,.661-.681l3.343-.052a.679.679,0,0,1,.683.665Z" transform="translate(-265.621 -379.803)" fill="#fff200"/>
                </g>
                <g id="グループ_549" data-name="グループ 549" transform="translate(130.641 4.527)">
                  <path id="パス_345" data-name="パス 345" d="M324.937,388.535l-1.229-5.694-10.619-12.4-1.324,2.707L321.809,390.6l3.156-.047Z" transform="translate(-311.766 -370.44)" fill="#db2a24"/>
                  <g id="グループ_544" data-name="グループ 544" transform="translate(3.603 5.577)">
                    <rect id="長方形_235" data-name="長方形 235" width="1.705" height="0.289" transform="translate(0 0.026) rotate(-0.887)" fill="#ff6963"/>
                  </g>
                  <g id="グループ_545" data-name="グループ 545" transform="translate(4.482 7.06)">
                    <rect id="長方形_236" data-name="長方形 236" width="1.701" height="0.29" transform="matrix(1, -0.014, 0.014, 1, 0, 0.024)" fill="#ff6963"/>
                  </g>
                  <g id="グループ_546" data-name="グループ 546" transform="translate(5.352 8.544)">
                    <rect id="長方形_237" data-name="長方形 237" width="1.705" height="0.289" transform="matrix(1, -0.014, 0.014, 1, 0, 0.024)" fill="#ff6963"/>
                  </g>
                  <g id="グループ_547" data-name="グループ 547" transform="translate(6.227 10.024)">
                    <rect id="長方形_238" data-name="長方形 238" width="1.706" height="0.291" transform="matrix(1, -0.015, 0.015, 1, 0, 0.026)" fill="#ff6963"/>
                  </g>
                  <g id="グループ_548" data-name="グループ 548" transform="translate(7.101 11.506)">
                    <path id="パス_346" data-name="パス 346" d="M316.625,375.83l-1.707.029,0-.288,1.7-.029Z" transform="translate(-314.914 -375.542)" fill="#ff6963"/>
                  </g>
                </g>
                <rect id="長方形_239" data-name="長方形 239" width="4.748" height="1.506" transform="translate(139.201 32.042) rotate(-0.877)" fill="#e6e6e6" style="mix-blend-mode: multiply;isolation: isolate"/>
              </g>
              <g id="グループ_551" data-name="グループ 551" transform="translate(0.011 33.583)">
                <path id="パス_347" data-name="パス 347" d="M256.677,384.331l-2.77-1.008c-.271,2.643.359,5.544,2.174,7.147h0l1.017-1.944Z" transform="translate(-253.847 -383.323)" fill="#262529"/>
              </g>
              <g id="グループ_552" data-name="グループ 552" transform="translate(0.013 34.645)">
                <path id="パス_348" data-name="パス 348" d="M255.917,386.026a.237.237,0,0,0,.221-.189.229.229,0,0,0-.18-.271l-1.915-.381c.05.171.111.341.169.505l1.655.327Z" transform="translate(-253.604 -382.048)" fill="gray"/>
                <path id="パス_349" data-name="パス 349" d="M256.114,384.705a.23.23,0,0,0,.041-.456l-2.305-.456c0,.153,0,.316,0,.469l2.215.438A.071.071,0,0,0,256.114,384.705Z" transform="translate(-253.848 -383.794)" fill="gray"/>
                <path id="パス_350" data-name="パス 350" d="M256.153,384.7l-2.289-.453c.014.158.029.323.052.478l2.145.429.047,0a.234.234,0,0,0,.223-.187A.229.229,0,0,0,256.153,384.7Z" transform="translate(-253.829 -383.224)" fill="gray"/>
                <path id="パス_351" data-name="パス 351" d="M256.092,385.137l-2.167-.424q.047.24.1.487l1.973.388a.17.17,0,0,0,.047,0,.23.23,0,0,0,.045-.456Z" transform="translate(-253.752 -382.64)" fill="gray"/>
                <path id="パス_352" data-name="パス 352" d="M255.695,386.429a.232.232,0,0,0,.041-.458l-1.5-.3c.088.18.189.359.289.526l1.126.223A.192.192,0,0,0,255.695,386.429Z" transform="translate(-253.368 -381.434)" fill="gray"/>
              </g>
            </g>
            <path id="パス_353" data-name="パス 353" d="M303.7,369.281l2.5-1.022.949,1.112Z" transform="translate(-191.246 -357.079)" fill="url(#linear-gradient-3)"/>
          </g>
          <g id="グループ_557" data-name="グループ 557">
            <path id="パス_354" data-name="パス 354" d="M280.8,379.526,268.5,383.5l-18.665,8-.91-5.958,12.989-6.927,6.931-3.594-7.63,1.324-12.5,7.83-.91-5.958,13.334-9.282,17.625-2.691Z" transform="translate(-244.721 -344.038)" fill="#1c2021"/>
            <path id="パス_355" data-name="パス 355" d="M250.63,380.543l-2.7.41-.786-5.161.341-1.048,2.372.734Z" transform="translate(-245.557 -333.371)"/>
            <path id="パス_356" data-name="パス 356" d="M250.349,378.111l-2.7.412-1.209-7.921,1.049.333,1.227,2.143.921.385Z" transform="translate(-246.441 -338.57)"/>
            <g id="グループ_556" data-name="グループ 556" transform="translate(22.806)">
              <path id="パス_357" data-name="パス 357" d="M263.115,372.423a1.923,1.923,0,0,0-.187,2.709h0a1.923,1.923,0,0,0,2.716.189l.223-.194a1.923,1.923,0,0,0,.183-2.713h0a1.921,1.921,0,0,0-2.711-.187Z" transform="translate(-249.141 -337.123)" fill="#e2c7b5"/>
              <path id="パス_358" data-name="パス 358" d="M280.633,366.509a39.51,39.51,0,0,1-1.951,4.369,51.3,51.3,0,0,1-3.444,3.949l-9.159,7.989-3.2-3.661,9.261-8.079,4.933-5.341Z" transform="translate(-248.607 -344.681)" fill="#101314"/>
              <path id="パス_359" data-name="パス 359" d="M256.557,364.394a1.842,1.842,0,0,0,1.527,2.082l1.114.059a1.849,1.849,0,0,0,1.757-1.9h0a1.853,1.853,0,0,0-1.538-2.079L258.3,362.5a1.838,1.838,0,0,0-1.746,1.9Z" transform="translate(-256.553 -348.748)" fill="#e2c7b5"/>
              <path id="パス_360" data-name="パス 360" d="M259.887,373.289l11.2-10.549c3.286-2.143,7.046-1.919,9.317.686l2.506,2.882c2.271,2.594,2.213,6.349-.12,8.381l-17.152,11.065Z" transform="translate(-252.368 -350.266)" fill="#262c2d"/>
              <path id="パス_361" data-name="パス 361" d="M276.481,361.375l-8.024,2.062-10.277.445L257.9,368.1l8.2-.17,6.914-.456Z" transform="translate(-254.868 -350.154)" fill="#101314"/>
              <g id="グループ_555" data-name="グループ 555" transform="translate(26.644)">
                <path id="パス_362" data-name="パス 362" d="M274.3,367.1a2.716,2.716,0,0,0,.262-2.785,14.276,14.276,0,0,0-1.633-2.643c-.44-.6-.963-1.159-1.439-1.743,1.378-.767,1.91-1.861,2.483-3.53a17.529,17.529,0,0,0,2.851,3.992c1.477,1.664,3.836,4.112,3.313,6.572-.564,2.625-3.9,3.221-5.873,4.4a5.536,5.536,0,0,1-1.356.6C272.3,370.275,273.528,368.485,274.3,367.1Z" transform="translate(-264.441 -356.4)" fill="#441707"/>
                <path id="パス_363" data-name="パス 363" d="M275.42,357.965c.476.584,1,1.148,1.439,1.743a14.278,14.278,0,0,1,1.633,2.643,2.716,2.716,0,0,1-.262,2.785c-.776,1.383-2,3.173-1.392,4.856a3.657,3.657,0,0,1-.774.133c-3.273.169-8.731-5.131-7.529-6.678a17.451,17.451,0,0,1,6.218-5.163C275,358.179,275.217,358.076,275.42,357.965Z" transform="translate(-268.367 -354.435)" fill="#e2c7b5"/>
              </g>
            </g>
          </g>
        </g>
      </g>
    </g>
  </g>
</svg>
