<svg xmlns="http://www.w3.org/2000/svg" width="122.814" height="122.729" viewBox="0 0 122.814 122.729">
  <g id="グループ_2746" data-name="グループ 2746" transform="translate(-61.529 -61.643)">
    <path id="パス_2574" data-name="パス 2574" d="M238.007,267.61a35.367,35.367,0,0,0-4.249,2.673h9.172c1.3-.9,2.584-1.721,3.731-2.673Z" transform="translate(-107.532 -128.596)" fill="#9188ba"/>
    <path id="パス_2575" data-name="パス 2575" d="M269.781,267.61H261.91c-1.147.953-2.439,1.772-3.735,2.673h15.137c-2.826-1.577-4.018-2.272-4.018-2.272S269.462,267.858,269.781,267.61Z" transform="translate(-122.776 -128.596)" fill="#ada4ce"/>
    <path id="パス_2576" data-name="パス 2576" d="M343.565,267.552a13.566,13.566,0,0,1-5.945,1.852,24.554,24.554,0,0,0-4.685.821h14.071v29.448a.5.5,0,0,1,.152-.026h1.414a.5.5,0,0,1,.152.026V270.225h3.329v-2.708a2.116,2.116,0,0,1-.374.035Z" transform="translate(-169.453 -128.538)" fill="#ada4ce"/>
    <path id="パス_2577" data-name="パス 2577" d="M369.954,353.051a.5.5,0,0,0-.152.026.507.507,0,0,0-.356.483v2.79a.509.509,0,0,0,.509.509h1.414a.509.509,0,0,0,.509-.509v-2.79a.507.507,0,0,0-.357-.483.5.5,0,0,0-.152-.026Z" transform="translate(-192.248 -181.941)" fill="#6f5b8e"/>
    <path id="パス_2578" data-name="パス 2578" d="M256.464,252.878a16.614,16.614,0,0,0,1.355-3.7h-3.394c-.127.276-.265.553-.419.829a7.626,7.626,0,0,1-2.244,2.523c-1.694,1.2-4.028,2.131-6.692,3.571h8.654A10.883,10.883,0,0,0,256.464,252.878Z" transform="translate(-114.594 -117.089)" fill="#e86c6c"/>
    <path id="パス_2579" data-name="パス 2579" d="M280.141,251.441a12.814,12.814,0,0,1-1.389-2.262h-6.543a16.612,16.612,0,0,1-1.355,3.7,10.869,10.869,0,0,1-2.736,3.225h7.871a18.577,18.577,0,0,1,1.7-1.17c-1.246-.834-1.8-1.213-1.8-1.213A18.439,18.439,0,0,1,280.141,251.441Z" transform="translate(-128.984 -117.089)" fill="#fa8181"/>
    <path id="パス_2580" data-name="パス 2580" d="M297.814,251.441a20.542,20.542,0,0,1,2.468-.79,7.809,7.809,0,0,1-.772-1.473h-3.085A12.811,12.811,0,0,0,297.814,251.441Z" transform="translate(-146.658 -117.089)" fill="#e86c6c"/>
    <path id="パス_2581" data-name="パス 2581" d="M335.72,249.179h-1.26l.259.175Q335.242,249.275,335.72,249.179Z" transform="translate(-170.405 -117.089)" fill="#fa8181"/>
    <path id="パス_2582" data-name="パス 2582" d="M363.192,249.179H351.373c4.33,1.518,8.005,3.117,8.005,3.117a9.219,9.219,0,0,1-1.338,1.373,12.628,12.628,0,0,1-2.964,2.433h8.116a2.126,2.126,0,0,0,2.116-2.116V251.3A2.116,2.116,0,0,0,363.192,249.179Z" transform="translate(-180.965 -117.089)" fill="#fa8181"/>
    <path id="パス_2583" data-name="パス 2583" d="M315.369,263.565a12.63,12.63,0,0,0,2.964-2.433,13.222,13.222,0,0,1-8.689,3.131c-5.694.018-10.219,1.891-11.153,3.739-4.19-2.722-6.931-4.537-8.528-5.607a18.56,18.56,0,0,0-1.7,1.17c-.319.248-.487.4-.487.4s1.192.695,4.018,2.272c1.666.93,3.9,2.166,6.791,3.749.555-1.341,2.868-2.825,6.155-3.749a24.549,24.549,0,0,1,4.685-.821A13.567,13.567,0,0,0,315.369,263.565Z" transform="translate(-141.257 -124.551)" fill="#dac8e5"/>
    <path id="パス_2584" data-name="パス 2584" d="M309.888,250.475c.259.2.41.336.4.368a2.058,2.058,0,0,1-2.462.085c-.032-.017-.066-.032-.1-.048.113.115.226.229.337.346.419.437.83.88,1.222,1.344l-.036-.03.085.085c-.828.68-2.16-.152-3.369-1.263q.308.372.608.751.471.594.915,1.211l.216.252c-1.028,1.29-3.614-1.451-5.049-3.178-.4-.007-.93-.023-1.545-.06a13.531,13.531,0,0,0,1.135,1.417,1.423,1.423,0,0,1-.087,1.9,10.076,10.076,0,0,0-2.8-1.831c-2.992-1.236-3.491-2.216-3.491-2.216a2.964,2.964,0,0,1-.339-.411,20.549,20.549,0,0,0-2.468.79,18.442,18.442,0,0,0-4.248,2.279s.551.379,1.8,1.213c1.6,1.069,4.338,2.885,8.528,5.607.935-1.848,5.46-3.721,11.153-3.739a13.222,13.222,0,0,0,8.689-3.131,9.219,9.219,0,0,0,1.338-1.373s-3.675-1.6-8.005-3.117c-.855-.3-1.734-.6-2.617-.876a7.051,7.051,0,0,1-2.476.876q-.478.1-1,.175C307.562,248.8,309.158,249.908,309.888,250.475Z" transform="translate(-141.906 -115.632)" fill="#e2e2f5"/>
    <path id="パス_2585" data-name="パス 2585" d="M135.719,260.343c.022.043.045.085.072.127a.8.8,0,0,1-.215-.12,6.527,6.527,0,0,0,.759,1.745l.781-1.164C136.667,260.752,136.188,260.55,135.719,260.343Z" transform="translate(-46.231 -124.059)" fill="#dd9595"/>
    <path id="パス_2586" data-name="パス 2586" d="M156.961,236.241c-.562.351-.995.45-1.253.222,0,0-.2,1.422-1.282,1.453l-.018.038a2.651,2.651,0,0,1,.41,1.036Z" transform="translate(-57.988 -109.011)" fill="#dd9595"/>
    <path id="パス_2587" data-name="パス 2587" d="M150.318,248.789l-.138.286.121.053C150.3,249.017,150.308,248.9,150.318,248.789Z" transform="translate(-55.349 -116.845)" fill="#dd9595"/>
    <path id="パス_2588" data-name="パス 2588" d="M153.469,251.113l-.97,1.68a.442.442,0,0,1-.065.086c.435.924,1.007,1.727,1.572,1.8a.435.435,0,0,0,.25-.041,1.247,1.247,0,0,1-.695-.733.848.848,0,0,1,.578-1.148c-.115-.6-.21-1.3-.284-2.078C153.608,250.959,153.469,251.113,153.469,251.113Z" transform="translate(-56.757 -118.026)" fill="#cb7f74"/>
    <path id="パス_2589" data-name="パス 2589" d="M155.307,257.353a1.247,1.247,0,0,0,.695.733,1.074,1.074,0,0,0,.423.082L155.9,256.2l-.011,0A.848.848,0,0,0,155.307,257.353Z" transform="translate(-58.502 -121.473)" fill="#bc7068"/>
    <path id="パス_2590" data-name="パス 2590" d="M148.659,198.678c.258.228.691.128,1.253-.222,3.364-4.313,7.862-10.076,9.947-12.727-2.03-.92-7.692-3.774-6.22-6.416,1.785-3.2,11.322-2.134,12.1-1.134a.819.819,0,0,1,.069.613l.467-.613h0c0-.024.178-1.944-6.176-2.421-5.287-.4-6.971,2.708-7.445,3.916a6.758,6.758,0,0,1-.936-.8,91.656,91.656,0,0,0-5.626,8.117,34.808,34.808,0,0,0-2.89,5.758,3.53,3.53,0,0,0,.941,3.031C146.45,196.071,148.659,198.678,148.659,198.678Z" transform="translate(-50.94 -71.226)" fill="#668ddb"/>
    <path id="パス_2591" data-name="パス 2591" d="M174.389,134.9c6.353.477,6.178,2.4,6.176,2.421l.2-.257c-.076-.482-.158-.963-.25-1.441-.091-.516-.194-1.055-.277-1.583l-.119-.8-.1-.8c-.114-1.066-.213-2.133-.266-3.2-.116-2.137-.146-4.276-.049-6.412.156,2.131.318,4.257.523,6.375.109,1.059.22,2.116.365,3.167l.109.788.124.784c.088.524.19,1.033.289,1.566a61.629,61.629,0,0,1,.775,6.377c.162,2.131.256,4.267.25,6.405a3.572,3.572,0,0,0,.746,1.5,3.5,3.5,0,0,0,1.709,1.119c6.761,1.971,13.661.991,17.463.134a4.472,4.472,0,0,0,3.179-2.749c-2.833-.907-3.139-6.272-3.087-12.694-2.129-5.314-3.511-12.554-.149-19.8a12.035,12.035,0,0,1-2.829-.584,6.009,6.009,0,0,1-1.766,1.836,5.886,5.886,0,0,1-2.423.977,5.537,5.537,0,0,1-2.607-.224,6.39,6.39,0,0,1-2.219-1.278,11.909,11.909,0,0,0,2.344.818,6.618,6.618,0,0,0,2.388.081,7.2,7.2,0,0,0,2.269-.779,10.449,10.449,0,0,0,2.009-1.432h0l.013-.008-.7-3.933a1.2,1.2,0,0,0-1.2-.988l-.012,0-.63.11s.552,4.15-3.537,4.612a6.675,6.675,0,0,1-4.281-.754l-.113.591a55.218,55.218,0,0,0-6.441,1.4c-1.96.348-4.3,1.062-4.99,2.352-1.941,2.5-5.621,10.325-7.762,15.039-.752.894-2.036,2.453-3.509,4.371a6.76,6.76,0,0,0,.936.8C167.418,137.613,169.1,134.508,174.389,134.9Z" transform="translate(-65.232 -30.373)" fill="#83aefa"/>
    <path id="パス_2592" data-name="パス 2592" d="M209.573,334.647c1,.169,1.768.974,1.427,3a3.836,3.836,0,0,1-.11.463,8.438,8.438,0,0,0,3.3-2.636c-.3-.428-.6-.883-.879-1.333-.308-.5-.594-.987-.842-1.428A7.313,7.313,0,0,1,209.573,334.647Z" transform="translate(-92.432 -169.24)" fill="#bc7068"/>
    <path id="パス_2593" data-name="パス 2593" d="M193.9,358.566c-3.95,1.924-8.042,3.361-9.2,2.284l.082.231a2.33,2.33,0,0,0,2.558,1.521,24.234,24.234,0,0,0,6.792-2.2,57.7,57.7,0,0,0,7.526-4.393,2.19,2.19,0,0,0,.67-2.85C202.383,353.769,198.228,356.459,193.9,358.566Z" transform="translate(-76.901 -182.01)" fill="#4c3d6d"/>
    <path id="パス_2594" data-name="パス 2594" d="M195.26,342.068c-.009.03-.017.06-.027.09a2.856,2.856,0,0,1,.72.58.331.331,0,1,1-.141.157,6.922,6.922,0,0,0-.748-.292,7.183,7.183,0,0,1-.561,1.037,2.2,2.2,0,0,1,.391.414.329.329,0,1,1-.118.118,4.732,4.732,0,0,0-.479-.224,12.818,12.818,0,0,1-.874,1.1,3.5,3.5,0,0,1,.574.47.331.331,0,1,1-.119.165c-.262-.1-.517-.2-.772-.285-.294.315-.6.616-.893.9a3.609,3.609,0,0,1,.719.567.331.331,0,1,1-.2.151c0-.006.009-.011.013-.017-.25-.1-.5-.189-.741-.272-.062-.021-.125-.039-.187-.059q-.149.134-.292.26a4.029,4.029,0,0,1-3.781.831l-1.007-.3s.541-.382,1.278-1c-.4.319-.8.613-1.175.867a4.668,4.668,0,0,0-2.235,4.72h0c1.162,1.077,5.254-.361,9.2-2.284,4.326-2.107,8.48-4.8,8.425-5.406-.065-.724-1.962-3.387-3.388-5.3,0,0-.1.147-.277.376A8.438,8.438,0,0,1,195.26,342.068Z" transform="translate(-76.802 -173.204)" fill="#fa8181"/>
    <path id="パス_2595" data-name="パス 2595" d="M214.5,348.943a.331.331,0,1,0,.14-.157,2.133,2.133,0,0,1,.251.346C214.764,349.064,214.634,349,214.5,348.943Z" transform="translate(-95.494 -179.251)" fill="#4e3c5b"/>
    <path id="パス_2596" data-name="パス 2596" d="M206.725,360.133l-.457-.177c0,.006-.009.011-.013.017a.331.331,0,1,0,.2-.151A2.827,2.827,0,0,1,206.725,360.133Z" transform="translate(-90.331 -186.164)" fill="#4e3c5b"/>
    <path id="パス_2597" data-name="パス 2597" d="M209.76,356.474l-.389-.151a.33.33,0,1,0,.119-.165A2.823,2.823,0,0,1,209.76,356.474Z" transform="translate(-92.295 -183.841)" fill="#4e3c5b"/>
    <path id="パス_2598" data-name="パス 2598" d="M211.713,352.4a.333.333,0,1,0,.118-.118,1.78,1.78,0,0,1,.167.284C211.9,352.508,211.808,352.453,211.713,352.4Z" transform="translate(-93.74 -181.434)" fill="#4e3c5b"/>
    <path id="パス_2599" data-name="パス 2599" d="M164.62,239.417a2.444,2.444,0,0,1,.5.075,19.338,19.338,0,0,1,1.4-3.551q-.266-.33-.526-.631a5.079,5.079,0,0,0-.532-1.242c-.1-.159-.2-.31-.315-.457q1.535-.2,2.942-.426a58.371,58.371,0,0,1,6.188-7.917,8.852,8.852,0,0,1,2-6.291c.646-.771,1.222-1.457,1.548-1.846q-.8-.335-1.618-.723h0a3.52,3.52,0,0,1-1.27-.958h0c-2.636.417-5.024.87-7.187,1.347,2.63,5.039-.031,11.517-3.05,16.146-.019.029-.04.056-.059.085a6.688,6.688,0,0,0-.911-.764,7.179,7.179,0,0,0-2.246-1.055,5.9,5.9,0,0,0-2.436-.168,14.669,14.669,0,0,1,2.2.81c.347.161.684.338,1.011.527s.64.4.944.618a10.14,10.14,0,0,1,1.649,1.51,9.517,9.517,0,0,1,.625.827,13.808,13.808,0,0,1-1.117,1.087,16.9,16.9,0,0,1-11.088,3.936c2.294,2.356,4.761,4.909,7.091,7.471C162.325,243.036,164.012,239.411,164.62,239.417Z" transform="translate(-57.28 -96.03)" fill="#c97e7e"/>
    <path id="パス_2600" data-name="パス 2600" d="M199.392,319.41c.135-.007.266-.018.4-.03a1.171,1.171,0,0,1,.462-.285,3.439,3.439,0,0,1,1.655-.183,7.315,7.315,0,0,0,2.9-1.939,7.046,7.046,0,0,0,1.424-2.267s-1.485-3.157-3.606-7.2c-1.116,2.417-3.091,6.033-5.33,9.757C198.2,318.181,198.951,318.926,199.392,319.41Z" transform="translate(-84.764 -153.505)" fill="#c97e7e"/>
    <path id="パス_2601" data-name="パス 2601" d="M201.065,238.943a22.831,22.831,0,0,1,4.112-3c.56-.319,1.124-.623,1.686-.927a5.856,5.856,0,0,1-1.128-.934,6.193,6.193,0,0,1-1.044-1.628,7.294,7.294,0,0,1-.537-1.864,9.919,9.919,0,0,1-.114-1.922,14.078,14.078,0,0,1,.668-3.732,16.115,16.115,0,0,1,.671-1.758c.145-.313.3-.622.459-.925a32.287,32.287,0,0,1-8.324-2.328c-.326.388-.9,1.074-1.548,1.846a8.852,8.852,0,0,0-2,6.291,58.372,58.372,0,0,0-6.188,7.917,31.577,31.577,0,0,0-1.569,2.756,19.342,19.342,0,0,0-1.4,3.551,27.4,27.4,0,0,1,9.555,5.327,48.794,48.794,0,0,1,3.29-4.914A29.675,29.675,0,0,1,201.065,238.943Z" transform="translate(-76.973 -98.824)" fill="#dd9595"/>
    <path id="パス_2602" data-name="パス 2602" d="M230.4,236.007a7.626,7.626,0,0,0,2.244-2.523c.154-.276.292-.553.419-.829q.173-.377.314-.754a12.835,12.835,0,0,0-.276-9.188,15.4,15.4,0,0,1-2.43.848,17.253,17.253,0,0,1,.447,3.756,11.046,11.046,0,0,1-.3,2.538,8.655,8.655,0,0,1-.978,2.39,9.579,9.579,0,0,1-1.644,2,15.471,15.471,0,0,1-2.019,1.582c-1.422.941-2.935,1.682-4.367,2.516a26.484,26.484,0,0,0-7.435,6.467c-1.256,1.523-2.4,3.136-3.52,4.778a5.807,5.807,0,0,1,.838,1.076,12.884,12.884,0,0,0,1.852-2.742,32.555,32.555,0,0,1,5.91-5.666,35.366,35.366,0,0,1,4.249-2.673C226.376,238.139,228.71,237.21,230.4,236.007Z" transform="translate(-93.236 -100.564)" fill="#dd9595"/>
    <path id="パス_2603" data-name="パス 2603" d="M238.385,231.9l-.011.447.009.445c0,.149.015.3.022.444.005.074.008.148.015.222l.025.22a8.392,8.392,0,0,0,.352,1.727,7.357,7.357,0,0,0,.732,1.612,7.827,7.827,0,0,0,.889,1.141c.872-.471,1.733-.944,2.554-1.471a14.815,14.815,0,0,0,1.962-1.47,9.771,9.771,0,0,0,1.595-1.824,9.4,9.4,0,0,0,1.4-4.627,18.753,18.753,0,0,0-.189-3.716,22.206,22.206,0,0,1-8.235.434c-.252.946-.48,1.887-.669,2.831A22.106,22.106,0,0,0,238.385,231.9Z" transform="translate(-110.414 -102.022)" fill="#dd9595"/>
    <path id="パス_2604" data-name="パス 2604" d="M342.086,255.17l-1.11-.8s-.886-.079-.493.765C342.025,256.03,342.086,255.171,342.086,255.17Z" transform="translate(-174.104 -120.327)" fill="#ad5f51"/>
    <path id="パス_2605" data-name="パス 2605" d="M329.492,253.341q-.269-.326-.543-.65c-.393-.459-.789-.915-1.2-1.362s-.821-.888-1.257-1.311c.347.5.715.978,1.091,1.452s.761.939,1.15,1.4q.489.571.991,1.131c-.189.015-.463.131-.558.647,1.124,1.085,1.6.733,1.726.6.1.1.195.2.3.3-.057-.081-.117-.16-.175-.241q-.443-.618-.915-1.211Q329.8,253.713,329.492,253.341Z" transform="translate(-165.432 -117.612)" fill="#ad5f51"/>
    <path id="パス_2606" data-name="パス 2606" d="M333.458,252.326c-.111-.117-.225-.231-.337-.346q-.465-.476-.94-.942c-.435-.42-.871-.838-1.32-1.243s-.9-.807-1.374-1.187c.393.463.8.907,1.222,1.343s.846.864,1.277,1.288q.421.407.85.808c-.243.168-.624.569.124,1.133.845.637,1.191.257,1.28.121.134.114.268.228.4.339l.036.03C334.289,253.205,333.877,252.762,333.458,252.326Z" transform="translate(-167.3 -116.731)" fill="#ad5f51"/>
    <path id="パス_2607" data-name="パス 2607" d="M244.967,104.513l-.947.74a9.29,9.29,0,0,1-.3,1.409,2.432,2.432,0,0,1-.122.316l1.47-.181A11.423,11.423,0,0,0,244.967,104.513Z" transform="translate(-113.675 -26.766)" fill="#ad5f51"/>
    <path id="パス_2608" data-name="パス 2608" d="M231.027,115.2c4.089-.462,3.537-4.612,3.537-4.612l-.017,0-1.47.181a2.461,2.461,0,0,1-1.275,1.235c-.9.383-2.254.915-3.427,1.328a2.716,2.716,0,0,1-1.458.1l-.169,1.017A6.671,6.671,0,0,0,231.027,115.2Z" transform="translate(-103.154 -30.561)" fill="#739de0"/>
    <path id="パス_2609" data-name="パス 2609" d="M230.37,228.715a9.4,9.4,0,0,1-1.4,4.627,9.769,9.769,0,0,1-1.595,1.824,14.815,14.815,0,0,1-1.962,1.47c-.821.527-1.683,1-2.554,1.471a7.826,7.826,0,0,1-.889-1.141,7.36,7.36,0,0,1-.732-1.612,8.391,8.391,0,0,1-.352-1.727l-.025-.22c-.007-.073-.009-.148-.015-.222-.007-.148-.024-.294-.022-.444l-.009-.445.011-.447a22.107,22.107,0,0,1,.451-3.585c.189-.944.417-1.885.669-2.831l-.227-.029c-.163.3-.314.612-.459.925a16.107,16.107,0,0,0-.671,1.758,14.077,14.077,0,0,0-.668,3.732,9.916,9.916,0,0,0,.114,1.922,7.293,7.293,0,0,0,.537,1.864,6.194,6.194,0,0,0,1.044,1.628,5.859,5.859,0,0,0,1.128.934c-.561.3-1.125.607-1.686.927a22.828,22.828,0,0,0-4.112,3,29.675,29.675,0,0,0-3.407,3.755,48.8,48.8,0,0,0-3.29,4.914c.079.077.156.154.23.231,1.115-1.642,2.264-3.255,3.52-4.778a26.485,26.485,0,0,1,7.435-6.467c1.432-.834,2.945-1.575,4.367-2.516a15.468,15.468,0,0,0,2.019-1.582,9.578,9.578,0,0,0,1.644-2,8.655,8.655,0,0,0,.978-2.39,11.045,11.045,0,0,0,.3-2.538,17.252,17.252,0,0,0-.447-3.756l-.111.029A18.752,18.752,0,0,1,230.37,228.715Z" transform="translate(-92.854 -101.974)" fill="#c97e7e"/>
    <path id="パス_2610" data-name="パス 2610" d="M221.549,89.378c1.173-.412,2.522-.945,3.427-1.328a2.461,2.461,0,0,0,1.275-1.235,2.427,2.427,0,0,0,.122-.316,9.286,9.286,0,0,0,.3-1.409l.947-.74a11.424,11.424,0,0,1,.1,2.285l.017,0,.63-.11c-.038-1.074,0-2.063.03-2.645,1.532-1.141,2.86-3.4,1.891-3.854a1.416,1.416,0,0,0-.773-.1c.133-.183.266-.368.4-.557a5.7,5.7,0,0,0-2.707,1.3c-.4.241-1.284.321-1.444-.16-.482-1.2.722-2.487.882-3.69.321-2.568-2.567-3.771-4.653-4.333a6.349,6.349,0,0,0-5.259.668,15.78,15.78,0,0,0-.545,3.84c.041-.021.082-.042.124-.06a1.6,1.6,0,0,1,.954-.1,1.245,1.245,0,0,1,.776.484,3.8,3.8,0,0,0-.8.021,2.592,2.592,0,0,0-.671.183,2.56,2.56,0,0,0-.418.231c-.013.246-.027.491-.044.731-.158,2.29-.294,4.59-.291,6.886a1.179,1.179,0,0,0,.2.657,14,14,0,0,0,2.93,2.894,2.722,2.722,0,0,0,2.607.449Zm.793-8.891a.42.42,0,0,1-.594-.107.444.444,0,0,1,.116-.606.42.42,0,0,1,.594.107A.444.444,0,0,1,222.343,80.487Zm6.536.409a.531.531,0,0,1,.4.065.654.654,0,0,0-.334.127c-.1.063-.205.132-.3.2a6.144,6.144,0,0,0-.554.436c-.036.032-.07.066-.106.1a.472.472,0,0,1,.33.172.378.378,0,0,1,.087.282,2.271,2.271,0,0,1-.26,0,.858.858,0,0,1-.18-.033.845.845,0,0,1-.167-.074c-.03-.017-.061-.036-.1-.059-.036.039-.073.076-.109.115-.162.177-.312.368-.481.572a1.729,1.729,0,0,1,.211-.758,2.2,2.2,0,0,1,.494-.625,2.23,2.23,0,0,1,.681-.414c.062-.023.126-.043.19-.06S228.812,80.907,228.878,80.9Zm-6.457-3.856a2.594,2.594,0,0,1,1.223.243,2.048,2.048,0,0,1,.935.876,1.714,1.714,0,0,1,.192.609,1.26,1.26,0,0,1-.079.611,2.383,2.383,0,0,0-.532-.933,2.568,2.568,0,0,0-.8-.58,4.329,4.329,0,0,0-.981-.32,6.584,6.584,0,0,0-1.113-.144A2.1,2.1,0,0,1,222.422,77.04Zm-4.306,4.513a1.657,1.657,0,0,1,.333-.463,4.379,4.379,0,0,0,.32-.35,1.451,1.451,0,0,0,.11-.188c.033-.069.068-.137.1-.208a3.634,3.634,0,0,0,.151-.438,4.507,4.507,0,0,0,.1-.461c.022-.159.038-.32.052-.482.048-.649.015-1.316.026-1.99a8.324,8.324,0,0,1,.33,2,4.474,4.474,0,0,1-.012.517,3.2,3.2,0,0,1-.069.524,2.759,2.759,0,0,1-.166.51,2.427,2.427,0,0,1-.122.242,2.706,2.706,0,0,1-.153.237,4.613,4.613,0,0,1-.361.383,1.3,1.3,0,0,0-.26.337.323.323,0,0,0,0,.3.8.8,0,0,0,.282.272,4.148,4.148,0,0,0,1.83.465,2.168,2.168,0,0,1-2.042-.125,1.181,1.181,0,0,1-.426-.42A.748.748,0,0,1,218.116,81.553Zm-1.009-1.419a.441.441,0,0,1,.116-.6.417.417,0,0,1,.589.107.441.441,0,0,1-.116.6A.417.417,0,0,1,217.107,80.134Zm.461,4.234c-.089-.054.482-.2.89-.3a1.036,1.036,0,0,1,.735.1l.222.12.133-.082a1.044,1.044,0,0,1,.879-.113,14.461,14.461,0,0,1,1.934,1.069C220.609,84.807,219.06,85.27,217.568,84.368Zm2.126,1.387c-.112,0-.225,0-.341,0a2.17,2.17,0,0,1-.372-.05.829.829,0,0,1,.327-.219,1.153,1.153,0,0,1,.376-.075,1.12,1.12,0,0,1,.38.053.783.783,0,0,1,.337.207,2.535,2.535,0,0,1-.369.065C219.917,85.744,219.806,85.752,219.694,85.755Z" transform="translate(-96.329 -6.601)" fill="#cb7f74"/>
    <path id="パス_2611" data-name="パス 2611" d="M223.522,65.887c2.086.562,4.974,1.765,4.653,4.333-.16,1.2-1.364,2.487-.882,3.69.16.482,1.043.4,1.444.16a5.7,5.7,0,0,1,2.707-1.3c1.424-2.021,2.737-4.345,1.337-6.7a7.985,7.985,0,0,0-1.4-1.723,9.5,9.5,0,0,0-7.4-2.64,7.169,7.169,0,0,0-5.076,3.388,6.841,6.841,0,0,0-.641,1.465A6.349,6.349,0,0,1,223.522,65.887Z" transform="translate(-97.857 0)" fill="#966564"/>
    <path id="パス_2612" data-name="パス 2612" d="M232.2,92.31a.42.42,0,0,0-.594-.107.444.444,0,0,0-.116.606.42.42,0,0,0,.594.107A.444.444,0,0,0,232.2,92.31Z" transform="translate(-106.071 -19.031)" fill="#45344a"/>
    <path id="パス_2613" data-name="パス 2613" d="M219.84,91.666a.417.417,0,0,0-.589-.107.441.441,0,0,0-.116.6.417.417,0,0,0,.59.107A.441.441,0,0,0,219.84,91.666Z" transform="translate(-98.356 -18.629)" fill="#45344a"/>
    <path id="パス_2614" data-name="パス 2614" d="M225.325,107.384a1.12,1.12,0,0,0-.38-.053,1.153,1.153,0,0,0-.376.075.829.829,0,0,0-.327.219,2.169,2.169,0,0,0,.372.05c.116.006.229.008.341,0s.224-.011.338-.023a2.536,2.536,0,0,0,.368-.065A.783.783,0,0,0,225.325,107.384Z" transform="translate(-101.59 -28.525)" fill="#ad5f51"/>
    <path id="パス_2615" data-name="パス 2615" d="M225.261,104.821a14.461,14.461,0,0,0-1.934-1.069,1.044,1.044,0,0,0-.879.113l-.133.082-.222-.12a1.036,1.036,0,0,0-.735-.1c-.408.1-.979.243-.89.3C221.959,104.926,223.507,104.463,225.261,104.821Z" transform="translate(-99.227 -26.258)" fill="#ad5f51"/>
    <path id="パス_2616" data-name="パス 2616" d="M222.279,90.536a2.168,2.168,0,0,0,2.042.125,4.148,4.148,0,0,1-1.83-.465.8.8,0,0,1-.282-.272.323.323,0,0,1,0-.3,1.3,1.3,0,0,1,.26-.337,4.611,4.611,0,0,0,.361-.383,2.7,2.7,0,0,0,.153-.237,2.418,2.418,0,0,0,.122-.242,2.759,2.759,0,0,0,.166-.51,3.2,3.2,0,0,0,.069-.524,4.473,4.473,0,0,0,.012-.517,8.324,8.324,0,0,0-.33-2c-.011.674.023,1.341-.026,1.99-.015.162-.03.323-.052.482a4.5,4.5,0,0,1-.1.461,3.631,3.631,0,0,1-.151.438c-.029.071-.063.139-.1.208a1.45,1.45,0,0,1-.11.188,4.373,4.373,0,0,1-.32.35,1.657,1.657,0,0,0-.333.463.748.748,0,0,0,.023.661A1.181,1.181,0,0,0,222.279,90.536Z" transform="translate(-100.043 -14.503)" fill="#ad5f51"/>
    <path id="パス_2617" data-name="パス 2617" d="M216.516,84.975a3.8,3.8,0,0,1,.8-.021,1.245,1.245,0,0,0-.776-.484,1.6,1.6,0,0,0-.954.1c-.042.018-.083.039-.124.06a1.591,1.591,0,0,0-.6.565,1.241,1.241,0,0,0-.184.9,3.847,3.847,0,0,1,.571-.568c.058-.046.117-.088.176-.128a2.561,2.561,0,0,1,.418-.231A2.591,2.591,0,0,1,216.516,84.975Z" transform="translate(-95.607 -14.231)" fill="#45344a"/>
    <path id="パス_2618" data-name="パス 2618" d="M232.433,85.877a2.567,2.567,0,0,1,.8.58,2.382,2.382,0,0,1,.532.933,1.259,1.259,0,0,0,.079-.611,1.714,1.714,0,0,0-.192-.609,2.048,2.048,0,0,0-.935-.876,2.594,2.594,0,0,0-1.223-.243,2.1,2.1,0,0,0-1.151.36,6.585,6.585,0,0,1,1.113.144A4.329,4.329,0,0,1,232.433,85.877Z" transform="translate(-105.396 -14.614)" fill="#45344a"/>
    <path id="パス_2619" data-name="パス 2619" d="M247.261,95.407a2.229,2.229,0,0,0-.681.414,2.2,2.2,0,0,0-.494.625,1.729,1.729,0,0,0-.211.758c.169-.2.319-.395.481-.572.036-.04.073-.077.109-.115.035.023.066.042.1.059a.845.845,0,0,0,.167.074.859.859,0,0,0,.18.033,2.27,2.27,0,0,0,.26,0,.378.378,0,0,0-.087-.282.472.472,0,0,0-.33-.172c.035-.033.069-.067.106-.1a6.143,6.143,0,0,1,.554-.436c.1-.067.2-.136.3-.2a.654.654,0,0,1,.334-.127.531.531,0,0,0-.4-.065c-.066.011-.129.027-.2.041S247.323,95.384,247.261,95.407Z" transform="translate(-115.097 -21.011)" fill="#ad5f51"/>
    <path id="パス_2620" data-name="パス 2620" d="M235.931,216.063l-.958-2.391a4.454,4.454,0,0,1-2.756,1.921c-3.8.856-10.7,1.837-17.463-.134a3.546,3.546,0,0,1-.439-.16h0q.823.389,1.618.723a32.287,32.287,0,0,0,8.324,2.328l.227.029a22.208,22.208,0,0,0,8.235-.434l.111-.029a15.4,15.4,0,0,0,2.43-.848c.131-.059.249-.115.352-.166A.662.662,0,0,0,235.931,216.063Z" transform="translate(-95.392 -94.92)" fill="#668ddb"/>
    <path id="パス_2621" data-name="パス 2621" d="M208.267,205.489l-.41-3.6A20.125,20.125,0,0,0,208.267,205.489Z" transform="translate(-91.36 -87.565)" fill="#83aefa"/>
    <path id="パス_2622" data-name="パス 2622" d="M270.684,201.769l.686-4.362-.013-.019c-.3,1.824-.649,3.883-.915,5.281A4.476,4.476,0,0,0,270.684,201.769Z" transform="translate(-130.435 -84.753)" fill="#83aefa"/>
    <path id="パス_2623" data-name="パス 2623" d="M203.889,161.2l.192,1.585.315,2.762.41,3.6c.006-2.138-.088-4.273-.25-6.4a61.64,61.64,0,0,0-.775-6.377c-.1-.533-.2-1.042-.289-1.566l-.124-.784-.109-.788c-.145-1.051-.257-2.108-.365-3.167-.2-2.119-.367-4.244-.523-6.375-.1,2.136-.067,4.275.049,6.412.053,1.069.152,2.136.266,3.2l.1.8.119.8c.083.529.186,1.067.277,1.583.092.478.174.959.25,1.441q.134.849.247,1.7C203.755,160.145,203.82,160.673,203.889,161.2Z" transform="translate(-87.899 -51.221)" fill="#668ddb"/>
    <path id="パス_2624" data-name="パス 2624" d="M237.291,124.834a7.194,7.194,0,0,1-2.269.779,6.618,6.618,0,0,1-2.388-.081,11.908,11.908,0,0,1-2.344-.818,6.391,6.391,0,0,0,2.219,1.278,5.537,5.537,0,0,0,2.607.224,5.886,5.886,0,0,0,2.423-.977A6.009,6.009,0,0,0,239.3,123.4l.006-.011-.01.009A10.451,10.451,0,0,1,237.291,124.834Z" transform="translate(-105.366 -38.554)" fill="#668ddb"/>
    <path id="パス_2625" data-name="パス 2625" d="M303.533,243.293a7.806,7.806,0,0,0,.772,1.473,2.961,2.961,0,0,0,.339.411s.5.98,3.491,2.216a10.076,10.076,0,0,1,2.8,1.831,1.423,1.423,0,0,0,.088-1.9,13.518,13.518,0,0,1-1.135-1.417c.615.036,1.144.053,1.545.06,1.435,1.727,4.021,4.468,5.049,3.178l-.216-.252c.058.081.119.16.175.241-.1-.1-.2-.2-.3-.3-.123.137-.6.489-1.726-.6.1-.516.37-.631.558-.647q-.5-.56-.991-1.131c-.389-.462-.776-.927-1.15-1.4s-.744-.954-1.091-1.452c.435.423.85.864,1.257,1.311s.8.9,1.2,1.362q.273.324.543.65c1.208,1.112,2.541,1.943,3.369,1.263l-.085-.085c-.137-.111-.271-.225-.4-.339-.089.136-.435.516-1.28-.121-.747-.563-.366-.965-.124-1.133q-.428-.4-.85-.808c-.431-.424-.859-.85-1.277-1.288s-.83-.88-1.222-1.343c.473.38.927.78,1.374,1.187s.885.823,1.32,1.243q.475.467.94.942c.034.016.068.032.1.048a2.059,2.059,0,0,0,2.462-.085c.01-.032-.14-.166-.4-.368,0,0-.062.86-1.6-.038-.393-.844.493-.765.493-.765l1.109.8c-.73-.567-2.326-1.671-3.668-2.578l-.259-.175c-1.044-.7-1.877-1.249-1.926-1.262-.083-.022-2.627-.156-4.6-.257-.129-.405-.386-1.214-.64-2.022a24.219,24.219,0,0,0-4.705,1.592A17.527,17.527,0,0,0,303.533,243.293Z" transform="translate(-150.681 -111.203)" fill="#cb7f74"/>
    <path id="パス_2626" data-name="パス 2626" d="M300,235.261s-.306,1.829.933,2.227l.122-.062a24.218,24.218,0,0,1,4.705-1.592l.078-.018s.944-.873-.213-2.338A12.437,12.437,0,0,1,300,235.261Z" transform="translate(-148.871 -107.286)" fill="#668ddb"/>
    <path id="パス_2627" data-name="パス 2627" d="M265.037,142.963a35.057,35.057,0,0,0,2.236,4.7c.178.3.361.6.555.9l3.322,6.335s2.321,11.336,5.444,12.843a1.513,1.513,0,0,0,.8.16,12.437,12.437,0,0,0,5.625-1.782s2.524-2.4-1.356-15.42c-3.65-12.249-7.687-23.832-14.9-25.1C266.079,126.559,261.611,133.362,265.037,142.963Z" transform="translate(-126.262 -39.932)" fill="#83aefa"/>
    <path id="パス_2628" data-name="パス 2628" d="M265.3,190.36c.266-1.4.615-3.457.915-5.281a37.161,37.161,0,0,1-4-7.405c-.052,6.422.254,11.787,3.087,12.694h0Z" transform="translate(-125.291 -72.444)" fill="#739de0"/>
    <path id="パス_2629" data-name="パス 2629" d="M267.163,171.823a26.915,26.915,0,0,0,2.236,4.7A35.057,35.057,0,0,1,267.163,171.823Z" transform="translate(-128.388 -68.791)" fill="#739de0"/>
    <path id="パス_2630" data-name="パス 2630" d="M122.851,362.309a5.472,5.472,0,0,1,.182-1.181,5.351,5.351,0,0,1,.776-1.677,4.13,4.13,0,0,1,1.257-1.193c-2.117-.184-4.169-.148-5.329,1.521A13.328,13.328,0,0,0,122.851,362.309Z" transform="translate(-36.341 -185.146)" fill="#e8daf2"/>
    <path id="パス_2631" data-name="パス 2631" d="M129.876,361.439a10,10,0,0,0-.259,1.338,19.956,19.956,0,0,0,5.9,1.959,6.767,6.767,0,0,1-.59-1.731,11.572,11.572,0,0,1-.263-2.2,9.045,9.045,0,0,1,.2-2.155,34.218,34.218,0,0,1-3.583-.26,11.291,11.291,0,0,0-.83,1.464A9.629,9.629,0,0,0,129.876,361.439Z" transform="translate(-42.511 -185.277)" fill="#e8daf2"/>
    <path id="パス_2632" data-name="パス 2632" d="M129.558,367.375a3.23,3.23,0,0,0,.56.813,2.325,2.325,0,0,0,.867.586,1.884,1.884,0,0,1-1.083-.318,2.885,2.885,0,0,1-.828-.819,4.06,4.06,0,0,1-.225-.379,19.954,19.954,0,0,1-5.9-1.959c-.013.106-.026.213-.036.32a13.084,13.084,0,0,0-.034,1.746,4.224,4.224,0,0,1-.515-1.747,5.316,5.316,0,0,1-.012-.657,13.33,13.33,0,0,1-3.115-2.53,3.916,3.916,0,0,0-.254.418c-1.068,6.278,16.022,10.278,18.159,9.121.945-.512,1.94-2.587,2.757-4.741a20.582,20.582,0,0,1-3.156.421A35.118,35.118,0,0,1,129.558,367.375Z" transform="translate(-35.839 -187.798)" fill="#dac8e5"/>
    <path id="パス_2633" data-name="パス 2633" d="M158.277,237.571a9.523,9.523,0,0,0-.625-.827,10.14,10.14,0,0,0-1.649-1.51q-.455-.33-.944-.618c-.328-.189-.665-.365-1.011-.527a14.672,14.672,0,0,0-2.2-.81,5.9,5.9,0,0,1,2.436.168,7.18,7.18,0,0,1,2.246,1.055,6.682,6.682,0,0,1,.911.764c.02-.029.04-.055.059-.085,3.019-4.629,5.679-11.107,3.05-16.146-1.554.343-2.989.7-4.32,1.064-3.867,4.937-7.823,9.444-9.047,10.823.074.78.169,1.48.284,2.078l.011,0,.529,1.966a1.074,1.074,0,0,1-.423-.082.435.435,0,0,1-.25.041c-.565-.074-1.138-.876-1.572-1.8a.688.688,0,0,1-.725.109l-3.292,4.9c1.3,1.356,2.775,2.861,4.332,4.459a16.9,16.9,0,0,0,11.088-3.936A13.806,13.806,0,0,0,158.277,237.571Z" transform="translate(-50.08 -98.269)" fill="#dd9595"/>
    <path id="パス_2634" data-name="パス 2634" d="M191.382,359.419a4.029,4.029,0,0,0,3.781-.831q.144-.126.292-.26c-.329-.106-.659-.2-.992-.278a11.536,11.536,0,0,0-1.208-.21c-.375-.047-.757-.074-1.158-.1-.154.136-.3.265-.444.385-.737.622-1.278,1-1.278,1Z" transform="translate(-80.445 -184.866)" fill="#e86c6c"/>
    <path id="パス_2635" data-name="パス 2635" d="M199.883,351.537a4.348,4.348,0,0,1,2.585.592c.051.03.1.065.149.1a12.8,12.8,0,0,0,.874-1.1c-.126-.051-.252-.1-.381-.137a8.152,8.152,0,0,0-1.2-.261c-.408-.058-.831-.113-1.243-.15-.176-.016-.351-.024-.528-.027a12.365,12.365,0,0,1-.874,1.095A3.838,3.838,0,0,1,199.883,351.537Z" transform="translate(-85.997 -180.38)" fill="#e86c6c"/>
    <path id="パス_2636" data-name="パス 2636" d="M204.115,340.874a5.121,5.121,0,0,1,1.348.03,3.892,3.892,0,0,1,1.3.445l.014.008c.01-.03.018-.06.027-.09a3.826,3.826,0,0,0,.11-.463c.341-2.021-.43-2.826-1.427-3a3.439,3.439,0,0,0-1.655.183,1.171,1.171,0,0,0-.462.285c-.668.685-.161,2.089-.121,2.759A5.771,5.771,0,0,1,204.115,340.874Z" transform="translate(-88.343 -172.403)" fill="#e86c6c"/>
    <path id="パス_2637" data-name="パス 2637" d="M202.563,347.894a5.2,5.2,0,0,1,1.346.024,3.821,3.821,0,0,1,1.3.425,2.6,2.6,0,0,1,.4.269,7.182,7.182,0,0,0,.561-1.037l-.041-.014a8.436,8.436,0,0,0-1.2-.281c-.408-.067-.824-.111-1.249-.154-.289-.031-.583-.061-.88-.106a.339.339,0,0,1-.019.062,6.891,6.891,0,0,1-.458.852C202.4,347.918,202.482,347.9,202.563,347.894Z" transform="translate(-87.903 -178.176)" fill="#e86c6c"/>
    <path id="パス_2638" data-name="パス 2638" d="M196.371,355.174a4.35,4.35,0,0,1,2.585.591l.01.007c.3-.28.6-.581.893-.9l-.036-.012a11.912,11.912,0,0,0-1.179-.337,11.53,11.53,0,0,0-1.208-.21c-.285-.036-.574-.06-.872-.083-.4.431-.816.829-1.206,1.182A3.508,3.508,0,0,1,196.371,355.174Z" transform="translate(-83.556 -182.679)" fill="#e86c6c"/>
    <path id="パス_2639" data-name="パス 2639" d="M200.887,349.771c.412.036.835.092,1.243.15a8.147,8.147,0,0,1,1.2.261c.129.039.256.086.381.137a4.744,4.744,0,0,1,.479.224c.095.052.19.107.285.166a1.783,1.783,0,0,0-.167-.284,2.2,2.2,0,0,0-.391-.414,2.593,2.593,0,0,0-.4-.269,3.822,3.822,0,0,0-1.3-.425,5.2,5.2,0,0,0-1.346-.024c-.081.01-.162.024-.244.04a2.217,2.217,0,0,0-1.015.454,5.1,5.1,0,0,1,.742-.042C200.536,349.746,200.712,349.755,200.887,349.771Z" transform="translate(-86.216 -179.574)" fill="#e2e2f5"/>
    <path id="パス_2640" data-name="パス 2640" d="M198.775,353.629a11.529,11.529,0,0,1,1.208.21,11.9,11.9,0,0,1,1.179.337l.036.012c.256.087.51.184.772.285l.389.151a2.822,2.822,0,0,0-.27-.316,3.5,3.5,0,0,0-.574-.47c-.05-.033-.1-.068-.149-.1a4.348,4.348,0,0,0-2.585-.592,3.828,3.828,0,0,0-.616.108,2.941,2.941,0,0,0-.663.258l.4.03C198.2,353.569,198.49,353.593,198.775,353.629Z" transform="translate(-84.895 -181.993)" fill="#e2e2f5"/>
    <path id="パス_2641" data-name="パス 2641" d="M195.925,357.19a11.528,11.528,0,0,1,1.208.21c.333.077.663.172.992.278.062.02.125.038.187.059.246.083.491.175.741.272l.457.177a2.823,2.823,0,0,0-.265-.31,3.61,3.61,0,0,0-.719-.567l-.01-.007a4.35,4.35,0,0,0-2.585-.591,3.507,3.507,0,0,0-1.014.241,2.745,2.745,0,0,0-.265.125l.115.009C195.169,357.116,195.55,357.142,195.925,357.19Z" transform="translate(-83.116 -184.216)" fill="#e2e2f5"/>
    <path id="パス_2642" data-name="パス 2642" d="M203.767,346.455c.425.044.841.088,1.249.154a8.44,8.44,0,0,1,1.2.281l.041.014a6.94,6.94,0,0,1,.748.292c.13.059.259.121.391.189a2.134,2.134,0,0,0-.251-.346,2.857,2.857,0,0,0-.72-.58l-.014-.008a3.893,3.893,0,0,0-1.3-.446,5.121,5.121,0,0,0-1.348-.03,5.77,5.77,0,0,0-.869.163c-.145.039-.289.082-.432.135.142.03.282.054.423.075C203.184,346.394,203.478,346.424,203.767,346.455Z" transform="translate(-87.993 -177.505)" fill="#e2e2f5"/>
    <path id="パス_2643" data-name="パス 2643" d="M94.5,272.031l-23.092,34.4a.52.52,0,0,1,.21.092l1.462,1.1a.529.529,0,0,1,.17.218L96.6,273.062a4.525,4.525,0,0,0-1.463-.83C94.926,272.158,94.716,272.091,94.5,272.031Z" transform="translate(-6.17 -131.356)" fill="#ada4ce"/>
    <path id="パス_2644" data-name="パス 2644" d="M139.5,256.179c-.017-.006-.033-.01-.05-.017l-.854-.37c-.243,1.175-.646,2.809-1.026,2.932a3.5,3.5,0,0,1-1.32-.323.618.618,0,0,1-.087-.031c-.229-.083-.475-.178-.731-.28l-.781,1.164-1.771,2.638c.214.06.424.127.63.2a4.524,4.524,0,0,1,1.463.83l1.235-1.84Z" transform="translate(-44.55 -121.217)" fill="#9188ba"/>
    <path id="パス_2645" data-name="パス 2645" d="M125.053,239.949a3.459,3.459,0,0,1,.918-.564l-.773-.338c-.024-.01-.048-.018-.072-.027a.845.845,0,0,0-.5-.642c-.522-.179-1.183.373-1.477,1.231s-.11,1.7.412,1.878a.8.8,0,0,0,.7-.133l.522.226A6.258,6.258,0,0,1,125.053,239.949Z" transform="translate(-38.384 -110.323)" fill="#4c3d6d"/>
    <path id="パス_2646" data-name="パス 2646" d="M130.141,243.586a2.9,2.9,0,0,1-.071-1.059,6.446,6.446,0,0,1,.164-1,4.864,4.864,0,0,1,.341-.968,5.682,5.682,0,0,1,.069,1.02c0,.335-.022.665-.048.993a7.15,7.15,0,0,0-.046.941,1.878,1.878,0,0,0,.195.772c.47.207.948.409,1.4.589.256.1.5.2.731.28a.948.948,0,0,1-.295-.205,1.273,1.273,0,0,1-.3-.532,3.284,3.284,0,0,1-.058-1.134,10.161,10.161,0,0,1,.134-1.072,6,6,0,0,1,.284-1.062,6.027,6.027,0,0,1,.129,1.091,10.059,10.059,0,0,1-.02,1.081,8.393,8.393,0,0,0-.06,1.018,1.155,1.155,0,0,0,.412.868.584.584,0,0,1-.139-.022,3.505,3.505,0,0,0,1.32.323c.379-.123.782-1.758,1.026-2.932.139-.672.227-1.195.227-1.195l.555-1.149.138-.286c-.011.114-.017.228-.017.339l.061.027,1.816-2.33a2.65,2.65,0,0,0-.41-1.036l.018-.038a19.8,19.8,0,0,0-3.5-2.284c-.141.013-3.644,1.558-5.352,2.44a3.459,3.459,0,0,0-.918.564,6.258,6.258,0,0,0-.273,1.63,9.663,9.663,0,0,0,.223,3.572,4.657,4.657,0,0,0,.9.532.949.949,0,0,1-.118-.115,1.185,1.185,0,0,1-.222-.462,2.241,2.241,0,0,1-.059-.484c0-.154,0-.305.009-.458a5.566,5.566,0,0,1,.13-.9,3.968,3.968,0,0,1,.3-.873,4.659,4.659,0,0,1,.109.914c.009.3,0,.6-.015.892s-.059.593-.065.855a1.159,1.159,0,0,0,.228.78l-.008,0c.408.2.885.425,1.385.649-.021-.023-.043-.047-.063-.072A1.5,1.5,0,0,1,130.141,243.586Z" transform="translate(-41.257 -107.999)" fill="#cb7f74"/>
    <path id="パス_2647" data-name="パス 2647" d="M175.632,186.158c.525-.085.9-.477.834-.877a.872.872,0,0,0-1.068-.569c-.525.085-.9.477-.834.876A.872.872,0,0,0,175.632,186.158Z" transform="translate(-70.569 -76.828)" fill="#668ddb"/>
    <path id="パス_2648" data-name="パス 2648" d="M148.007,233.462c1.083-.031,1.282-1.453,1.282-1.453s-2.209-2.607-4.517-2.9a1.363,1.363,0,0,0-.264,2.072A19.8,19.8,0,0,1,148.007,233.462Z" transform="translate(-51.571 -104.556)" fill="#5c77ce"/>
    <path id="パス_2649" data-name="パス 2649" d="M168.915,181.2a.819.819,0,0,0-.069-.613c-.775-1-10.312-2.071-12.1,1.134-1.472,2.643,4.19,5.5,6.22,6.416-2.085,2.651-6.583,8.414-9.947,12.727l-2.143,2.749-1.816,2.33-.061-.027-.121-.053-.555,1.149s-.088.522-.227,1.195l.854.37c.017.007.033.011.05.017a.688.688,0,0,0,.725-.109.443.443,0,0,0,.065-.086l.97-1.68s.139-.154.387-.433c1.223-1.379,5.18-5.885,9.047-10.823,3.992-5.1,7.884-10.648,8.57-13.682A3.737,3.737,0,0,0,168.915,181.2Zm-10.036.317a.872.872,0,0,1,1.068.569c.065.4-.309.792-.834.877a.872.872,0,0,1-1.068-.57C157.98,181.991,158.354,181.6,158.879,181.514Z" transform="translate(-54.049 -73.63)" fill="#4c3d6d"/>
    <path id="パス_2650" data-name="パス 2650" d="M66.913,364.783l-1.462-1.1a.535.535,0,0,0-.7.057l-2.961,3.087a.951.951,0,0,0,.156,1.448l1.8,1.208a.951.951,0,0,0,1.372-.346l1.943-3.691a.526.526,0,0,0-.15-.667Z" transform="translate(0 -188.518)" fill="#4c3d6d"/>
    <path id="パス_2651" data-name="パス 2651" d="M130.121,251.778c.006-.261.05-.559.065-.855s.024-.592.015-.892a4.66,4.66,0,0,0-.109-.914,3.97,3.97,0,0,0-.3.873,5.566,5.566,0,0,0-.13.9c-.009.152-.013.3-.009.458a2.241,2.241,0,0,0,.059.484,1.185,1.185,0,0,0,.222.462.944.944,0,0,0,.118.115.622.622,0,0,0,.292.146l.008,0A1.159,1.159,0,0,1,130.121,251.778Z" transform="translate(-42.531 -117.05)" fill="#a85c57"/>
    <path id="パス_2652" data-name="パス 2652" d="M134.806,254.149a1.879,1.879,0,0,1-.195-.772,7.15,7.15,0,0,1,.046-.941c.027-.328.045-.658.048-.993a5.682,5.682,0,0,0-.07-1.02,4.864,4.864,0,0,0-.341.968,6.444,6.444,0,0,0-.164,1,2.9,2.9,0,0,0,.071,1.059,1.5,1.5,0,0,0,.249.5c.02.025.042.048.063.072a1.109,1.109,0,0,0,.149.137.8.8,0,0,0,.215.12C134.851,254.234,134.828,254.192,134.806,254.149Z" transform="translate(-45.318 -117.865)" fill="#a85c57"/>
    <path id="パス_2653" data-name="パス 2653" d="M140.317,255.184a8.39,8.39,0,0,1,.06-1.018,10.063,10.063,0,0,0,.02-1.081,6.026,6.026,0,0,0-.129-1.091,6,6,0,0,0-.284,1.062,10.162,10.162,0,0,0-.134,1.072,3.285,3.285,0,0,0,.058,1.134,1.273,1.273,0,0,0,.3.532.949.949,0,0,0,.295.205.625.625,0,0,0,.087.031.583.583,0,0,0,.139.022A1.155,1.155,0,0,1,140.317,255.184Z" transform="translate(-48.887 -118.846)" fill="#a85c57"/>
    <path id="パス_2654" data-name="パス 2654" d="M168.653,284.653a27.4,27.4,0,0,0-9.555-5.327,2.447,2.447,0,0,0-.5-.075c-.609-.006-2.3,3.619-4.258,8.408-2.725,6.652-5.981,15.549-7.618,20.09a3.312,3.312,0,0,1-3.1,1.49l.335,2.105c.117.705.249,1.4.4,2.1a8.824,8.824,0,0,0,.6,1.98l.009.018a35.122,35.122,0,0,0,7.181.276,20.579,20.579,0,0,0,3.156-.421c.308-.812.59-1.636.835-2.391a5.983,5.983,0,0,1-2.963-.29,7.643,7.643,0,0,1-2.7-1.649,9.186,9.186,0,0,1-1.863-2.531,11.851,11.851,0,0,1-1.016-2.923c.491.905.959,1.8,1.506,2.642a12.288,12.288,0,0,0,1.867,2.288,9.422,9.422,0,0,0,2.415,1.648,8.581,8.581,0,0,0,2.76.779c.567-1.756.929-3.136.929-3.136h0c.814-1.079,1.671-2.288,2.54-3.574-.048-1.163-.122-2.319-.232-3.468a13.17,13.17,0,0,1-2.221.722,16.218,16.218,0,0,1-5.47.313,12.75,12.75,0,0,1-2.678-.588c.915.017,1.813.05,2.71.047s1.787-.021,2.677-.072,1.778-.13,2.667-.235c.765-.086,1.529-.2,2.3-.3q-.061-.627-.139-1.25-.245-1.925-.641-3.82a5.181,5.181,0,0,1-1.47.4,14.855,14.855,0,0,1-2.049.1,12.329,12.329,0,0,1-2.052-.173,6.094,6.094,0,0,1-1.959-.674c.69.057,1.351.093,2.017.1s1.329.007,2,.012,1.35.04,2.008.056a11.773,11.773,0,0,0,1.459-.041c-.062-.288-.126-.576-.194-.864a46.5,46.5,0,0,0-1.4-4.771c-.555-1.566-1.2-3.1-1.9-4.629a25.084,25.084,0,0,1,2.406,4.431,29.952,29.952,0,0,1,2.319,9.812,25.8,25.8,0,0,1-.13,4.839c1.386-2.05,2.8-4.289,4.126-6.492,2.239-3.724,4.214-7.339,5.33-9.757a11.413,11.413,0,0,0,.953-2.563,2.138,2.138,0,0,0-.347-1.342,5.807,5.807,0,0,0-.838-1.076C168.809,284.807,168.732,284.73,168.653,284.653Zm-.62,4.7a6.851,6.851,0,0,1-3.225.075,5.843,5.843,0,0,1-.82-.246,21.94,21.94,0,0,1,.655,3.783,24.773,24.773,0,0,1-.033,4.65c-.126-1.543-.263-3.075-.493-4.587a29.8,29.8,0,0,0-1.01-4.451,21.594,21.594,0,0,0-1.8-4.172,18.732,18.732,0,0,0-2.729-3.676,12.947,12.947,0,0,1,3.179,3.4,17.05,17.05,0,0,1,2,4.243c.05.156.1.314.141.471.332,0,.657.012.981.014.515.007,1.023.005,1.532-.007s1.017-.035,1.53-.066,1.032-.072,1.578-.089A4.963,4.963,0,0,1,168.033,289.356Z" transform="translate(-51.257 -135.865)" fill="#e8daf2"/>
    <path id="パス_2655" data-name="パス 2655" d="M258.606,144.256a37.159,37.159,0,0,0,4,7.405l.013.019-.686,4.362a4.478,4.478,0,0,1-.242.9v.008h0a4.481,4.481,0,0,1-.424.828l.958,2.391a.662.662,0,0,1-.319.839c-.1.051-.22.107-.352.166a12.835,12.835,0,0,1,.276,9.188c2.886.488,7.826.607,10.186-3.52l0,0C268.9,165.334,266.577,154,266.577,154l-3.322-6.335c-.194-.3-.377-.6-.555-.9a26.911,26.911,0,0,1-2.236-4.7c-3.427-9.6,1.041-16.4,1.725-17.363.055-.077.086-.117.086-.117l-3.675-.427c-.05.1-.1.207-.144.311C255.095,131.7,256.477,138.943,258.606,144.256Z" transform="translate(-121.689 -39.026)" fill="#4c3d6d"/>
    <path id="パス_2656" data-name="パス 2656" d="M168.764,314.2a29.952,29.952,0,0,0-2.318-9.812,25.088,25.088,0,0,0-2.406-4.431c.7,1.526,1.344,3.063,1.9,4.629a46.5,46.5,0,0,1,1.4,4.771c.068.287.131.575.194.864a11.785,11.785,0,0,1-1.459.041c-.659-.016-1.335-.055-2.008-.056s-1.337,0-2-.012-1.326-.046-2.017-.1a6.093,6.093,0,0,0,1.959.674,12.326,12.326,0,0,0,2.052.173,14.85,14.85,0,0,0,2.049-.1,5.181,5.181,0,0,0,1.47-.4q.4,1.894.641,3.82.078.624.139,1.25c-.775.107-1.539.218-2.3.3q-1.334.157-2.667.235t-2.677.072c-.9,0-1.794-.03-2.71-.047a12.755,12.755,0,0,0,2.678.588,16.216,16.216,0,0,0,5.47-.313,13.173,13.173,0,0,0,2.221-.722c.111,1.149.184,2.3.233,3.468,0,.051.005.1.007.153.009-.067.016-.133.024-.2A25.8,25.8,0,0,0,168.764,314.2Z" transform="translate(-60.232 -148.794)" fill="#d2c1e0"/>
    <path id="パス_2657" data-name="パス 2657" d="M192.79,291.248c-.514.031-1.022.053-1.53.066s-1.017.013-1.532.007c-.323,0-.649-.01-.981-.014-.045-.158-.092-.315-.141-.471a17.05,17.05,0,0,0-2-4.243,12.948,12.948,0,0,0-3.179-3.4,18.732,18.732,0,0,1,2.729,3.676,21.6,21.6,0,0,1,1.8,4.172,29.8,29.8,0,0,1,1.01,4.451c.23,1.512.367,3.044.493,4.587a24.774,24.774,0,0,0,.033-4.65,21.938,21.938,0,0,0-.655-3.783,5.835,5.835,0,0,0,.82.246,6.848,6.848,0,0,0,3.225-.075,4.963,4.963,0,0,0,1.484-.657C193.822,291.176,193.3,291.219,192.79,291.248Z" transform="translate(-76.109 -138.324)" fill="#d2c1e0"/>
    <path id="パス_2658" data-name="パス 2658" d="M160.023,355.737a9.42,9.42,0,0,1-2.415-1.648,12.283,12.283,0,0,1-1.867-2.288c-.547-.837-1.015-1.736-1.506-2.641a11.851,11.851,0,0,0,1.016,2.923,9.185,9.185,0,0,0,1.863,2.531,7.642,7.642,0,0,0,2.7,1.649,5.983,5.983,0,0,0,2.963.29c.044-.008.088-.012.131-.021l-.12-.014A8.58,8.58,0,0,1,160.023,355.737Z" transform="translate(-57.881 -179.511)" fill="#d2c1e0"/>
    <path id="パス_2659" data-name="パス 2659" d="M143.058,361.17a11.572,11.572,0,0,0,.263,2.2,6.767,6.767,0,0,0,.59,1.731,4.053,4.053,0,0,0,.225.379,2.885,2.885,0,0,0,.828.819,1.884,1.884,0,0,0,1.083.318,2.324,2.324,0,0,1-.867-.586,3.23,3.23,0,0,1-.56-.813l-.009-.018a8.824,8.824,0,0,1-.6-1.98c-.152-.694-.284-1.392-.4-2.1l-.335-2.105-.006-.041c0,.014-.006.028-.009.042A9.044,9.044,0,0,0,143.058,361.17Z" transform="translate(-50.901 -185.639)" fill="#d2c1e0"/>
    <path id="パス_2660" data-name="パス 2660" d="M128.977,359.5a5.352,5.352,0,0,0-.776,1.676,5.474,5.474,0,0,0-.182,1.181,5.319,5.319,0,0,0,.012.657,4.224,4.224,0,0,0,.515,1.747,13.088,13.088,0,0,1,.034-1.746c.01-.107.023-.214.036-.32a10,10,0,0,1,.259-1.338,9.63,9.63,0,0,1,.574-1.581,11.293,11.293,0,0,1,.83-1.464l.033-.051c-.027.015-.052.032-.079.047A4.13,4.13,0,0,0,128.977,359.5Z" transform="translate(-41.51 -185.192)" fill="#d2c1e0"/>
  </g>
</svg>
