<svg xmlns="http://www.w3.org/2000/svg" xmlns:xlink="http://www.w3.org/1999/xlink" width="149.541" height="89.967" viewBox="0 0 149.541 89.967">
  <defs>
    <linearGradient id="linear-gradient" x1="0.495" y1="-0.754" x2="0.495" y2="2.055" gradientUnits="objectBoundingBox">
      <stop offset="0" stop-color="#5f5a5e"/>
      <stop offset="0.275" stop-color="#262529"/>
      <stop offset="0.476" stop-color="#29272b"/>
      <stop offset="0.629" stop-color="#323134"/>
      <stop offset="0.765" stop-color="#424144"/>
      <stop offset="0.809" stop-color="#4a484b"/>
    </linearGradient>
    <linearGradient id="linear-gradient-2" x1="0.097" y1="-5.278" x2="0.097" y2="-4.295" gradientUnits="objectBoundingBox">
      <stop offset="0" stop-color="#5f5a5e"/>
      <stop offset="0.275"/>
      <stop offset="0.754"/>
      <stop offset="0.809"/>
    </linearGradient>
    <linearGradient id="linear-gradient-3" x1="0.344" y1="-1.758" x2="1.345" y2="-1.758" xlink:href="#linear-gradient"/>
  </defs>
  <g id="グループ_2747" data-name="グループ 2747" transform="translate(-155.146 -54.415)">
    <path id="パス_229" data-name="パス 229" d="M302.112,107.744c0,2.243-32.028,4.063-71.536,4.063s-71.536-1.821-71.536-4.063,32.028-4.063,71.536-4.063S302.112,105.5,302.112,107.744Z" transform="translate(2.575 32.575)" fill="#d9d9d9"/>
    <g id="グループ_506" data-name="グループ 506" transform="translate(155.146 54.415)">
      <g id="グループ_505" data-name="グループ 505">
        <path id="パス_230" data-name="パス 230" d="M192.221,96.973l-1.686.912-8.226,4.455,8.381.125-.223.347-.726.8-1.746,1.91-5.264-.7,4.66,3.812-.754-.12.523,2.792-.126-.063-1.246,1.4-.043.05-.211-.01-.716-.028-.392.229-.229-.13-1.387-.782-1.277.952-.914.683-.738.55-1.846-6.323-2.012,5.633-1.214,1.344-.543-.919-.694-1.168-1.359-.027-.872-.018.028-.719.123-3.407,2.387-2.273-3.842-.028,1.346-1.729-4.932-.051-1.787-.02,1.07-1.334-1.309-.709.419-.148,3.118-1.1-.12-.161,8.6.45-7.645-4.967-2.033-1.322,3.537.771,6.329,4.565-1.51-3.434.52.6.007-5.631,3.072,4.7.645-3.518,1.563-1.1,1.146-.8.281-.2.651.375.2.115.216.073.5.176-.043.138-2.555,8.289,6.51-5.734,1.166-1.032.523,1.442-.762,1.216,3.332.781.133.032Zm6.344,3.165-6.866-.1,4.887-2.648.586-1.867-2.557-.5-1.972-.462,1.9-3.03-3.356.849-.5-1.377.276-2.5L186.212,92.7l1.359-4.417-2.223,1.467-1.133-.392-1.065-.61-.311-4.8L180.664,89.3l-1.143.806-1.309-4.229-.8,4.386-1.653-2.528-1.366-.063-1.191.566,0,2.874-4.47-5.16.123,2.934,1.922,4.371-5.989-4.319,1.909,3.7-3.437-.751-1.351,1.07-.8,1.44,6.356,4.13-4.683-.243,1.244,1.673-2.773.985-2.015,1.444,2.754,1.49-1.3,1.621.925,1.37,4.806.048-1.357,1.749,2.739.018-3.719,3.54-.929,2.515,5.764-2.866-.061,1.684-1.985,4.364,3.887-2.807,1.4.028.719,1.213-.449,4.728,2.415-2.67.6,3.957,2.356-6.607.99,3.392,1.51,2.778,1.432-1.115.349-5.253.914-.681,1.455.821.987-.58,1.366.055.811-.91,2.773,1.389-.355-2.292-.355-1.9,2.543.4,3.811.681-5.083-4.158,4.766.635,1.344-1.136-5.51-2.62.869-.95.689-1.08,2.213-1.281,3.249-1.809Z" transform="translate(-152.441 -34.887)" fill="#fe5c14"/>
        <g id="グループ_501" data-name="グループ 501" transform="translate(25.089 31.54)">
          <path id="パス_231" data-name="パス 231" d="M219.725,82.612s1.537-2.472,3.248-4.824a37.372,37.372,0,0,1,2.488-3.128c.181-.2.354-.387.512-.54a5.056,5.056,0,0,1,.419-.4c.238-.206.38-.324.38-.324l-.37.336c-.123.1-.249.248-.405.407s-.317.344-.493.553a38.079,38.079,0,0,0-2.384,3.193c-1.633,2.4-3.086,4.907-3.086,4.907Z" transform="translate(-137.535 -73.401)" fill="#28272b"/>
          <g id="グループ_500" data-name="グループ 500" transform="translate(0 9.039)">
            <g id="グループ_497" data-name="グループ 497">
              <path id="パス_232" data-name="パス 232" d="M262.75,78.892A134.215,134.215,0,0,0,241.7,80.063c-12.316,1.52-23.534,3.145-30.333,6.917-4.045,2.239-11.954,8.283-15.213,9.472s-18.521,3.766-24.724,10.658c-1.748,1.94-1.628,6.965.894,8.814s-1.939,4.362,10.474,3.055l78.7-8.288,14.972-3.168-.688-6.515-.769-7.321-1.277-4.095Z" transform="translate(-170.249 -78.842)" fill="#fecd0e"/>
              <path id="パス_233" data-name="パス 233" d="M175.289,108.595s-1.89-9.637,18.669-11.535,62.225-6.729,62.225-6.729l8.916,6.686-2.4,5.125-86.032,9.5Z" transform="translate(-166.946 -71.246)" fill="#f4a600"/>
              <g id="グループ_479" data-name="グループ 479" transform="translate(0.662 25.096)">
                <path id="パス_234" data-name="パス 234" d="M175.521,94.047l6.112-.1c-1.126.608-2.847,1.573-4.508,2.666a12.954,12.954,0,0,1-4.437,1.613,15.553,15.553,0,0,0-2.04.552,3.922,3.922,0,0,1,.766-1.432,18.652,18.652,0,0,1,4.108-3.3Z" transform="translate(-170.647 -93.949)" fill="#fff"/>
              </g>
              <g id="グループ_480" data-name="グループ 480" transform="translate(23.709 6.617)">
                <path id="パス_235" data-name="パス 235" d="M196.992,88.408c2.694-1.955,5.758-4.043,8.049-5.583-1.116.485-2.16.992-3.115,1.522-4.045,2.239-11.954,8.283-15.213,9.472-.487.178-1.243.385-2.191.633C188.345,94.214,192.883,91.393,196.992,88.408Z" transform="translate(-184.521 -82.825)" fill="url(#linear-gradient)"/>
              </g>
              <g id="グループ_481" data-name="グループ 481" transform="translate(76.398 22.368)">
                <path id="パス_236" data-name="パス 236" d="M225.024,92.362a9.824,9.824,0,0,0-8.245,6.557l-.528,2.763a9.251,9.251,0,0,0,.042,1.467l1.857-.2,17.665-1.861A9.825,9.825,0,0,0,225.024,92.362Z" transform="translate(-216.238 -92.307)"/>
                <path id="パス_237" data-name="パス 237" d="M233.86,100.682a8.411,8.411,0,1,1-9.245-7.485A8.408,8.408,0,0,1,233.86,100.682Z" transform="translate(-215.68 -91.75)" fill="#504e51"/>
                <path id="パス_238" data-name="パス 238" d="M224.615,105.046a4.906,4.906,0,1,1,4.364-5.392A4.911,4.911,0,0,1,224.615,105.046Z" transform="translate(-214.285 -90.354)" fill="#e3e3e3"/>
                <path id="パス_239" data-name="パス 239" d="M222.85,100.166a1.4,1.4,0,1,1,1.249-1.54A1.4,1.4,0,0,1,222.85,100.166Z" transform="translate(-212.89 -88.96)" fill="#1c2426"/>
              </g>
              <path id="パス_240" data-name="パス 240" d="M178.7,102.823l-1.186-1.5-5.427.385c-.071,0-.136.015-.206.025,1.063,1.714-1.115,3.532,9.834,2.379l2.794-.294-.168-1.591Z" transform="translate(-169.17 -63.976)" fill="#4a484b"/>
              <g id="グループ_482" data-name="グループ 482" transform="translate(14.613 29.078)">
                <path id="パス_241" data-name="パス 241" d="M187.831,96.4a9.828,9.828,0,0,0-8.248,6.558l-.528,2.763a9.654,9.654,0,0,0,.045,1.465l1.854-.2,17.663-1.861A9.825,9.825,0,0,0,187.831,96.4Z" transform="translate(-179.045 -96.346)"/>
                <path id="パス_242" data-name="パス 242" d="M196.662,104.72a8.409,8.409,0,1,1-9.241-7.484A8.41,8.41,0,0,1,196.662,104.72Z" transform="translate(-178.487 -95.788)" fill="#504e51"/>
                <path id="パス_243" data-name="パス 243" d="M187.416,109.086a4.907,4.907,0,1,1,4.369-5.394A4.909,4.909,0,0,1,187.416,109.086Z" transform="translate(-177.092 -94.394)" fill="#e3e3e3"/>
                <path id="パス_244" data-name="パス 244" d="M185.658,104.206a1.4,1.4,0,1,1,1.246-1.542A1.405,1.405,0,0,1,185.658,104.206Z" transform="translate(-175.698 -92.998)" fill="#1c2426"/>
              </g>
              <g id="グループ_483" data-name="グループ 483" transform="translate(95.748 24.556)">
                <path id="パス_245" data-name="パス 245" d="M237.922,93.624l-7.631,1.215-2.4,5.124,10.47-2.213Z" transform="translate(-227.887 -93.624)" fill="#262529" style="mix-blend-mode: multiply;isolation: isolate"/>
              </g>
              <path id="パス_246" data-name="パス 246" d="M207.724,85.167s-11.808,2.505-18.856,11.047l60.246-8.138s.2-4.587-.676-6.414C242.385,79.215,223.087,81.77,207.724,85.167Z" transform="translate(-157.938 -77.619)" fill="#5f5f5f"/>
              <path id="パス_247" data-name="パス 247" d="M204.188,83.373l.753,7.145,3.711-.39s-1.576-5.859-.375-7.706Z" transform="translate(-147.808 -76.476)" fill="#212121"/>
              <path id="パス_248" data-name="パス 248" d="M221.619,80.9c-.58.048-.95.789-1.3.492l.772,7.309,1.444-.153S221.805,83.186,221.619,80.9Z" transform="translate(-137.14 -77.482)" fill="#212121"/>
              <path id="パス_249" data-name="パス 249" d="M226.7,83.16c9.563-1.008,17.78-1.369,21.287-.968.078,1.37.11,3.3.123,4.671l-55.564,7.5c6.718-6.023,15.771-8.274,15.871-8.3l.033-.01.035-.007c3.158-.929,10.137-2.035,18.215-2.885Zm-.143-1.349c-7.628.8-15,1.917-18.458,2.932,0,0-12.182,2.939-19.23,11.481l60.6-8.176s-.007-5.06-.211-7.017c-3.213-.748-13.163-.224-22.705.781Z" transform="translate(-157.938 -77.629)" fill="#303030"/>
              <g id="グループ_486" data-name="グループ 486" transform="translate(50.409 19.583)">
                <g id="グループ_485" data-name="グループ 485">
                  <g id="グループ_484" data-name="グループ 484">
                    <path id="パス_250" data-name="パス 250" d="M205.58,91.133a.35.35,0,0,1-.307.387l-4.293.467a.347.347,0,0,1-.384-.311h0a.349.349,0,0,1,.306-.385l4.286-.658c.191-.02.518.066.392.5Z" transform="translate(-200.593 -90.63)" fill="#5c5c5c"/>
                  </g>
                </g>
              </g>
              <g id="グループ_489" data-name="グループ 489" transform="translate(72.786 17.226)">
                <g id="グループ_488" data-name="グループ 488">
                  <g id="グループ_487" data-name="グループ 487">
                    <path id="パス_251" data-name="パス 251" d="M219.049,89.714a.345.345,0,0,1-.3.387l-4.293.467a.348.348,0,0,1-.387-.309h0a.357.357,0,0,1,.309-.387l4.286-.658c.191-.02.52.066.389.5Z" transform="translate(-214.064 -89.211)" fill="#5c5c5c"/>
                  </g>
                </g>
              </g>
              <path id="パス_252" data-name="パス 252" d="M190.288,89l-.709.947.556.431,1.058-.474Z" transform="translate(-157.467 -72.123)" fill="url(#linear-gradient-2)"/>
              <path id="パス_253" data-name="パス 253" d="M193.122,90.324l-.61-2.5c-.111-.449-.691-.635-1.258-.354-1.228.6-1.435,3.317-1.362,3.429.407.62,1.263.482,2.273.374C192.8,91.2,193.231,90.772,193.122,90.324Z" transform="translate(-157.269 -73.225)" fill="#fff"/>
              <g id="グループ_490" data-name="グループ 490" transform="translate(19.003 24.565)">
                <path id="パス_254" data-name="パス 254" d="M185.122,94.074a.494.494,0,0,1-.439.543l-2.45.257a.493.493,0,0,1-.542-.44h0a.491.491,0,0,1,.439-.543l2.449-.259a.493.493,0,0,1,.543.442Z" transform="translate(-181.688 -93.629)" fill="#f80"/>
              </g>
              <g id="グループ_496" data-name="グループ 496" transform="translate(94.08 2.358)">
                <path id="パス_255" data-name="パス 255" d="M237.564,92.75l-1.278-4.1-8.611-8.393-.792,2.073,8.523,12.135,2.313-.243Z" transform="translate(-226.883 -80.262)" fill="#db2a24"/>
                <g id="グループ_491" data-name="グループ 491" transform="translate(2.836 3.828)">
                  <path id="パス_256" data-name="パス 256" d="M229.862,82.778l-1.249.131-.023-.212,1.249-.131Z" transform="translate(-228.59 -82.566)" fill="#ff6963"/>
                </g>
                <g id="グループ_492" data-name="グループ 492" transform="translate(3.579 4.857)">
                  <path id="パス_257" data-name="パス 257" d="M230.306,83.4l-1.246.131-.023-.213,1.246-.131Z" transform="translate(-229.037 -83.186)" fill="#ff6963"/>
                </g>
                <g id="グループ_493" data-name="グループ 493" transform="translate(4.315 5.887)">
                  <path id="パス_258" data-name="パス 258" d="M230.752,84.017l-1.249.131-.023-.212,1.249-.131Z" transform="translate(-229.48 -83.806)" fill="#ff6963"/>
                </g>
                <g id="グループ_494" data-name="グループ 494" transform="translate(5.055 6.917)">
                  <path id="パス_259" data-name="パス 259" d="M231.2,84.638l-1.249.131-.023-.212,1.249-.131Z" transform="translate(-229.926 -84.425)" fill="#ff6963"/>
                </g>
                <g id="グループ_495" data-name="グループ 495" transform="translate(5.795 7.947)">
                  <path id="パス_260" data-name="パス 260" d="M231.643,85.256l-1.249.131-.023-.211,1.249-.131Z" transform="translate(-230.371 -85.045)" fill="#ff6963"/>
                </g>
              </g>
              <rect id="長方形_230" data-name="長方形 230" width="3.497" height="1.11" transform="translate(102.004 22.061) rotate(-6.004)" fill="#e6e6e6" style="mix-blend-mode: multiply;isolation: isolate"/>
            </g>
            <g id="グループ_498" data-name="グループ 498" transform="translate(0.047 32.41)">
              <path id="パス_261" data-name="パス 261" d="M172.375,98.907l-2.1-.555a6.267,6.267,0,0,0,2.068,5.1l0,0,.616-1.493Z" transform="translate(-170.277 -98.352)" fill="#262529"/>
            </g>
            <g id="グループ_499" data-name="グループ 499" transform="translate(0.075 33.194)">
              <path id="パス_262" data-name="パス 262" d="M172.042,100.684a.171.171,0,0,0,.15-.154.165.165,0,0,0-.148-.184l-1.432-.153c.048.123.1.243.158.36l1.236.128A.3.3,0,0,0,172.042,100.684Z" transform="translate(-170.084 -97.919)" fill="gray"/>
              <path id="パス_263" data-name="パス 263" d="M172.017,99.344a.17.17,0,0,0,.15-.153.167.167,0,0,0-.15-.184l-1.723-.183c.008.115.02.231.032.344l1.655.176A.09.09,0,0,0,172.017,99.344Z" transform="translate(-170.294 -98.824)" fill="gray"/>
              <path id="パス_264" data-name="パス 264" d="M172.059,99.456l-1.708-.181c.02.116.042.234.066.347l1.6.171a.247.247,0,0,0,.035,0,.17.17,0,0,0,0-.337Z" transform="translate(-170.256 -98.526)" fill="gray"/>
              <path id="パス_265" data-name="パス 265" d="M172.069,99.9l-1.616-.169c.033.116.07.234.106.351l1.473.155a.135.135,0,0,0,.037,0,.17.17,0,0,0,.15-.153A.167.167,0,0,0,172.069,99.9Z" transform="translate(-170.189 -98.224)" fill="gray"/>
              <path id="パス_266" data-name="パス 266" d="M171.966,101.118a.171.171,0,0,0,0-.339l-1.123-.116c.076.125.161.248.246.364l.841.09A.082.082,0,0,0,171.966,101.118Z" transform="translate(-169.93 -97.608)" fill="gray"/>
            </g>
          </g>
          <path id="パス_267" data-name="パス 267" d="M218.59,79.681l1.765-.913.769.752Z" transform="translate(-138.286 -69.852)" fill="url(#linear-gradient-3)"/>
        </g>
        <g id="グループ_504" data-name="グループ 504">
          <path id="パス_268" data-name="パス 268" d="M173.5,129.65h-5.644l.31-20.1,6.565-36.982,3.828.607L173.2,110.263Z" transform="translate(-146.744 -42.409)" fill="#b36e20"/>
          <g id="グループ_502" data-name="グループ 502">
            <path id="パス_269" data-name="パス 269" d="M192.87,86.758c-.533-3.013-5.535-9.676-16.617-7.758-5.929,1.027-11.341-2.91-15.208-6.962A11.838,11.838,0,0,0,167.8,94.1a11.829,11.829,0,0,0,16.617,6.251,18.266,18.266,0,0,0,24.627-7.7C198.786,98.562,193.312,89.25,192.87,86.758Z" transform="translate(-155.146 -42.762)" fill="#86b339"/>
            <path id="パス_270" data-name="パス 270" d="M206.488,86.88A11.844,11.844,0,0,0,198.7,68.431c-.38-.063-.759-.1-1.136-.131l.012-.056a11.862,11.862,0,0,0-23.383-4.012A14.026,14.026,0,0,0,160.175,82.95a12.161,12.161,0,0,0-1.478.741c3.867,4.052,9.279,7.989,15.208,6.962,11.082-1.919,16.084,4.744,16.617,7.758.442,2.492,5.916,11.8,16.178,5.892a18.209,18.209,0,0,0-.213-17.423Z" transform="translate(-152.797 -54.415)" fill="#95c740"/>
          </g>
          <g id="グループ_503" data-name="グループ 503" transform="translate(21.108 68.271)">
            <path id="パス_271" data-name="パス 271" d="M167.852,114.482h4.4l-4.108-18.97Z" transform="translate(-167.852 -95.512)" fill="#9e611c"/>
          </g>
        </g>
      </g>
    </g>
  </g>
</svg>
