<svg xmlns="http://www.w3.org/2000/svg" xmlns:xlink="http://www.w3.org/1999/xlink" width="880" height="636" viewBox="0 0 880 636">
  <defs>
    <clipPath id="clip-path">
      <rect id="長方形_325" data-name="長方形 325" width="145.681" height="154.679" transform="translate(257.406 -829.013)" fill="none"/>
    </clipPath>
  </defs>
  <g id="グループ_3157" data-name="グループ 3157" transform="translate(-160 -5627.996)">
    <rect id="長方形_316" data-name="長方形 316" width="880" height="464" transform="translate(160 5629.996)" fill="#fff"/>
    <rect id="長方形_321" data-name="長方形 321" width="880" height="170" transform="translate(160 6093.996)" fill="#fdea9b"/>
    <rect id="長方形_319" data-name="長方形 319" width="261" height="135" transform="translate(733 5841.996)" fill="#fdf6cb"/>
    <text id="月々のお支払い" transform="translate(737 6009.996)" stroke="rgba(0,0,0,0)" stroke-width="0.857" font-size="22" font-family="HiraginoSans-W6, Hiragino Sans"><tspan x="0" y="0">月々のお支払い</tspan></text>
    <text id="_36回" data-name="×36回" transform="translate(919 6054.996)" stroke="rgba(0,0,0,0)" stroke-width="0.857" font-size="22" font-family="NotoSans-Bold, Noto Sans" font-weight="700"><tspan x="0" y="0">×36</tspan><tspan y="0" font-family="HiraginoSans-W6, Hiragino Sans" font-weight="400">回</tspan></text>
    <text id="_33_195円" data-name="33,195円" transform="translate(737 6057.996)" fill="#eb6100" stroke="rgba(0,0,0,0)" stroke-width="0.857" font-size="46" font-family="NotoSans-ExtraBold, Noto Sans" font-weight="800"><tspan x="0" y="0">33,195</tspan><tspan y="0" font-size="30" font-family="HiraginoSans-W8, Hiragino Sans" font-weight="400">円</tspan></text>
    <text id="高予算で新車を選べる_" data-name="高予算で新車を選べる!" transform="translate(279.161 6221.996)" fill="#eb6100" stroke="rgba(0,0,0,0)" stroke-width="0.857" font-size="40" font-family="HiraginoSans-W8, Hiragino Sans"><tspan x="0" y="0">高予算で新車を選べる</tspan><tspan y="0" font-family="NotoSans-ExtraBold, Noto Sans" font-weight="800">!</tspan></text>
    <g id="グループ_775" data-name="グループ 775" transform="translate(0 1146.996)">
      <text id="車両本体価格" transform="translate(385 4657)" stroke="rgba(0,0,0,0)" stroke-width="0.857" font-size="20" font-family="HiraginoSans-W6, Hiragino Sans"><tspan x="0" y="0">車両本体価格</tspan></text>
      <text id="のおクルマに乗り換え" transform="translate(621 4657)" stroke="rgba(0,0,0,0)" stroke-width="0.857" font-size="20" font-family="HiraginoSans-W6, Hiragino Sans"><tspan x="0" y="0">のおクルマに乗り換え</tspan></text>
      <text id="_180万円" data-name="180万円" transform="translate(510 4658)" stroke="rgba(0,0,0,0)" stroke-width="0.857" font-size="36" font-family="NotoSans-Bold, Noto Sans" font-weight="700"><tspan x="0" y="0">180</tspan><tspan y="0" font-size="22" font-family="HiraginoSans-W6, Hiragino Sans" font-weight="400">万円</tspan></text>
    </g>
    <g id="グループ_778" data-name="グループ 778" transform="translate(-223 1473.996)">
      <text id="これまでの月々のお支払い金額" transform="translate(418 4665)" stroke="rgba(0,0,0,0)" stroke-width="0.857" font-size="20" font-family="HiraginoSans-W6, Hiragino Sans"><tspan x="0" y="0">これまでの月々のお支払い金額</tspan></text>
      <text id="つまり_中古車の時よりも" data-name="つまり! 中古車の時よりも" transform="translate(582.5 4696)" stroke="rgba(0,0,0,0)" stroke-width="0.857" font-size="20" font-family="HiraginoSans-W6, Hiragino Sans"><tspan x="0" y="0">つまり</tspan><tspan y="0" font-family="NotoSans-Bold, Noto Sans" font-weight="700">! </tspan><tspan y="0">中古車の時よりも</tspan></text>
      <text id="_33_200円と比べると同額_" data-name="33,200円と比べると同額!" transform="translate(703 4666)" fill="#eb6100" stroke="rgba(0,0,0,0)" stroke-width="0.857" font-size="32" font-family="NotoSans-Bold, Noto Sans" font-weight="700"><tspan x="0" y="0" fill="#000">33,200</tspan><tspan y="0" font-size="22" font-family="HiraginoSans-W6, Hiragino Sans" font-weight="400" fill="#000">円と比べると</tspan><tspan y="0" fill="#eb6100" font-size="22" font-family="HiraginoSans-W6, Hiragino Sans" font-weight="400">同額</tspan><tspan y="0" fill="#eb6100" font-size="22">!</tspan></text>
    </g>
    <line id="線_144" data-name="線 144" x2="820" transform="translate(190 5769.996)" fill="none" stroke="#000" stroke-width="2"/>
    <line id="線_145" data-name="線 145" x2="820" transform="translate(190 5820.996)" fill="none" stroke="#000" stroke-width="2"/>
    <path id="パス_1270" data-name="パス 1270" d="M104.5,0,209,69H0Z" transform="translate(705 5696.996) rotate(180)" fill="#e8e8e8"/>
    <text id="支払回数_36回_3年_金利_4.9_頭金_0円_ボーナス月増額_なし" data-name="支払回数：36回（3年）
金利：4.9%
頭金：0円
ボーナス月増額：なし" transform="translate(763 5874.996)" stroke="rgba(0,0,0,0)" stroke-width="0.857" font-size="18" font-family="HiraginoSans-W5, Hiragino Sans" letter-spacing="-0.03em"><tspan x="0" y="0">支払回数：</tspan><tspan y="0" font-family="NotoSans-SemiBold, Noto Sans" font-weight="600">36</tspan><tspan y="0">回（</tspan><tspan y="0" font-family="NotoSans-SemiBold, Noto Sans" font-weight="600">3</tspan><tspan y="0">年）</tspan><tspan y="0" font-family="NotoSans-SemiBold, Noto Sans" font-weight="600"></tspan><tspan x="0" y="28.8">金利：</tspan><tspan y="28.8" font-family="NotoSans-SemiBold, Noto Sans" font-weight="600">4.9%</tspan><tspan x="0" y="57.6">頭金：</tspan><tspan y="57.6" font-family="NotoSans-SemiBold, Noto Sans" font-weight="600">0</tspan><tspan y="57.6">円</tspan><tspan y="57.6" font-family="NotoSans-SemiBold, Noto Sans" font-weight="600"></tspan><tspan x="0" y="86.4">ボーナス月増額：なし</tspan></text>
    <text id="アレンジ7_3年プランで契約した場合" data-name="アレンジ7 　3年プランで契約した場合" transform="translate(601 5743.996)" fill="#fe9247" stroke="rgba(0,0,0,0)" stroke-width="0.857" font-size="32" font-family="HiraginoSans-W8, Hiragino Sans"><tspan x="-278.016" y="0">アレンジ</tspan><tspan y="0" font-family="NotoSans-ExtraBold, Noto Sans" font-weight="800">7 </tspan><tspan y="0">　</tspan><tspan y="0" font-family="NotoSans-ExtraBold, Noto Sans" font-weight="800">3</tspan><tspan y="0">年プランで契約した場合</tspan></text>
    <line id="線_141" data-name="線 141" y2="40" transform="translate(208.5 5713.496)" fill="none" stroke="#fe9247" stroke-width="5"/>
    <line id="線_149" data-name="線 149" y2="40" transform="translate(963.5 5714.996)" fill="none" stroke="#fe9247" stroke-width="5"/>
    <line id="線_142" data-name="線 142" y2="40" transform="translate(223.5 5713.496)" fill="none" stroke="#fe9247" stroke-width="5"/>
    <line id="線_150" data-name="線 150" y2="40" transform="translate(978.5 5714.996)" fill="none" stroke="#fe9247" stroke-width="5"/>
    <line id="線_143" data-name="線 143" y2="40" transform="translate(238.5 5713.496)" fill="none" stroke="#fe9247" stroke-width="5"/>
    <line id="線_151" data-name="線 151" y2="40" transform="translate(993.5 5714.996)" fill="none" stroke="#fe9247" stroke-width="5"/>
    <circle id="楕円形_1054" data-name="楕円形 1054" cx="72" cy="72" r="72" transform="translate(216 5847.996)" fill="#fe9247"/>
    <rect id="長方形_320" data-name="長方形 320" width="333" height="48" transform="translate(216 6001.996)" fill="#fcd21c"/>
    <g id="グループ_777" data-name="グループ 777" transform="translate(420.361 5847.531)">
      <line id="線_132" data-name="線 132" y2="164.616" transform="translate(126.794 3.466)" fill="none"/>
      <g id="グループ_768" data-name="グループ 768" transform="translate(0)">
        <g id="グループ_767" data-name="グループ 767">
          <path id="パス_1259" data-name="パス 1259" d="M2178.885,1058.136s-15.185,1.657-21.206,3.408-13.757,3.888-15.148,7.573-.757,5.3-.757,5.3c-.578,1.616-.629,5.932-.757,7.952s-.378,6.059-.378,6.059c-.673.553-.7,1.068-.757,2.651s-.211,7.572-.379,8.331-2.86,7.325-3.03,11.739.1,10.861,0,11.739.518,1.76,1.136,3.03a29.355,29.355,0,0,0,1.515,2.65h1.136l1.136,1.894,1.515-1.135.757-.758,1.515-1.515h2.272c.874,4.316,2.337,8.823,6.816,12.5a20.223,20.223,0,0,0,16.283,4.544,21.1,21.1,0,0,0,15.147-10.6,8.744,8.744,0,0,0,.757-3.03l5.68.379c26.913-.179,132.159-1.136,132.159-1.136h4.544a20.765,20.765,0,0,0,9.467,12.5c4.8,2.793,15.242,2.322,19.691-.379s9.582-7.032,10.224-17.419c.384-.04,1.894-.378,1.894-.378,1.557,2.51,2,2.742,3.407,2.651a4.477,4.477,0,0,0,2.272-.757,30.047,30.047,0,0,0,2.651-12.5c.09-5.273.478-14.271,0-16.283s-1.894-6.437-1.894-6.437a154.957,154.957,0,0,0,.757-20.828c-.136-6.02-1.192-18.7-1.514-18.934a13.319,13.319,0,0,1-1.136-1.135c-1.96-11.18-2.957-17.113-3.786-19.313a44.713,44.713,0,0,1-1.515-5.68,13.658,13.658,0,0,0-.378-3.408c-2.2-2-5.1-3.1-8.71-3.787a86.721,86.721,0,0,0-11.361-1.135,24.612,24.612,0,0,1-3.786-.379l-.758-1.136c2.968-5.914,5.3-10.6,5.3-10.6l-.757-.379-5.68,10.6c-1.719.9-3.029,1.515-3.029,1.515-35.716-.452-98.9.534-108.681,1.136s-23.552,2.233-27.644,4.165a20.671,20.671,0,0,0-6.059,4.165c-6.147,9.312-18.934,32.567-18.934,32.567Z" transform="translate(-2136.416 -1003.985)" fill="#eb6100" fill-rule="evenodd"/>
        </g>
      </g>
    </g>
    <path id="パス_1268" data-name="パス 1268" d="M2421.036,1090.7a155,155,0,0,0,.757-20.828c-.136-6.02-1.192-18.7-1.514-18.934a13.319,13.319,0,0,1-1.136-1.135c-1.96-11.18-2.958-17.113-3.787-19.313a44.694,44.694,0,0,1-1.515-5.68,13.667,13.667,0,0,0-.378-3.408c-2.2-2-5.1-3.1-8.71-3.787a86.875,86.875,0,0,0-11.361-1.136,24.555,24.555,0,0,1-3.786-.378l-.757-1.136c2.967-5.914,5.3-10.6,5.3-10.6l-.757-.379-5.68,10.6c-1.719.9-3.029,1.515-3.029,1.515-21.3-.27-52.377-.027-76.064.34v113.8c31.335-.275,60.159-.538,60.159-.538h4.544a20.766,20.766,0,0,0,9.467,12.5c4.8,2.793,15.243,2.322,19.691-.379s9.582-7.032,10.224-17.419c.384-.041,1.893-.379,1.893-.379,1.558,2.51,2,2.742,3.408,2.651a4.478,4.478,0,0,0,2.272-.757,30.051,30.051,0,0,0,2.651-12.5c.09-5.273.478-14.271,0-16.283S2421.036,1090.7,2421.036,1090.7Z" transform="translate(-1760.535 4843.547)" fill="#a6a8a7" fill-rule="evenodd"/>
    <text id="ローン不足分_" data-name="ローン不足分
" transform="translate(288 5921.996)" fill="#fff" stroke="rgba(0,0,0,0)" stroke-width="0.857" font-size="18" font-family="HiraginoSans-W6, Hiragino Sans"><tspan x="-53.46" y="0">ローン不足分</tspan><tspan y="0" font-family="NotoSans-Bold, Noto Sans" font-weight="700"></tspan><tspan font-family="NotoSans-Bold, Noto Sans" font-weight="700"><tspan x="0" y="32"></tspan></tspan></text>
    <text id="車両費用" transform="translate(497 5922.996)" fill="#fff" stroke="rgba(0,0,0,0)" stroke-width="0.857" font-size="18" font-family="HiraginoSans-W6, Hiragino Sans"><tspan x="-36" y="0">車両費用</tspan></text>
    <text id="据置" transform="translate(607 6017.996)" fill="#a6a8a7" stroke="rgba(0,0,0,0)" stroke-width="0.857" font-size="18" font-family="HiraginoSans-W6, Hiragino Sans"><tspan x="-18" y="0">据置</tspan></text>
    <text id="借入合計" transform="translate(307 6032.996)" stroke="rgba(0,0,0,0)" stroke-width="0.857" font-size="18" font-family="HiraginoSans-W6, Hiragino Sans"><tspan x="-36" y="0">借入合計</tspan></text>
    <text id="前契約" transform="translate(288 5896.996)" fill="#fff" stroke="rgba(0,0,0,0)" stroke-width="0.857" font-size="18" font-family="HiraginoSans-W6, Hiragino Sans"><tspan x="-27" y="0">前契約</tspan></text>
    <text id="万円" transform="translate(304 5949.996)" fill="#fff" stroke="rgba(0,0,0,0)" stroke-width="0.857" font-size="20" font-family="HiraginoSans-W8, Hiragino Sans"><tspan x="-20" y="0">万円</tspan></text>
    <text id="万円-2" data-name="万円" transform="translate(513 5950.996)" fill="#fff" stroke="rgba(0,0,0,0)" stroke-width="0.857" font-size="20" font-family="HiraginoSans-W8, Hiragino Sans"><tspan x="-20" y="0">万円</tspan></text>
    <text id="万円-3" data-name="万円" transform="translate(623 6043.996)" fill="#a6a8a7" stroke="rgba(0,0,0,0)" stroke-width="0.857" font-size="20" font-family="HiraginoSans-W8, Hiragino Sans"><tspan x="-20" y="0">万円</tspan></text>
    <text id="万円-4" data-name="万円" transform="translate(429 6033.996)" stroke="rgba(0,0,0,0)" stroke-width="0.857" font-size="20" font-family="HiraginoSans-W8, Hiragino Sans"><tspan x="-20" y="0">万円</tspan></text>
    <text id="_42" data-name="42" transform="translate(266 5952.996)" fill="#fff" stroke="rgba(0,0,0,0)" stroke-width="0.857" font-size="30" font-family="NotoSans-ExtraBold, Noto Sans" font-weight="800"><tspan x="-17.34" y="0">42</tspan></text>
    <text id="_90" data-name="90" transform="translate(475 5953.996)" fill="#fff" stroke="rgba(0,0,0,0)" stroke-width="0.857" font-size="30" font-family="NotoSans-ExtraBold, Noto Sans" font-weight="800"><tspan x="-17.34" y="0">90</tspan></text>
    <text id="_90-2" data-name="90" transform="translate(585 6046.996)" fill="#a6a8a7" stroke="rgba(0,0,0,0)" stroke-width="0.857" font-size="30" font-family="NotoSans-ExtraBold, Noto Sans" font-weight="800"><tspan x="-17.34" y="0">90</tspan></text>
    <text id="_132" data-name="132" transform="translate(378 6035.996)" stroke="rgba(0,0,0,0)" stroke-width="0.857" font-size="30" font-family="NotoSans-ExtraBold, Noto Sans" font-weight="800"><tspan x="-26.01" y="0">132</tspan></text>
    <line id="線_146" data-name="線 146" y2="227.229" transform="translate(215 5841.996)" fill="none" stroke="#000" stroke-linecap="round" stroke-linejoin="round" stroke-width="2" stroke-dasharray="4 6"/>
    <line id="線_147" data-name="線 147" y2="227.229" transform="translate(549 5841.996)" fill="none" stroke="#000" stroke-linecap="round" stroke-linejoin="round" stroke-width="2" stroke-dasharray="4 6"/>
    <line id="線_148" data-name="線 148" y2="227.229" transform="translate(664 5841.996)" fill="none" stroke="#000" stroke-linecap="round" stroke-linejoin="round" stroke-width="2" stroke-dasharray="4 6"/>
    <path id="パス_1269" data-name="パス 1269" d="M1117.431,556.843v150h-840v-150" transform="translate(-96.431 5537.152)" fill="none" stroke="#fff" stroke-linecap="round" stroke-linejoin="round" stroke-width="2" fill-rule="evenodd"/>
    <g id="グループ_779" data-name="グループ 779" transform="translate(7.004 1134.953)">
      <line id="線_136" data-name="線 136" x1="20.176" transform="translate(202.5 5072.542)" fill="none" stroke="#eb6100" stroke-linecap="round" stroke-width="4"/>
      <line id="線_138" data-name="線 138" x1="20.176" transform="translate(207.218 5087.202) rotate(-20)" fill="none" stroke="#eb6100" stroke-linecap="round" stroke-width="4"/>
      <line id="線_137" data-name="線 137" x1="20.176" transform="translate(207.218 5057.883) rotate(20)" fill="none" stroke="#eb6100" stroke-linecap="round" stroke-width="4"/>
    </g>
    <g id="グループ_780" data-name="グループ 780" transform="translate(737 6192.836)">
      <line id="線_136-2" data-name="線 136" x2="20.176" transform="translate(3.501 14.659)" fill="none" stroke="#eb6100" stroke-linecap="round" stroke-width="4"/>
      <line id="線_138-2" data-name="線 138" x1="20.176" transform="translate(18.959 29.319) rotate(-160)" fill="none" stroke="#eb6100" stroke-linecap="round" stroke-width="4"/>
      <line id="線_137-2" data-name="線 137" x1="20.176" transform="translate(18.96 0) rotate(160)" fill="none" stroke="#eb6100" stroke-linecap="round" stroke-width="4"/>
    </g>
    <g id="グループ_789" data-name="グループ 789" transform="translate(566.913 6938.33)">
      <g id="グループ_788" data-name="グループ 788" clip-path="url(#clip-path)">
        <g id="グループ_93" data-name="グループ 93">
          <path id="パス_3377" data-name="パス 3377" d="M400.254-674.893A36.928,36.928,0,0,0,392-690.6c-6.066-6.543-26.082-16.372-26.182-16.3-.09-.519-5.369-23.518-5.419-24-.68-.965-4.816-4.941-5.917-5.41,1.3-1.579,6.75-13.267,6.533-14.564.819.36,4.86,1.315,7.774-.114,2.34-2.745,1.414-5.408.963-7.56-.146-.068,1.659-12.032,1.514-12.1-.074-.032-3.51-5.94-3.575-5.983a5.991,5.991,0,0,0,.479-4.746,47.384,47.384,0,0,0,.105-11.452,42.106,42.106,0,0,0-5.13-15.989c-2.492-4.261-5.784-8.28-10.032-10.728-8.083-4.659-17.951-9.437-26.208-3.964-1.35.892-6.1,3.135-6.442,1.92a7.376,7.376,0,0,1-1.778,1.359c.487,1.176-5.866,2.97-7.56,3.165-7.126.831-9.368,9.471-12.173,15.474a30.573,30.573,0,0,0-1.291,22.076c-.54,1.871.872,2.167,0,2.82-6.469,4.846-1.028,15.709-.125,16.178-.654.683-3.758,5.242-1.506,8.312.764,1.042,6.187,1.829,7.7,0,.662-.8,2.554,8.418,2.545,8.4-5.04,2.727-7.841,3.969-11.554,7.617-3.69,3.63-10.232,13.37-9.284,18.569.764,4.189,5.842,12.06,5.158,11.348a11.933,11.933,0,0,1-2.991,2.888c-6.993,1.962-12.437,6.792-17.331,12.07a49.223,49.223,0,0,0-9.807,16.37h43.845c.975-.9,14.751-6.881,9.506-23.086-.287-.885.412-3.051.509-4.513a62.844,62.844,0,0,0,18.09,2.875c0-.156-5.444,24.724-5.444,24.724Z" fill="#fff"/>
          <path id="パス_3378" data-name="パス 3378" d="M332.082-697.807a69.476,69.476,0,0,1-16.592-1.873,19.938,19.938,0,0,1,1.555,5.818,21.156,21.156,0,0,1-8.849,18.906h18.78c.243-1.235,7.012-22.831,5.106-22.855" fill="#fcd21c"/>
          <path id="パス_3379" data-name="パス 3379" d="M350.494-680.932q-.564,2.829-1.127,5.657a1.623,1.623,0,0,1-.17.45h2.376a2.353,2.353,0,0,1-.135-.45c-.36-1.876-.663-3.764-.944-5.657" fill="#ffe164"/>
          <path id="パス_3380" data-name="パス 3380" d="M318.524-790.88A8.681,8.681,0,0,0,314.1-788.7a2.1,2.1,0,0,0,0,2.955,2.139,2.139,0,0,0,2.954,0c.024-.021.071-.071.122-.122a.629.629,0,0,0,.1-.06c.06-.042.12-.083.18-.122a8.3,8.3,0,0,1,.81-.45h0c.137-.051.27-.1.413-.139a6.331,6.331,0,0,1,.708-.152,6.166,6.166,0,0,1,.922-.006,5.755,5.755,0,0,1,.841.195c.039.012.081.029.12.043.18.1.36.185.54.292a2.09,2.09,0,0,0,2.858-.75,2.089,2.089,0,0,0-.749-2.858h0a8.014,8.014,0,0,0-5.387-1m-1.224,4.9a.18.18,0,0,1,.09-.045.218.218,0,0,0-.09.045m.76-.442a.3.3,0,0,1,.1-.045l-.1.045" fill="#323232"/>
          <path id="パス_3381" data-name="パス 3381" d="M345.182-771.728c2.689,0,2.692-4.178,0-4.178s-2.693,4.178,0,4.178" fill="#323232"/>
          <path id="パス_3382" data-name="パス 3382" d="M333.272-759.82c-2.689,0-2.693,4.178,0,4.178s2.693-4.178,0-4.178" fill="#323232"/>
          <path id="パス_3383" data-name="パス 3383" d="M321-775.906c-2.69,0-2.693,4.178,0,4.178s2.692-4.178,0-4.178" fill="#323232"/>
          <path id="パス_3384" data-name="パス 3384" d="M344.965-787.758c-4.815-.157-8.87-2.929-12.029-6.38a31.105,31.105,0,0,1-7.15-13.612c-.641-2.61-4.671-1.5-4.03,1.111,2.63,10.722,11.186,22.664,23.209,23.059,2.689.09,2.685-4.09,0-4.178" fill="#323232"/>
          <path id="パス_3385" data-name="パス 3385" d="M384.706-700.471a117.948,117.948,0,0,0-14.49-7.98q-1.224-.593-2.443-1.191-.522-2.043-1.04-4.088c-1.283-5.089-2.092-10.5-4.015-15.4a15.338,15.338,0,0,0-.624-1.494,16.8,16.8,0,0,0-2.115-3.589,7.234,7.234,0,0,0-3.361-2.194c.208-.275.42-.549.621-.83a34.958,34.958,0,0,0,4.9-9.472,16.9,16.9,0,0,0,.481-2.011,6.816,6.816,0,0,0,4.126.535,6.465,6.465,0,0,0,5.076-5.871,2.018,2.018,0,0,0,.045-.438,6.49,6.49,0,0,0-.831-3.088,15.9,15.9,0,0,0,2.07-11.62c-.517-2.636-1.67-5.5-3.841-7.083A42.879,42.879,0,0,0,370.6-792a46.6,46.6,0,0,0-4.809-17.681c-5.226-9.99-16.29-16.342-27.27-17.722-5.917-.744-12.15.113-17.2,3.456-2.232,1.479-.142,5.1,2.109,3.608,8.256-5.471,19.48-3.171,27.557,1.49A28.391,28.391,0,0,1,361.5-808.8a39.458,39.458,0,0,1,4.8,15.533,40.861,40.861,0,0,1-1.025,15.757,9.062,9.062,0,0,0-2.112.27,23.2,23.2,0,0,0-1.176-5.276,2.5,2.5,0,0,0-.619-.99,1.871,1.871,0,0,0-1.312-1.064c-8.575-2.218-14.558-9.99-17.28-17.95a2.136,2.136,0,0,0-2.567-1.465,2.107,2.107,0,0,0-1.459,2.569c3.137,9.18,9.832,17.784,19.4,20.626a20.537,20.537,0,0,1,.848,3.577q.141,1.146.256,2.294a2.272,2.272,0,0,0,.612,1.477,2.091,2.091,0,0,0,.423.312,1.968,1.968,0,0,0,2.52.422,5.165,5.165,0,0,1,2.383-.644c2.371-.039,3.208,2.456,3.7,4.4a11.789,11.789,0,0,1-.9,8.326c-.036.069-.078.137-.115.206-.113-.049-.218-.11-.335-.155a6.436,6.436,0,0,0-6.988,1.864,6.723,6.723,0,0,0-1.508,5.027c-.032.164-.063.328-.082.516a27.272,27.272,0,0,1-.846,5.357,31.6,31.6,0,0,1-8.3,12.851c-.145.138-.3.26-.445.392a6.011,6.011,0,0,0-8.49-.426,6.009,6.009,0,0,0-.609.637,9.964,9.964,0,0,0-2.174,3.521,19.512,19.512,0,0,0-.692,2.256A25.2,25.2,0,0,1,319.164-732a30.763,30.763,0,0,1-11.511-14.168,29.369,29.369,0,0,1-1.845-6.45c-.006-.033-.009-.067-.014-.1a6.641,6.641,0,0,0,.55-2.144,1.9,1.9,0,0,0,.043-.439,6.571,6.571,0,0,0-4.333-6.083,5.938,5.938,0,0,0-2.265-.348,9.885,9.885,0,0,1-3.072-4.782,8.836,8.836,0,0,1,.559-6.326,3.552,3.552,0,0,1,2.422-1.936,4.03,4.03,0,0,1,1.847.27c.172.06.355.161.528.207a.784.784,0,0,1,.283.148c-.066-.09-.148-.2-.27-.392,1.045,1.651,4.025,1.117,3.893-1.054-.659-10.886,3.439-23.13,13.279-28.844,2.325-1.35.224-4.96-2.109-3.607-10.111,5.865-15.162,17.787-15.394,29.213a9.094,9.094,0,0,0-1.408-.1c-2.962-7.874-2.11-16.814,1.422-24.375,2.8-6,7.969-12.927,15.094-13.759,2.64-.308,2.67-4.49,0-4.178-8.559,1-14.928,8-18.5,15.413-4.155,8.612-5.457,18.944-2.036,28.025-2.715,1.826-3.96,5.091-4.083,8.275a13.54,13.54,0,0,0,3.4,9.428,5.672,5.672,0,0,0-.574.586,6.442,6.442,0,0,0,.635,9.089,6.446,6.446,0,0,0,5.565,1.441,5.583,5.583,0,0,0,.977-.277,28.822,28.822,0,0,0,1.4,4.32,2.446,2.446,0,0,0-.247.1c-8.9,4.8-17.449,11.861-19.338,22.343-1.066,5.912,0,11.435,3.879,16.1.056.07.118.135.18.205-7.547,2.185-14.192,6.884-19.495,12.6a50.189,50.189,0,0,0-11.222,18.638h4.41a46.124,46.124,0,0,1,9.764-15.68c4.894-5.279,10.932-9.658,17.925-11.621a1.934,1.934,0,0,0,1.268-1.015c3.078,3.2,6.385,6.21,8.876,9.889,2.316,3.42,3.69,9.368-1.647,10.679-2.61.642-1.5,4.672,1.11,4.029a8.98,8.98,0,0,0,6.794-9.806c-.424-5.268-4.243-9.45-7.708-13.118-3.852-4.083-9.132-8.042-10.193-13.86-.948-5.2.931-10.788,3.966-14.984,3.4-4.705,8.416-8.015,13.455-10.743l.027.054a35.64,35.64,0,0,0,6.92,9.039,2.4,2.4,0,0,0-.238.9,25.57,25.57,0,0,1-1.472,7.38,10.91,10.91,0,0,1-.558,1.342q-.4.837-.872,1.634c-.3.495-.617.97-.954,1.44-.189.263-.013.025-.133.174-.09.111-.18.222-.27.331-.209.246-.425.484-.646.72a2.089,2.089,0,0,0,0,2.955,2.088,2.088,0,0,0,2.954,0c3.584-3.819,5.331-8.756,5.94-13.86a28.715,28.715,0,0,0,5.322,2.9,30.121,30.121,0,0,0,14.931,2.116c-.571,2.488-1.183,4.969-1.8,7.445-1.215,4.888-2.474,9.765-3.72,14.646a55.167,55.167,0,0,1-18.214-2.957c-.021-.007-.038-.008-.058-.014q-.568-.848-1.17-1.675c-2.331-3.2-5.6-6.352-6.556-10.284-.937-3.865-1.11-9.315,2.148-12.165,2.028-1.773-.937-4.719-2.954-2.955-5.689,4.976-4.825,15.622-.822,21.33,2.676,3.817,5.85,7.353,7.962,11.54a15.957,15.957,0,0,1,.436,13.518,15.706,15.706,0,0,1-12.013,9.69,1.642,1.642,0,0,0-1.368.982H308.2a21.154,21.154,0,0,0,8.849-18.9,19.954,19.954,0,0,0-1.555-5.819,63.353,63.353,0,0,0,14.31,1.854c-.281,1.122-1.08,4.345-1.08,4.345-1.35,5.49-2.628,10.994-3.74,16.536a2.057,2.057,0,0,0,.8,2.119,2.108,2.108,0,0,0,2.7,0,1.889,1.889,0,0,0,.526-1.008c2.742-13.669,6.491-27.106,9.834-40.634.735-2.979,1.486-5.959,2.113-8.962a15.236,15.236,0,0,1,1.807-5.52c.875-1.288,2.026-1.73,3.025-1.207,1.366.713,1.682,2.375,1.725,3.876a4.436,4.436,0,0,0-3.619.613c-2.831,1.89-3.28,6.1-3.913,9.135q-1.98,9.483-4,18.959c-.558,2.621,3.464,3.742,4.027,1.114.846-3.943,1.341-7.958,2.43-11.84,1.08-3.855,1.4-8.19,2.738-12.08a3.655,3.655,0,0,1,.99-1.732,1.216,1.216,0,0,1,1.7.27,1.209,1.209,0,0,1,.161.3,4.709,4.709,0,0,1,.056,1.346c-.175,1.676-.108,3.456-.214,5,0,.081,0,.161.007.242a1.954,1.954,0,0,0-.959.591c-1.591,1.73-2.05,4.268-2.478,6.5q-.663,3.456-1.35,6.907-.99,4.945-2,9.885c-.54,2.624,3.49,3.747,4.03,1.11q.948-4.633,1.875-9.27c.234-1.17.461-2.34.692-3.51q.572,5.13,1.143,10.266a1.46,1.46,0,0,0-.237.588c-.856,5.873-2.107,11.671-3.255,17.491a2.378,2.378,0,0,0,.212,1.562H349.2a1.642,1.642,0,0,0,.169-.45q.558-2.829,1.128-5.656c.281,1.89.583,3.78.944,5.656a2.289,2.289,0,0,0,.136.45h3.6a2.072,2.072,0,0,0,.29-1.562c-1.631-8.468-2.355-17.132-3.309-25.7-.376-3.381-.845-6.8-1.135-10.188-.105-1.235.54-1.785,1.33-1.613,1.061.231,1.164,1.393,1.272,1.96.6,3.1,2.407,16.231,3.078,19.683s4.477,2.425,4.05-.416c-.8-5.323-1.62-10.647-2.6-15.942-.5-2.734-.777-6.515-2.87-8.573a4.266,4.266,0,0,0-3.25-1.18c-.055-2.351-.1-6.892,2.421-5.416a4.805,4.805,0,0,1,1.92,3.224c.411,1.879.784,3.765,1.17,5.647q2.079,10.038,4.055,20.1c.517,2.636,4.545,1.52,4.028-1.111-1.7-8.671-3.231-17.439-5.288-26.033-.793-3.315-3.7-6.605-7.281-6.179.027-1.553.317-3.344,1.738-4.082a1.963,1.963,0,0,1,1.025-.169c1.1.048,1.763,1.149,2.058,1.679a22.67,22.67,0,0,1,2.134,5.792c.777,2.97,1.535,6.009,2.218,9,1.47,6.446,2.96,13.016,4.59,19.49.209.883,3.528,14.515,4.746,20.581a1.891,1.891,0,0,0,.527,1.008,2.11,2.11,0,0,0,2.7,0,2.057,2.057,0,0,0,.8-2.118c-1.148-5.721-2.481-11.4-3.878-17.061l-1.008-4.05q-.775-3.078-1.564-6.151v-.013c7.821,3.9,15.645,7.767,21.711,14.31a33.68,33.68,0,0,1,7.944,14.954h4.276c-2.376-10.881-9.2-19.35-18.381-25.517m-21.557-54.27c.061-.23.061-.27.043-.219.037-.146.082-.29.127-.433.051-.09.1-.187.151-.277.034-.057.071-.112.108-.167a.5.5,0,0,0,.166-.169,2.185,2.185,0,0,1,.186-.21c.024-.024.094-.076.14-.111.154-.1.36-.174.5-.281.073-.024.145-.05.221-.07s.3-.06.389-.081c.1-.005.2-.006.295-.005.082,0,.163.007.244.011.2.05.394.105.59.165.09.053.2.1.286.153.065.039.129.08.193.122l.024.015,0,.005q.2.2.4.4c.05.075.1.148.147.226s.1.18.15.275c.056.18.1.36.149.54a.516.516,0,0,0,.018.214c.006.053.012.107.013.156,0,.09-.006.172-.011.258-.047.149-.065.334-.109.477-.016.051-.034.108-.057.164-.1.174-.2.344-.3.511-.05.052-.1.108-.144.157s-.108.108-.163.159c-.01.008-.021.013-.031.022.036-.02.051-.03.105-.058-.166.09-.314.219-.477.311-.063.035-.128.066-.19.1-.169.05-.334.1-.505.141-.222-.011-.27.019-.187.026h-.018c-.173.006-.345-.005-.518-.016-.1-.021-.193-.04-.288-.067-.07-.02-.139-.045-.208-.068a.6.6,0,0,0-.18-.1,2.754,2.754,0,0,1-.27-.138c-.042-.027-.084-.056-.127-.09-.09-.09-.194-.209-.3-.318a.6.6,0,0,0-.129-.128c-.037-.057-.077-.112-.112-.171s-.076-.131-.111-.2l-.005-.01c-.047-.208-.068-.228-.056-.157a2.985,2.985,0,0,1-.1-.3c-.017-.068-.03-.136-.045-.205h0a4.171,4.171,0,0,1-.005-.548v-.007m-60.934-.293c-.048.15-.065.333-.109.477-.017.052-.035.108-.059.164-.1.174-.2.343-.3.511-.049.053-.094.108-.143.158s-.108.107-.164.157c-.009.009-.02.014-.03.024.036-.021.052-.031.1-.059-.166.09-.314.219-.477.312-.063.035-.128.065-.192.1-.168.051-.333.1-.5.141-.221-.011-.27.02-.187.026h-.017c-.174.007-.346,0-.519-.013-.1-.022-.193-.042-.288-.068-.071-.021-.139-.045-.208-.067a.576.576,0,0,0-.18-.1,2.446,2.446,0,0,1-.27-.137,1.222,1.222,0,0,1-.128-.09c-.09-.09-.195-.209-.3-.319a.585.585,0,0,0-.13-.128c-.037-.055-.076-.111-.111-.171s-.077-.131-.113-.2v-.009c-.047-.208-.069-.23-.056-.159-.039-.1-.073-.2-.1-.3-.017-.068-.03-.137-.045-.2h0a4.371,4.371,0,0,1-.005-.549v-.007c.062-.23.062-.27.044-.219.036-.146.081-.289.126-.433.052-.09.1-.187.152-.277.034-.057.071-.112.108-.167.108-.082.158-.142.164-.17a2.473,2.473,0,0,1,.188-.209,1.559,1.559,0,0,1,.14-.111c.153-.095.36-.174.5-.28.072-.026.146-.051.22-.071s.3-.06.39-.081c.1-.005.2-.007.3-.005.082,0,.163.007.244.011.2.05.394.1.59.165.09.053.194.1.285.153.065.038.13.08.194.122l.022.015.006.005c.132.132.264.264.4.4.049.074.1.147.146.225s.1.18.15.274c.056.18.1.36.15.54a.485.485,0,0,0,.018.214c.005.053.012.106.012.155,0,.09-.006.173-.01.259"/>
          <path id="パス_3386" data-name="パス 3386" d="M324.837-752.073a1.918,1.918,0,0,0-1.479.622h0c-.018.019-.034.035-.05.055a1.7,1.7,0,0,0-.559,1.411c.572,4.5,3.06,8.456,7.539,9.875a10.386,10.386,0,0,0,10.659-2.8,11.693,11.693,0,0,0,2.823-7.074,2.11,2.11,0,0,0-2.088-2.089ZM339-747.483l0,.009c-.084.171-.166.343-.257.509s-.184.324-.284.48c-.042.066-.234.322-.285.4a8.457,8.457,0,0,1-.6.656c-.125.12-.257.233-.387.346-.039.035-.061.056-.08.072s-.073.044-.142.09c-.287.18-.573.36-.877.515-.04.02-.2.09-.291.133s-.283.1-.342.123a10.356,10.356,0,0,1-1.042.27c-.046.01-.09.018-.141.025-.171.007-.344.032-.513.039a8.875,8.875,0,0,1-1.006-.018c-.075-.006-.15-.016-.224-.029.034.007.065.013.135.03-.21-.05-.427-.076-.638-.125-.331-.077-.65-.18-.973-.289-.042-.016-.065-.022-.09-.03l-.019-.009c-.175-.09-.353-.17-.526-.265a9.161,9.161,0,0,1-.9-.571c-.051-.042-.1-.084-.151-.128-.152-.139-.3-.275-.45-.421-.166-.168-.317-.346-.472-.522h0l-.151-.212a12.63,12.63,0,0,1-.705-1.226.323.323,0,0,0-.024-.05c-.025-.062-.058-.141-.083-.2h11.657c-.025.072-.036.149-.063.221s-.049.125-.072.188" fill="#323232"/>
          <path id="パス_3387" data-name="パス 3387" d="M281.357-818.929a2.106,2.106,0,0,0,2.955,0,2.131,2.131,0,0,0,0-2.954q-1.98-2.106-3.965-4.213l-.553-.587a2.108,2.108,0,0,0-2.955,0,2.135,2.135,0,0,0,0,2.955l3.966,4.213.552.586" fill="#323232"/>
          <path id="パス_3388" data-name="パス 3388" d="M276.847-807.383a2.124,2.124,0,0,0-.749-2.858l-5.029-2.829-.709-.4a2.09,2.09,0,0,0-2.87.706,2.091,2.091,0,0,0,.706,2.87l.055.032,5.026,2.827.709.4a2.119,2.119,0,0,0,2.858-.75" fill="#323232"/>
          <path id="パス_3389" data-name="パス 3389" d="M272.281-795.232l-5.755.064-.831.008a2.089,2.089,0,0,0-2.088,2.089,2.088,2.088,0,0,0,2.088,2.089l5.756-.063.828-.009a2.089,2.089,0,0,0,2.089-2.089,2.089,2.089,0,0,0-2.089-2.089" fill="#323232"/>
          <path id="パス_3390" data-name="パス 3390" d="M385.667-828.4a2.1,2.1,0,0,0-1.477-.614,2.128,2.128,0,0,0-1.477.612l-3.965,4.213-.553.587a2.183,2.183,0,0,0-.612,1.477,2.124,2.124,0,0,0,.612,1.476,2.1,2.1,0,0,0,1.477.612,2.125,2.125,0,0,0,1.475-.607l3.966-4.213.552-.587a2.176,2.176,0,0,0,.612-1.477,2.124,2.124,0,0,0-.612-1.477" fill="#323232"/>
          <path id="パス_3391" data-name="パス 3391" d="M388.518-808.348l5.029-2.83.709-.4a2.09,2.09,0,0,0,.706-2.87,2.089,2.089,0,0,0-2.815-.739l-5.029,2.83-.708.4a2.089,2.089,0,0,0-.706,2.87,2.089,2.089,0,0,0,2.814.738" fill="#323232"/>
          <path id="パス_3392" data-name="パス 3392" d="M390.225-792.77l5.755.064.828.008a2.089,2.089,0,0,0,2.089-2.089,2.089,2.089,0,0,0-2.089-2.089l-5.754-.063-.829-.009a2.089,2.089,0,0,0-2.089,2.089,2.089,2.089,0,0,0,2.089,2.089" fill="#323232"/>
        </g>
      </g>
    </g>
    <g id="グループ_827" data-name="グループ 827" transform="translate(-5312 7695)">
      <line id="線_152" data-name="線 152" x2="32.855" transform="translate(5683.072 -1762.5)" fill="none" stroke="#000" stroke-width="3"/>
      <line id="線_153" data-name="線 153" x2="32.855" transform="translate(5699.5 -1778.928) rotate(90)" fill="none" stroke="#000" stroke-width="3"/>
    </g>
  </g>
</svg>
