<svg xmlns="http://www.w3.org/2000/svg" xmlns:xlink="http://www.w3.org/1999/xlink" width="280" height="561.326" viewBox="0 0 280 561.326">
  <defs>
    <clipPath id="clip-path">
      <rect id="長方形_322" data-name="長方形 322" width="109.839" height="91.661" fill="none"/>
    </clipPath>
  </defs>
  <g id="グループ_3162" data-name="グループ 3162" transform="translate(-20 -2721.234)">
    <rect id="長方形_501" data-name="長方形 501" width="280" height="365" transform="translate(20 2722.002)" fill="#fff"/>
    <g id="グループ_2202" data-name="グループ 2202" transform="translate(-264 -1746.375)">
      <text id="車両本体価格" transform="translate(296.9 4586.8)" stroke="rgba(0,0,0,0)" stroke-width="0.857" font-size="12" font-family="HiraginoSans-W6, Hiragino Sans"><tspan x="0" y="0">車両本体価格</tspan></text>
      <text id="のおクルマに乗り換え" transform="translate(432.1 4586.8)" stroke="rgba(0,0,0,0)" stroke-width="0.857" font-size="12" font-family="HiraginoSans-W6, Hiragino Sans"><tspan x="0" y="0">のおクルマに乗り換え</tspan></text>
      <text id="_180万円" data-name="180万円" transform="translate(369.5 4587.4)" stroke="rgba(0,0,0,0)" stroke-width="0.857" font-size="21" font-family="NotoSans-Bold, Noto Sans" font-weight="700"><tspan x="0" y="0">180</tspan><tspan y="0" font-size="13" font-family="HiraginoSans-W6, Hiragino Sans" font-weight="400">万円</tspan></text>
    </g>
    <line id="線_244" data-name="線 244" x2="260" transform="translate(29 2819.824)" fill="none" stroke="#000" stroke-width="1"/>
    <line id="線_245" data-name="線 245" x2="260" transform="translate(29 2850.426)" fill="none" stroke="#000" stroke-width="1"/>
    <path id="多角形_4" data-name="多角形 4" d="M40.128,0,80.256,26.5H0Z" transform="translate(200.32 2747.73) rotate(180)" fill="#e8e8e8"/>
    <text id="アレンジ7_3年プランで契約した場合" data-name="アレンジ7
3年プランで契約した場合" transform="translate(160.8 2778.824)" fill="#fe9247" stroke="rgba(0,0,0,0)" stroke-width="0.857" font-size="18" font-family="HiraginoSans-W8, Hiragino Sans"><tspan x="-40.842" y="0">アレンジ</tspan><tspan y="0" font-family="NotoSans-ExtraBold, Noto Sans" font-weight="800">7</tspan><tspan font-family="NotoSans-ExtraBold, Noto Sans" font-weight="800"><tspan x="-104.202" y="25.2">3</tspan><tspan y="25.2" font-family="HiraginoSans-W8, Hiragino Sans" font-weight="400">年プランで契約した場合</tspan></tspan></text>
    <line id="線_238" data-name="線 238" y2="37.127" transform="translate(36.5 2771.719)" fill="none" stroke="#fe9247" stroke-width="2"/>
    <line id="線_246" data-name="線 246" y2="37.127" transform="translate(273.1 2771.719)" fill="none" stroke="#fe9247" stroke-width="2"/>
    <line id="線_240" data-name="線 240" y2="37.127" transform="translate(42.5 2771.719)" fill="none" stroke="#fe9247" stroke-width="2"/>
    <line id="線_247" data-name="線 247" y2="37.127" transform="translate(279.1 2771.719)" fill="none" stroke="#fe9247" stroke-width="2"/>
    <line id="線_242" data-name="線 242" y2="37.127" transform="translate(48.5 2771.719)" fill="none" stroke="#fe9247" stroke-width="2"/>
    <line id="線_248" data-name="線 248" y2="37.127" transform="translate(285.1 2771.719)" fill="none" stroke="#fe9247" stroke-width="2"/>
    <g id="グループ_2205" data-name="グループ 2205" transform="translate(-178.5 -1899.477)">
      <circle id="楕円形_1086" data-name="楕円形 1086" cx="39.6" cy="39.6" r="39.6" transform="translate(215.55 4765.296)" fill="#fe9247"/>
      <rect id="長方形_502" data-name="長方形 502" width="183.15" height="26.4" transform="translate(215.55 4849.997)" fill="#fcd21c"/>
      <g id="グループ_2203" data-name="グループ 2203" transform="translate(420.361 4767.531)">
        <line id="線_132" data-name="線 132" y2="90.539" transform="translate(-22.676 -0.584)" fill="none"/>
        <g id="グループ_768" data-name="グループ 768" transform="translate(0)">
          <g id="グループ_767" data-name="グループ 767">
            <path id="パス_1259" data-name="パス 1259" d="M2159.773,1033.768s-8.352.911-11.663,1.875-7.566,2.138-8.331,4.165-.417,2.916-.417,2.916a24.052,24.052,0,0,0-.416,4.374c-.07,1.112-.208,3.332-.208,3.332-.37.3-.384.588-.417,1.458s-.116,4.165-.208,4.582-1.573,4.029-1.666,6.457.057,5.973,0,6.456.285.968.625,1.666a16.134,16.134,0,0,0,.833,1.458h.625l.625,1.042.833-.625.417-.417.833-.833h1.25a11.011,11.011,0,0,0,12.7,9.373,11.607,11.607,0,0,0,8.331-5.832,4.807,4.807,0,0,0,.417-1.666l3.124.208c14.8-.1,72.688-.625,72.688-.625h2.5a11.422,11.422,0,0,0,5.207,6.873c2.64,1.536,8.383,1.277,10.83-.208s5.27-3.868,5.624-9.581c.211-.022,1.042-.208,1.042-.208.856,1.38,1.1,1.508,1.874,1.458a2.463,2.463,0,0,0,1.25-.417,16.527,16.527,0,0,0,1.458-6.873c.05-2.9.263-7.849,0-8.956s-1.042-3.541-1.042-3.541a85.248,85.248,0,0,0,.417-11.455,97,97,0,0,0-.833-10.414,7.306,7.306,0,0,1-.625-.625c-1.078-6.149-1.626-9.412-2.083-10.622a24.6,24.6,0,0,1-.833-3.124,7.5,7.5,0,0,0-.208-1.875,9.508,9.508,0,0,0-4.791-2.083,47.713,47.713,0,0,0-6.248-.625,13.532,13.532,0,0,1-2.082-.208l-.417-.625c1.632-3.253,2.916-5.831,2.916-5.831l-.417-.208-3.124,5.832c-.945.5-1.666.833-1.666.833-19.644-.249-54.392.294-59.774.625s-12.954,1.228-15.2,2.291a11.363,11.363,0,0,0-3.333,2.291c-3.381,5.122-10.414,17.912-10.414,17.912Z" transform="translate(-2228.828 -1006.476)" fill="#eb6100" fill-rule="evenodd"/>
          </g>
        </g>
      </g>
      <path id="パス_2670" data-name="パス 2670" d="M2370.448,1051.68a85.246,85.246,0,0,0,.416-11.455,96.872,96.872,0,0,0-.833-10.414,7.369,7.369,0,0,1-.625-.625c-1.078-6.149-1.627-9.412-2.083-10.622a24.579,24.579,0,0,1-.833-3.124,7.513,7.513,0,0,0-.208-1.875,9.506,9.506,0,0,0-4.79-2.083,47.8,47.8,0,0,0-6.249-.625,13.508,13.508,0,0,1-2.082-.208l-.417-.625c1.632-3.253,2.915-5.831,2.915-5.831l-.417-.208-3.124,5.832c-.945.5-1.666.833-1.666.833-11.717-.149-28.807-.015-41.835.187v62.591c17.234-.151,33.087-.3,33.087-.3h2.5a11.421,11.421,0,0,0,5.207,6.873c2.64,1.536,8.384,1.277,10.83-.208s5.27-3.868,5.623-9.58c.211-.023,1.041-.208,1.041-.208.857,1.38,1.1,1.508,1.875,1.458a2.461,2.461,0,0,0,1.25-.417,16.523,16.523,0,0,0,1.458-6.873c.05-2.9.263-7.849,0-8.956S2370.448,1051.68,2370.448,1051.68Z" transform="translate(-1910.423 3761.056)" fill="#a6a8a7" fill-rule="evenodd"/>
      <text id="ローン不足分_" data-name="ローン不足分
" transform="translate(255 4806.546)" fill="#fff" stroke="rgba(0,0,0,0)" stroke-width="0.857" font-size="9.9" font-family="HiraginoSans-W6, Hiragino Sans"><tspan x="-29.403" y="0">ローン不足分</tspan><tspan y="0" font-family="NotoSans-Bold, Noto Sans" font-weight="700"></tspan><tspan font-family="NotoSans-Bold, Noto Sans" font-weight="700"><tspan x="0" y="17.6"></tspan></tspan></text>
      <text id="車両費用" transform="translate(370.3 4806.747)" fill="#fff" stroke="rgba(0,0,0,0)" stroke-width="0.857" font-size="9.9" font-family="HiraginoSans-W6, Hiragino Sans"><tspan x="-19.8" y="0">車両費用</tspan></text>
      <text id="据置" transform="translate(430.7 4858.997)" fill="#a6a8a7" stroke="rgba(0,0,0,0)" stroke-width="0.857" font-size="9.9" font-family="HiraginoSans-W6, Hiragino Sans"><tspan x="-9.9" y="0">据置</tspan></text>
      <text id="借入合計" transform="translate(265.8 4867.247)" stroke="rgba(0,0,0,0)" stroke-width="0.857" font-size="9.9" font-family="HiraginoSans-W6, Hiragino Sans"><tspan x="-19.8" y="0">借入合計</tspan></text>
      <text id="前契約" transform="translate(255.3 4792.446)" fill="#fff" stroke="rgba(0,0,0,0)" stroke-width="0.857" font-size="9.9" font-family="HiraginoSans-W6, Hiragino Sans"><tspan x="-14.85" y="0">前契約</tspan></text>
      <text id="万円" transform="translate(263.95 4821.497)" fill="#fff" stroke="rgba(0,0,0,0)" stroke-width="0.857" font-size="11" font-family="HiraginoSans-W8, Hiragino Sans"><tspan x="-11" y="0">万円</tspan></text>
      <text id="万円-2" data-name="万円" transform="translate(378.9 4822.046)" fill="#fff" stroke="rgba(0,0,0,0)" stroke-width="0.857" font-size="11" font-family="HiraginoSans-W8, Hiragino Sans"><tspan x="-11" y="0">万円</tspan></text>
      <text id="万円-3" data-name="万円" transform="translate(439.4 4873.196)" fill="#a6a8a7" stroke="rgba(0,0,0,0)" stroke-width="0.857" font-size="11" font-family="HiraginoSans-W8, Hiragino Sans"><tspan x="-11" y="0">万円</tspan></text>
      <text id="万円-4" data-name="万円" transform="translate(332.7 4867.696)" stroke="rgba(0,0,0,0)" stroke-width="0.857" font-size="11" font-family="HiraginoSans-W8, Hiragino Sans"><tspan x="-11" y="0">万円</tspan></text>
      <text id="_42" data-name="42" transform="translate(243.7 4823.446)" fill="#fff" stroke="rgba(0,0,0,0)" stroke-width="0.857" font-size="16.5" font-family="NotoSans-ExtraBold, Noto Sans" font-weight="800"><tspan x="-9.537" y="0">42</tspan></text>
      <text id="_90" data-name="90" transform="translate(358.65 4823.997)" fill="#fff" stroke="rgba(0,0,0,0)" stroke-width="0.857" font-size="16.5" font-family="NotoSans-ExtraBold, Noto Sans" font-weight="800"><tspan x="-9.537" y="0">90</tspan></text>
      <text id="_90-2" data-name="90" transform="translate(419.15 4875.146)" fill="#a6a8a7" stroke="rgba(0,0,0,0)" stroke-width="0.857" font-size="16.5" font-family="NotoSans-ExtraBold, Noto Sans" font-weight="800"><tspan x="-9.537" y="0">90</tspan></text>
      <text id="_132" data-name="132" transform="translate(304.35 4869.097)" stroke="rgba(0,0,0,0)" stroke-width="0.857" font-size="16.5" font-family="NotoSans-ExtraBold, Noto Sans" font-weight="800"><tspan x="-14.306" y="0">132</tspan></text>
      <path id="パス_2671" data-name="パス 2671" d="M0,0V124.976" transform="translate(215 4761.997)" fill="none" stroke="#000" stroke-linecap="round" stroke-width="1" stroke-dasharray="2 3"/>
      <line id="線_250" data-name="線 250" y2="124.976" transform="translate(398.7 4761.997)" fill="none" stroke="#000" stroke-linecap="round" stroke-linejoin="round" stroke-width="1" stroke-dasharray="2 3"/>
      <line id="線_251" data-name="線 251" y2="124.976" transform="translate(461.95 4761.997)" fill="none" stroke="#000" stroke-linecap="round" stroke-linejoin="round" stroke-width="1" stroke-dasharray="2 3"/>
      <g id="グループ_2204" data-name="グループ 2204" transform="translate(-5312 6619.068)">
        <line id="線_152" data-name="線 152" x2="18.071" transform="translate(5612.84 -1805.057)" fill="none" stroke="#000" stroke-width="3"/>
        <line id="線_153" data-name="線 153" x2="18.071" transform="translate(5621.875 -1814.092) rotate(90)" fill="none" stroke="#000" stroke-width="3"/>
      </g>
    </g>
    <text id="_36回" data-name="×36回" transform="translate(249.606 3072.488)" stroke="rgba(0,0,0,0)" stroke-width="0.857" font-size="14" font-family="NotoSans-Bold, Noto Sans" font-weight="700"><tspan x="0" y="0">×36</tspan><tspan y="0" font-family="HiraginoSans-W6, Hiragino Sans" font-weight="400">回</tspan></text>
    <rect id="長方形_503" data-name="長方形 503" width="260" height="50.617" transform="translate(30 2994.426)" fill="#fdf6cb"/>
    <text id="月々のお支払い" transform="translate(30 3072.489)" stroke="rgba(0,0,0,0)" stroke-width="0.857" font-size="14" font-family="HiraginoSans-W6, Hiragino Sans"><tspan x="0" y="0">月々のお支払い</tspan></text>
    <text id="_39_362円" data-name="39,362円" transform="translate(133.606 3074.814)" fill="#eb6100" stroke="rgba(0,0,0,0)" stroke-width="0.857" font-size="30" font-family="NotoSans-ExtraBold, Noto Sans" font-weight="800"><tspan x="0" y="0">39,362</tspan><tspan y="0" font-size="20" font-family="HiraginoSans-W8, Hiragino Sans" font-weight="400">円</tspan></text>
    <text id="支払回数_36回_3年_金利_4.9_" data-name="支払回数：36回（3年）
金利：4.9%
" transform="translate(36.5 3014.764)" stroke="rgba(0,0,0,0)" stroke-width="0.857" font-size="12.006" font-family="HiraginoSans-W5, Hiragino Sans" letter-spacing="-0.02em"><tspan x="0" y="0">支払回数：</tspan><tspan y="0" font-family="NotoSans-SemiBold, Noto Sans" font-weight="600">36</tspan><tspan y="0">回（</tspan><tspan y="0" font-family="NotoSans-SemiBold, Noto Sans" font-weight="600">3</tspan><tspan y="0">年）</tspan><tspan y="0" font-family="NotoSans-SemiBold, Noto Sans" font-weight="600"></tspan><tspan x="0" y="19.21">金利：</tspan><tspan y="19.21" font-family="NotoSans-SemiBold, Noto Sans" font-weight="600">4.9%</tspan><tspan font-family="NotoSans-SemiBold, Noto Sans" font-weight="600"><tspan x="0" y="38.419"></tspan></tspan></text>
    <text id="頭金_0円_ボーナス月増額_なし" data-name="頭金：0円
ボーナス月増額：なし" transform="translate(167.49 3014.764)" stroke="rgba(0,0,0,0)" stroke-width="0.857" font-size="12.006" font-family="HiraginoSans-W5, Hiragino Sans" letter-spacing="-0.02em"><tspan x="0" y="0">頭金：</tspan><tspan y="0" font-family="NotoSans-SemiBold, Noto Sans" font-weight="600">0</tspan><tspan y="0">円</tspan><tspan y="0" font-family="NotoSans-SemiBold, Noto Sans" font-weight="600"></tspan><tspan x="0" y="19.21">ボーナス月増額：なし</tspan></text>
    <rect id="長方形_504" data-name="長方形 504" width="280" height="195.559" transform="translate(20 3087.002)" fill="#fdea9b"/>
    <path id="パス_2672" data-name="パス 2672" d="M538.431,556.843V743.4h-261V556.843" transform="translate(-248.431 2530.159)" fill="none" stroke="#fff" stroke-linecap="round" stroke-linejoin="round" stroke-width="2" fill-rule="evenodd"/>
    <g id="グループ_2206" data-name="グループ 2206" transform="translate(-485.671 -1549.082)">
      <text id="これまでの月々のお支払い金額" transform="translate(561.671 4660.45)" stroke="rgba(0,0,0,0)" stroke-width="0.857" font-size="12" font-family="HiraginoSans-W6, Hiragino Sans"><tspan x="0" y="0">これまでの月々のお支払い金額</tspan></text>
      <text id="ローン不足分をまとめても" transform="translate(573.671 4701.05)" stroke="rgba(0,0,0,0)" stroke-width="0.857" font-size="12" font-family="HiraginoSans-W6, Hiragino Sans"><tspan x="0" y="0">ローン不足分をまとめても</tspan></text>
      <text id="_56_671円と比べて" data-name="56,671円と比べて" transform="translate(586.671 4682.45)" stroke="rgba(0,0,0,0)" stroke-width="0.857" font-size="18" font-family="NotoSans-Bold, Noto Sans" font-weight="700"><tspan x="0" y="0">56,671</tspan><tspan y="0" font-size="12" font-family="HiraginoSans-W6, Hiragino Sans" font-weight="400">円と比べ</tspan><tspan y="0" font-size="13.2" font-family="HiraginoSans-W6, Hiragino Sans" font-weight="400">て</tspan></text>
    </g>
    <g id="グループ_2209" data-name="グループ 2209" transform="translate(0 -290.957)">
      <text id="月々17_390円も負担が軽減_" data-name="月々17,390円も負担が軽減！" transform="translate(162.5 3473.855)" fill="#eb6100" stroke="rgba(0,0,0,0)" stroke-width="0.857" font-size="16" font-family="HiraginoSans-W8, Hiragino Sans"><tspan x="-115.046" y="0">月々</tspan><tspan y="0" font-size="22" font-family="NotoSans-ExtraBold, Noto Sans" font-weight="800">17,390</tspan><tspan y="0">円も負担が軽減！</tspan></text>
      <g id="グループ_2207" data-name="グループ 2207" transform="translate(-298.214 -1588.648)">
        <line id="線_136" data-name="線 136" x1="7.209" transform="translate(333.084 5055.282)" fill="none" stroke="#eb6100" stroke-linecap="round" stroke-width="2"/>
        <line id="線_138" data-name="線 138" x1="7.826" y2="1.695" transform="translate(334.19 5062.759) rotate(-20)" fill="none" stroke="#eb6100" stroke-linecap="round" stroke-width="2"/>
        <line id="線_137" data-name="線 137" x1="7.826" y1="1.695" transform="translate(334.77 5046.213) rotate(20)" fill="none" stroke="#eb6100" stroke-linecap="round" stroke-width="2"/>
      </g>
      <g id="グループ_2208" data-name="グループ 2208" transform="translate(276.5 3457.564)">
        <line id="線_136-2" data-name="線 136" x2="7.209" transform="translate(1.831 9.069)" fill="none" stroke="#eb6100" stroke-linecap="round" stroke-width="2"/>
        <line id="線_138-2" data-name="線 138" x1="7.826" y1="1.695" transform="translate(7.354 18.139) rotate(-160)" fill="none" stroke="#eb6100" stroke-linecap="round" stroke-width="2"/>
        <line id="線_137-2" data-name="線 137" x1="7.826" y2="1.695" transform="translate(7.934 1.593) rotate(160)" fill="none" stroke="#eb6100" stroke-linecap="round" stroke-width="2"/>
      </g>
    </g>
    <g id="グループ_2210" data-name="グループ 2210" transform="translate(321.706 4015.813)">
      <g id="グループ_782" data-name="グループ 782" transform="translate(-226.588 -824.913)" clip-path="url(#clip-path)">
        <g id="グループ_86" data-name="グループ 86" transform="translate(0.003 -0.004)">
          <path id="パス_3341" data-name="パス 3341" d="M-121.69-739.13l.047.116.014.029a7.227,7.227,0,0,0,.405.7c.028.042.057.081.087.122h0c.089.1.176.2.271.3s.169.163.257.242c.028.025.058.05.087.074a5.259,5.259,0,0,0,.515.329c.1.053.2.1.3.151l.011.006.053.017c.185.062.369.123.559.167.121.028.246.043.367.07l-.078-.016c-.045-.008-.053-.011,0,0s.085.012.129.016a4.958,4.958,0,0,0,.578.01c.1,0,.2-.018.3-.023.027,0,.053-.008.081-.014a5.648,5.648,0,0,0,.6-.154c.034-.011.134-.047.2-.071a1.711,1.711,0,0,0,.168-.076,5.7,5.7,0,0,0,.5-.3l.082-.05a.354.354,0,0,0,.046-.042c.075-.065.151-.13.223-.2a4.715,4.715,0,0,0,.344-.378c.028-.043.139-.191.16-.229.057-.09.112-.182.164-.275s.1-.2.148-.293l0-.006c.014-.036.029-.072.042-.107s.021-.085.036-.127Z" transform="translate(183.849 789.969)" fill="#fff"/>
          <path id="パス_3342" data-name="パス 3342" d="M-127.317-802.047a1.267,1.267,0,0,1-1.762.322,1.26,1.26,0,0,1-.318-.316c-1.558-2.311-4.66-.533-5.95,1.166a14.658,14.658,0,0,0-1.906,4.459c-.384,1.195-.764,2.391-1.166,3.58-.39,1.154-.8,2.307-1.257,3.443.364,0,.728,0,1.082.008a19.7,19.7,0,0,1,2.187.091,1.406,1.406,0,0,1,.849.352,1.2,1.2,0,0,1,0,1.7h0a1.194,1.194,0,0,1-.849.351,18.737,18.737,0,0,0-2.006-.089,15.02,15.02,0,0,0-2.178.053l.133-.018a1.323,1.323,0,0,1-.3.013c-.2.407-.389.815-.6,1.214a18.388,18.388,0,0,1-4.679,5.864c-1.8,1.417-4.382,2.815-6.77,2.49a6.237,6.237,0,0,0,.831,4.464c.876,1.455,2.242,1.889,3.835,2.187a1.24,1.24,0,0,1,.881,1.157,21.4,21.4,0,0,0,3.07,8.952c3.787,5.955,11.2,9.2,17.98,6.443a16.051,16.051,0,0,0,8.119-8.14,26,26,0,0,0,2.08-7.708,1.156,1.156,0,0,1,.838-.838c2.148-.361,4.305-1.177,5.009-3.4a6.049,6.049,0,0,0,.06-4.053,2.059,2.059,0,0,0-.707-.883c-.147-.02-.293-.039-.437-.053a8.322,8.322,0,0,1-1.026-.168,2.054,2.054,0,0,0-.52.236,1.173,1.173,0,0,1-1.75-1.243,6.666,6.666,0,0,1-.947-.833,17.9,17.9,0,0,1-3-4.84,58.823,58.823,0,0,1-2.884-7.89c-.4-1.333-.754-2.689-1.194-4.011-.3-.889-.865-2.076-2.013-1.576a1.3,1.3,0,0,1-1.705-.689,1.3,1.3,0,0,1-.046-.891,3.123,3.123,0,0,0-.985-.9m-3.36,29.586a1.2,1.2,0,0,1,0,2.4,1.2,1.2,0,0,1,0-2.4m-7.176-8.459c-.088-.021-.178-.035-.267-.053a3.723,3.723,0,0,0-.64,0,8.281,8.281,0,0,0-1.493.477,1.165,1.165,0,0,1-.925-.122,1.2,1.2,0,0,1-.43-1.641,1.305,1.305,0,0,1,.717-.551,8.014,8.014,0,0,1,1.493-.484,5.13,5.13,0,0,1,2.178.059,1.2,1.2,0,0,1,.838,1.475,1.2,1.2,0,0,1-.552.718,1.257,1.257,0,0,1-.924.121m11.173,18.573a5.965,5.965,0,0,1-6.124,1.608,6.482,6.482,0,0,1-4.331-5.672.971.971,0,0,1,.32-.811.352.352,0,0,1,.028-.031h0a1.1,1.1,0,0,1,.849-.357h9.676a1.211,1.211,0,0,1,1.2,1.2,6.725,6.725,0,0,1-1.622,4.063m6.125-18.765a1.223,1.223,0,0,1-.717.552,1.265,1.265,0,0,1-.889-.107,4.5,4.5,0,0,0-.923-.255,3.886,3.886,0,0,0-.622-.005,3.021,3.021,0,0,0-.545.139,1.17,1.17,0,0,1-.924-.121,1.213,1.213,0,0,1-.552-.717,1.227,1.227,0,0,1,.121-.925,1.3,1.3,0,0,1,.716-.552,4.166,4.166,0,0,1,1.941-.213,5.993,5.993,0,0,1,1.963.561,1.186,1.186,0,0,1,.552.718,1.208,1.208,0,0,1-.121.924m-5.105-8.184a19.666,19.666,0,0,1,2.187-.092,10.963,10.963,0,0,1,2.444.123,1.2,1.2,0,0,1,.834,1.471,1.194,1.194,0,0,1-1.39.853,16.166,16.166,0,0,0-2.068-.044,18.55,18.55,0,0,0-2.006.089,1.152,1.152,0,0,1-.849-.347,1.2,1.2,0,0,1,0-1.7h0a1.316,1.316,0,0,1,.849-.351" transform="translate(196.573 816.049)" fill="#fff"/>
          <path id="パス_3343" data-name="パス 3343" d="M-115.182-800.322a22.014,22.014,0,0,0,5.178,9.8,18.744,18.744,0,0,0,.057-6.347,40.955,40.955,0,0,0-2.529-9.867,27.126,27.126,0,0,0-2.139-4.768,10.381,10.381,0,0,0-3.122-3.06,12.87,12.87,0,0,0-4.113-1.818,8.758,8.758,0,0,1-2.555-.683l-2.352-1.328c-.83-.468-1.432-1.206-2.286-1.662-2.274-1.214-5.058-.927-7.446-.244-5.811,1.663-10.321,5.773-13.329,10.923a41.735,41.735,0,0,0-3.921,9.163c-.955,3.216-1.193,6.5.84,9.349a1.114,1.114,0,0,1,.209.526,10.405,10.405,0,0,0,1.939-2.507,37.8,37.8,0,0,0,3.29-8.7,1.2,1.2,0,0,1,2.314.64c-1.314,4.6-3.4,12.158-8.434,13.818,1.529.449,3.266-.424,4.543-1.234a12.491,12.491,0,0,0,3.064-2.839c3.381-4.281,4.556-9.78,6.342-14.81.953-2.682,2.406-5.018,5.092-6.214a5.042,5.042,0,0,1,6.591,1.707,1,1,0,0,1,.007,1.206,3.121,3.121,0,0,1,.984.9,1.019,1.019,0,0,1,.541-.5,3.679,3.679,0,0,1,3.7.168,5.787,5.787,0,0,1,1.973,3.273c.946,3.11,1.787,6.256,3,9.28.871,2.167,1.922,4.721,3.683,6.331a3.445,3.445,0,0,0,1.233.72,4.091,4.091,0,0,1,.885,0,24.467,24.467,0,0,1-5.557-10.583c-.357-1.5,1.957-2.14,2.315-.64" transform="translate(197.195 823.279)" fill="#fff"/>
          <path id="パス_3344" data-name="パス 3344" d="M-138.753-723.038a1.214,1.214,0,0,1,1.2,1.2,28.877,28.877,0,0,1-.6,5.5.911.911,0,0,1-.089.253l13.6,3.717,1.736-.558,9.914-3.181a29.991,29.991,0,0,1-.623-4.307c-.107-1.207-.19-2.417-.27-3.627a16.106,16.106,0,0,1-19.618,3.164,18.079,18.079,0,0,1-5.067-4.03l-.314,1.882c.043-.006.086-.015.13-.018" transform="translate(190.852 784.172)" fill="#fff"/>
          <path id="パス_3345" data-name="パス 3345" d="M-108.826-696.339c-4.742-3.435-10.419-4.843-15.558-7.47a1.007,1.007,0,0,1-1.143-.587l-1.722-3.444-1.1.353-13.067,4.194v2.511l.03-.01,10.942-3.757c1.466-.5,2.09,1.816.64,2.315l-1.547.533-10.948,3.755a1.076,1.076,0,0,1-1.383-.636,1.079,1.079,0,0,1-.066-.329,1.242,1.242,0,0,1-.071-.408v-3.931l-1.473-.4-15.375-4.2q-.256.769-.511,1.539c-.042.125-.081.26-.124.4,2.325.817,4.72,1.465,7.086,2.114,1.957.537,3.919,1.054,5.89,1.538,1.5.369.862,2.683-.64,2.315-1.971-.484-3.934-1-5.89-1.539a85.228,85.228,0,0,1-8.452-2.63l-1.847,1.05a15.411,15.411,0,0,1-3.1,1.133c-1.806.565-3.623,1.134-5.417,1.76-1.608.563-2.732,6.393-3.353,7.568-1.067,2.015-3.874,2.715-4.7,3.99a24.573,24.573,0,0,0-1.343,2.927H-101.5c-2.123-3.694-3.773-8.072-7.329-10.648m-33.342,5.522a1.2,1.2,0,0,1,0-2.4,1.2,1.2,0,0,1,0,2.4" transform="translate(208.855 777.227)" fill="#fcd21c"/>
          <path id="パス_3346" data-name="パス 3346" d="M-116.185-748.965a1.2,1.2,0,0,0,0-2.4,1.2,1.2,0,0,0,0,2.4" transform="translate(182.079 794.953)" fill="#323232"/>
          <path id="パス_3347" data-name="パス 3347" d="M-128.708-768.171a1.219,1.219,0,0,0-.838-1.476,5.122,5.122,0,0,0-2.178-.059,8.047,8.047,0,0,0-1.493.483,1.305,1.305,0,0,0-.718.552,1.229,1.229,0,0,0-.12.925,1.215,1.215,0,0,0,.551.716,1.165,1.165,0,0,0,.924.121,8.309,8.309,0,0,1,1.493-.476,3.6,3.6,0,0,1,.64,0c.089.016.179.03.267.053a1.261,1.261,0,0,0,.925-.121,1.224,1.224,0,0,0,.551-.718" transform="translate(188.903 802.462)" fill="#323232"/>
          <path id="パス_3348" data-name="パス 3348" d="M-102.337-769.14a5.98,5.98,0,0,0-1.964-.561,4.145,4.145,0,0,0-1.94.213,1.3,1.3,0,0,0-.717.551,1.2,1.2,0,0,0,.43,1.641h0a1.176,1.176,0,0,0,.924.121,2.961,2.961,0,0,1,.545-.139,3.886,3.886,0,0,1,.622.005,4.451,4.451,0,0,1,.923.255,1.266,1.266,0,0,0,.889.107,1.2,1.2,0,0,0,.839-1.476,1.187,1.187,0,0,0-.552-.718" transform="translate(177.914 802.438)" fill="#323232"/>
          <path id="パス_3349" data-name="パス 3349" d="M-116.825-735.234c-.053-.011-.046-.008,0,0" transform="translate(181.882 788.384)" fill="#323232"/>
          <path id="パス_3350" data-name="パス 3350" d="M-115.408-743.179h-9.676a1.1,1.1,0,0,0-.85.357h0l-.028.031a.972.972,0,0,0-.32.811,6.482,6.482,0,0,0,4.33,5.672,5.965,5.965,0,0,0,6.124-1.609,6.718,6.718,0,0,0,1.622-4.063,1.211,1.211,0,0,0-1.2-1.2m-1.538,2.635,0,.005c-.048.1-.094.2-.147.293s-.107.185-.164.276c-.024.038-.135.185-.16.229a4.688,4.688,0,0,1-.344.377c-.072.069-.148.134-.223.2l-.046.041c-.01.01-.042.026-.082.053a5.582,5.582,0,0,1-.5.3c-.023.011-.112.053-.168.076s-.16.059-.2.07a5.929,5.929,0,0,1-.6.154c-.026.005-.053.01-.081.014-.1,0-.2.018-.3.022a4.8,4.8,0,0,1-.578-.01c-.043,0-.086-.009-.129-.017l.078.017c-.121-.028-.245-.043-.367-.071-.19-.045-.373-.107-.559-.167l-.053-.017-.011-.006c-.1-.053-.2-.1-.3-.151a5.239,5.239,0,0,1-.515-.329c-.029-.024-.059-.048-.087-.074-.087-.079-.174-.16-.257-.242s-.182-.2-.271-.3h0c-.03-.04-.059-.08-.087-.121a7.035,7.035,0,0,1-.405-.7.306.306,0,0,0-.014-.028l-.047-.115h6.695c-.014.042-.021.085-.036.126s-.028.072-.041.107" transform="translate(185.721 791.619)" fill="#323232"/>
          <path id="パス_3351" data-name="パス 3351" d="M-114.848-680.755a1.2,1.2,0,0,0,0-2.4,1.2,1.2,0,0,0,0,2.4" transform="translate(181.534 767.164)" fill="#323232"/>
          <path id="パス_3352" data-name="パス 3352" d="M-103.13-779.819a10.919,10.919,0,0,0-2.444-.122,19.5,19.5,0,0,0-2.187.091,1.313,1.313,0,0,0-.849.351,1.2,1.2,0,0,0,0,1.7h0a1.152,1.152,0,0,0,.849.352,18.751,18.751,0,0,1,2.005-.089,16.052,16.052,0,0,1,2.069.045,1.2,1.2,0,0,0,1.416-.924,1.2,1.2,0,0,0-.859-1.4" transform="translate(178.663 806.604)" fill="#323232"/>
          <path id="パス_3353" data-name="パス 3353" d="M-194.936-705.209a11.674,11.674,0,0,0,2.6-1.781,11.478,11.478,0,0,0,1.839-3.239c.5-1.145.955-2.312,1.557-3.41.437-.8.966-1.536,1.413-2.328a5.6,5.6,0,0,0,.95-2.7c-.014-.517-.211-1.233-.793-1.333-1.239-.213-2.232,1.9-2.794,2.756a18.811,18.811,0,0,1-2.479,3.447c-3.093,2.892-6.869-3.52-7.061-6.08-.24-3.2,2.972-5.2,5.164-6.982a1.231,1.231,0,0,1,1.7,0,18.105,18.105,0,0,1,1.789,2.173c.533.74,1,2.07,2.105,1.987.379-.028.973-.3.994-.739.024-.513-.652-1.429-.9-1.894s-.513-.945-.8-1.4c-.408-.654-.871-1.264-1.337-1.877a7.871,7.871,0,0,0-1.409-1.859c-.807-.533-2.013.021-2.767.4a25.5,25.5,0,0,0-3.413,2.18l-.019.011a1.194,1.194,0,0,1-1.687-.092,1.2,1.2,0,0,1-.257-.461q-.874-3.162-1.741-6.325c-.769-2.809-1.542-5.617-2.279-8.434-.225-.862-.347-2.027-1.124-2.471a.686.686,0,0,0-.521-.124.652.652,0,0,0-.29.117,1.689,1.689,0,0,0-.473.738,4.436,4.436,0,0,0-.151.572c0,.017,0,.072,0,.085a3.424,3.424,0,0,0,.036.427l.012.07c.017.1.031.2.048.3.094.556.205,1.111.32,1.664.3,1.44.62,2.871.952,4.3q.646,2.79,1.333,5.571a1.288,1.288,0,0,1,.036.33q.587,2.187,1.173,4.367a1.2,1.2,0,0,1-2.314.64q-.652-2.435-1.313-4.867c-.635-2.338-1.27-4.676-1.931-7.007a22.1,22.1,0,0,0-.916-3.04c-.26-.577-1.091-.934-1.507-.383-.184.244-.126.537-.188.81.053.29.1.581.146.871.173.981.356,1.961.54,2.94q.423,2.259.857,4.514a1.286,1.286,0,0,1,.011.393c.107.463.217.926.32,1.387q.732,3.242,1.375,6.5c.3,1.51-2.014,2.152-2.314.64q-.656-3.317-1.4-6.613c-.294-1.3-.595-2.6-.948-3.88-.145-.525-.394-2.089-1.1-1.947-1.42.286-.689,2.707-.512,3.5.508,2.256.851,4.542,1.167,6.832.64,4.607,1.227,9.292,2.187,13.844.489,2.318,1.329,4.548,1.8,6.869a9.17,9.17,0,0,1-.267,4.232h12.53q.22-.721.44-1.44a4.383,4.383,0,0,1,1.617-2.749" transform="translate(221.766 792.686)" fill="#fff"/>
          <path id="パス_3354" data-name="パス 3354" d="M-214.025-771.654l.29.54a1.211,1.211,0,0,0,1.641.431,1.226,1.226,0,0,0,.43-1.642l-2.012-3.743-.29-.54a1.211,1.211,0,0,0-1.642-.431,1.228,1.228,0,0,0-.431,1.642l2.013,3.743" transform="translate(222.35 805.479)" fill="#323232"/>
          <path id="パス_3355" data-name="パス 3355" d="M-200.709-772.309a1.226,1.226,0,0,0,1.2-1.2l.13-4.25c.006-.2.012-.408.018-.612a1.21,1.21,0,0,0-1.2-1.2,1.227,1.227,0,0,0-1.2,1.2l-.129,4.249c-.007.2-.012.408-.019.612a1.211,1.211,0,0,0,1.2,1.2" transform="translate(216.53 806.445)" fill="#323232"/>
          <path id="パス_3356" data-name="パス 3356" d="M-221.177-761.438a1.224,1.224,0,0,0,.717-.552,1.208,1.208,0,0,0,.121-.925,1.369,1.369,0,0,0-.551-.716l-3.4-2.472-.484-.351a1.209,1.209,0,0,0-.924-.122,1.224,1.224,0,0,0-.719.552,1.21,1.21,0,0,0-.121.924,1.376,1.376,0,0,0,.552.718l3.4,2.472.483.351a1.209,1.209,0,0,0,.925.121" transform="translate(226.583 801.168)" fill="#323232"/>
          <path id="パス_3357" data-name="パス 3357" d="M-113.734-734.2c-2.4-4.045-4.178-8.669-8.036-11.623-4.878-3.733-10.9-5.115-16.255-7.915a1.354,1.354,0,0,0-.235-.095l-1.884-3.768a1.208,1.208,0,0,0-1.355-.552l-1.746.56a27.315,27.315,0,0,1-.529-3.751c-.166-1.9-.267-3.8-.4-5.693a1.424,1.424,0,0,0-.107-.445c.114-.174.24-.34.349-.519a21.287,21.287,0,0,0,2.806-6.673c.2-.96.346-1.929.5-2.9a11.12,11.12,0,0,0,3.237-1.269,6.718,6.718,0,0,0,2.992-4.77,7.387,7.387,0,0,0-.7-5.2,6.413,6.413,0,0,0,.466-.84,13.14,13.14,0,0,0,1.073-5.558,37.482,37.482,0,0,0-2.324-12.507,30.356,30.356,0,0,0-3-6.875,13.831,13.831,0,0,0-4.86-4.312,15.818,15.818,0,0,0-2.71-1.173,11.535,11.535,0,0,0-1.626-.4c-.194-.033-.391-.059-.587-.084-.109-.016-.219-.025-.329-.037-.261-.181-.967-.505-1.063-.559-.592-.334-1.213-.64-1.786-1.009-.452-.289-.817-.713-1.333-1.077A9,9,0,0,0-155.8-824.5a12.6,12.6,0,0,0-5.695-.182,23.048,23.048,0,0,0-10.459,5c-4.181,3.426-6.974,8.326-8.926,13.292-1.9,4.833-3.6,10.453-.294,15.093a1.26,1.26,0,0,0,.4.368,4,4,0,0,1-1.816.092,1.235,1.235,0,0,0-1.476.839,1.21,1.21,0,0,0,.838,1.476,7.484,7.484,0,0,0,2.152.071,1.153,1.153,0,0,0-.107.155,1.244,1.244,0,0,0-.526.608,8.276,8.276,0,0,0,.827,7.124,6.859,6.859,0,0,0,4.53,3.126,23.912,23.912,0,0,0,2.636,8.126,20.49,20.49,0,0,0,2.6,3.66,18.092,18.092,0,0,0,5.067,4.03,16.106,16.106,0,0,0,19.618-3.164c.079,1.21.16,2.42.267,3.627a29.939,29.939,0,0,0,.629,4.309l-9.913,3.182-1.736.557-13.6-3.717a.955.955,0,0,0,.089-.252,28.928,28.928,0,0,0,.6-5.505,1.214,1.214,0,0,0-1.2-1.2.954.954,0,0,0-.129.018,1.209,1.209,0,0,0-1.071,1.182c0,.492-.028.986-.063,1.476q-.058.8-.156,1.593c-.009.072-.013.146-.027.217l.016-.079c-.009.044-.019.1-.022.119q-.033.233-.069.465-.085.54-.189,1.077a1.44,1.44,0,0,0-.023.276l-.28-.077-2.355-.643a1.227,1.227,0,0,0-1.477.839l-.96,2.883a1.252,1.252,0,0,0-1.207.735c-.64.383-1.289.759-1.956,1.074a25.91,25.91,0,0,1-3.106.982c-.486.154-.969.314-1.454.472a4.409,4.409,0,0,0-.626-1.927,3.3,3.3,0,0,0-1.16-1.143,2.885,2.885,0,0,0,.363-.915c.238-1.247-.544-2.424-1.095-3.481a20.122,20.122,0,0,0-1.592-2.6c-1.022-1.395-2.011-3.431-3.776-3.919-2.293-.635-4.674.815-6.609,2.181-1.231-4.443-2.466-8.885-3.627-13.347-.355-1.37-.727-2.7-1.981-3.529a3.177,3.177,0,0,0-4.41.861l-.024.036a4.21,4.21,0,0,0-.74,2.375,3.361,3.361,0,0,0-2.537.1c-2.262,1.091-1.765,3.581-1.379,5.593a3.233,3.233,0,0,0-3.093,1.547c-1.168,1.808-.488,3.774-.083,5.7,1.044,4.96,1.573,10.044,2.381,15.047a72.993,72.993,0,0,0,1.768,8.529,16.216,16.216,0,0,1,.969,4.231,8.767,8.767,0,0,1-.509,2.592h2.436a9.173,9.173,0,0,0,.267-4.233c-.474-2.321-1.314-4.551-1.8-6.869-.96-4.551-1.547-9.237-2.187-13.844-.317-2.29-.66-4.576-1.167-6.833-.178-.789-.907-3.21.511-3.5.709-.142.96,1.421,1.1,1.947.353,1.284.654,2.581.948,3.88q.747,3.3,1.4,6.613c.3,1.513,2.613.873,2.314-.64q-.643-3.254-1.37-6.5-.16-.7-.32-1.387a1.307,1.307,0,0,0-.011-.393q-.435-2.256-.858-4.514c-.184-.979-.367-1.959-.539-2.94-.053-.29-.095-.581-.147-.871.063-.273,0-.566.188-.81.416-.551,1.247-.194,1.507.383a22.186,22.186,0,0,1,.916,3.04c.661,2.331,1.3,4.669,1.931,7.007q.66,2.432,1.313,4.866a1.2,1.2,0,0,0,2.314-.64q-.586-2.187-1.173-4.367a1.259,1.259,0,0,0-.035-.329q-.689-2.78-1.333-5.571c-.332-1.432-.657-2.864-.952-4.3-.114-.553-.224-1.107-.32-1.664-.017-.1-.032-.2-.048-.3-.007-.037-.01-.05-.012-.07a3.532,3.532,0,0,1-.036-.427c0-.013,0-.068,0-.085a4.345,4.345,0,0,1,.151-.572,1.68,1.68,0,0,1,.473-.737.641.641,0,0,1,.29-.118.692.692,0,0,1,.521.124c.777.447.9,1.609,1.124,2.471.737,2.818,1.511,5.626,2.28,8.434q.867,3.164,1.74,6.325a1.194,1.194,0,0,0,1.482.81,1.188,1.188,0,0,0,.461-.257c.007,0,.013-.006.019-.011a25.571,25.571,0,0,1,3.41-2.18c.755-.378,1.961-.933,2.768-.4a7.887,7.887,0,0,1,1.409,1.86c.466.613.929,1.223,1.337,1.877.284.456.548.925.8,1.4s.922,1.38.9,1.894c-.022.442-.615.711-.994.74-1.109.083-1.575-1.248-2.105-1.987a18.125,18.125,0,0,0-1.789-2.174,1.233,1.233,0,0,0-1.7,0c-2.192,1.786-5.4,3.779-5.164,6.982.192,2.56,3.967,8.972,7.061,6.08a18.662,18.662,0,0,0,2.479-3.447c.562-.859,1.556-2.971,2.795-2.756.582.1.779.816.793,1.333a5.592,5.592,0,0,1-.951,2.7c-.451.8-.975,1.532-1.412,2.328-.6,1.1-1.056,2.266-1.557,3.41a11.466,11.466,0,0,1-1.839,3.239,11.71,11.71,0,0,1-2.6,1.781,4.388,4.388,0,0,0-1.617,2.749l-.44,1.44h2.507c.007-.022.012-.043.02-.065.15-.491.281-.99.452-1.474.213-.606.491-.68,1.037-.98a9.381,9.381,0,0,0,3.947-4.19c1.029-2.04,1.784-4.146,3-6.091a16.351,16.351,0,0,0,1.32-2.446q1.768-.58,3.539-1.132a15.363,15.363,0,0,0,3.1-1.133l1.847-1.05a85.226,85.226,0,0,0,8.452,2.629c1.957.538,3.919,1.055,5.89,1.539,1.5.369,2.14-1.945.64-2.315-1.97-.484-3.933-1-5.889-1.538-2.367-.649-4.761-1.3-7.086-2.114.042-.136.082-.271.124-.4l.511-1.539,15.374,4.2,1.473.4v3.933a1.237,1.237,0,0,0,.071.407,1.076,1.076,0,0,0,1.119,1.031,1.09,1.09,0,0,0,.329-.066L-145.9-749.4l1.547-.533c1.452-.5.828-2.818-.64-2.315l-10.942,3.757-.03.011v-2.512l13.067-4.194,1.1-.353,1.722,3.444a1.006,1.006,0,0,0,1.143.587c5.14,2.628,10.816,4.035,15.557,7.47,3.557,2.576,5.206,6.953,7.33,10.647h2.453a1.107,1.107,0,0,0-.151-.807m-78.784-18.43c-.881,1.136-1.64,2.37-2.469,3.545-.213.3-.774,1.324-.966,1.355-.386.063-1.584-1.474-1.877-1.886a5.318,5.318,0,0,1-1.12-2.761,2.675,2.675,0,0,1,1.1-2.128c.773-.723,1.58-1.41,2.4-2.087a16.219,16.219,0,0,1,1.092,1.448,5.9,5.9,0,0,0,2.08,2.222c-.081.1-.16.191-.241.292m39.486-10.414c-6.776,2.754-14.193-.488-17.98-6.443a21.407,21.407,0,0,1-3.067-8.952,1.24,1.24,0,0,0-.881-1.157c-1.592-.3-2.959-.731-3.835-2.187a6.238,6.238,0,0,1-.831-4.465c2.389.326,4.968-1.073,6.77-2.489a18.388,18.388,0,0,0,4.679-5.864c.213-.4.407-.806.6-1.214a1.344,1.344,0,0,0,.3-.013l-.134.018a15.046,15.046,0,0,1,2.18-.053,18.758,18.758,0,0,1,2.005.089,1.2,1.2,0,0,0,.849-.35,1.2,1.2,0,0,0,0-1.7,1.4,1.4,0,0,0-.849-.351,19.636,19.636,0,0,0-2.187-.092c-.354,0-.718-.012-1.082-.008.454-1.135.867-2.288,1.257-3.444.4-1.189.782-2.384,1.166-3.579a14.681,14.681,0,0,1,1.906-4.459c1.29-1.7,4.392-3.477,5.949-1.166a1.267,1.267,0,0,0,1.765.311,1.26,1.26,0,0,0,.315-.317,1,1,0,0,0-.007-1.205,5.043,5.043,0,0,0-6.591-1.707c-2.686,1.2-4.139,3.532-5.092,6.215-1.785,5.029-2.961,10.529-6.342,14.809a12.5,12.5,0,0,1-3.064,2.839c-1.277.81-3.015,1.682-4.543,1.233,5.035-1.661,7.12-9.221,8.434-13.819a1.2,1.2,0,0,0-2.315-.64,37.829,37.829,0,0,1-3.291,8.7,10.405,10.405,0,0,1-1.939,2.507,1.109,1.109,0,0,0-.209-.525c-2.033-2.855-1.794-6.133-.84-9.351a41.816,41.816,0,0,1,3.921-9.163,22.981,22.981,0,0,1,13.329-10.923c2.388-.683,5.173-.969,7.446.244.853.456,1.457,1.194,2.286,1.663l2.352,1.328a8.839,8.839,0,0,0,2.555.683,12.847,12.847,0,0,1,4.113,1.818,10.387,10.387,0,0,1,3.122,3.06,27.165,27.165,0,0,1,2.139,4.767,40.973,40.973,0,0,1,2.529,9.867,18.806,18.806,0,0,1-.057,6.347,22.018,22.018,0,0,1-5.178-9.8c-.357-1.5-2.671-.865-2.314.64a24.452,24.452,0,0,0,5.555,10.582,4.091,4.091,0,0,0-.885,0,3.431,3.431,0,0,1-1.233-.721c-1.76-1.61-2.812-4.162-3.684-6.33-1.213-3.022-2.054-6.167-3-9.28a5.764,5.764,0,0,0-1.973-3.274,3.679,3.679,0,0,0-3.7-.165,1.013,1.013,0,0,0-.54.492,1.3,1.3,0,0,0,.861,1.625,1.3,1.3,0,0,0,.89-.046c1.148-.5,1.717.687,2.013,1.576.441,1.322.792,2.677,1.194,4.011a58.987,58.987,0,0,0,2.884,7.89,17.871,17.871,0,0,0,3,4.84,6.667,6.667,0,0,0,.946.834,1.174,1.174,0,0,0,1.751,1.244,2.025,2.025,0,0,1,.52-.238,8,8,0,0,0,1.026.168c.143.014.29.033.436.053a2.048,2.048,0,0,1,.707.886,6.064,6.064,0,0,1-.06,4.053c-.7,2.226-2.862,3.04-5.009,3.4a1.157,1.157,0,0,0-.839.838,26.058,26.058,0,0,1-2.08,7.708,16.047,16.047,0,0,1-8.119,8.14" transform="translate(223.397 824.92)" fill="#111"/>
        </g>
      </g>
    </g>
  </g>
</svg>
