<svg xmlns="http://www.w3.org/2000/svg" xmlns:xlink="http://www.w3.org/1999/xlink" width="280" height="561.713" viewBox="0 0 280 561.713">
  <defs>
    <clipPath id="clip-path">
      <rect id="長方形_325" data-name="長方形 325" width="89.52" height="95.049" fill="none"/>
    </clipPath>
  </defs>
  <g id="グループ_3165" data-name="グループ 3165" transform="translate(-20 -4356.445)">
    <rect id="長方形_510" data-name="長方形 510" width="280" height="365" transform="translate(20 4357.213)" fill="#fff"/>
    <g id="グループ_2215" data-name="グループ 2215" transform="translate(-264 -111.162)">
      <text id="車両本体価格" transform="translate(296.9 4586.8)" stroke="rgba(0,0,0,0)" stroke-width="0.857" font-size="12" font-family="HiraginoSans-W6, Hiragino Sans"><tspan x="0" y="0">車両本体価格</tspan></text>
      <text id="のおクルマに乗り換え" transform="translate(432.1 4586.8)" stroke="rgba(0,0,0,0)" stroke-width="0.857" font-size="12" font-family="HiraginoSans-W6, Hiragino Sans"><tspan x="0" y="0">のおクルマに乗り換え</tspan></text>
      <text id="_180万円" data-name="180万円" transform="translate(369.5 4587.4)" stroke="rgba(0,0,0,0)" stroke-width="0.857" font-size="21" font-family="NotoSans-Bold, Noto Sans" font-weight="700"><tspan x="0" y="0">180</tspan><tspan y="0" font-size="13" font-family="HiraginoSans-W6, Hiragino Sans" font-weight="400">万円</tspan></text>
    </g>
    <line id="線_260" data-name="線 260" x2="260" transform="translate(29 4455.035)" fill="none" stroke="#000" stroke-width="1"/>
    <line id="線_261" data-name="線 261" x2="260" transform="translate(29 4485.637)" fill="none" stroke="#000" stroke-width="1"/>
    <path id="多角形_5" data-name="多角形 5" d="M40.128,0,80.256,26.5H0Z" transform="translate(200.32 4382.941) rotate(180)" fill="#e8e8e8"/>
    <text id="アレンジ7_3年プランで契約した場合" data-name="アレンジ7
3年プランで契約した場合" transform="translate(160.8 4414.035)" fill="#fe9247" stroke="rgba(0,0,0,0)" stroke-width="0.857" font-size="18" font-family="HiraginoSans-W8, Hiragino Sans"><tspan x="-40.842" y="0">アレンジ</tspan><tspan y="0" font-family="NotoSans-ExtraBold, Noto Sans" font-weight="800">7</tspan><tspan font-family="NotoSans-ExtraBold, Noto Sans" font-weight="800"><tspan x="-104.202" y="25.2">3</tspan><tspan y="25.2" font-family="HiraginoSans-W8, Hiragino Sans" font-weight="400">年プランで契約した場合</tspan></tspan></text>
    <line id="線_254" data-name="線 254" y2="37.127" transform="translate(36.5 4406.93)" fill="none" stroke="#fe9247" stroke-width="2"/>
    <line id="線_255" data-name="線 255" y2="37.127" transform="translate(273.1 4406.93)" fill="none" stroke="#fe9247" stroke-width="2"/>
    <line id="線_256" data-name="線 256" y2="37.127" transform="translate(42.5 4406.93)" fill="none" stroke="#fe9247" stroke-width="2"/>
    <line id="線_257" data-name="線 257" y2="37.127" transform="translate(279.1 4406.93)" fill="none" stroke="#fe9247" stroke-width="2"/>
    <line id="線_258" data-name="線 258" y2="37.127" transform="translate(48.5 4406.93)" fill="none" stroke="#fe9247" stroke-width="2"/>
    <line id="線_259" data-name="線 259" y2="37.127" transform="translate(285.1 4406.93)" fill="none" stroke="#fe9247" stroke-width="2"/>
    <g id="グループ_2216" data-name="グループ 2216" transform="translate(-178.5 -264.266)">
      <circle id="楕円形_1086" data-name="楕円形 1086" cx="39.6" cy="39.6" r="39.6" transform="translate(215.55 4765.296)" fill="#fe9247"/>
      <rect id="長方形_502" data-name="長方形 502" width="183.15" height="26.4" transform="translate(215.55 4849.997)" fill="#fcd21c"/>
      <g id="グループ_2203" data-name="グループ 2203" transform="translate(420.361 4767.531)">
        <line id="線_132" data-name="線 132" y2="90.539" transform="translate(-22.676 -0.584)" fill="none"/>
        <g id="グループ_768" data-name="グループ 768" transform="translate(0)">
          <g id="グループ_767" data-name="グループ 767">
            <path id="パス_1259" data-name="パス 1259" d="M2159.773,1033.768s-8.352.911-11.663,1.875-7.566,2.138-8.331,4.165-.417,2.916-.417,2.916a24.052,24.052,0,0,0-.416,4.374c-.07,1.112-.208,3.332-.208,3.332-.37.3-.384.588-.417,1.458s-.116,4.165-.208,4.582-1.573,4.029-1.666,6.457.057,5.973,0,6.456.285.968.625,1.666a16.134,16.134,0,0,0,.833,1.458h.625l.625,1.042.833-.625.417-.417.833-.833h1.25a11.011,11.011,0,0,0,12.7,9.373,11.607,11.607,0,0,0,8.331-5.832,4.807,4.807,0,0,0,.417-1.666l3.124.208c14.8-.1,72.688-.625,72.688-.625h2.5a11.422,11.422,0,0,0,5.207,6.873c2.64,1.536,8.383,1.277,10.83-.208s5.27-3.868,5.624-9.581c.211-.022,1.042-.208,1.042-.208.856,1.38,1.1,1.508,1.874,1.458a2.463,2.463,0,0,0,1.25-.417,16.527,16.527,0,0,0,1.458-6.873c.05-2.9.263-7.849,0-8.956s-1.042-3.541-1.042-3.541a85.248,85.248,0,0,0,.417-11.455,97,97,0,0,0-.833-10.414,7.306,7.306,0,0,1-.625-.625c-1.078-6.149-1.626-9.412-2.083-10.622a24.6,24.6,0,0,1-.833-3.124,7.5,7.5,0,0,0-.208-1.875,9.508,9.508,0,0,0-4.791-2.083,47.713,47.713,0,0,0-6.248-.625,13.532,13.532,0,0,1-2.082-.208l-.417-.625c1.632-3.253,2.916-5.831,2.916-5.831l-.417-.208-3.124,5.832c-.945.5-1.666.833-1.666.833-19.644-.249-54.392.294-59.774.625s-12.954,1.228-15.2,2.291a11.363,11.363,0,0,0-3.333,2.291c-3.381,5.122-10.414,17.912-10.414,17.912Z" transform="translate(-2228.828 -1006.476)" fill="#eb6100" fill-rule="evenodd"/>
          </g>
        </g>
      </g>
      <path id="パス_2670" data-name="パス 2670" d="M2370.448,1051.68a85.246,85.246,0,0,0,.416-11.455,96.872,96.872,0,0,0-.833-10.414,7.369,7.369,0,0,1-.625-.625c-1.078-6.149-1.627-9.412-2.083-10.622a24.579,24.579,0,0,1-.833-3.124,7.513,7.513,0,0,0-.208-1.875,9.506,9.506,0,0,0-4.79-2.083,47.8,47.8,0,0,0-6.249-.625,13.508,13.508,0,0,1-2.082-.208l-.417-.625c1.632-3.253,2.915-5.831,2.915-5.831l-.417-.208-3.124,5.832c-.945.5-1.666.833-1.666.833-11.717-.149-28.807-.015-41.835.187v62.591c17.234-.151,33.087-.3,33.087-.3h2.5a11.421,11.421,0,0,0,5.207,6.873c2.64,1.536,8.384,1.277,10.83-.208s5.27-3.868,5.623-9.58c.211-.023,1.041-.208,1.041-.208.857,1.38,1.1,1.508,1.875,1.458a2.461,2.461,0,0,0,1.25-.417,16.523,16.523,0,0,0,1.458-6.873c.05-2.9.263-7.849,0-8.956S2370.448,1051.68,2370.448,1051.68Z" transform="translate(-1910.423 3761.056)" fill="#a6a8a7" fill-rule="evenodd"/>
      <text id="ローン不足分_" data-name="ローン不足分
" transform="translate(255 4806.546)" fill="#fff" stroke="rgba(0,0,0,0)" stroke-width="0.857" font-size="9.9" font-family="HiraginoSans-W6, Hiragino Sans"><tspan x="-29.403" y="0">ローン不足分</tspan><tspan y="0" font-family="NotoSans-Bold, Noto Sans" font-weight="700"></tspan><tspan font-family="NotoSans-Bold, Noto Sans" font-weight="700"><tspan x="0" y="17.6"></tspan></tspan></text>
      <text id="車両費用" transform="translate(370.3 4806.747)" fill="#fff" stroke="rgba(0,0,0,0)" stroke-width="0.857" font-size="9.9" font-family="HiraginoSans-W6, Hiragino Sans"><tspan x="-19.8" y="0">車両費用</tspan></text>
      <text id="据置" transform="translate(430.7 4858.997)" fill="#a6a8a7" stroke="rgba(0,0,0,0)" stroke-width="0.857" font-size="9.9" font-family="HiraginoSans-W6, Hiragino Sans"><tspan x="-9.9" y="0">据置</tspan></text>
      <text id="借入合計" transform="translate(265.8 4867.247)" stroke="rgba(0,0,0,0)" stroke-width="0.857" font-size="9.9" font-family="HiraginoSans-W6, Hiragino Sans"><tspan x="-19.8" y="0">借入合計</tspan></text>
      <text id="前契約" transform="translate(255.3 4792.446)" fill="#fff" stroke="rgba(0,0,0,0)" stroke-width="0.857" font-size="9.9" font-family="HiraginoSans-W6, Hiragino Sans"><tspan x="-14.85" y="0">前契約</tspan></text>
      <text id="万円" transform="translate(263.95 4821.497)" fill="#fff" stroke="rgba(0,0,0,0)" stroke-width="0.857" font-size="11" font-family="HiraginoSans-W8, Hiragino Sans"><tspan x="-11" y="0">万円</tspan></text>
      <text id="万円-2" data-name="万円" transform="translate(378.9 4822.046)" fill="#fff" stroke="rgba(0,0,0,0)" stroke-width="0.857" font-size="11" font-family="HiraginoSans-W8, Hiragino Sans"><tspan x="-11" y="0">万円</tspan></text>
      <text id="万円-3" data-name="万円" transform="translate(439.4 4873.196)" fill="#a6a8a7" stroke="rgba(0,0,0,0)" stroke-width="0.857" font-size="11" font-family="HiraginoSans-W8, Hiragino Sans"><tspan x="-11" y="0">万円</tspan></text>
      <text id="万円-4" data-name="万円" transform="translate(332.7 4867.696)" stroke="rgba(0,0,0,0)" stroke-width="0.857" font-size="11" font-family="HiraginoSans-W8, Hiragino Sans"><tspan x="-11" y="0">万円</tspan></text>
      <text id="_42" data-name="42" transform="translate(243.7 4823.446)" fill="#fff" stroke="rgba(0,0,0,0)" stroke-width="0.857" font-size="16.5" font-family="NotoSans-ExtraBold, Noto Sans" font-weight="800"><tspan x="-9.537" y="0">42</tspan></text>
      <text id="_90" data-name="90" transform="translate(358.65 4823.997)" fill="#fff" stroke="rgba(0,0,0,0)" stroke-width="0.857" font-size="16.5" font-family="NotoSans-ExtraBold, Noto Sans" font-weight="800"><tspan x="-9.537" y="0">90</tspan></text>
      <text id="_90-2" data-name="90" transform="translate(419.15 4875.146)" fill="#a6a8a7" stroke="rgba(0,0,0,0)" stroke-width="0.857" font-size="16.5" font-family="NotoSans-ExtraBold, Noto Sans" font-weight="800"><tspan x="-9.537" y="0">90</tspan></text>
      <text id="_132" data-name="132" transform="translate(304.35 4869.097)" stroke="rgba(0,0,0,0)" stroke-width="0.857" font-size="16.5" font-family="NotoSans-ExtraBold, Noto Sans" font-weight="800"><tspan x="-14.306" y="0">132</tspan></text>
      <path id="パス_2671" data-name="パス 2671" d="M0,0V124.976" transform="translate(215 4761.997)" fill="none" stroke="#000" stroke-linecap="round" stroke-width="1" stroke-dasharray="2 3"/>
      <line id="線_250" data-name="線 250" y2="124.976" transform="translate(398.7 4761.997)" fill="none" stroke="#000" stroke-linecap="round" stroke-linejoin="round" stroke-width="1" stroke-dasharray="2 3"/>
      <line id="線_251" data-name="線 251" y2="124.976" transform="translate(461.95 4761.997)" fill="none" stroke="#000" stroke-linecap="round" stroke-linejoin="round" stroke-width="1" stroke-dasharray="2 3"/>
      <g id="グループ_2204" data-name="グループ 2204" transform="translate(-5312 6619.068)">
        <line id="線_152" data-name="線 152" x2="18.071" transform="translate(5612.84 -1805.057)" fill="none" stroke="#000" stroke-width="3"/>
        <line id="線_153" data-name="線 153" x2="18.071" transform="translate(5621.875 -1814.092) rotate(90)" fill="none" stroke="#000" stroke-width="3"/>
      </g>
    </g>
    <text id="_36回" data-name="×36回" transform="translate(249.606 4707.7)" stroke="rgba(0,0,0,0)" stroke-width="0.857" font-size="14" font-family="NotoSans-Bold, Noto Sans" font-weight="700"><tspan x="0" y="0">×36</tspan><tspan y="0" font-family="HiraginoSans-W6, Hiragino Sans" font-weight="400">回</tspan></text>
    <rect id="長方形_511" data-name="長方形 511" width="260" height="50.617" transform="translate(30 4629.638)" fill="#fdf6cb"/>
    <text id="月々のお支払い" transform="translate(30 4707.701)" stroke="rgba(0,0,0,0)" stroke-width="0.857" font-size="14" font-family="HiraginoSans-W6, Hiragino Sans"><tspan x="0" y="0">月々のお支払い</tspan></text>
    <text id="_33_195円" data-name="33,195円" transform="translate(133.606 4710.025)" fill="#eb6100" stroke="rgba(0,0,0,0)" stroke-width="0.857" font-size="30" font-family="NotoSans-ExtraBold, Noto Sans" font-weight="800"><tspan x="0" y="0">33,195</tspan><tspan y="0" font-size="20" font-family="HiraginoSans-W8, Hiragino Sans" font-weight="400">円</tspan></text>
    <text id="支払回数_36回_3年_金利_4.9_" data-name="支払回数：36回（3年）
金利：4.9%
" transform="translate(36.5 4649.975)" stroke="rgba(0,0,0,0)" stroke-width="0.857" font-size="12.006" font-family="HiraginoSans-W5, Hiragino Sans" letter-spacing="-0.02em"><tspan x="0" y="0">支払回数：</tspan><tspan y="0" font-family="NotoSans-SemiBold, Noto Sans" font-weight="600">36</tspan><tspan y="0">回（</tspan><tspan y="0" font-family="NotoSans-SemiBold, Noto Sans" font-weight="600">3</tspan><tspan y="0">年）</tspan><tspan y="0" font-family="NotoSans-SemiBold, Noto Sans" font-weight="600"></tspan><tspan x="0" y="19.21">金利：</tspan><tspan y="19.21" font-family="NotoSans-SemiBold, Noto Sans" font-weight="600">4.9%</tspan><tspan font-family="NotoSans-SemiBold, Noto Sans" font-weight="600"><tspan x="0" y="38.419"></tspan></tspan></text>
    <text id="頭金_0円_ボーナス月増額_なし" data-name="頭金：0円
ボーナス月増額：なし" transform="translate(167.49 4649.975)" stroke="rgba(0,0,0,0)" stroke-width="0.857" font-size="12.006" font-family="HiraginoSans-W5, Hiragino Sans" letter-spacing="-0.02em"><tspan x="0" y="0">頭金：</tspan><tspan y="0" font-family="NotoSans-SemiBold, Noto Sans" font-weight="600">0</tspan><tspan y="0">円</tspan><tspan y="0" font-family="NotoSans-SemiBold, Noto Sans" font-weight="600"></tspan><tspan x="0" y="19.21">ボーナス月増額：なし</tspan></text>
    <rect id="長方形_512" data-name="長方形 512" width="280" height="195.559" transform="translate(20 4722.213)" fill="#fdea9b"/>
    <path id="パス_2677" data-name="パス 2677" d="M538.431,556.843V743.4h-261V556.843" transform="translate(-248.431 4165.371)" fill="none" stroke="#fff" stroke-linecap="round" stroke-linejoin="round" stroke-width="2" fill-rule="evenodd"/>
    <g id="グループ_2217" data-name="グループ 2217" transform="translate(-485.671 86.131)">
      <text id="これまでの月々のお支払い金額" transform="translate(561.671 4660.45)" stroke="rgba(0,0,0,0)" stroke-width="0.857" font-size="12" font-family="HiraginoSans-W6, Hiragino Sans"><tspan x="0" y="0">これまでの月々のお支払い金額</tspan></text>
      <text id="つまり_中古車の時よりも" data-name="つまり! 中古車の時よりも" transform="translate(573.671 4701.05)" stroke="rgba(0,0,0,0)" stroke-width="0.857" font-size="12" font-family="HiraginoSans-W6, Hiragino Sans"><tspan x="0" y="0">つまり</tspan><tspan y="0" font-family="NotoSans-Bold, Noto Sans" font-weight="700">! </tspan><tspan y="0">中古車の時よりも</tspan></text>
      <text id="_33_200円と比べると同額_" data-name="33,200円と比べると同額！" transform="translate(586.671 4682.45)" fill="#eb6100" stroke="rgba(0,0,0,0)" stroke-width="0.857" font-size="18" font-family="NotoSans-Bold, Noto Sans" font-weight="700"><tspan x="0" y="0" fill="#000">33,200</tspan><tspan y="0" font-size="12" font-family="HiraginoSans-W6, Hiragino Sans" font-weight="400" fill="#000">円と比べると</tspan><tspan y="0" fill="#eb6100" font-size="12" font-family="HiraginoSans-W6, Hiragino Sans" font-weight="400">同額！</tspan></text>
    </g>
    <g id="グループ_2218" data-name="グループ 2218" transform="translate(-2.5 1344.256)">
      <text id="高予算で新車を選べる_" data-name="高予算で新車を選べる!" transform="translate(162.5 3473.855)" fill="#eb6100" stroke="rgba(0,0,0,0)" stroke-width="0.857" font-size="18" font-family="HiraginoSans-W8, Hiragino Sans"><tspan x="-92.592" y="0">高予算で新車を選べる</tspan><tspan y="0" font-family="NotoSans-ExtraBold, Noto Sans" font-weight="800">!</tspan></text>
      <g id="グループ_2207" data-name="グループ 2207" transform="translate(-281.214 -1588.648)">
        <line id="線_136" data-name="線 136" x1="7.209" transform="translate(333.084 5055.282)" fill="none" stroke="#eb6100" stroke-linecap="round" stroke-width="2"/>
        <line id="線_138" data-name="線 138" x1="7.826" y2="1.695" transform="translate(334.19 5062.759) rotate(-20)" fill="none" stroke="#eb6100" stroke-linecap="round" stroke-width="2"/>
        <line id="線_137" data-name="線 137" x1="7.826" y1="1.695" transform="translate(334.77 5046.213) rotate(20)" fill="none" stroke="#eb6100" stroke-linecap="round" stroke-width="2"/>
      </g>
      <g id="グループ_2208" data-name="グループ 2208" transform="translate(264.09 3457.564)">
        <line id="線_136-2" data-name="線 136" x2="7.209" transform="translate(1.831 9.069)" fill="none" stroke="#eb6100" stroke-linecap="round" stroke-width="2"/>
        <line id="線_138-2" data-name="線 138" x1="7.826" y1="1.695" transform="translate(7.354 18.139) rotate(-160)" fill="none" stroke="#eb6100" stroke-linecap="round" stroke-width="2"/>
        <line id="線_137-2" data-name="線 137" x1="7.826" y2="1.695" transform="translate(7.934 1.593) rotate(160)" fill="none" stroke="#eb6100" stroke-linecap="round" stroke-width="2"/>
      </g>
    </g>
    <g id="グループ_2222" data-name="グループ 2222" transform="translate(-148.087 5652.123)">
      <g id="グループ_788" data-name="グループ 788" transform="translate(257.406 -829.013)" clip-path="url(#clip-path)">
        <g id="グループ_93" data-name="グループ 93" transform="translate(0 0)">
          <path id="パス_3377" data-name="パス 3377" d="M346.366-733.132a22.692,22.692,0,0,0-5.071-9.654c-3.728-4.021-16.027-10.06-16.089-10.018-.055-.319-3.3-14.452-3.33-14.747a20.328,20.328,0,0,0-3.636-3.324c.8-.97,4.148-8.152,4.014-8.95a6.967,6.967,0,0,0,4.777-.07c1.438-1.687.869-3.323.592-4.646-.09-.042,1.019-7.394.93-7.438-.045-.02-2.157-3.65-2.2-3.677a3.681,3.681,0,0,0,.294-2.916,29.117,29.117,0,0,0,.065-7.037,25.874,25.874,0,0,0-3.152-9.825,17.819,17.819,0,0,0-6.165-6.592c-4.967-2.863-11.031-5.8-16.1-2.436-.83.548-3.75,1.926-3.959,1.18a4.534,4.534,0,0,1-1.093.835c.3.723-3.6,1.825-4.646,1.945-4.379.511-5.757,5.82-7.48,9.509a18.787,18.787,0,0,0-.793,13.566c-.332,1.15.536,1.332,0,1.733-3.975,2.978-.632,9.653-.077,9.941-.4.42-2.309,3.221-.925,5.108.469.64,3.8,1.124,4.733,0,.407-.49,1.569,5.173,1.564,5.162-3.1,1.676-4.818,2.439-7.1,4.681s-6.287,8.216-5.7,11.41c.469,2.574,3.59,7.411,3.17,6.973a7.332,7.332,0,0,1-1.838,1.775c-4.3,1.206-7.642,4.174-10.65,7.417a30.248,30.248,0,0,0-6.026,10.059h26.942c.6-.553,9.064-4.228,5.841-14.186a13.229,13.229,0,0,1,.313-2.773,38.616,38.616,0,0,0,11.116,1.767c0-.1-3.345,15.193-3.345,15.193Z" transform="translate(-258.587 827.838)" fill="#fff"/>
          <path id="パス_3378" data-name="パス 3378" d="M322.874-698.529a42.688,42.688,0,0,1-10.2-1.151,12.252,12.252,0,0,1,.956,3.575,13,13,0,0,1-5.438,11.618h11.54c.149-.759,4.309-14.029,3.138-14.044" transform="translate(-276.986 779.154)" fill="#fcd21c"/>
          <path id="パス_3379" data-name="パス 3379" d="M349.994-680.932q-.347,1.738-.693,3.476a1,1,0,0,1-.1.277h1.46a1.446,1.446,0,0,1-.083-.277c-.221-1.153-.407-2.313-.58-3.476" transform="translate(-292.792 771.927)" fill="#ffe164"/>
          <path id="パス_3380" data-name="パス 3380" d="M316.583-790.922a5.335,5.335,0,0,0-2.72,1.338,1.291,1.291,0,0,0,0,1.816,1.314,1.314,0,0,0,1.815,0c.015-.013.044-.044.075-.075a.382.382,0,0,0,.058-.037c.037-.026.074-.051.111-.075a5.093,5.093,0,0,1,.5-.277h0c.084-.031.166-.06.254-.085a3.9,3.9,0,0,1,.435-.093,3.784,3.784,0,0,1,.567,0,3.541,3.541,0,0,1,.517.12c.024.007.05.018.074.026.111.06.221.114.332.179a1.284,1.284,0,0,0,1.756-.461,1.284,1.284,0,0,0-.46-1.756h0a4.924,4.924,0,0,0-3.31-.617m-.752,3.009a.111.111,0,0,1,.055-.028.135.135,0,0,0-.055.028m.467-.272a.186.186,0,0,1,.06-.028l-.06.028" transform="translate(-279.027 814.354)" fill="#323232"/>
          <path id="パス_3381" data-name="パス 3381" d="M344.4-773.339a1.284,1.284,0,0,0,0-2.567,1.284,1.284,0,0,0,0,2.567" transform="translate(-290.466 808.54)" fill="#323232"/>
          <path id="パス_3382" data-name="パス 3382" d="M332.494-759.82a1.284,1.284,0,0,0,0,2.567,1.284,1.284,0,0,0,0-2.567" transform="translate(-285.875 802.339)" fill="#323232"/>
          <path id="パス_3383" data-name="パス 3383" d="M320.222-775.906a1.284,1.284,0,0,0,0,2.567,1.284,1.284,0,0,0,0-2.567" transform="translate(-281.144 808.54)" fill="#323232"/>
          <path id="パス_3384" data-name="パス 3384" d="M335.991-796.039c-2.959-.1-5.451-1.8-7.392-3.921a19.113,19.113,0,0,1-4.394-8.364c-.394-1.6-2.87-.924-2.476.683,1.616,6.589,6.874,13.927,14.262,14.17,1.652.055,1.65-2.513,0-2.567" transform="translate(-282.187 821.39)" fill="#323232"/>
          <path id="パス_3385" data-name="パス 3385" d="M335.631-749.5a72.47,72.47,0,0,0-8.9-4.9q-.752-.364-1.5-.732-.321-1.255-.639-2.512c-.788-3.127-1.286-6.453-2.467-9.461a9.422,9.422,0,0,0-.383-.918,10.325,10.325,0,0,0-1.3-2.205,4.444,4.444,0,0,0-2.065-1.348c.128-.169.258-.337.382-.51a21.481,21.481,0,0,0,3.014-5.82,10.39,10.39,0,0,0,.3-1.236,4.188,4.188,0,0,0,2.535.329,3.973,3.973,0,0,0,3.119-3.608,1.242,1.242,0,0,0,.028-.269,3.988,3.988,0,0,0-.511-1.9,9.774,9.774,0,0,0,1.272-7.14,7.027,7.027,0,0,0-2.36-4.352,26.35,26.35,0,0,0,.818-9.659,28.638,28.638,0,0,0-2.955-10.865c-3.211-6.139-10.01-10.042-16.757-10.89a15.563,15.563,0,0,0-10.567,2.124c-1.372.909-.087,3.133,1.3,2.217,5.073-3.362,11.97-1.948,16.934.916a17.445,17.445,0,0,1,6.457,6.172,24.246,24.246,0,0,1,2.948,9.545,25.108,25.108,0,0,1-.63,9.682,5.573,5.573,0,0,0-1.3.166,14.257,14.257,0,0,0-.723-3.242,1.533,1.533,0,0,0-.38-.608,1.149,1.149,0,0,0-.806-.654c-5.269-1.363-8.946-6.139-10.618-11.03a1.313,1.313,0,0,0-1.577-.9,1.3,1.3,0,0,0-.9,1.579c1.928,5.641,6.042,10.928,11.921,12.675a12.621,12.621,0,0,1,.521,2.2q.087.7.157,1.41a1.4,1.4,0,0,0,.376.908,1.286,1.286,0,0,0,.26.192,1.209,1.209,0,0,0,1.548.259,3.172,3.172,0,0,1,1.464-.4c1.457-.024,1.971,1.509,2.274,2.7a7.244,7.244,0,0,1-.553,5.116c-.022.042-.048.084-.071.127-.069-.03-.134-.068-.206-.1a3.955,3.955,0,0,0-4.294,1.145,4.131,4.131,0,0,0-.927,3.089c-.02.1-.039.2-.05.317a16.759,16.759,0,0,1-.52,3.292,19.419,19.419,0,0,1-5.1,7.9c-.089.085-.182.16-.273.241a3.694,3.694,0,0,0-5.217-.262,3.693,3.693,0,0,0-.374.391,6.123,6.123,0,0,0-1.336,2.164,11.992,11.992,0,0,0-.425,1.386,15.488,15.488,0,0,1-11.208-2.1,18.9,18.9,0,0,1-7.073-8.706,18.045,18.045,0,0,1-1.134-3.963c0-.02-.006-.041-.009-.06a4.08,4.08,0,0,0,.338-1.317,1.168,1.168,0,0,0,.026-.27,4.038,4.038,0,0,0-2.663-3.738,3.649,3.649,0,0,0-1.392-.214,6.073,6.073,0,0,1-1.888-2.939,5.429,5.429,0,0,1,.344-3.887,2.183,2.183,0,0,1,1.488-1.19,2.477,2.477,0,0,1,1.135.166c.106.037.218.1.324.127a.483.483,0,0,1,.174.091c-.041-.055-.091-.125-.166-.241.642,1.015,2.473.686,2.392-.648-.4-6.69,2.113-14.213,8.16-17.724a1.285,1.285,0,0,0-1.3-2.217c-6.213,3.6-9.317,10.93-9.46,17.951a5.587,5.587,0,0,0-.865-.063,19.532,19.532,0,0,1,.874-14.978c1.724-3.688,4.9-7.944,9.275-8.455,1.622-.189,1.641-2.759,0-2.567-5.259.614-9.173,4.918-11.371,9.471-2.553,5.292-3.353,11.641-1.251,17.221a6.3,6.3,0,0,0-2.509,5.085,8.32,8.32,0,0,0,2.09,5.793,3.493,3.493,0,0,0-.353.36,3.959,3.959,0,0,0,.39,5.585,3.961,3.961,0,0,0,3.42.885,3.42,3.42,0,0,0,.6-.17,17.712,17.712,0,0,0,.863,2.655,1.509,1.509,0,0,0-.152.065c-5.468,2.953-10.722,7.289-11.883,13.73a11.6,11.6,0,0,0,2.384,9.893c.034.043.073.083.111.126a26.846,26.846,0,0,0-11.98,7.745,30.841,30.841,0,0,0-6.9,11.453h2.71a28.342,28.342,0,0,1,6-9.635,24.272,24.272,0,0,1,11.015-7.141,1.189,1.189,0,0,0,.779-.624,47.8,47.8,0,0,1,5.454,6.077c1.423,2.1,2.267,5.757-1.012,6.562-1.6.395-.924,2.871.682,2.476a5.518,5.518,0,0,0,4.175-6.026c-.261-3.237-2.607-5.807-4.736-8.061-2.367-2.509-5.612-4.942-6.264-8.517a12.454,12.454,0,0,1,2.437-9.208,23.973,23.973,0,0,1,8.268-6.6l.017.033a21.9,21.9,0,0,0,4.252,5.554,1.477,1.477,0,0,0-.146.553,15.712,15.712,0,0,1-.9,4.535,6.711,6.711,0,0,1-.343.825q-.244.514-.536,1c-.182.3-.379.6-.586.885-.116.162-.008.015-.082.107l-.166.2c-.128.151-.261.3-.4.442a1.284,1.284,0,0,0,0,1.816,1.283,1.283,0,0,0,1.815,0,14.746,14.746,0,0,0,3.65-8.517,17.638,17.638,0,0,0,3.27,1.784,18.509,18.509,0,0,0,9.175,1.3c-.351,1.529-.727,3.053-1.106,4.575-.747,3-1.52,6-2.286,9a33.9,33.9,0,0,1-11.192-1.817c-.013,0-.023,0-.036-.009q-.349-.521-.719-1.029c-1.432-1.969-3.444-3.9-4.029-6.319-.576-2.375-.682-5.724,1.32-7.475,1.246-1.09-.576-2.9-1.815-1.816-3.5,3.058-2.965,9.6-.505,13.107,1.644,2.346,3.595,4.518,4.893,7.091a9.806,9.806,0,0,1,.268,8.307,9.651,9.651,0,0,1-7.382,5.954,1.009,1.009,0,0,0-.841.6h6.113a13,13,0,0,0,5.438-11.617,12.261,12.261,0,0,0-.956-3.576,38.938,38.938,0,0,0,8.793,1.139c-.173.689-.664,2.67-.664,2.67-.83,3.374-1.615,6.756-2.3,10.161a1.264,1.264,0,0,0,.492,1.3,1.3,1.3,0,0,0,1.659,0,1.161,1.161,0,0,0,.323-.619c1.685-8.4,3.989-16.656,6.043-24.969.452-1.831.913-3.662,1.3-5.507a9.363,9.363,0,0,1,1.11-3.392c.538-.791,1.245-1.063,1.859-.742a2.585,2.585,0,0,1,1.06,2.382,2.726,2.726,0,0,0-2.224.377c-1.74,1.161-2.016,3.748-2.4,5.613q-1.217,5.827-2.457,11.65c-.343,1.611,2.129,2.3,2.475.684.52-2.423.824-4.89,1.493-7.276.664-2.369.857-5.033,1.682-7.423a2.246,2.246,0,0,1,.608-1.064.747.747,0,0,1,1.043.166.742.742,0,0,1,.1.186,2.9,2.9,0,0,1,.034.827c-.108,1.03-.066,2.124-.132,3.072,0,.05,0,.1,0,.149a1.2,1.2,0,0,0-.589.363,7.977,7.977,0,0,0-1.523,4q-.407,2.124-.83,4.244-.608,3.039-1.228,6.074c-.332,1.612,2.145,2.3,2.476.682q.583-2.847,1.152-5.7c.144-.719.283-1.438.425-2.157q.351,3.152.7,6.308a.9.9,0,0,0-.146.361c-.526,3.609-1.295,7.172-2,10.748a1.461,1.461,0,0,0,.13.96h2.242a1.009,1.009,0,0,0,.1-.277q.343-1.738.693-3.476c.173,1.161.358,2.323.58,3.476a1.406,1.406,0,0,0,.084.277h2.212a1.273,1.273,0,0,0,.178-.96c-1-5.2-1.447-10.527-2.033-15.791-.231-2.078-.519-4.177-.7-6.26-.065-.759.332-1.1.817-.991.652.142.715.856.782,1.2.366,1.9,1.479,9.974,1.891,12.1s2.751,1.49,2.489-.256c-.49-3.271-1-6.543-1.6-9.8-.31-1.68-.477-4-1.764-5.268a2.622,2.622,0,0,0-2-.725c-.034-1.445-.059-4.235,1.488-3.328a2.953,2.953,0,0,1,1.18,1.981c.253,1.155.482,2.314.719,3.47q1.278,6.168,2.492,12.349c.318,1.62,2.793.934,2.475-.683-1.047-5.328-1.985-10.716-3.249-16-.487-2.037-2.272-4.059-4.474-3.8A2.7,2.7,0,0,1,317.251-769a1.206,1.206,0,0,1,.63-.1c.674.03,1.083.706,1.265,1.032a13.93,13.93,0,0,1,1.311,3.559c.477,1.825.943,3.693,1.363,5.53.9,3.961,1.819,8,2.82,11.976.128.543,2.168,8.919,2.916,12.647a1.162,1.162,0,0,0,.324.619,1.3,1.3,0,0,0,1.659,0,1.264,1.264,0,0,0,.492-1.3c-.705-3.516-1.525-7-2.383-10.484l-.619-2.489q-.477-1.891-.961-3.78v-.008c4.806,2.4,9.614,4.773,13.341,8.793a20.7,20.7,0,0,1,4.882,9.189h2.628c-1.46-6.686-5.65-11.89-11.3-15.68m-13.247-33.349c.038-.141.038-.166.026-.135.023-.09.05-.178.078-.266.031-.055.06-.115.093-.17.021-.035.044-.069.066-.1a.307.307,0,0,0,.1-.1,1.338,1.338,0,0,1,.114-.129c.015-.015.058-.047.086-.068.095-.058.221-.107.308-.173.045-.015.089-.031.136-.043s.182-.037.239-.05.121,0,.181,0,.1,0,.15.007c.123.031.242.065.363.1.055.033.12.06.176.094.04.024.079.049.119.075l.015.009,0,0,.243.243c.031.046.062.091.09.139s.061.111.092.169c.034.111.064.221.092.332a.317.317,0,0,0,.011.131c0,.033.007.066.008.1,0,.055,0,.106-.007.159-.029.091-.04.205-.067.293-.01.031-.021.066-.035.1-.061.107-.122.211-.187.314-.031.032-.059.066-.089.1s-.066.066-.1.1c-.006,0-.013.008-.019.014.022-.012.031-.018.065-.036-.1.055-.193.135-.293.191-.039.022-.079.041-.117.062-.1.031-.205.063-.31.087-.136-.007-.166.012-.115.016h-.011c-.106,0-.212,0-.318-.01-.059-.013-.119-.025-.177-.041-.043-.012-.085-.028-.128-.042a.366.366,0,0,0-.111-.06,1.68,1.68,0,0,1-.166-.085c-.026-.017-.052-.034-.078-.055-.055-.055-.119-.128-.183-.2a.368.368,0,0,0-.079-.079c-.023-.035-.047-.069-.069-.105s-.047-.081-.068-.123l0-.006c-.029-.128-.042-.14-.034-.1a1.821,1.821,0,0,1-.062-.186c-.01-.042-.018-.084-.028-.126h0a2.566,2.566,0,0,1,0-.337v0m-37.444-.18c-.029.092-.04.2-.067.293-.01.032-.022.066-.036.1-.06.107-.122.211-.187.314-.03.033-.058.066-.088.1s-.066.066-.1.1c-.006.005-.012.009-.018.015.022-.013.032-.019.064-.036-.1.055-.193.135-.293.192-.039.022-.079.04-.118.061-.1.031-.2.062-.31.087-.136-.007-.166.012-.115.016h-.01c-.107,0-.213,0-.319-.008-.059-.014-.119-.026-.177-.042s-.085-.028-.128-.041a.355.355,0,0,0-.111-.061,1.5,1.5,0,0,1-.166-.084.731.731,0,0,1-.079-.055c-.055-.055-.12-.128-.183-.2a.361.361,0,0,0-.08-.079c-.023-.034-.047-.068-.068-.105s-.047-.081-.069-.122v-.006c-.029-.128-.042-.141-.034-.1-.024-.061-.045-.123-.063-.186-.01-.042-.018-.084-.028-.126h0a2.694,2.694,0,0,1,0-.337v0c.038-.141.038-.166.027-.135.022-.09.05-.178.077-.266.032-.055.06-.115.093-.17.021-.035.044-.069.066-.1.066-.05.1-.087.1-.1a1.529,1.529,0,0,1,.116-.128.96.96,0,0,1,.086-.068c.094-.058.221-.107.308-.172.044-.016.09-.031.135-.044s.182-.037.24-.05.12,0,.181,0,.1,0,.15.007c.122.031.242.064.363.1.055.033.119.061.175.094.04.023.08.049.119.075l.014.009,0,0,.243.245c.03.045.061.09.09.138s.061.111.092.168c.034.111.064.221.092.332a.3.3,0,0,0,.011.131c0,.033.007.065.007.1,0,.055,0,.106-.006.159" transform="translate(-257.406 828.488)"/>
          <path id="パス_3386" data-name="パス 3386" d="M324.03-752.073a1.179,1.179,0,0,0-.909.382h0c-.011.012-.021.022-.031.034a1.043,1.043,0,0,0-.344.867,6.928,6.928,0,0,0,4.633,6.068,6.382,6.382,0,0,0,6.55-1.721,7.186,7.186,0,0,0,1.735-4.347,1.3,1.3,0,0,0-1.283-1.284Zm8.7,2.821,0,.005c-.052.105-.1.211-.158.313s-.113.2-.175.295c-.026.041-.144.2-.175.245a5.222,5.222,0,0,1-.368.4c-.077.074-.158.143-.238.213l-.049.044c-.012.01-.045.027-.087.055-.176.111-.352.221-.539.317-.025.012-.12.055-.179.082s-.174.064-.21.076a6.365,6.365,0,0,1-.64.166c-.028.006-.055.011-.087.015-.105,0-.211.02-.315.024a5.465,5.465,0,0,1-.618-.011c-.046,0-.092-.01-.138-.018l.083.018c-.129-.031-.262-.047-.392-.077-.2-.047-.4-.111-.6-.178-.026-.01-.04-.014-.055-.018l-.012-.006c-.108-.055-.217-.1-.323-.163a5.626,5.626,0,0,1-.553-.351c-.031-.026-.063-.052-.093-.079-.093-.085-.186-.169-.277-.259s-.195-.213-.29-.321h0l-.093-.13a7.765,7.765,0,0,1-.433-.753.194.194,0,0,0-.015-.031l-.051-.124h7.163c-.015.044-.022.092-.039.136s-.03.077-.044.115" transform="translate(-282.594 799.353)" fill="#323232"/>
          <path id="パス_3387" data-name="パス 3387" d="M279.386-822.151a1.294,1.294,0,0,0,1.816,0,1.31,1.31,0,0,0,0-1.815q-1.217-1.294-2.436-2.589l-.34-.361a1.3,1.3,0,0,0-1.816,0,1.312,1.312,0,0,0,0,1.816l2.437,2.589.339.36" transform="translate(-264.669 828.348)" fill="#323232"/>
          <path id="パス_3388" data-name="パス 3388" d="M273.123-809.846a1.305,1.305,0,0,0-.46-1.756l-3.09-1.738-.436-.246a1.285,1.285,0,0,0-1.764.434,1.285,1.285,0,0,0,.434,1.764l.034.02,3.088,1.737.436.245a1.3,1.3,0,0,0,1.756-.461" transform="translate(-261.177 823.138)" fill="#323232"/>
          <path id="パス_3389" data-name="パス 3389" d="M268.937-795.232l-3.536.039-.511,0a1.284,1.284,0,0,0-1.283,1.284,1.283,1.283,0,0,0,1.283,1.284l3.537-.039.509-.005a1.283,1.283,0,0,0,1.284-1.284,1.284,1.284,0,0,0-1.284-1.284" transform="translate(-259.797 815.99)" fill="#323232"/>
          <path id="パス_3390" data-name="パス 3390" d="M382.551-828.636a1.289,1.289,0,0,0-.908-.377,1.308,1.308,0,0,0-.908.376l-2.437,2.589-.34.361a1.342,1.342,0,0,0-.376.908,1.3,1.3,0,0,0,.376.907,1.29,1.29,0,0,0,.908.376,1.306,1.306,0,0,0,.906-.373l2.437-2.589.339-.361a1.337,1.337,0,0,0,.376-.908,1.305,1.305,0,0,0-.376-.908" transform="translate(-303.735 829.013)" fill="#323232"/>
          <path id="パス_3391" data-name="パス 3391" d="M387.317-811.088l3.09-1.739.436-.245a1.284,1.284,0,0,0,.434-1.764,1.284,1.284,0,0,0-1.73-.454l-3.09,1.739-.435.245a1.284,1.284,0,0,0-.434,1.764,1.284,1.284,0,0,0,1.729.453" transform="translate(-306.749 823.786)" fill="#323232"/>
          <path id="パス_3392" data-name="パス 3392" d="M389.42-794.381l3.536.039.509,0a1.283,1.283,0,0,0,1.284-1.284,1.283,1.283,0,0,0-1.284-1.284l-3.536-.039-.509-.006a1.283,1.283,0,0,0-1.284,1.284,1.283,1.283,0,0,0,1.284,1.284" transform="translate(-307.803 816.652)" fill="#323232"/>
        </g>
      </g>
    </g>
  </g>
</svg>
