<svg xmlns="http://www.w3.org/2000/svg" xmlns:xlink="http://www.w3.org/1999/xlink" width="880" height="636.001" viewBox="0 0 880 636.001">
  <defs>
    <clipPath id="clip-path">
      <rect id="長方形_322" data-name="長方形 322" width="185.353" height="154.678" transform="translate(-226.588 -824.913)" fill="none"/>
    </clipPath>
  </defs>
  <g id="グループ_3154" data-name="グループ 3154" transform="translate(-160 -3816.995)">
    <rect id="長方形_815" data-name="長方形 815" width="880" height="464" transform="translate(160 3818.995)" fill="#fff"/>
    <path id="パス_4627" data-name="パス 4627" d="M104.5,0,209,69H0Z" transform="translate(705 3885.995) rotate(180)" fill="#e8e8e8"/>
    <rect id="長方形_310" data-name="長方形 310" width="880" height="170" transform="translate(160 4282.996)" fill="#fdea9b"/>
    <rect id="長方形_311" data-name="長方形 311" width="261" height="135" transform="translate(733 4030.996)" fill="#fdf6cb"/>
    <text id="月々のお支払い" transform="translate(737 4198.996)" stroke="rgba(0,0,0,0)" stroke-width="0.857" font-size="22" font-family="HiraginoSans-W6, Hiragino Sans"><tspan x="0" y="0">月々のお支払い</tspan></text>
    <text id="_36回" data-name="×36回" transform="translate(919 4243.996)" stroke="rgba(0,0,0,0)" stroke-width="0.857" font-size="22" font-family="NotoSans-Bold, Noto Sans" font-weight="700"><tspan x="0" y="0">×36</tspan><tspan y="0" font-family="HiraginoSans-W6, Hiragino Sans" font-weight="400">回</tspan></text>
    <text id="_39_362円" data-name="39,362円" transform="translate(737 4246.996)" fill="#eb6100" stroke="rgba(0,0,0,0)" stroke-width="0.857" font-size="46" font-family="NotoSans-ExtraBold, Noto Sans" font-weight="800"><tspan x="0" y="0">39,362</tspan><tspan y="0" font-size="30" font-family="HiraginoSans-W8, Hiragino Sans" font-weight="400">円</tspan></text>
    <text id="月々17_390円も負担が軽減_" data-name="月々17,390円も負担が軽減！" transform="translate(252 4408.996)" fill="#eb6100" stroke="rgba(0,0,0,0)" stroke-width="0.857" font-size="30" font-family="HiraginoSans-W8, Hiragino Sans"><tspan x="0" y="0">月々</tspan><tspan y="0" font-size="46" font-family="NotoSans-ExtraBold, Noto Sans" font-weight="800">17,390</tspan><tspan y="0">円も負担が軽減！</tspan></text>
    <g id="グループ_766" data-name="グループ 766" transform="translate(0 -664.004)">
      <text id="車両本体価格" transform="translate(385 4657)" stroke="rgba(0,0,0,0)" stroke-width="0.857" font-size="20" font-family="HiraginoSans-W6, Hiragino Sans"><tspan x="0" y="0">車両本体価格</tspan></text>
      <text id="のおクルマに乗り換え" transform="translate(621 4657)" stroke="rgba(0,0,0,0)" stroke-width="0.857" font-size="20" font-family="HiraginoSans-W6, Hiragino Sans"><tspan x="0" y="0">のおクルマに乗り換え</tspan></text>
      <text id="_180万円" data-name="180万円" transform="translate(510 4658)" stroke="rgba(0,0,0,0)" stroke-width="0.857" font-size="36" font-family="NotoSans-Bold, Noto Sans" font-weight="700"><tspan x="0" y="0">180</tspan><tspan y="0" font-size="22" font-family="HiraginoSans-W6, Hiragino Sans" font-weight="400">万円</tspan></text>
    </g>
    <g id="グループ_770" data-name="グループ 770" transform="translate(-198 -337.004)">
      <text id="これまでの月々のお支払い金額" transform="translate(418 4665)" stroke="rgba(0,0,0,0)" stroke-width="0.857" font-size="20" font-family="HiraginoSans-W6, Hiragino Sans"><tspan x="0" y="0">これまでの月々のお支払い金額</tspan></text>
      <text id="ローン不足分をまとめても" transform="translate(544 4696)" stroke="rgba(0,0,0,0)" stroke-width="0.857" font-size="20" font-family="HiraginoSans-W6, Hiragino Sans"><tspan x="0" y="0">ローン不足分をまとめても</tspan></text>
      <text id="_56_671円と比べて" data-name="56,671円と比べて" transform="translate(703 4666)" stroke="rgba(0,0,0,0)" stroke-width="0.857" font-size="32" font-family="NotoSans-Bold, Noto Sans" font-weight="700"><tspan x="0" y="0">56,671</tspan><tspan y="0" font-size="22" font-family="HiraginoSans-W6, Hiragino Sans" font-weight="400">円と比べて</tspan></text>
    </g>
    <line id="線_124" data-name="線 124" x2="820" transform="translate(190 3958.996)" fill="none" stroke="#000" stroke-width="2"/>
    <line id="線_125" data-name="線 125" x2="820" transform="translate(190 4009.996)" fill="none" stroke="#000" stroke-width="2"/>
    <text id="支払回数_36回_3年_金利_4.9_頭金_0円_ボーナス月増額_なし" data-name="支払回数：36回（3年）
金利：4.9%
頭金：0円
ボーナス月増額：なし" transform="translate(763 4063.996)" stroke="rgba(0,0,0,0)" stroke-width="0.857" font-size="18" font-family="HiraginoSans-W5, Hiragino Sans" letter-spacing="-0.03em"><tspan x="0" y="0">支払回数：</tspan><tspan y="0" font-family="NotoSans-SemiBold, Noto Sans" font-weight="600">36</tspan><tspan y="0">回（</tspan><tspan y="0" font-family="NotoSans-SemiBold, Noto Sans" font-weight="600">3</tspan><tspan y="0">年）</tspan><tspan y="0" font-family="NotoSans-SemiBold, Noto Sans" font-weight="600"></tspan><tspan x="0" y="28.8">金利：</tspan><tspan y="28.8" font-family="NotoSans-SemiBold, Noto Sans" font-weight="600">4.9%</tspan><tspan x="0" y="57.6">頭金：</tspan><tspan y="57.6" font-family="NotoSans-SemiBold, Noto Sans" font-weight="600">0</tspan><tspan y="57.6">円</tspan><tspan y="57.6" font-family="NotoSans-SemiBold, Noto Sans" font-weight="600"></tspan><tspan x="0" y="86.4">ボーナス月増額：なし</tspan></text>
    <text id="アレンジ7_3年プランで契約した場合" data-name="アレンジ7 　3年プランで契約した場合" transform="translate(601 3932.996)" fill="#fe9247" stroke="rgba(0,0,0,0)" stroke-width="0.857" font-size="32" font-family="HiraginoSans-W8, Hiragino Sans"><tspan x="-278.016" y="0">アレンジ</tspan><tspan y="0" font-family="NotoSans-ExtraBold, Noto Sans" font-weight="800">7 </tspan><tspan y="0">　</tspan><tspan y="0" font-family="NotoSans-ExtraBold, Noto Sans" font-weight="800">3</tspan><tspan y="0">年プランで契約した場合</tspan></text>
    <line id="線_126" data-name="線 126" y2="40" transform="translate(208.5 3902.496)" fill="none" stroke="#fe9247" stroke-width="5"/>
    <line id="線_129" data-name="線 129" y2="40" transform="translate(963.5 3902.996)" fill="none" stroke="#fe9247" stroke-width="5"/>
    <line id="線_127" data-name="線 127" y2="40" transform="translate(223.5 3902.496)" fill="none" stroke="#fe9247" stroke-width="5"/>
    <line id="線_130" data-name="線 130" y2="40" transform="translate(978.5 3902.996)" fill="none" stroke="#fe9247" stroke-width="5"/>
    <line id="線_128" data-name="線 128" y2="40" transform="translate(238.5 3902.496)" fill="none" stroke="#fe9247" stroke-width="5"/>
    <line id="線_131" data-name="線 131" y2="40" transform="translate(993.5 3902.996)" fill="none" stroke="#fe9247" stroke-width="5"/>
    <circle id="楕円形_1053" data-name="楕円形 1053" cx="72" cy="72" r="72" transform="translate(216 4036.996)" fill="#fe9247"/>
    <rect id="長方形_309" data-name="長方形 309" width="333" height="48" transform="translate(216 4190.996)" fill="#fcd21c"/>
    <g id="グループ_769" data-name="グループ 769" transform="translate(420.361 4036.531)">
      <line id="線_132" data-name="線 132" y2="164.616" transform="translate(126.794 3.466)" fill="none"/>
      <g id="グループ_768" data-name="グループ 768" transform="translate(0)">
        <g id="グループ_767" data-name="グループ 767">
          <path id="パス_1259" data-name="パス 1259" d="M2178.885,1058.136s-15.185,1.657-21.206,3.408-13.757,3.888-15.148,7.573-.757,5.3-.757,5.3c-.578,1.616-.629,5.932-.757,7.952s-.378,6.059-.378,6.059c-.673.553-.7,1.068-.757,2.651s-.211,7.572-.379,8.331-2.86,7.325-3.03,11.739.1,10.861,0,11.739.518,1.76,1.136,3.03a29.355,29.355,0,0,0,1.515,2.65h1.136l1.136,1.894,1.515-1.135.757-.758,1.515-1.515h2.272c.874,4.316,2.337,8.823,6.816,12.5a20.223,20.223,0,0,0,16.283,4.544,21.1,21.1,0,0,0,15.147-10.6,8.744,8.744,0,0,0,.757-3.03l5.68.379c26.913-.179,132.159-1.136,132.159-1.136h4.544a20.765,20.765,0,0,0,9.467,12.5c4.8,2.793,15.242,2.322,19.691-.379s9.582-7.032,10.224-17.419c.384-.04,1.894-.378,1.894-.378,1.557,2.51,2,2.742,3.407,2.651a4.477,4.477,0,0,0,2.272-.757,30.047,30.047,0,0,0,2.651-12.5c.09-5.273.478-14.271,0-16.283s-1.894-6.437-1.894-6.437a154.957,154.957,0,0,0,.757-20.828c-.136-6.02-1.192-18.7-1.514-18.934a13.319,13.319,0,0,1-1.136-1.135c-1.96-11.18-2.957-17.113-3.786-19.313a44.713,44.713,0,0,1-1.515-5.68,13.658,13.658,0,0,0-.378-3.408c-2.2-2-5.1-3.1-8.71-3.787a86.721,86.721,0,0,0-11.361-1.135,24.612,24.612,0,0,1-3.786-.379l-.758-1.136c2.968-5.914,5.3-10.6,5.3-10.6l-.757-.379-5.68,10.6c-1.719.9-3.029,1.515-3.029,1.515-35.716-.452-98.9.534-108.681,1.136s-23.552,2.233-27.644,4.165a20.671,20.671,0,0,0-6.059,4.165c-6.147,9.312-18.934,32.567-18.934,32.567Z" transform="translate(-2136.416 -1003.985)" fill="#eb6100" fill-rule="evenodd"/>
        </g>
      </g>
    </g>
    <path id="パス_1260" data-name="パス 1260" d="M2421.036,1090.7a155,155,0,0,0,.757-20.828c-.136-6.02-1.192-18.7-1.514-18.934a13.319,13.319,0,0,1-1.136-1.135c-1.96-11.18-2.958-17.113-3.787-19.313a44.694,44.694,0,0,1-1.515-5.68,13.667,13.667,0,0,0-.378-3.408c-2.2-2-5.1-3.1-8.71-3.787a86.875,86.875,0,0,0-11.361-1.136,24.555,24.555,0,0,1-3.786-.378l-.757-1.136c2.967-5.914,5.3-10.6,5.3-10.6l-.757-.379-5.68,10.6c-1.719.9-3.029,1.515-3.029,1.515-21.3-.27-52.377-.027-76.064.34v113.8c31.335-.275,60.159-.538,60.159-.538h4.544a20.766,20.766,0,0,0,9.467,12.5c4.8,2.793,15.243,2.322,19.691-.379s9.582-7.032,10.224-17.419c.384-.041,1.893-.379,1.893-.379,1.558,2.51,2,2.742,3.408,2.651a4.478,4.478,0,0,0,2.272-.757,30.051,30.051,0,0,0,2.651-12.5c.09-5.273.478-14.271,0-16.283S2421.036,1090.7,2421.036,1090.7Z" transform="translate(-1760.535 3032.547)" fill="#a6a8a7" fill-rule="evenodd"/>
    <text id="ローン不足分_" data-name="ローン不足分
" transform="translate(288 4110.996)" fill="#fff" stroke="rgba(0,0,0,0)" stroke-width="0.857" font-size="18" font-family="HiraginoSans-W6, Hiragino Sans"><tspan x="-53.46" y="0">ローン不足分</tspan><tspan y="0" font-family="NotoSans-Bold, Noto Sans" font-weight="700"></tspan><tspan font-family="NotoSans-Bold, Noto Sans" font-weight="700"><tspan x="0" y="32"></tspan></tspan></text>
    <text id="車両費用" transform="translate(497 4111.996)" fill="#fff" stroke="rgba(0,0,0,0)" stroke-width="0.857" font-size="18" font-family="HiraginoSans-W6, Hiragino Sans"><tspan x="-36" y="0">車両費用</tspan></text>
    <text id="据置" transform="translate(607 4206.996)" fill="#a6a8a7" stroke="rgba(0,0,0,0)" stroke-width="0.857" font-size="18" font-family="HiraginoSans-W6, Hiragino Sans"><tspan x="-18" y="0">据置</tspan></text>
    <text id="借入合計" transform="translate(307 4221.996)" stroke="rgba(0,0,0,0)" stroke-width="0.857" font-size="18" font-family="HiraginoSans-W6, Hiragino Sans"><tspan x="-36" y="0">借入合計</tspan></text>
    <text id="前契約" transform="translate(288 4085.996)" fill="#fff" stroke="rgba(0,0,0,0)" stroke-width="0.857" font-size="18" font-family="HiraginoSans-W6, Hiragino Sans"><tspan x="-27" y="0">前契約</tspan></text>
    <text id="万円" transform="translate(304 4138.996)" fill="#fff" stroke="rgba(0,0,0,0)" stroke-width="0.857" font-size="20" font-family="HiraginoSans-W8, Hiragino Sans"><tspan x="-20" y="0">万円</tspan></text>
    <text id="万円-2" data-name="万円" transform="translate(513 4139.996)" fill="#fff" stroke="rgba(0,0,0,0)" stroke-width="0.857" font-size="20" font-family="HiraginoSans-W8, Hiragino Sans"><tspan x="-20" y="0">万円</tspan></text>
    <text id="万円-3" data-name="万円" transform="translate(623 4232.996)" fill="#a6a8a7" stroke="rgba(0,0,0,0)" stroke-width="0.857" font-size="20" font-family="HiraginoSans-W8, Hiragino Sans"><tspan x="-20" y="0">万円</tspan></text>
    <text id="万円-4" data-name="万円" transform="translate(429 4222.996)" stroke="rgba(0,0,0,0)" stroke-width="0.857" font-size="20" font-family="HiraginoSans-W8, Hiragino Sans"><tspan x="-20" y="0">万円</tspan></text>
    <text id="_42" data-name="42" transform="translate(266 4141.996)" fill="#fff" stroke="rgba(0,0,0,0)" stroke-width="0.857" font-size="30" font-family="NotoSans-ExtraBold, Noto Sans" font-weight="800"><tspan x="-17.34" y="0">42</tspan></text>
    <text id="_90" data-name="90" transform="translate(475 4142.996)" fill="#fff" stroke="rgba(0,0,0,0)" stroke-width="0.857" font-size="30" font-family="NotoSans-ExtraBold, Noto Sans" font-weight="800"><tspan x="-17.34" y="0">90</tspan></text>
    <text id="_90-2" data-name="90" transform="translate(585 4235.996)" fill="#a6a8a7" stroke="rgba(0,0,0,0)" stroke-width="0.857" font-size="30" font-family="NotoSans-ExtraBold, Noto Sans" font-weight="800"><tspan x="-17.34" y="0">90</tspan></text>
    <text id="_132" data-name="132" transform="translate(378 4224.996)" stroke="rgba(0,0,0,0)" stroke-width="0.857" font-size="30" font-family="NotoSans-ExtraBold, Noto Sans" font-weight="800"><tspan x="-26.01" y="0">132</tspan></text>
    <line id="線_133" data-name="線 133" y2="227.229" transform="translate(215 4030.996)" fill="none" stroke="#000" stroke-linecap="round" stroke-linejoin="round" stroke-width="2" stroke-dasharray="4 6"/>
    <line id="線_134" data-name="線 134" y2="227.229" transform="translate(549 4030.996)" fill="none" stroke="#000" stroke-linecap="round" stroke-linejoin="round" stroke-width="2" stroke-dasharray="4 6"/>
    <line id="線_135" data-name="線 135" y2="227.229" transform="translate(664 4030.996)" fill="none" stroke="#000" stroke-linecap="round" stroke-linejoin="round" stroke-width="2" stroke-dasharray="4 6"/>
    <path id="パス_1262" data-name="パス 1262" d="M1117.431,556.843v150h-840v-150" transform="translate(-96.431 3726.152)" fill="none" stroke="#fff" stroke-linecap="round" stroke-linejoin="round" stroke-width="2" fill-rule="evenodd"/>
    <g id="グループ_771" data-name="グループ 771" transform="translate(7.004 -676.047)">
      <line id="線_136" data-name="線 136" x1="20.176" transform="translate(202.5 5072.542)" fill="none" stroke="#eb6100" stroke-linecap="round" stroke-width="4"/>
      <line id="線_138" data-name="線 138" x1="20.176" transform="translate(207.218 5087.202) rotate(-20)" fill="none" stroke="#eb6100" stroke-linecap="round" stroke-width="4"/>
      <line id="線_137" data-name="線 137" x1="20.176" transform="translate(207.218 5057.883) rotate(20)" fill="none" stroke="#eb6100" stroke-linecap="round" stroke-width="4"/>
    </g>
    <g id="グループ_772" data-name="グループ 772" transform="translate(708.161 4381.836)">
      <line id="線_136-2" data-name="線 136" x2="20.176" transform="translate(3.501 14.659)" fill="none" stroke="#eb6100" stroke-linecap="round" stroke-width="4"/>
      <line id="線_138-2" data-name="線 138" x1="20.176" transform="translate(18.959 29.319) rotate(-160)" fill="none" stroke="#eb6100" stroke-linecap="round" stroke-width="4"/>
      <line id="線_137-2" data-name="線 137" x1="20.176" transform="translate(18.96 0) rotate(160)" fill="none" stroke="#eb6100" stroke-linecap="round" stroke-width="4"/>
    </g>
    <g id="グループ_783" data-name="グループ 783" transform="translate(1024.531 5123.23)">
      <g id="グループ_782" data-name="グループ 782" clip-path="url(#clip-path)">
        <g id="グループ_86" data-name="グループ 86">
          <path id="パス_3341" data-name="パス 3341" d="M-121.69-739.129c.024.057.055.135.08.2l.023.048a12.182,12.182,0,0,0,.684,1.188c.047.07.1.137.147.206h0c.15.171.3.343.457.505.139.142.286.275.433.408.047.043.1.084.147.125a8.888,8.888,0,0,0,.869.555c.167.09.34.169.509.255l.018.01.09.028c.312.105.622.207.943.282.205.047.415.073.62.119-.068-.015-.1-.021-.132-.027-.076-.014-.09-.019,0,0,.072.012.144.021.217.027a8.34,8.34,0,0,0,.975.017c.165-.007.333-.031.5-.038.045-.007.09-.014.136-.024a9.528,9.528,0,0,0,1.01-.259c.058-.018.226-.08.331-.119a2.918,2.918,0,0,0,.283-.128,9.625,9.625,0,0,0,.849-.5c.067-.042.108-.067.138-.084a.579.579,0,0,0,.077-.071c.126-.11.254-.219.376-.335a7.975,7.975,0,0,0,.581-.638c.048-.072.234-.322.27-.386.1-.151.189-.307.276-.464s.168-.329.249-.494l0-.01c.024-.06.049-.121.071-.18s.036-.144.061-.214Z" fill="#fff"/>
          <path id="パス_3342" data-name="パス 3342" d="M-109.714-801.292a2.138,2.138,0,0,1-2.974.543,2.124,2.124,0,0,1-.536-.534c-2.629-3.9-7.863-.9-10.04,1.967-1.644,2.168-2.4,4.975-3.216,7.525-.648,2.016-1.29,4.034-1.968,6.041-.658,1.948-1.355,3.893-2.121,5.81.615-.008,1.229.006,1.826.013a33.19,33.19,0,0,1,3.69.154,2.371,2.371,0,0,1,1.432.594,2.024,2.024,0,0,1,0,2.863h0a2.014,2.014,0,0,1-1.432.593,31.631,31.631,0,0,0-3.385-.15,25.347,25.347,0,0,0-3.676.09l.225-.03a2.223,2.223,0,0,1-.509.022c-.33.687-.656,1.376-1.016,2.048a31.03,31.03,0,0,1-7.9,9.895c-3.042,2.391-7.394,4.75-11.425,4.2a10.524,10.524,0,0,0,1.4,7.533c1.478,2.455,3.784,3.187,6.471,3.69a2.092,2.092,0,0,1,1.487,1.953,36.1,36.1,0,0,0,5.181,15.106c6.39,10.049,18.906,15.52,30.341,10.872,6.33-2.573,10.722-7.74,13.7-13.736,2.07-4.169,2.78-8.479,3.51-13.007a1.95,1.95,0,0,1,1.414-1.414c3.624-.609,7.265-1.986,8.452-5.743a10.207,10.207,0,0,0,.1-6.84,3.474,3.474,0,0,0-1.193-1.49c-.248-.033-.494-.066-.737-.09a14.059,14.059,0,0,1-1.731-.283,3.464,3.464,0,0,0-.878.4c-1.625,1.059-3.154-.595-2.953-2.1a11.243,11.243,0,0,1-1.6-1.406,30.2,30.2,0,0,1-5.057-8.168,99.261,99.261,0,0,1-4.866-13.315c-.678-2.25-1.272-4.538-2.015-6.768-.5-1.5-1.459-3.5-3.4-2.66a2.194,2.194,0,0,1-2.878-1.163,2.2,2.2,0,0,1-.078-1.5,5.269,5.269,0,0,0-1.662-1.514m-5.67,49.927c2.61,0,2.61,4.05,0,4.05s-2.6-4.05,0-4.05m-12.11-14.274c-.149-.036-.3-.059-.45-.09a6.281,6.281,0,0,0-1.08,0,13.977,13.977,0,0,0-2.52.8,1.965,1.965,0,0,1-1.561-.205,2.025,2.025,0,0,1-.726-2.77,2.2,2.2,0,0,1,1.21-.93,13.557,13.557,0,0,1,2.52-.817,8.662,8.662,0,0,1,3.675.1,2.025,2.025,0,0,1,1.414,2.49,2.022,2.022,0,0,1-.931,1.211,2.121,2.121,0,0,1-1.56.2m18.855,31.342a10.066,10.066,0,0,1-10.334,2.714c-4.341-1.376-6.75-5.213-7.308-9.571a1.639,1.639,0,0,1,.54-1.368.6.6,0,0,1,.048-.053h0a1.857,1.857,0,0,1,1.433-.6h16.329a2.044,2.044,0,0,1,2.025,2.025,11.349,11.349,0,0,1-2.737,6.857m10.336-31.666a2.064,2.064,0,0,1-1.21.931,2.135,2.135,0,0,1-1.5-.18,7.6,7.6,0,0,0-1.558-.431,6.558,6.558,0,0,0-1.049-.009,5.086,5.086,0,0,0-.92.234,1.975,1.975,0,0,1-1.56-.2,2.048,2.048,0,0,1-.931-1.21,2.071,2.071,0,0,1,.205-1.561,2.2,2.2,0,0,1,1.209-.931,7.028,7.028,0,0,1,3.275-.36,10.117,10.117,0,0,1,3.313.947,2,2,0,0,1,.931,1.211,2.038,2.038,0,0,1-.2,1.559m-8.615-13.811a33.176,33.176,0,0,1,3.69-.155,18.5,18.5,0,0,1,4.125.207,2.018,2.018,0,0,1,1.407,2.483,2.015,2.015,0,0,1-2.346,1.439,27.29,27.29,0,0,0-3.49-.074,31.355,31.355,0,0,0-3.385.15,1.943,1.943,0,0,1-1.433-.585,2.025,2.025,0,0,1,0-2.864h0a2.22,2.22,0,0,1,1.432-.593" fill="#fff"/>
          <path id="パス_3343" data-name="パス 3343" d="M-88.185-786.182a37.148,37.148,0,0,0,8.738,16.534c.866-3.456.45-7.587.1-10.71a69.11,69.11,0,0,0-4.267-16.65,45.776,45.776,0,0,0-3.609-8.046,17.517,17.517,0,0,0-5.268-5.164,21.713,21.713,0,0,0-6.941-3.068c-1.546-.36-2.92-.366-4.311-1.152l-3.969-2.241c-1.4-.79-2.417-2.036-3.858-2.8-3.837-2.049-8.535-1.564-12.565-.411-9.806,2.806-17.416,9.742-22.493,18.432A70.427,70.427,0,0,0-153.248-786c-1.611,5.427-2.014,10.962,1.418,15.777a1.879,1.879,0,0,1,.353.887,17.561,17.561,0,0,0,3.272-4.23c2.635-4.539,4.119-9.669,5.552-14.684.72-2.505,4.624-1.433,3.9,1.08-2.218,7.758-5.736,20.516-14.233,23.317,2.58.757,5.512-.715,7.667-2.082a21.081,21.081,0,0,0,5.171-4.79c5.706-7.224,7.688-16.5,10.7-24.992,1.608-4.526,4.06-8.467,8.592-10.486,4.183-1.863,8.507-1,11.123,2.88a1.692,1.692,0,0,1,.012,2.035,5.266,5.266,0,0,1,1.661,1.514,1.72,1.72,0,0,1,.913-.838,6.208,6.208,0,0,1,6.245.284c1.863,1.287,2.692,3.439,3.33,5.524,1.6,5.249,3.016,10.557,5.064,15.66,1.469,3.657,3.244,7.966,6.215,10.683a5.812,5.812,0,0,0,2.08,1.215,6.9,6.9,0,0,1,1.493,0,41.288,41.288,0,0,1-9.378-17.859c-.6-2.538,3.3-3.611,3.906-1.08" fill="#fff"/>
          <path id="パス_3344" data-name="パス 3344" d="M-138.665-721.757a2.048,2.048,0,0,1,2.025,2.025,48.731,48.731,0,0,1-1.008,9.289,1.54,1.54,0,0,1-.15.427l22.95,6.272,2.93-.941,16.73-5.368a50.611,50.611,0,0,1-1.052-7.268c-.18-2.037-.321-4.079-.455-6.12A27.179,27.179,0,0,1-129.8-718.1a30.509,30.509,0,0,1-8.55-6.8l-.53,3.176c.073-.01.145-.026.22-.03" fill="#fff"/>
          <path id="パス_3345" data-name="パス 3345" d="M-57.784-688.423c-8-5.8-17.582-8.172-26.254-12.606a1.7,1.7,0,0,1-1.929-.99l-2.906-5.811-1.856.6-22.05,7.077v4.238l.051-.017,18.464-6.34c2.474-.85,3.527,3.064,1.08,3.906l-2.61.9-18.474,6.337a1.816,1.816,0,0,1-2.333-1.073,1.82,1.82,0,0,1-.111-.555,2.1,2.1,0,0,1-.12-.688v-6.633l-2.485-.679-25.945-7.092q-.432,1.3-.863,2.6c-.07.211-.137.439-.209.669,3.924,1.379,7.965,2.473,11.958,3.568,3.3.906,6.614,1.779,9.939,2.6,2.534.623,1.454,4.528-1.08,3.906-3.326-.817-6.638-1.69-9.939-2.6a143.826,143.826,0,0,1-14.262-4.438l-3.117,1.772a26,26,0,0,1-5.234,1.912c-3.048.953-6.113,1.913-9.142,2.97-2.714.95-4.61,10.788-5.659,12.771-1.8,3.4-6.537,4.582-7.934,6.733-1.412,2.176-1.121,2.776-2.266,4.94H-45.418c-3.583-6.233-6.367-13.621-12.368-17.968m-56.265,9.319c-2.61,0-2.61-4.05,0-4.05s2.61,4.05,0,4.05" fill="#fcd21c"/>
          <path id="パス_3346" data-name="パス 3346" d="M-115.388-747.315c2.61,0,2.61-4.05,0-4.05s-2.61,4.05,0,4.05" fill="#323232"/>
          <path id="パス_3347" data-name="パス 3347" d="M-125-767.054a2.057,2.057,0,0,0-1.414-2.491,8.644,8.644,0,0,0-3.675-.1,13.574,13.574,0,0,0-2.52.816,2.2,2.2,0,0,0-1.211.931,2.075,2.075,0,0,0-.2,1.561,2.051,2.051,0,0,0,.93,1.209,1.967,1.967,0,0,0,1.56.2,14.02,14.02,0,0,1,2.52-.8,6.09,6.09,0,0,1,1.08,0c.151.027.3.05.45.09a2.128,2.128,0,0,0,1.561-.2,2.066,2.066,0,0,0,.93-1.211" fill="#323232"/>
          <path id="パス_3348" data-name="パス 3348" d="M-99.047-768.731a10.091,10.091,0,0,0-3.314-.947,7,7,0,0,0-3.274.36,2.191,2.191,0,0,0-1.21.93,2.025,2.025,0,0,0,.725,2.77h0a1.983,1.983,0,0,0,1.56.2,5,5,0,0,1,.92-.234,6.558,6.558,0,0,1,1.049.009,7.5,7.5,0,0,1,1.557.431,2.136,2.136,0,0,0,1.5.18,2.026,2.026,0,0,0,1.415-2.49,2,2,0,0,0-.931-1.211" fill="#323232"/>
          <path id="パス_3349" data-name="パス 3349" d="M-116.8-735.229c-.09-.018-.078-.013,0,0" fill="#323232"/>
          <path id="パス_3350" data-name="パス 3350" d="M-107.929-743.179h-16.329a1.857,1.857,0,0,0-1.435.6h0c-.015.018-.032.035-.047.053a1.641,1.641,0,0,0-.54,1.369c.554,4.357,2.97,8.2,7.307,9.571a10.066,10.066,0,0,0,10.334-2.715,11.337,11.337,0,0,0,2.737-6.856,2.044,2.044,0,0,0-2.025-2.025m-2.6,4.446,0,.009c-.081.166-.159.332-.248.494s-.18.313-.276.465c-.04.064-.227.313-.27.386a7.948,7.948,0,0,1-.581.636c-.122.117-.25.226-.376.337-.037.032-.06.053-.077.069s-.071.043-.138.09a9.422,9.422,0,0,1-.849.5c-.039.019-.189.09-.283.129s-.27.1-.331.118a10.03,10.03,0,0,1-1.01.26c-.044.009-.09.016-.136.023-.166.007-.334.031-.5.038a8.12,8.12,0,0,1-.975-.017c-.073-.006-.145-.015-.217-.028l.132.029c-.2-.047-.414-.072-.62-.12-.321-.076-.63-.18-.943-.282l-.09-.028-.018-.01c-.169-.09-.342-.164-.509-.255a8.866,8.866,0,0,1-.869-.555c-.049-.041-.1-.081-.147-.125-.147-.134-.294-.27-.433-.408-.16-.162-.307-.334-.457-.506h0c-.05-.068-.1-.135-.147-.2a11.879,11.879,0,0,1-.684-1.189.5.5,0,0,0-.024-.048l-.079-.194h11.3c-.024.07-.035.144-.061.213s-.047.122-.07.18" fill="#323232"/>
          <path id="パス_3351" data-name="パス 3351" d="M-114.05-679.1c2.61,0,2.61-4.05,0-4.05s-2.61,4.05,0,4.05" fill="#323232"/>
          <path id="パス_3352" data-name="パス 3352" d="M-99.121-779.721a18.44,18.44,0,0,0-4.125-.206,32.941,32.941,0,0,0-3.69.154,2.216,2.216,0,0,0-1.432.593,2.024,2.024,0,0,0,0,2.863h0a1.944,1.944,0,0,0,1.432.594,31.617,31.617,0,0,1,3.384-.151,27.114,27.114,0,0,1,3.491.076,2.018,2.018,0,0,0,2.39-1.559,2.017,2.017,0,0,0-1.45-2.364" fill="#323232"/>
          <path id="パス_3353" data-name="パス 3353" d="M-181.307-677.3c1.538-.977,3.114-1.633,4.38-3.005a19.372,19.372,0,0,0,3.1-5.466c.847-1.932,1.612-3.9,2.628-5.754.737-1.343,1.63-2.593,2.384-3.928a9.453,9.453,0,0,0,1.6-4.559c-.024-.873-.356-2.08-1.338-2.25-2.09-.36-3.767,3.2-4.715,4.65-1.25,1.91-2.52,4.258-4.184,5.817-5.22,4.881-11.591-5.94-11.915-10.26-.405-5.408,5.016-8.771,8.715-11.783a2.078,2.078,0,0,1,2.864,0,30.561,30.561,0,0,1,3.019,3.667c.9,1.249,1.682,3.494,3.553,3.353.64-.048,1.642-.5,1.678-1.247.041-.866-1.1-2.411-1.515-3.2-.423-.8-.866-1.594-1.35-2.363-.688-1.1-1.47-2.133-2.257-3.168-.72-.949-1.388-2.48-2.377-3.137-1.361-.9-3.4.036-4.67.672a43.035,43.035,0,0,0-5.76,3.678c-.011.008-.021.011-.032.019a2.015,2.015,0,0,1-2.846-.156,2.033,2.033,0,0,1-.433-.778q-1.475-5.336-2.938-10.674c-1.3-4.74-2.6-9.478-3.846-14.233-.38-1.455-.585-3.42-1.9-4.17a1.159,1.159,0,0,0-.879-.209,1.1,1.1,0,0,0-.489.2,2.85,2.85,0,0,0-.8,1.245,7.485,7.485,0,0,0-.254.965c0,.029-.006.121-.006.143a5.78,5.78,0,0,0,.06.72c.006.035.01.056.021.118.028.166.053.333.081.5.159.939.346,1.874.54,2.808.5,2.43,1.047,4.845,1.606,7.26q1.091,4.708,2.25,9.4a2.172,2.172,0,0,1,.06.557q.99,3.69,1.98,7.37c.677,2.524-3.231,3.592-3.9,1.08q-1.1-4.108-2.215-8.213c-1.071-3.945-2.143-7.891-3.259-11.825a37.3,37.3,0,0,0-1.545-5.13c-.439-.973-1.841-1.576-2.543-.646-.311.412-.212.907-.318,1.367.09.489.162.981.247,1.47.292,1.656.6,3.309.911,4.961q.714,3.812,1.447,7.618a2.169,2.169,0,0,1,.019.663c.18.782.366,1.562.54,2.34q1.234,5.47,2.32,10.97c.506,2.549-3.4,3.631-3.905,1.08q-1.107-5.6-2.364-11.16c-.5-2.191-1-4.383-1.6-6.548-.244-.886-.665-3.525-1.861-3.285-2.4.482-1.163,4.568-.864,5.9.858,3.807,1.436,7.665,1.97,11.529,1.08,7.774,2.07,15.681,3.69,23.362.826,3.911,2.243,7.675,3.044,11.592a15.475,15.475,0,0,1-.45,7.142h21.144q.37-1.216.743-2.43c.554-1.81,1.039-3.565,2.728-4.639" fill="#fff"/>
          <path id="パス_3354" data-name="パス 3354" d="M-212.535-767.841q.245.456.49.912a2.043,2.043,0,0,0,2.77.727,2.07,2.07,0,0,0,.726-2.771l-3.4-6.317-.49-.912a2.043,2.043,0,0,0-2.771-.727,2.072,2.072,0,0,0-.727,2.771l3.4,6.317" fill="#323232"/>
          <path id="パス_3355" data-name="パス 3355" d="M-199.884-767.317a2.069,2.069,0,0,0,2.025-2.025l.219-7.172c.01-.344.021-.688.031-1.032a2.042,2.042,0,0,0-2.025-2.025,2.07,2.07,0,0,0-2.025,2.025l-.218,7.171c-.011.344-.021.689-.032,1.033a2.044,2.044,0,0,0,2.025,2.025" fill="#323232"/>
          <path id="パス_3356" data-name="パス 3356" d="M-217.461-757.877a2.066,2.066,0,0,0,1.21-.931,2.039,2.039,0,0,0,.2-1.561,2.311,2.311,0,0,0-.93-1.209q-2.871-2.088-5.741-4.172l-.816-.592a2.041,2.041,0,0,0-1.56-.205,2.064,2.064,0,0,0-1.213.931,2.041,2.041,0,0,0-.2,1.56,2.323,2.323,0,0,0,.931,1.211l5.742,4.172.815.592a2.039,2.039,0,0,0,1.561.205" fill="#323232"/>
          <path id="パス_3357" data-name="パス 3357" d="M-41.526-671.823c-4.05-6.826-7.05-14.629-13.561-19.614-8.231-6.3-18.4-8.631-27.43-13.357a2.293,2.293,0,0,0-.4-.16l-3.18-6.359a2.039,2.039,0,0,0-2.287-.931l-2.946.945a46.1,46.1,0,0,1-.893-6.33c-.28-3.2-.45-6.4-.682-9.607a2.4,2.4,0,0,0-.18-.751c.193-.294.4-.574.589-.875a35.92,35.92,0,0,0,4.735-11.26c.333-1.62.584-3.255.841-4.889a18.765,18.765,0,0,0,5.462-2.142A11.336,11.336,0,0,0-76.4-755.2c.527-2.916.431-6.21-1.182-8.776A10.824,10.824,0,0,0-76.8-765.4a22.175,22.175,0,0,0,1.81-9.38,63.249,63.249,0,0,0-3.921-21.1c-1.338-3.857-2.779-8.19-5.065-11.6a23.34,23.34,0,0,0-8.2-7.276,26.688,26.688,0,0,0-4.573-1.98,19.477,19.477,0,0,0-2.744-.683c-.327-.056-.659-.1-.99-.142-.184-.027-.37-.043-.555-.063-.441-.3-1.632-.853-1.793-.944-1-.564-2.047-1.08-3.014-1.7-.762-.488-1.378-1.2-2.25-1.818a15.193,15.193,0,0,0-4.41-2.114,21.257,21.257,0,0,0-9.61-.308,38.9,38.9,0,0,0-17.65,8.431c-7.056,5.781-11.769,14.051-15.062,22.431-3.205,8.156-6.077,17.64-.5,25.47a2.124,2.124,0,0,0,.679.621,6.759,6.759,0,0,1-3.065.155,2.084,2.084,0,0,0-2.491,1.415,2.042,2.042,0,0,0,1.414,2.491,12.627,12.627,0,0,0,3.631.12,1.95,1.95,0,0,0-.18.261,2.1,2.1,0,0,0-.887,1.026c-1.582,3.8-.683,8.587,1.4,12.022a11.574,11.574,0,0,0,7.645,5.276,40.353,40.353,0,0,0,4.448,13.712,34.583,34.583,0,0,0,4.382,6.176,30.531,30.531,0,0,0,8.55,6.8,27.179,27.179,0,0,0,33.106-5.34c.134,2.042.27,4.084.45,6.12a50.528,50.528,0,0,0,1.061,7.271l-16.729,5.369-2.93.94-22.95-6.272a1.612,1.612,0,0,0,.15-.426,48.821,48.821,0,0,0,1.007-9.29,2.048,2.048,0,0,0-2.025-2.025,1.617,1.617,0,0,0-.218.03,2.04,2.04,0,0,0-1.807,2c0,.831-.047,1.664-.107,2.491q-.1,1.35-.263,2.688c-.015.121-.022.247-.046.367l.027-.134c-.015.075-.032.165-.037.2q-.056.393-.117.784-.144.912-.319,1.817a2.43,2.43,0,0,0-.039.466l-.473-.13-3.974-1.086a2.071,2.071,0,0,0-2.492,1.415l-1.62,4.866a2.112,2.112,0,0,0-2.037,1.241c-1.08.647-2.176,1.28-3.3,1.812a43.744,43.744,0,0,1-5.242,1.657c-.82.26-1.636.53-2.454.8a7.44,7.44,0,0,0-1.057-3.252,5.568,5.568,0,0,0-1.957-1.928,4.868,4.868,0,0,0,.613-1.544c.4-2.105-.918-4.09-1.847-5.875a33.958,33.958,0,0,0-2.686-4.39c-1.725-2.354-3.393-5.79-6.372-6.613-3.87-1.071-7.887,1.376-11.152,3.68-2.077-7.5-4.161-14.994-6.12-22.523-.6-2.311-1.226-4.549-3.343-5.955a5.362,5.362,0,0,0-7.442,1.453l-.04.06a7.106,7.106,0,0,0-1.248,4.007,5.671,5.671,0,0,0-4.282.162c-3.817,1.841-2.979,6.043-2.327,9.439a5.455,5.455,0,0,0-5.22,2.61c-1.971,3.051-.824,6.368-.14,9.619,1.762,8.37,2.655,16.95,4.018,25.391a123.168,123.168,0,0,0,2.983,14.393c.644,2.25,1.637,4.77,1.635,7.14a14.794,14.794,0,0,1-.859,4.374h4.111a15.479,15.479,0,0,0,.45-7.143c-.8-3.917-2.218-7.679-3.043-11.592-1.62-7.68-2.61-15.588-3.69-23.361-.535-3.864-1.113-7.722-1.97-11.53-.3-1.332-1.53-5.417.863-5.9,1.2-.24,1.62,2.4,1.861,3.285.6,2.166,1.1,4.356,1.6,6.547q1.26,5.563,2.365,11.16c.505,2.554,4.41,1.473,3.9-1.08q-1.084-5.491-2.312-10.962-.27-1.173-.54-2.34a2.207,2.207,0,0,0-.019-.664q-.733-3.807-1.448-7.618c-.31-1.652-.619-3.3-.91-4.961-.09-.489-.16-.981-.248-1.47.106-.46.007-.955.318-1.367.7-.929,2.1-.327,2.543.646a37.434,37.434,0,0,1,1.546,5.13c1.116,3.933,2.188,7.879,3.258,11.825q1.113,4.1,2.215,8.212c.675,2.514,4.581,1.448,3.9-1.08q-.988-3.69-1.98-7.37a2.124,2.124,0,0,0-.059-.556q-1.162-4.692-2.25-9.4c-.56-2.416-1.108-4.833-1.606-7.261-.192-.934-.378-1.869-.54-2.808-.028-.167-.054-.333-.081-.5-.012-.062-.016-.084-.021-.118a5.975,5.975,0,0,1-.061-.72c0-.022.006-.114.006-.143a7.33,7.33,0,0,1,.255-.965,2.836,2.836,0,0,1,.8-1.244,1.082,1.082,0,0,1,.49-.2,1.167,1.167,0,0,1,.879.209c1.311.754,1.515,2.715,1.9,4.17,1.244,4.755,2.549,9.493,3.847,14.233q1.463,5.34,2.937,10.674a2.016,2.016,0,0,0,2.5,1.367,2.006,2.006,0,0,0,.778-.433c.011-.008.022-.011.032-.019a43.184,43.184,0,0,1,5.755-3.678c1.274-.637,3.309-1.575,4.671-.672.99.656,1.654,2.188,2.377,3.138.787,1.034,1.568,2.063,2.257,3.167.48.769.924,1.561,1.35,2.363.414.785,1.556,2.329,1.515,3.2-.037.745-1.038,1.2-1.678,1.248-1.871.14-2.657-2.106-3.553-3.353a30.568,30.568,0,0,0-3.019-3.668,2.08,2.08,0,0,0-2.864,0c-3.7,3.013-9.12,6.376-8.715,11.782.324,4.32,6.694,15.14,11.915,10.26,1.667-1.558,2.934-3.906,4.183-5.816.949-1.45,2.626-5.013,4.716-4.651.982.171,1.314,1.377,1.338,2.25a9.435,9.435,0,0,1-1.6,4.56c-.761,1.346-1.646,2.585-2.383,3.928-1.016,1.853-1.782,3.823-2.628,5.754a19.348,19.348,0,0,1-3.1,5.466c-1.266,1.372-2.843,2.027-4.38,3.005-1.689,1.074-2.174,2.83-2.729,4.639l-.742,2.43h4.23c.011-.037.021-.073.033-.109.253-.828.475-1.671.762-2.487.36-1.022.829-1.148,1.75-1.653a15.83,15.83,0,0,0,6.66-7.071c1.736-3.443,3.01-7,5.07-10.279a27.6,27.6,0,0,0,2.227-4.128q2.983-.979,5.972-1.911a25.91,25.91,0,0,0,5.233-1.912l3.117-1.771a143.888,143.888,0,0,0,14.262,4.437c3.3.907,6.614,1.78,9.939,2.6,2.531.622,3.611-3.283,1.08-3.906-3.325-.816-6.637-1.69-9.938-2.6-3.994-1.1-8.035-2.188-11.958-3.568.071-.23.138-.458.209-.669l.863-2.6,25.944,7.092,2.486.679v6.637a2.087,2.087,0,0,0,.12.687,1.815,1.815,0,0,0,1.888,1.74,1.844,1.844,0,0,0,.555-.111l18.464-6.34,2.61-.9c2.45-.842,1.4-4.756-1.08-3.906l-18.464,6.34-.051.018v-4.239l22.05-7.077,1.855-.595,2.906,5.811a1.7,1.7,0,0,0,1.929.99c8.673,4.434,18.252,6.809,26.253,12.606,6,4.347,8.785,11.734,12.369,17.967h4.14a1.869,1.869,0,0,0-.254-1.362m-132.948-31.1c-1.487,1.917-2.768,4-4.167,5.982-.36.51-1.306,2.235-1.63,2.287-.651.107-2.673-2.488-3.167-3.183a8.974,8.974,0,0,1-1.89-4.659,4.515,4.515,0,0,1,1.86-3.591c1.305-1.22,2.667-2.379,4.043-3.522a27.34,27.34,0,0,1,1.842,2.443,9.958,9.958,0,0,0,3.51,3.75c-.136.163-.27.323-.406.493m66.632-17.574c-11.434,4.648-23.95-.823-30.341-10.872a36.123,36.123,0,0,1-5.175-15.107,2.093,2.093,0,0,0-1.487-1.952c-2.687-.5-4.993-1.234-6.471-3.69a10.527,10.527,0,0,1-1.4-7.534c4.031.55,8.383-1.81,11.425-4.2a31.031,31.031,0,0,0,7.9-9.895c.36-.673.686-1.361,1.016-2.048a2.28,2.28,0,0,0,.509-.022l-.226.03a25.374,25.374,0,0,1,3.678-.09,31.6,31.6,0,0,1,3.384.151,2.019,2.019,0,0,0,1.432-.591,2.026,2.026,0,0,0,0-2.865,2.368,2.368,0,0,0-1.432-.592,33.176,33.176,0,0,0-3.69-.155c-.6-.007-1.212-.02-1.826-.013.766-1.916,1.463-3.861,2.121-5.811.678-2.006,1.32-4.023,1.968-6.039.82-2.55,1.573-5.358,3.216-7.525,2.177-2.871,7.411-5.867,10.039-1.967a2.139,2.139,0,0,0,2.979.525,2.126,2.126,0,0,0,.531-.535,1.686,1.686,0,0,0-.011-2.034c-2.616-3.88-6.94-4.742-11.123-2.88-4.532,2.019-6.984,5.96-8.592,10.487-3.013,8.487-5,17.767-10.7,24.991a21.1,21.1,0,0,1-5.171,4.791c-2.155,1.367-5.087,2.839-7.667,2.081,8.5-2.8,12.015-15.561,14.232-23.319.72-2.511-3.189-3.582-3.906-1.08-1.434,5.014-2.918,10.145-5.553,14.683a17.559,17.559,0,0,1-3.272,4.23,1.872,1.872,0,0,0-.353-.886c-3.43-4.817-3.028-10.35-1.418-15.779a70.564,70.564,0,0,1,6.616-15.462c5.078-8.688,12.69-15.625,22.493-18.432,4.03-1.153,8.73-1.636,12.565.411,1.44.77,2.459,2.015,3.858,2.806l3.969,2.241c1.391.786,2.766.788,4.312,1.152a21.677,21.677,0,0,1,6.94,3.068,17.529,17.529,0,0,1,5.269,5.163,45.842,45.842,0,0,1,3.61,8.045,69.144,69.144,0,0,1,4.267,16.65c.35,3.122.77,7.251-.1,10.71a37.155,37.155,0,0,1-8.738-16.536c-.6-2.534-4.508-1.46-3.9,1.08a41.262,41.262,0,0,0,9.374,17.857,6.9,6.9,0,0,0-1.493,0,5.79,5.79,0,0,1-2.08-1.216c-2.97-2.717-4.746-7.024-6.216-10.682-2.047-5.1-3.466-10.407-5.064-15.66-.634-2.084-1.462-4.237-3.33-5.525a6.208,6.208,0,0,0-6.241-.278,1.709,1.709,0,0,0-.912.831,2.195,2.195,0,0,0,1.453,2.743,2.194,2.194,0,0,0,1.5-.077c1.938-.844,2.9,1.16,3.4,2.659.744,2.231,1.337,4.517,2.015,6.769a99.549,99.549,0,0,0,4.867,13.315,30.159,30.159,0,0,0,5.058,8.167,11.248,11.248,0,0,0,1.6,1.407c-.2,1.5,1.329,3.157,2.954,2.1a3.415,3.415,0,0,1,.877-.4,13.531,13.531,0,0,0,1.732.284c.242.024.489.055.736.09a3.457,3.457,0,0,1,1.193,1.5,10.232,10.232,0,0,1-.1,6.84c-1.187,3.757-4.829,5.13-8.452,5.743a1.953,1.953,0,0,0-1.415,1.415c-.733,4.527-1.44,8.838-3.51,13.007-2.977,6-7.37,11.16-13.7,13.736" fill="#111"/>
        </g>
      </g>
    </g>
    <g id="グループ_828" data-name="グループ 828" transform="translate(-5312 5888.068)">
      <line id="線_152" data-name="線 152" x2="32.855" transform="translate(5683.072 -1762.5)" fill="none" stroke="#000" stroke-width="3"/>
      <line id="線_153" data-name="線 153" x2="32.855" transform="translate(5699.5 -1778.928) rotate(90)" fill="none" stroke="#000" stroke-width="3"/>
    </g>
  </g>
</svg>
