<svg xmlns="http://www.w3.org/2000/svg" xmlns:xlink="http://www.w3.org/1999/xlink" width="880" height="290" viewBox="0 0 880 290">
  <defs>
    <clipPath id="clip-path">
      <rect id="長方形_324" data-name="長方形 324" width="177.974" height="198.413" transform="translate(47.655 -871.401)" fill="none"/>
    </clipPath>
  </defs>
  <g id="グループ_3155" data-name="グループ 3155" transform="translate(-160 -4990.996)">
    <rect id="長方形_314" data-name="長方形 314" width="880" height="290" transform="translate(160 4990.996)" fill="#f5f6f7"/>
    <text id="現在のローン残額_1_029_200円" data-name="現在のローン残額：1,029,200円" transform="translate(207 5243.996)" stroke="rgba(0,0,0,0)" stroke-width="0.857" font-size="26" font-family="HiraginoSans-W6, Hiragino Sans"><tspan x="0" y="0">現在のローン残額：</tspan><tspan y="0" font-size="30" font-family="NotoSans-ExtraBold, Noto Sans" font-weight="800">1,029,200</tspan><tspan y="0" font-family="HiraginoSans-W8, Hiragino Sans">円</tspan></text>
    <text id="月々のお支払い金額_" data-name="月々のお支払い金額：" transform="translate(207 5195.996)" stroke="rgba(0,0,0,0)" stroke-width="0.857" font-size="26" font-family="HiraginoSans-W6, Hiragino Sans"><tspan x="0" y="0">月々のお支払い金額：</tspan></text>
    <text id="_33_200円" data-name="33,200円" transform="translate(470 5196.996)" fill="#eb6100" stroke="rgba(0,0,0,0)" stroke-width="0.857" font-size="38" font-family="NotoSans-ExtraBold, Noto Sans" font-weight="800"><tspan x="0" y="0">33,200</tspan><tspan y="0" font-size="26" font-family="HiraginoSans-W8, Hiragino Sans" font-weight="400">円</tspan></text>
    <line id="線_140" data-name="線 140" x2="434" transform="translate(190 5138.996)" fill="none" stroke="#000" stroke-width="1"/>
    <text id="借入金額_160万円_借入期間_3年_5年_支払総額_199.2万円" data-name="借入金額：160万円
借入期間：3年/5年
支払総額：199.2万円" transform="translate(207 5040.996)" stroke="rgba(0,0,0,0)" stroke-width="0.857" font-size="18" font-family="HiraginoSans-W5, Hiragino Sans" letter-spacing="-0.03em"><tspan x="0" y="0">借入金額：</tspan><tspan y="0" font-family="NotoSans-SemiBold, Noto Sans" font-weight="600">160</tspan><tspan y="0">万円</tspan><tspan y="0" font-family="NotoSans-SemiBold, Noto Sans" font-weight="600"></tspan><tspan x="0" y="36">借入期間：</tspan><tspan y="36" font-family="NotoSans-SemiBold, Noto Sans" font-weight="600">3</tspan><tspan y="36">年</tspan><tspan y="36" font-family="NotoSans-SemiBold, Noto Sans" font-weight="600">/5</tspan><tspan y="36">年</tspan><tspan y="36" font-family="NotoSans-SemiBold, Noto Sans" font-weight="600"></tspan><tspan x="0" y="72">支払総額：</tspan><tspan y="72" font-family="NotoSans-SemiBold, Noto Sans" font-weight="600">199.2</tspan><tspan y="72">万円</tspan></text>
    <text id="金利_9.8_ボーナス月増額_なし_" data-name="金利：9.8%
ボーナス月増額：なし
" transform="translate(409 5040.996)" stroke="rgba(0,0,0,0)" stroke-width="0.857" font-size="18" font-family="HiraginoSans-W5, Hiragino Sans" letter-spacing="-0.03em"><tspan x="0" y="0">金利：</tspan><tspan y="0" font-family="NotoSans-SemiBold, Noto Sans" font-weight="600">9.8%</tspan><tspan x="0" y="36">ボーナス月増額：なし</tspan><tspan y="36" font-family="NotoSans-SemiBold, Noto Sans" font-weight="600"></tspan><tspan font-family="NotoSans-SemiBold, Noto Sans" font-weight="600"><tspan x="0" y="72"></tspan></tspan></text>
    <g id="グループ_72" data-name="グループ 72" transform="translate(761.531 5953.51)">
      <g id="合体_4" data-name="合体 4">
        <path id="パス_1273" data-name="パス 1273" d="M50.488-754.468A48.033,48.033,0,0,1,40.079-755.6a47.469,47.469,0,0,1-9.61-3.25,47.807,47.807,0,0,1-8.573-5.118,48.09,48.09,0,0,1-7.289-6.742l-1.083-1.232-1.327.963a29.858,29.858,0,0,1-17.646,5.717,29.88,29.88,0,0,1-11.713-2.366,29.987,29.987,0,0,1-9.567-6.453,30.028,30.028,0,0,1-6.45-9.571,29.929,29.929,0,0,1-2.364-11.719,30.1,30.1,0,0,1,1.452-9.269l.451-1.395-1.276-.724A40.14,40.14,0,0,1-49.58-821.129a39.7,39.7,0,0,1-4.126-9.639,40.017,40.017,0,0,1-1.464-10.755,39.8,39.8,0,0,1,2.483-13.9,39.783,39.783,0,0,1,6.855-11.771A39.967,39.967,0,0,1-35.5-875.944a39.528,39.528,0,0,1,12.912-4.835l.932-.173.385-.867a52.208,52.208,0,0,1,7.884-12.568A52.432,52.432,0,0,1-2.351-904.2a51.927,51.927,0,0,1,28.8-8.663,52.28,52.28,0,0,1,14.084,1.923,51.912,51.912,0,0,1,12.619,5.421,52.472,52.472,0,0,1,18.779,19.258l.538.955,1.1-.04c.484-.018.976-.027,1.463-.027a39.64,39.64,0,0,1,15.532,3.137,39.775,39.775,0,0,1,12.686,8.558,39.771,39.771,0,0,1,8.553,12.691,39.692,39.692,0,0,1,3.136,15.542,40.11,40.11,0,0,1-1.193,9.732,39.74,39.74,0,0,1-3.386,8.857,40.271,40.271,0,0,1-12.2,13.952l-.936.667.211,1.13a48.231,48.231,0,0,1,.82,8.862,47.5,47.5,0,0,1-3.753,18.6,47.616,47.616,0,0,1-10.236,15.189,47.593,47.593,0,0,1-15.181,10.24A47.437,47.437,0,0,1,50.488-754.468Z" fill="#fff8db"/>
        <path id="パス_1274" data-name="パス 1274" d="M50.488-756.268a45.66,45.66,0,0,0,17.888-3.611,45.815,45.815,0,0,0,14.609-9.856,45.825,45.825,0,0,0,9.851-14.617,45.7,45.7,0,0,0,3.611-17.9,46.374,46.374,0,0,0-.789-8.53l-.423-2.26,1.872-1.335A38.454,38.454,0,0,0,108.758-827.7a37.91,37.91,0,0,0,3.233-8.455,38.325,38.325,0,0,0,1.139-9.295,37.912,37.912,0,0,0-2.993-14.841,38.03,38.03,0,0,0-8.169-12.12,37.98,37.98,0,0,0-12.114-8.172,37.851,37.851,0,0,0-14.831-3c-.465,0-.935.009-1.4.026l-2.191.079-1.076-1.91a50.673,50.673,0,0,0-18.134-18.595,50.087,50.087,0,0,0-12.181-5.234,50.473,50.473,0,0,0-13.6-1.856,50.132,50.132,0,0,0-27.8,8.363,50.616,50.616,0,0,0-10.655,9.48,50.407,50.407,0,0,0-7.613,12.135l-.769,1.734-1.865.346a37.738,37.738,0,0,0-12.325,4.615,38.188,38.188,0,0,0-9.87,8.36A37.972,37.972,0,0,0-51-854.794a38,38,0,0,0-2.371,13.271,38.251,38.251,0,0,0,1.4,10.271,37.95,37.95,0,0,0,3.94,9.2,38.348,38.348,0,0,0,14.005,13.721l2.551,1.447-.9,2.791a28.3,28.3,0,0,0-1.365,8.715,28.133,28.133,0,0,0,2.222,11.018,28.228,28.228,0,0,0,6.066,9,28.2,28.2,0,0,0,8.994,6.068,28.1,28.1,0,0,0,11.012,2.223,28.074,28.074,0,0,0,16.589-5.374l2.654-1.926,2.165,2.464a46.38,46.38,0,0,0,7.016,6.49,46.1,46.1,0,0,0,8.249,4.925,45.741,45.741,0,0,0,9.245,3.126,46.274,46.274,0,0,0,10.019,1.094m0,3.6a49.427,49.427,0,0,1-37.234-16.859,31.738,31.738,0,0,1-18.7,6.06,31.9,31.9,0,0,1-31.894-31.909A31.914,31.914,0,0,1-35.8-805.2,41.718,41.718,0,0,1-56.97-841.523a41.734,41.734,0,0,1,34.055-41.026,53.987,53.987,0,0,1,49.36-32.118A53.95,53.95,0,0,1,73.5-887.149q.76-.027,1.528-.028a41.717,41.717,0,0,1,41.707,41.728A41.679,41.679,0,0,1,99.2-811.442a49.892,49.892,0,0,1,.85,9.193A49.57,49.57,0,0,1,50.488-752.668Z" fill="#fe9247"/>
      </g>
      <g id="あこがれの_クルマに_乗りたい_" data-name="あこがれの クルマに 乗りたい " style="isolation: isolate">
        <text id="あこがれの" transform="translate(-15.57 -848.068)" fill="#fe9247" font-size="20" font-family="HiraginoSans-W5, Hiragino Sans" letter-spacing="-0.03em" style="isolation: isolate"><tspan x="0" y="0">あこがれの</tspan></text>
        <text id="クルマに" transform="translate(-15.57 -821.068)" fill="#fe9247" font-size="20" font-family="HiraginoSans-W5, Hiragino Sans" letter-spacing="-0.03em" style="isolation: isolate"><tspan x="0" y="0">クルマに</tspan></text>
        <text id="乗りたい_" data-name="乗りたい！" transform="translate(-15.57 -794.068)" fill="#fe9247" font-size="20" font-family="HiraginoSans-W5, Hiragino Sans" letter-spacing="-0.03em" style="isolation: isolate"><tspan x="0" y="0">乗りたい！</tspan></text>
      </g>
      <g id="楕円形_6" data-name="楕円形 6">
        <ellipse id="楕円形_1059" data-name="楕円形 1059" cx="9.45" cy="9.9" rx="9.45" ry="9.9" transform="translate(87.03 -757.168)" fill="#fff8db"/>
        <ellipse id="楕円形_1060" data-name="楕円形 1060" cx="7.65" cy="8.1" rx="7.65" ry="8.1" transform="translate(88.83 -755.368)" fill="none" stroke="#f80" stroke-width="3.6"/>
      </g>
      <g id="楕円形_7" data-name="楕円形 7">
        <circle id="楕円形_1061" data-name="楕円形 1061" cx="11.7" cy="11.7" r="11.7" transform="translate(60.03 -768.868)" fill="#fff8db"/>
        <circle id="楕円形_1062" data-name="楕円形 1062" cx="9.9" cy="9.9" r="9.9" transform="translate(61.83 -767.068)" fill="none" stroke="#f80" stroke-width="3.6"/>
      </g>
      <g id="グループ_92" data-name="グループ 92">
        <g id="グループ_787" data-name="グループ 787">
          <g id="グループ_786" data-name="グループ 786" clip-path="url(#clip-path)">
            <g id="グループ_91" data-name="グループ 91">
              <path id="パス_3358" data-name="パス 3358" d="M181.995-825.831c-.142.735-20.06-14.983-31.491-5.637a45.153,45.153,0,0,0-19.1,5.594c-9.885,5.744-17.8,21.216-14.264,37.871-6.652.853-8.439,11.88-3.388,17.813-1.767-1.785-6.12,5.539-2.97,8.55,4.242,4.05,6.283.81,6.356,1.378.239,1.884,3.976,11.275,4.719,14.161-5.58-1.485-24.575,17.587-22.795,27.823.157.9-1.314,4.9,5.934,13.946-2.819.3-7.638,2.321-8.233,2.6C82-694.911,71.554-675.492,72.212-672.987H221.029a37.147,37.147,0,0,0-4.92-11.48,36.218,36.218,0,0,0-8.8-9,28.062,28.062,0,0,0-7.237-4.3L185.679-702.8a2.33,2.33,0,0,1-1.429-2.97c.021-.061.045-.121.071-.18a11.456,11.456,0,0,1-1.5-.837c-.167.255-.944-1.727-1.123-1.478-.418.581,12.391-25.96,12.017-25.2-.334.678,3.24-21.459-1.53-20.255a105.555,105.555,0,0,1,.494-15.59c.215-1.476-2.52-6.807-2.52-6.807,1.484-7.879,4.549-17.82,3.586-26.146-1.3-11.211-7.592-18.821-11.745-23.568" fill="#fff"/>
              <path id="パス_3359" data-name="パス 3359" d="M152.41-686.928a1.61,1.61,0,0,1-.09-.286,22.16,22.16,0,0,1-.6-2.193,56.034,56.034,0,0,1-1.4-7.958c-6.422.376-12.742.355-18.914-1.17a21.589,21.589,0,0,1,1.691,6.3,22.826,22.826,0,0,1-8.046,19.242h28.475l-1.018-12.7c-.034-.412-.074-.824-.1-1.236" fill="#fcd21c"/>
              <path id="パス_3360" data-name="パス 3360" d="M150.858-763.865c-2.864-.454-3.575,3.995-.707,4.451s3.575-3.994.707-4.451" fill="#323232"/>
              <path id="パス_3361" data-name="パス 3361" d="M143.821-783.837a9.647,9.647,0,0,0-3.973-.969,15.23,15.23,0,0,0-2.936.3,2.454,2.454,0,0,0-1.53.729,2.25,2.25,0,0,0,.135,3.179l.006.005a2.193,2.193,0,0,0,1.651.587,15.609,15.609,0,0,1,2.926-.286,6.8,6.8,0,0,1,1.17.253c.157.065.316.126.469.2a2.377,2.377,0,0,0,1.745.143,2.251,2.251,0,0,0,1.448-2.833,2.251,2.251,0,0,0-1.108-1.307" fill="#323232"/>
              <path id="パス_3362" data-name="パス 3362" d="M164.766-774.63a5.635,5.635,0,0,1,1.055-.039,7.538,7.538,0,0,1,1.14.255,8.517,8.517,0,0,1,1.591.833,2.374,2.374,0,0,0,1.592.548,2.3,2.3,0,0,0,1.53-.729,2.266,2.266,0,0,0,.587-1.65,2.228,2.228,0,0,0-.728-1.53,11.257,11.257,0,0,0-3.383-1.807,7.8,7.8,0,0,0-3.645-.379,2.436,2.436,0,0,0-1.53.729,2.3,2.3,0,0,0-.587,1.651,2.275,2.275,0,0,0,.729,1.53,2.207,2.207,0,0,0,1.65.588" fill="#323232"/>
              <path id="パス_3363" data-name="パス 3363" d="M156.6-748.768a2.3,2.3,0,0,0,.669-3.115,2.277,2.277,0,0,0-3.115-.67c-.27.189-.54.37-.824.532,0,0-.167.09-.26.142s-.233.107-.26.118q-.442.181-.9.318c-.124.037-.673.155-.669.168a10.963,10.963,0,0,1-1.755.132c-.158,0-.318-.01-.476-.018l-.054-.007c-.345-.05-.686-.1-1.025-.169-.308-.064-.612-.144-.913-.234-.112-.034-.222-.071-.334-.108l-.156-.065a13.958,13.958,0,0,1-1.641-.856c-.1-.06-.427-.328-.051-.027-.119-.09-.242-.18-.36-.278a8.954,8.954,0,0,1-.676-.6c-.106-.106-.207-.216-.312-.324a.277.277,0,0,0-.033-.027v-.009c-.18-.27-.388-.525-.562-.8a2.253,2.253,0,0,0-3.116-.67,2.253,2.253,0,0,0-.67,3.115h0a12.7,12.7,0,0,0,17.5,3.46m-7.536-2.39c.036,0,.045.006,0,0" fill="#323232"/>
              <path id="パス_3364" data-name="パス 3364" d="M167.33-787.2a1.969,1.969,0,0,0,2.265-1.112,2.287,2.287,0,0,0-.913-3.1,2.312,2.312,0,0,0-.645-.235c-5.1-.983-8.952-4.619-11.735-8.83a33.553,33.553,0,0,1-5.315-15.709c-.241-2.889-4.722-2.393-4.479.5.99,11.866,8.084,26.035,20.822,28.488" fill="#323232"/>
              <path id="パス_3365" data-name="パス 3365" d="M187.012-777.335l-.037-.034c-.043-.031-.084-.057-.125-.09-.033,0,.007.05.162.123" fill="#323232"/>
              <path id="パス_3366" data-name="パス 3366" d="M191.15-758.85a2.237,2.237,0,0,0,2.6-1.235,17.09,17.09,0,0,0,1.13-7.119,14.7,14.7,0,0,0-1.7-6.614,6.663,6.663,0,0,0-1.195-1.5,46.238,46.238,0,0,0,4.073-16.512,50.267,50.267,0,0,0-2.132-19.647c-3.877-11.525-14.591-20.16-26.049-23.49-6.177-1.794-12.96-1.933-18.9.773a2.287,2.287,0,0,0-1.155,3.021l.026.055a1.974,1.974,0,0,0,2.5,1.234,1.939,1.939,0,0,0,.259-.109c9.72-4.431,21.286-.084,29.1,6.248a30.6,30.6,0,0,1,9.494,12.474,42.568,42.568,0,0,1,2.483,17.357,44.031,44.031,0,0,1-3.764,16.63,9.506,9.506,0,0,0-2.286-.09,25.01,25.01,0,0,0-.36-5.814,2.709,2.709,0,0,0-.491-1.162,2.026,2.026,0,0,0-1.218-1.357c-8.759-3.812-13.819-13.1-15.372-22.042a2.308,2.308,0,0,0-2.491-1.989,2.276,2.276,0,0,0-1.989,2.491,38.111,38.111,0,0,0,8.905,19.021A26.931,26.931,0,0,0,180.9-782a22.281,22.281,0,0,1,.3,3.954c-.029.829-.072,1.657-.116,2.486a2.435,2.435,0,0,0,.4,1.677,2.156,2.156,0,0,0,.235.261,2.274,2.274,0,0,0,2.772,1.021c.108-.041.217-.075.328-.107h.01c-.045.007-.08.015-.135.024.066-.011.133-.026.2-.041a.451.451,0,0,0-.063.017c.4-.075.388-.081.263-.06.037-.008.074-.017.112-.023a8.772,8.772,0,0,1,1.273-.14h.224c.254.025.505.051.755.1.1.019.2.045.295.069.24.1.466.208.7.32l.011.008c.115.09.233.18.344.276a.783.783,0,0,1,.069.071c.018.005.047.023.09.081.007.01.015.017.02.026a.692.692,0,0,0,.1.09c-.034-.021-.047-.035-.073-.052.041.052.081.1.121.154.1.134.175.3.284.425l.01.007c.017.041.035.083.044.107a7.877,7.877,0,0,1,.423,1.143c.033.108.062.216.09.325.047.234.1.466.144.7.09.477.154.959.2,1.44.055.556.077,1.113.08,1.673v.1c-.006.1-.017.31-.019.341-.019.276-.044.553-.078.828a14.468,14.468,0,0,1-.27,1.517c-.032.13-.071.26-.1.392v.017c-.1.277-.193.554-.3.828a2.51,2.51,0,0,0-.007,1.8Z" fill="#323232"/>
              <path id="パス_3367" data-name="パス 3367" d="M132.1-730.233c-.657,5.509-2.541,10.84-6.409,14.962a2.27,2.27,0,0,1-3.005.148,1.707,1.707,0,0,1-.18-.148,2.3,2.3,0,0,1,0-3.186c.239-.255.472-.512.7-.778.1-.12.2-.24.295-.36.13-.161-.061.1.143-.187.36-.5.71-1.017,1.03-1.55q.512-.857.94-1.762a11.757,11.757,0,0,0,.6-1.448A27.541,27.541,0,0,0,127.8-732.5a2.589,2.589,0,0,1,.256-.963Z" fill="#323232"/>
              <path id="パス_3368" data-name="パス 3368" d="M191.176-764.738a5.828,5.828,0,0,1,1.27,1.572c1.124,2.063,1.11,4.619.963,7.02a2.045,2.045,0,0,1,1.254.381c2.992,2.019,2.25,6.042,2.115,9.146-.173,4.115.612,8.01-.526,12.088-.879,3.15-2.672,6.108-3.931,9.131-.657,1.575-1.3,3.169-2.086,4.686-.742,1.425-1.71,2.717-2.471,4.134-1.749,3.248-2.923,6.712-4.943,9.8-.167.255-.328.51-.506.759-1.794,2.49-3.853,4.82-4.448,7.926a27.943,27.943,0,0,0,.212,8.574c.383,3.019.963,6.016,1.6,8.989.545,2.528,1.161,5.044,1.819,7.549h-4.655c-.675-2.649-1.3-5.31-1.851-7.982-1.141-5.6-2.468-11.773-1.614-17.5a17.94,17.94,0,0,1,3.727-8.061,49.141,49.141,0,0,0,5.324-9.368c1.387-3.06,3.36-5.76,4.731-8.813,1.289-2.867,2.43-5.773,3.825-8.592,1.721-3.477,1.559-7.11,1.288-10.853-.008-.111-.005-.221-.011-.332q-.819,5.66-2.089,11.237c-.641,2.83-4.985,1.625-4.346-1.2a126.123,126.123,0,0,0,2.641-15.84c.24-2.51.409-5.035.438-7.56.007-.615-.055-4.7-1.6-3.722-.02.012-.039.018-.06.029a212.8,212.8,0,0,1-2.88,27.565c-.491,2.856-4.833,1.638-4.345-1.2a208.015,208.015,0,0,0,2.451-22.2c.124-1.946.26-3.893.349-5.84.046-1,.19-3.215-1.485-2.311-.79.426-1.146,1.692-1.343,2.53-.237,1.012-.45,2.016-.72,3.015,1.232,2.286.81,5.647.442,8.141-.737,4.993-1.6,9.967-2.361,14.956-.436,2.863-4.778,1.639-4.346-1.2.776-5.092,1.673-10.17,2.407-15.266.125-.868.819-3.813-.158-4.5-1.589-1.111-2.78,3.455-3.011,4.221-1.322,4.372-1.416,8.978-2.729,13.36-1.565,5.227-4.256,10.046-6.93,14.769-2.823,4.982-5.795,10.039-7.181,15.648a37.793,37.793,0,0,0-.161,15.407c.411,2.357,1.332,4.674,1.631,7.031.219,1.731.281,3.5.419,5.236l.737,9.18h-4.509q-.509-6.351-1.019-12.7c-.034-.411-.073-.824-.1-1.236.016.039.018.061.037.106-.016-.036-.023-.08-.037-.116v-.042c-.022-.375-.121-.433-.09-.234a21.942,21.942,0,0,1-.6-2.192,56.046,56.046,0,0,1-1.4-7.959c-6.422.376-12.742.356-18.916-1.17a21.535,21.535,0,0,1,1.691,6.3,22.823,22.823,0,0,1-8.046,19.249H114.689a16.97,16.97,0,0,0,12.568-10.372,17.211,17.211,0,0,0-.469-14.58c-2.276-4.515-5.7-8.329-8.589-12.446q-.4-.579-.77-1.217c-3.636-6.355-4.1-16.758,1.656-21.789,2.176-1.9,5.373,1.274,3.186,3.186-3.514,3.075-3.33,8.953-2.318,13.12a12.831,12.831,0,0,0,1.124,2.907c1.539,2.96,4.034,5.556,5.946,8.186q.649.893,1.26,1.808c.02.007.042.007.062.014a42.965,42.965,0,0,0,4.71,1.5,32.99,32.99,0,0,0,4.41.79,77.464,77.464,0,0,0,12.625.02c0-.78-.025-1.562.012-2.34.306-6.293,2.409-12.039,5.293-17.586.647-1.243,1.327-2.471,2.017-3.69l3.181-5.648a65.372,65.372,0,0,0,3.51-7.253c1.914-4.819,2.07-9.83,3.337-14.782.977-3.825,2.949-9.81,7.83-9.309.639-2.723,1.26-5.623,3.909-7.012a5.733,5.733,0,0,1,6.184.4,5.47,5.47,0,0,1,1.728,2.915,5.115,5.115,0,0,1,2.386.382Z"/>
              <path id="パス_3369" data-name="パス 3369" d="M118.534-747.5c-.09.037-.059.237-.154.288-9.595,5.181-18.819,12.792-20.858,24.1-1.149,6.376.006,12.33,4.184,17.364.063.074.13.145.192.22-8.138,2.357-15.305,7.425-21.025,13.595a54.768,54.768,0,0,0-11.71,18.95h4.778a50.452,50.452,0,0,1,10.117-15.764c5.278-5.693,11.79-10.417,19.333-12.534a2.078,2.078,0,0,0,1.368-1.093c3.319,3.449,6.887,6.7,9.574,10.665,2.5,3.683,3.978,10.1-1.777,11.52-2.814.692-1.62,5.04,1.2,4.345.015,0,.028-.011.044-.015a9.685,9.685,0,0,0,7.283-10.561c-.458-5.682-4.578-10.188-8.315-14.148-4.154-4.4-9.848-8.673-10.993-14.951-1.023-5.609,1-11.635,4.278-16.16,3.674-5.08,9.09-8.652,14.526-11.6Z" fill="#323232"/>
              <path id="パス_3370" data-name="パス 3370" d="M155.031-730.4a27.874,27.874,0,0,1-20.841-3.562c-5.923-3.744-9.786-10.069-12.025-16.621a30.49,30.49,0,0,1-1.767-9.186c-.008-.394,0-.792,0-1.19a7.213,7.213,0,0,0,.937-2.169,2.094,2.094,0,0,0,.121-.46,7.081,7.081,0,0,0-3.586-7.219,6.409,6.409,0,0,0-2.411-.759,10.873,10.873,0,0,1-2.237-4.372,10.258,10.258,0,0,1,1.126-7.38,4.335,4.335,0,0,1,3.071-2.16,4.012,4.012,0,0,1,1.923.509c.25.121.483.3.732.408a.864.864,0,0,1,.278.208c-.056-.1-.125-.243-.221-.465.834,1.935,4.1,1.87,4.325-.464,1.137-11.708,7.574-24.06,19.022-28.478a2.1,2.1,0,0,0,1.277-2.68l-.012-.033a2.153,2.153,0,0,0-2.6-1.585,2.152,2.152,0,0,0-.3.1c-11.764,4.541-19.161,16.386-21.341,28.519a9.672,9.672,0,0,0-1.482-.348c-1.823-8.889.6-18.27,5.637-25.724,4-5.919,10.674-12.42,18.405-12.1a2.5,2.5,0,0,0,2.55-2.458,2.516,2.516,0,0,0-.043-.512,1.762,1.762,0,0,0-1.8-1.479c-9.287-.383-17.257,6-22.32,13.288-5.884,8.472-9.017,19.26-6.908,29.508-3.2,1.487-5.076,4.755-5.75,8.125a14.606,14.606,0,0,0,2.029,10.62,6,6,0,0,0-.711.527,6.951,6.951,0,0,0-.869,9.79,6.949,6.949,0,0,0,5.693,2.48,6.124,6.124,0,0,0,1.087-.131c.073.9.18,1.787.336,2.675.129.726.282,1.446.45,2.16l1.189,4.086.064.209a38.976,38.976,0,0,0,5.59,10.556c.354.617,3.744,4.14,3.744,4.14,6.461,6.67,15.75,8.906,24.632,8.19,0,0,5.291-.495,6.484-1.582s3.425-5.052,3.425-6.222a18.055,18.055,0,0,1-6.906,3.24m-37.895-33.961c-.052.161-.071.36-.117.514-.018.055-.038.117-.063.18-.107.187-.214.369-.33.551-.052.056-.1.116-.154.17s-.116.116-.18.17l-.03.023c.037-.022.055-.033.112-.063-.18.09-.338.237-.515.336-.068.037-.138.071-.205.108-.18.055-.36.109-.544.153-.239-.013-.287.019-.2.027h-.018c-.187.008-.372-.006-.559-.016-.1-.023-.208-.045-.31-.073-.078-.021-.151-.047-.225-.072a.631.631,0,0,0-.193-.107,3.176,3.176,0,0,1-.29-.148c-.046-.03-.09-.061-.136-.09-.1-.1-.21-.225-.322-.344a.637.637,0,0,0-.14-.139c-.041-.06-.082-.12-.121-.18s-.082-.142-.121-.214v-.01c-.052-.225-.075-.248-.061-.171a2.915,2.915,0,0,1-.109-.327c-.019-.073-.034-.148-.05-.221h0a4.838,4.838,0,0,1,0-.59v-.008c.066-.249.065-.29.047-.238.04-.157.09-.311.137-.466.055-.1.105-.2.163-.3.037-.061.077-.12.116-.18a.614.614,0,0,0,.18-.18,2.4,2.4,0,0,1,.2-.226c.026-.025.1-.082.151-.12.166-.1.385-.187.54-.3.079-.027.158-.054.239-.077s.319-.064.419-.09c.107-.006.213-.008.319-.006.09,0,.175.008.264.011.215.054.425.113.637.18.1.057.21.106.308.166.07.041.14.09.208.131a.208.208,0,0,0,.025.016l0,.007c.143.141.285.284.428.427.054.08.108.16.158.242.059.1.107.2.161.3.061.193.113.384.162.579a.545.545,0,0,0,.019.231c.007.056.011.112.013.168,0,.09-.008.186-.011.279" fill="#323232"/>
              <path id="パス_3371" data-name="パス 3371" d="M185.679-702.8l14.385,5.033a28.094,28.094,0,0,1,7.236,4.3,36.164,36.164,0,0,1,8.8,9,37.168,37.168,0,0,1,4.923,11.48h4.6a40.211,40.211,0,0,0-13.524-22.418c-2.824-2.311-6.131-5.015-9.588-6.27-2.692-.977-5.409-1.89-8.113-2.837l-7.528-2.634a1.922,1.922,0,0,0-2.5,1.059c-.019.046-.036.093-.051.14a2.333,2.333,0,0,0,1.18,3.08c.059.025.118.049.178.07" fill="#323232"/>
              <path id="パス_3372" data-name="パス 3372" d="M141.283-800.568a9.374,9.374,0,0,0-4.774,2.349,2.265,2.265,0,0,0,0,3.186,2.305,2.305,0,0,0,3.186,0c.025-.021.077-.076.131-.131a.684.684,0,0,0,.1-.065c.064-.044.13-.09.195-.131a8.762,8.762,0,0,1,.873-.488h0c.146-.055.3-.1.45-.15a7.091,7.091,0,0,1,.763-.164,6.888,6.888,0,0,1,.995-.006,5.979,5.979,0,0,1,.906.209l.131.047c.195.1.393.2.583.315a2.254,2.254,0,0,0,3.084-.808,2.254,2.254,0,0,0-.808-3.083,8.633,8.633,0,0,0-5.816-1.08m-1.324,5.282a.184.184,0,0,1,.09-.048.253.253,0,0,0-.09.048m.82-.477a.3.3,0,0,1,.106-.048l-.106.048" fill="#323232"/>
              <path id="パス_3373" data-name="パス 3373" d="M134.513-857.128a7.841,7.841,0,0,1,2.2,2.148c.109.167.193.344.288.516.144-.291.288-.58.46-.857a7.475,7.475,0,0,1,1.726-1.937,8.047,8.047,0,0,1-1.521-1.212,8.686,8.686,0,0,1-.636-.782,7.6,7.6,0,0,1-.783.89,7.434,7.434,0,0,1-1.739,1.235" fill="#ffe164"/>
              <path id="パス_3376" data-name="パス 3376" d="M57.12-719.189a7.857,7.857,0,0,1,2.2,2.149c.109.166.192.343.288.515.144-.29.288-.579.46-.856a7.437,7.437,0,0,1,1.725-1.937,8.046,8.046,0,0,1-1.52-1.213,8.688,8.688,0,0,1-.637-.782,7.521,7.521,0,0,1-.783.89,7.449,7.449,0,0,1-1.738,1.235" fill="#ffe164"/>
              <path id="パス_3374" data-name="パス 3374" d="M126.647-855.587c2.033.735,5.38,1.285,6.472,3.375,1.238,2.371,1.126,5.453,1.689,8.03.459,2.1,3.95,2.2,4.345,0,.483-2.685.674-5.645,1.819-8.154,1.135-2.491,3.933-2.654,6.355-2.956a2.326,2.326,0,0,0,2.25-2.25,2.291,2.291,0,0,0-2.25-2.25c-2.142-.09-4.9-.18-6.47-1.858a7.782,7.782,0,0,1-1.669-5.17c.007-.107.017-.216.023-.322a2.274,2.274,0,0,0-.047-.621v-1.455c0-2.9-4.507-2.9-4.506,0,0,.7.017,1.4.048,2.111-.114,1.838-.171,4.224-1.636,5.564s-3.979,1.314-5.824,1.526a2.265,2.265,0,0,0-2.187,2.341,2.266,2.266,0,0,0,1.588,2.085m11.023-2.88a8.079,8.079,0,0,0,1.521,1.212,7.509,7.509,0,0,0-1.726,1.937c-.17.277-.315.567-.46.857-.1-.172-.18-.35-.288-.516a7.815,7.815,0,0,0-2.2-2.148,7.459,7.459,0,0,0,1.74-1.235,7.6,7.6,0,0,0,.782-.89,8.675,8.675,0,0,0,.636.782" fill="#323232"/>
              <path id="パス_3375" data-name="パス 3375" d="M49.254-717.649c2.033.736,5.379,1.285,6.471,3.375,1.238,2.372,1.126,5.453,1.689,8.03.46,2.1,3.95,2.2,4.345,0,.483-2.685.674-5.645,1.819-8.154,1.136-2.49,3.933-2.653,6.355-2.956a2.325,2.325,0,0,0,2.25-2.25,2.292,2.292,0,0,0-2.25-2.25c-2.141-.09-4.895-.18-6.469-1.857a7.785,7.785,0,0,1-1.67-5.171c.007-.107.017-.216.024-.322a2.314,2.314,0,0,0-.047-.621v-1.454c0-2.9-4.507-2.905-4.507,0,0,.7.018,1.4.048,2.11-.114,1.838-.171,4.225-1.636,5.565s-3.979,1.314-5.824,1.525a2.267,2.267,0,0,0-2.187,2.342,2.267,2.267,0,0,0,1.589,2.085m11.023-2.88a8.119,8.119,0,0,0,1.52,1.212,7.506,7.506,0,0,0-1.725,1.937c-.171.277-.315.567-.46.857-.1-.172-.18-.351-.288-.516a7.841,7.841,0,0,0-2.2-2.148,7.536,7.536,0,0,0,1.739-1.235,7.6,7.6,0,0,0,.782-.89,8.836,8.836,0,0,0,.637.782"/>
            </g>
          </g>
        </g>
      </g>
    </g>
  </g>
</svg>
