<svg xmlns="http://www.w3.org/2000/svg" xmlns:xlink="http://www.w3.org/1999/xlink" width="880" height="290" viewBox="0 0 880 290">
  <defs>
    <clipPath id="clip-path">
      <rect id="長方形_323" data-name="長方形 323" width="163.319" height="163.708" transform="translate(-442.696 -827.222)" fill="none"/>
    </clipPath>
  </defs>
  <g id="グループ_3149" data-name="グループ 3149" transform="translate(-160 -3179.996)">
    <rect id="長方形_301" data-name="長方形 301" width="880" height="290" transform="translate(160 3179.996)" fill="#f5f6f7"/>
    <path id="パス_1275" data-name="パス 1275" d="M-455.4-755.921a23.124,23.124,0,0,1-8.287-1.523,23.133,23.133,0,0,1-6.968-4.2,23.2,23.2,0,0,1-7.715-14.138l-.209-1.443-1.454-.1c-2.893-.191-5.661-.288-8.228-.288-11.4,0-18.54,1.9-26.1,3.909a140.784,140.784,0,0,1-21.177,4.319,50.2,50.2,0,0,1-6.012.374h0c-10.553,0-19.4-3.686-25.589-10.66a32.524,32.524,0,0,1-4.372-6.321,36.182,36.182,0,0,1-2.883-7.264,40.232,40.232,0,0,1-1.358-7.908,43.373,43.373,0,0,1,.205-8.237c1-8.324,3.784-14.722,6.242-20.367,4.191-9.627,7.811-17.941-.126-30.152A45.663,45.663,0,0,1-576-875.018a30.841,30.841,0,0,1-.729-6.875,23.825,23.825,0,0,1,.851-6.152A18.842,18.842,0,0,1-565.6-900.236a33.826,33.826,0,0,1,14.929-3.492c6.358,0,12.477,1.7,18.955,3.5l.9.249c7.658,2.121,14.658,3.876,22.792,3.876a54.28,54.28,0,0,0,5.777-.308c9.551-1.023,19.817-3.882,30.686-6.91,14.988-4.174,30.487-8.491,45.824-8.491a71.709,71.709,0,0,1,10.715.777c7.788,1.18,14.271,3.03,19.268,5.5a25.277,25.277,0,0,1,10.225,8.455,19.032,19.032,0,0,1,3.012,8.852,30.98,30.98,0,0,1-1.094,10.576c-3.612,13.725-1.161,20.911,2.23,30.858,1.021,2.993,2.177,6.385,3.257,10.271a49.289,49.289,0,0,1,1.576,13.609,63.9,63.9,0,0,1-2.151,15.47,52.1,52.1,0,0,1-6.273,14.555,36.075,36.075,0,0,1-10.667,11.006,60.848,60.848,0,0,1-8.7,4.7,60.717,60.717,0,0,1-8.955,3.109,72.73,72.73,0,0,1-18.672,2.255h-.136l-1.231,0-.448,1.146a23.14,23.14,0,0,1-3.421,5.949,23.286,23.286,0,0,1-4.971,4.669A23.073,23.073,0,0,1-455.4-755.921Z" transform="translate(1262.673 4133.51)" fill="#fdf6cb"/>
    <text id="現在のローン残額_2_040_150円" data-name="現在のローン残額：2,040,150円" transform="translate(207 3432.996)" stroke="rgba(0,0,0,0)" stroke-width="0.857" font-size="26" font-family="HiraginoSans-W6, Hiragino Sans"><tspan x="0" y="0">現在のローン残額：</tspan><tspan y="0" font-size="30" font-family="NotoSans-ExtraBold, Noto Sans" font-weight="800">2,040,150</tspan><tspan y="0" font-family="HiraginoSans-W8, Hiragino Sans">円</tspan></text>
    <text id="月々のお支払い金額_" data-name="月々のお支払い金額：" transform="translate(207 3384.996)" stroke="rgba(0,0,0,0)" stroke-width="0.857" font-size="26" font-family="HiraginoSans-W6, Hiragino Sans"><tspan x="0" y="0">月々のお支払い金額：</tspan></text>
    <text id="_56_671円" data-name="56,671円" transform="translate(470 3385.996)" fill="#eb6100" stroke="rgba(0,0,0,0)" stroke-width="0.857" font-size="38" font-family="NotoSans-ExtraBold, Noto Sans" font-weight="800"><tspan x="0" y="0">56,671</tspan><tspan y="0" font-size="26" font-family="HiraginoSans-W8, Hiragino Sans" font-weight="400">円</tspan></text>
    <line id="線_123" data-name="線 123" x2="434" transform="translate(190 3327.996)" fill="none" stroke="#000" stroke-width="1"/>
    <text id="借入金額_290万円_借入期間_3年_5年_支払総額_340万円" data-name="借入金額：290万円
借入期間：3年/5年
支払総額：340万円" transform="translate(207 3229.996)" stroke="rgba(0,0,0,0)" stroke-width="0.857" font-size="18" font-family="HiraginoSans-W5, Hiragino Sans" letter-spacing="-0.03em"><tspan x="0" y="0">借入金額：</tspan><tspan y="0" font-family="NotoSans-SemiBold, Noto Sans" font-weight="600">290</tspan><tspan y="0">万円</tspan><tspan y="0" font-family="NotoSans-SemiBold, Noto Sans" font-weight="600"></tspan><tspan x="0" y="36">借入期間：</tspan><tspan y="36" font-family="NotoSans-SemiBold, Noto Sans" font-weight="600">3</tspan><tspan y="36">年</tspan><tspan y="36" font-family="NotoSans-SemiBold, Noto Sans" font-weight="600">/5</tspan><tspan y="36">年</tspan><tspan y="36" font-family="NotoSans-SemiBold, Noto Sans" font-weight="600"></tspan><tspan x="0" y="72">支払総額：</tspan><tspan y="72" font-family="NotoSans-SemiBold, Noto Sans" font-weight="600">340</tspan><tspan y="72">万円</tspan></text>
    <text id="金利_6.9_ボーナス月増額_なし_" data-name="金利：6.9%
ボーナス月増額：なし
" transform="translate(409 3229.996)" stroke="rgba(0,0,0,0)" stroke-width="0.857" font-size="18" font-family="HiraginoSans-W5, Hiragino Sans" letter-spacing="-0.03em"><tspan x="0" y="0">金利：</tspan><tspan y="0" font-family="NotoSans-SemiBold, Noto Sans" font-weight="600">6.9%</tspan><tspan x="0" y="36">ボーナス月増額：なし</tspan><tspan y="36" font-family="NotoSans-SemiBold, Noto Sans" font-weight="600"></tspan><tspan font-family="NotoSans-SemiBold, Noto Sans" font-weight="600"><tspan x="0" y="72"></tspan></tspan></text>
    <g id="グループ_72" data-name="グループ 72" transform="translate(1262.673 4133.51)">
      <g id="合体_3" data-name="合体 3">
        <path id="パス_1272" data-name="パス 1272" d="M-455.4-757.721a21.28,21.28,0,0,0,12.2-3.816,21.52,21.52,0,0,0,4.588-4.309,21.356,21.356,0,0,0,3.156-5.487l.9-2.291,2.594,0a70.971,70.971,0,0,0,18.215-2.2,58.994,58.994,0,0,0,8.69-3.017,59.051,59.051,0,0,0,8.438-4.561,34.306,34.306,0,0,0,10.131-10.465,50.337,50.337,0,0,0,6.052-14.054,62.118,62.118,0,0,0,2.089-15.028,47.416,47.416,0,0,0-1.511-13.1c-1.065-3.836-2.164-7.057-3.225-10.172-3.362-9.86-6.018-17.647-2.268-31.9a29.173,29.173,0,0,0,1.042-9.956,17.03,17.03,0,0,0-2.723-8.026c-4.3-6.547-13.812-10.976-28.259-13.165a70.106,70.106,0,0,0-10.445-.756c-15.091,0-30.469,4.283-45.341,8.425-10.943,3.048-21.278,5.927-30.977,6.966a56.3,56.3,0,0,1-5.969.318c-8.36,0-15.486-1.785-23.272-3.941l-.9-.25c-6.357-1.764-12.361-3.43-18.474-3.43a30.971,30.971,0,0,0-6.837.742,33.668,33.668,0,0,0-7.313,2.573,17.61,17.61,0,0,0-5.965,4.571,17.334,17.334,0,0,0-3.362,6.483,22.05,22.05,0,0,0-.785,5.688,29.08,29.08,0,0,0,.689,6.472,43.893,43.893,0,0,0,6.316,14.508c8.465,13.023,4.483,22.168.267,31.851-2.408,5.532-5.137,11.8-6.1,19.864a40.24,40.24,0,0,0,1.1,15.447,34.363,34.363,0,0,0,2.739,6.9,30.683,30.683,0,0,0,4.129,5.971,28.652,28.652,0,0,0,10.048,7.287,35.307,35.307,0,0,0,14.194,2.768h0a48.438,48.438,0,0,0,5.795-.361,139.138,139.138,0,0,0,20.931-4.272c7.676-2.041,14.925-3.969,26.562-3.969,2.6,0,5.413.1,8.345.291l2.909.192.417,2.885a21.4,21.4,0,0,0,7.118,13.04,21.324,21.324,0,0,0,6.427,3.869,21.311,21.311,0,0,0,7.644,1.4m0,3.6a25.018,25.018,0,0,1-24.751-21.4c-26.519-1.746-31.294,5.036-55.168,7.931a51.841,51.841,0,0,1-6.229.387c-25.918,0-38.332-21.2-35.788-42.4,2.74-22.835,18.268-31.056,6.394-49.324s-9.408-36.222,4.567-42.93c13.356-6.411,24.213-3.135,36.042.141,8.395,2.325,17.28,4.65,27.9,3.514,22.486-2.41,49.918-15.412,76.7-15.412a73.15,73.15,0,0,1,10.984.8c30.143,4.567,37.45,18.268,32.882,35.622s.914,23.749,5.481,40.19,0,44.756-18.268,56.63C-406.448-772.712-419.03-770-432.1-770.021A25.019,25.019,0,0,1-455.4-754.121Z" fill="#fe9247"/>
      </g>
      <g id="グループ_71" data-name="グループ 71">
        <g id="グループ_785" data-name="グループ 785">
          <g id="グループ_784" data-name="グループ 784" clip-path="url(#clip-path)">
            <g id="グループ_70" data-name="グループ 70">
              <path id="パス_3306" data-name="パス 3306" d="M-356.875-733.784c.011.007.019.007.028.014h.006a.2.2,0,0,1-.034-.014" fill="#ffe164"/>
              <path id="パス_3307" data-name="パス 3307" d="M-356.783-733.768h-.058a.7.7,0,0,0,.205.059c.035-.013.007-.045-.147-.055" fill="#ffe164"/>
              <path id="パス_3308" data-name="パス 3308" d="M-360.836-732.621l.119-.09a.471.471,0,0,0-.119.09" fill="#ffe164"/>
              <path id="パス_3309" data-name="パス 3309" d="M-290.722-797.891l0-.006c.014-.024.028-.046.043-.069s.034-.04.039-.033-.036.054-.09.108" fill="#ffe164"/>
              <path id="パス_3310" data-name="パス 3310" d="M-290.458-798.342l.006-.014h0l-.009.018" fill="#ffe164"/>
              <path id="パス_3311" data-name="パス 3311" d="M-290.742-797.875l.017-.017c-.082.137-.061.09-.017.017" fill="#ffe164"/>
              <path id="パス_3312" data-name="パス 3312" d="M-293.022-820.01a.213.213,0,0,0,.007.044l-.011-.027v-.017" fill="#ffe164"/>
              <path id="パス_3313" data-name="パス 3313" d="M-350.923-803.959c.569,2-2.575,3.563-3.953,1.517-2.757-4.089-8.245-.947-10.53,2.062-1.724,2.273-2.514,5.22-3.372,7.892-.68,2.114-1.35,4.23-2.064,6.334-.98,2.9-2.047,5.787-3.286,8.592.059-.009.118-.022.18-.032,2.306-.375,4.618-.712,6.93-1.046a2.489,2.489,0,0,1,1.636.214,2.122,2.122,0,0,1,.762,2.9h0a2.121,2.121,0,0,1-1.269.977l-.95.137q-2.084.3-4.167.622c-1.112.171-2.244.308-3.342.558a2.2,2.2,0,0,1-1.721-.3,32.491,32.491,0,0,1-8.261,10.342c-3.191,2.508-7.754,4.982-11.982,4.41a11.041,11.041,0,0,0,1.471,7.9c1.549,2.574,3.969,3.341,6.786,3.87a2.192,2.192,0,0,1,1.559,2.048,37.871,37.871,0,0,0,5.434,15.84c6.7,10.539,19.827,16.276,31.817,11.4,6.638-2.7,11.245-8.112,14.368-14.4,2.169-4.373,2.914-8.893,3.684-13.641a2.047,2.047,0,0,1,1.484-1.482c3.8-.639,7.619-2.083,8.864-6.023.7-2.226,1.053-4.956.105-7.168A3.619,3.619,0,0,0-321.992-762c-.259-.036-.517-.069-.771-.09a14.66,14.66,0,0,1-1.817-.3,3.6,3.6,0,0,0-.919.419c-1.705,1.11-3.309-.623-3.1-2.2a11.866,11.866,0,0,1-1.675-1.475,31.627,31.627,0,0,1-5.3-8.565,104.045,104.045,0,0,1-5.1-13.963c-.712-2.361-1.334-4.759-2.115-7.1-.523-1.573-1.53-3.675-3.561-2.79-2.456,1.069-4.59-2.494-2.217-3.627a5.924,5.924,0,0,0-2.352-2.265M-370.685-763.8c-2.737,0-2.733-4.247,0-4.247s2.733,4.247,0,4.247m13.539,13.709c2.737,0,2.733,4.247,0,4.247s-2.733-4.247,0-4.247m6.5,18.107a2.127,2.127,0,0,1-3,0,9.48,9.48,0,0,0-.866-.892c-.1-.062-.189-.129-.287-.188a6.269,6.269,0,0,0-.563-.31l-.071-.035c.211.109-.09-.035-.146-.053-.208-.074-.421-.137-.63-.191-.09-.023-.27-.035-.419-.059a.306.306,0,0,1-.211-.059c-.09-.007-.18-.016-.277-.019q-.345-.015-.691,0c-.118.005-.235.017-.352.026-.45.147-.924.232-1.376.376-.1.05-.209.1-.311.153a7.689,7.689,0,0,0-.725.431c-.013.008-.073.043-.13.08l-.013.011c-.063.051-.125.1-.186.156-.21.18-.408.371-.6.569a2.125,2.125,0,0,1-3-.054,2.125,2.125,0,0,1,0-2.949,9.849,9.849,0,0,1,7.387-3.045,8.727,8.727,0,0,1,6.48,3.049,2.189,2.189,0,0,1,0,3m6.023-31.816c-2.737,0-2.732-4.247,0-4.247s2.734,4.247,0,4.247m-3.96-15.91c2.823.81,5.641,1.722,8.5,2.39a2.126,2.126,0,0,1,1.426,2.646,2.125,2.125,0,0,1-2.556,1.45c-.551-.129-1.1-.29-1.643-.441-2.647-.736-5.288-1.5-7.927-2.259a2.123,2.123,0,0,1-1.382-2.667,2.125,2.125,0,0,1,2.507-1.426l1.069.308" fill="#fff"/>
              <path id="パス_3314" data-name="パス 3314" d="M-328.619-786.6a38.948,38.948,0,0,0,9.162,17.34c.909-3.625.468-7.956.1-11.23a72.485,72.485,0,0,0-4.476-17.46,47.925,47.925,0,0,0-3.784-8.438,18.38,18.38,0,0,0-5.524-5.415,22.747,22.747,0,0,0-7.279-3.217c-1.62-.383-3.06-.385-4.522-1.208l-4.163-2.35c-1.466-.833-2.532-2.143-4.043-2.946-4.024-2.148-8.952-1.64-13.177-.431-10.285,2.944-18.265,10.219-23.59,19.329a73.93,73.93,0,0,0-6.937,16.216c-1.69,5.692-2.112,11.495,1.487,16.546a1.976,1.976,0,0,1,.367.929,18.4,18.4,0,0,0,3.431-4.435c2.763-4.76,4.32-10.14,5.823-15.4.752-2.628,4.848-1.5,4.1,1.128-2.326,8.136-6.016,21.516-14.927,24.453,2.706.794,5.781-.749,8.041-2.183a22.12,22.12,0,0,0,5.424-5.023c5.986-7.578,8.065-17.308,11.225-26.208,1.685-4.747,4.258-8.88,9.01-11,4.386-1.954,8.921-1.05,11.665,3.019a2.175,2.175,0,0,1,.286.63,5.924,5.924,0,0,1,2.351,2.266c.027-.013.046-.03.074-.042a6.517,6.517,0,0,1,6.55.3c1.954,1.35,2.823,3.607,3.488,5.794,1.676,5.505,3.163,11.07,5.31,16.418,1.542,3.836,3.4,8.354,6.518,11.2a6.09,6.09,0,0,0,2.181,1.275,7.2,7.2,0,0,1,1.567,0,43.263,43.263,0,0,1-9.832-18.735c-.63-2.661,3.464-3.786,4.1-1.128" fill="#fff"/>
              <path id="パス_3315" data-name="パス 3315" d="M-293.022-820.01a.978.978,0,0,1,0-.153c.025-.1.069-.146,0,.153" fill="#ffe164"/>
              <path id="パス_3316" data-name="パス 3316" d="M-381.556-719.043a2.147,2.147,0,0,1,2.124,2.124,51.26,51.26,0,0,1-1.058,9.74,1.639,1.639,0,0,1-.158.45l24.066,6.578,3.074-.99,17.543-5.63a53.068,53.068,0,0,1-1.1-7.621c-.192-2.137-.336-4.278-.478-6.42a28.5,28.5,0,0,1-34.717,5.6,32.177,32.177,0,0,1-9.481-7.7l-.207,3.924a2.289,2.289,0,0,1,.394-.054" fill="#fff"/>
              <path id="パス_3317" data-name="パス 3317" d="M-296.739-684.087c-8.391-6.08-18.436-8.57-27.532-13.219a1.781,1.781,0,0,1-2.022-1.039q-1.524-3.048-3.047-6.094l-1.946.624-23.13,7.422v4.444l.054-.018L-335-698.616c2.6-.891,3.7,3.214,1.129,4.1l-2.741.942-19.363,6.648a1.9,1.9,0,0,1-2.446-1.125,1.919,1.919,0,0,1-.116-.585,2.155,2.155,0,0,1-.125-.72v-6.96l-2.61-.713-27.208-7.437q-.45,1.362-.906,2.724c-.073.221-.144.461-.218.7,4.114,1.447,8.352,2.594,12.539,3.742,3.464.95,6.937,1.866,10.423,2.722,2.657.653,1.526,4.748-1.128,4.1-3.488-.857-6.961-1.772-10.423-2.722a151.089,151.089,0,0,1-14.953-4.655L-396.415-696A27.139,27.139,0,0,1-401.9-694a161.084,161.084,0,0,0-17.992,6.424,22.714,22.714,0,0,0-6.053,3.537,32.179,32.179,0,0,0-5.13,6.222c-2.888,4.353-5.19,9.039-7.681,13.621-.005.009-.013.017-.018.026h155.691a2.3,2.3,0,0,1-.27-.36c-3.966-6.679-6.861-14.832-13.383-19.558m-59,9.773c-2.737,0-2.732-4.247,0-4.247s2.734,4.247,0,4.247" fill="#fcd21c"/>
              <path id="パス_3318" data-name="パス 3318" d="M-344.624-768.049c-2.733,0-2.737,4.247,0,4.247s2.737-4.247,0-4.247" fill="#323232"/>
              <path id="パス_3319" data-name="パス 3319" d="M-357.146-745.846c2.732,0,2.736-4.247,0-4.247s-2.737,4.247,0,4.247" fill="#323232"/>
              <path id="パス_3320" data-name="パス 3320" d="M-357.123-738.038a9.851,9.851,0,0,0-7.388,3.05,2.123,2.123,0,0,0,.055,3,2.123,2.123,0,0,0,2.949,0c.193-.2.39-.391.6-.571.061-.053.122-.1.186-.154l.014-.011c.057-.037.116-.072.129-.081a7.574,7.574,0,0,1,.726-.43c.1-.054.206-.1.31-.153.45-.146.929-.232,1.376-.377.117-.009.234-.021.352-.027.231-.011.461-.011.692,0,.09.005.185.013.276.019a.146.146,0,0,1-.028-.014l.036.015h.057c.154.011.18.042.147.055.152.024.324.036.419.059.214.055.426.118.63.192.052.018.36.161.146.053l.071.034a5.711,5.711,0,0,1,.563.31c.1.06.192.127.288.189a9.581,9.581,0,0,1,.865.892,2.128,2.128,0,0,0,3,0,2.187,2.187,0,0,0,0-3,8.728,8.728,0,0,0-6.48-3.05m-3.712,5.416c0-.014.056-.054.119-.09l-.119.09" fill="#323232"/>
              <path id="パス_3321" data-name="パス 3321" d="M-356.847-733.772a.307.307,0,0,0,.211.059.7.7,0,0,1-.205-.059h-.006" fill="#323232"/>
              <path id="パス_3322" data-name="パス 3322" d="M-370.688-768.049c-2.733,0-2.737,4.247,0,4.247s2.737-4.247,0-4.247" fill="#323232"/>
              <path id="パス_3323" data-name="パス 3323" d="M-279.687-666.673c-4.25-7.159-7.394-15.341-14.22-20.569-8.631-6.608-19.291-9.051-28.766-14.008a2.324,2.324,0,0,0-.415-.167q-1.666-3.336-3.335-6.67a2.136,2.136,0,0,0-2.4-.976l-3.09.99a48.714,48.714,0,0,1-.936-6.638c-.293-3.355-.471-6.717-.715-10.075a2.51,2.51,0,0,0-.189-.787c.2-.309.425-.6.618-.918A37.652,37.652,0,0,0-328.17-738.3c.349-1.7.613-3.414.881-5.13a19.633,19.633,0,0,0,5.728-2.25c3.069-1.862,4.669-4.981,5.3-8.443.553-3.06.45-6.514-1.239-9.2a11.28,11.28,0,0,0,.825-1.486,23.274,23.274,0,0,0,1.9-9.836,66.28,66.28,0,0,0-4.112-22.132c-1.4-4.046-2.914-8.592-5.31-12.168a24.468,24.468,0,0,0-8.6-7.631,27.99,27.99,0,0,0-4.8-2.08,20.214,20.214,0,0,0-2.88-.72c-.343-.059-.691-.105-1.035-.151-.194-.026-.388-.044-.583-.064-.462-.319-1.71-.9-1.879-.99-1.048-.593-2.148-1.139-3.162-1.786-.8-.512-1.445-1.26-2.359-1.9a15.892,15.892,0,0,0-4.632-2.2A22.29,22.29,0,0,0-364.2-826.8a40.8,40.8,0,0,0-18.51,8.842c-7.4,6.062-12.343,14.734-15.792,23.52-3.361,8.556-6.373,18.5-.521,26.713a2.236,2.236,0,0,0,.712.653,7.087,7.087,0,0,1-3.214.162,2.184,2.184,0,0,0-2.61,1.484,2.141,2.141,0,0,0,1.482,2.61,13.225,13.225,0,0,0,3.81.127,2.013,2.013,0,0,0-.189.27,2.2,2.2,0,0,0-.93,1.08c-1.66,3.981-.72,9.005,1.462,12.607a12.123,12.123,0,0,0,8.018,5.532,42.329,42.329,0,0,0,4.664,14.38,36.364,36.364,0,0,0,4.084,5.906l.171-3.249-.171,3.249a32.163,32.163,0,0,0,9.48,7.7,28.5,28.5,0,0,0,34.718-5.6c.14,2.141.284,4.283.477,6.419a53.1,53.1,0,0,0,1.1,7.622l-17.545,5.632-3.072.99-24.066-6.577a1.686,1.686,0,0,0,.158-.45,51.375,51.375,0,0,0,1.057-9.743,2.15,2.15,0,0,0-2.124-2.124,2.381,2.381,0,0,0-.394.054l-.167,3.159.167-3.159a2.127,2.127,0,0,0-1.729,2.07c0,.871-.051,1.744-.113,2.61q-.1,1.413-.276,2.819c-.016.128-.024.258-.049.385l.028-.14c-.016.078-.034.172-.039.209-.039.275-.079.549-.123.822q-.15.956-.333,1.905a2.426,2.426,0,0,0-.041.488l-.5-.135-4.167-1.139a2.167,2.167,0,0,0-2.61,1.484l-1.7,5.1a2.216,2.216,0,0,0-2.137,1.3c-1.136.679-2.282,1.342-3.461,1.9a45.856,45.856,0,0,1-5.5,1.738c-2.728.866-5.448,1.758-8.146,2.711a73.012,73.012,0,0,0-13.207,5.642c-3.809,2.272-6.592,6.03-8.975,9.686-2.758,4.23-4.99,8.761-7.4,13.194a1.992,1.992,0,0,0,.1,2.171h3.546a.182.182,0,0,1,.018-.027c2.491-4.581,4.793-9.27,7.68-13.621a32.181,32.181,0,0,1,5.13-6.221,22.731,22.731,0,0,1,6.053-3.538A160.886,160.886,0,0,1-401.9-694,27.242,27.242,0,0,0-396.41-696l3.268-1.859a150.889,150.889,0,0,0,14.957,4.655c3.463.951,6.936,1.866,10.423,2.723,2.654.652,3.786-3.444,1.128-4.1-3.486-.856-6.959-1.772-10.422-2.722-4.188-1.148-8.426-2.295-12.54-3.742.074-.24.145-.481.218-.7q.45-1.362.906-2.724l27.209,7.437,2.61.713v6.96a2.157,2.157,0,0,0,.127.72,1.9,1.9,0,0,0,1.977,1.826,1.92,1.92,0,0,0,.585-.116l19.362-6.649,2.741-.941c2.57-.883,1.467-4.987-1.129-4.1l-19.362,6.649-.054.018v-4.444l23.13-7.422,1.946-.625,3.046,6.095a1.783,1.783,0,0,0,2.022,1.039c9.1,4.649,19.142,7.139,27.533,13.219,6.522,4.726,9.419,12.879,13.382,19.557a2.361,2.361,0,0,0,.27.36h3.044a1.929,1.929,0,0,0,.36-2.508M-349.23-717.72c-11.991,4.874-25.118-.863-31.819-11.4a37.9,37.9,0,0,1-5.433-15.84,2.193,2.193,0,0,0-1.558-2.049c-2.818-.526-5.237-1.293-6.787-3.87a11.044,11.044,0,0,1-1.471-7.9c4.23.577,8.792-1.9,11.982-4.4a32.526,32.526,0,0,0,8.247-10.34,2.2,2.2,0,0,0,1.721.3c1.1-.249,2.23-.386,3.342-.557q2.084-.318,4.167-.623l.95-.137a2.122,2.122,0,0,0,1.269-.976,2.123,2.123,0,0,0-.759-2.9h0a2.476,2.476,0,0,0-1.636-.213c-2.312.333-4.625.671-6.93,1.045-.059.009-.119.021-.18.032,1.239-2.806,2.307-5.693,3.287-8.591.711-2.105,1.384-4.221,2.064-6.336.858-2.673,1.647-5.617,3.371-7.891,2.283-3.008,7.771-6.151,10.53-2.061,1.378,2.044,4.522.485,3.953-1.518a5.574,5.574,0,0,0-2.481-.519,5.574,5.574,0,0,1,2.481.519,2.133,2.133,0,0,0-.286-.625c-2.747-4.07-7.279-4.976-11.665-3.019-4.752,2.117-7.325,6.249-9.01,11-3.16,8.9-5.239,18.63-11.222,26.208a22.148,22.148,0,0,1-5.425,5.024c-2.26,1.434-5.334,2.977-8.04,2.182,8.91-2.935,12.6-16.317,14.927-24.45.753-2.633-3.344-3.757-4.1-1.13-1.5,5.259-3.06,10.639-5.822,15.4A18.441,18.441,0,0,1-395-768.94a1.97,1.97,0,0,0-.37-.93c-3.6-5.051-3.176-10.855-1.487-16.547a73.934,73.934,0,0,1,6.937-16.214c5.328-9.111,13.309-16.387,23.592-19.33,4.23-1.208,9.153-1.717,13.177.431,1.512.81,2.578,2.114,4.045,2.942l4.163,2.35c1.459.825,2.9.827,4.521,1.209a22.739,22.739,0,0,1,7.28,3.216,18.4,18.4,0,0,1,5.524,5.414,48.04,48.04,0,0,1,3.784,8.439,72.545,72.545,0,0,1,4.476,17.46c.366,3.275.81,7.6-.1,11.23a38.96,38.96,0,0,1-9.163-17.34c-.63-2.658-4.727-1.53-4.1,1.129a43.255,43.255,0,0,0,9.831,18.726,7.2,7.2,0,0,0-1.567,0,6.071,6.071,0,0,1-2.18-1.275c-3.116-2.849-4.977-7.367-6.518-11.2-2.148-5.349-3.635-10.915-5.31-16.419-.665-2.186-1.53-4.444-3.489-5.795a6.508,6.508,0,0,0-6.549-.295c-.027.011-.047.027-.074.041a15.484,15.484,0,0,1,.831,1.462,15.484,15.484,0,0,0-.831-1.462c-2.369,1.13-.237,4.694,2.218,3.624,2.031-.884,3.037,1.217,3.561,2.79.78,2.34,1.4,4.738,2.114,7.1a104.183,104.183,0,0,0,5.1,13.963,31.649,31.649,0,0,0,5.3,8.564,11.862,11.862,0,0,0,1.675,1.476c-.211,1.576,1.394,3.311,3.1,2.2a3.58,3.58,0,0,1,.918-.42,14.321,14.321,0,0,0,1.818.3c.252.024.511.058.771.09a3.63,3.63,0,0,1,1.252,1.568c.947,2.213.6,4.943-.106,7.169-1.244,3.939-5.063,5.385-8.864,6.023a2.049,2.049,0,0,0-1.484,1.484c-.769,4.748-1.514,9.27-3.683,13.639-3.123,6.293-7.731,11.707-14.368,14.406"/>
              <path id="パス_3324" data-name="パス 3324" d="M-283.088-664.166a2.111,2.111,0,0,0,2.985.06c.02-.019.04-.039.059-.06Z" fill="#323232"/>
              <path id="パス_3325" data-name="パス 3325" d="M-355.744-674.314c2.734,0,2.737-4.247,0-4.247s-2.737,4.247,0,4.247" fill="#323232"/>
              <path id="パス_3326" data-name="パス 3326" d="M-340.086-777.322c-2.861-.67-5.679-1.577-8.5-2.389q-.534-.156-1.068-.309a2.125,2.125,0,0,0-2.58,1.541,2.124,2.124,0,0,0,1.45,2.555c2.64.761,5.28,1.523,7.927,2.256.546.153,1.091.313,1.644.442a2.123,2.123,0,0,0,2.612-1.483,2.125,2.125,0,0,0-1.483-2.613h0" fill="#323232"/>
              <path id="パス_3327" data-name="パス 3327" d="M-295.186-821.171c-.065.018-.407.142-.464.154a6.638,6.638,0,0,0-.676.36,4.337,4.337,0,0,0-.955.711c-.4.35-.768.727-1.133,1.109-.514.54-1.043,1.063-1.574,1.584q-1.391,1.365-2.81,2.7a2.124,2.124,0,0,1-3,0,2.124,2.124,0,0,1,0-3h0q1.541-1.455,3.054-2.941c1.759-1.736,3.375-3.6,5.733-4.533a6.257,6.257,0,0,1,7.428,2.07,5.625,5.625,0,0,1-.225,6.162,9.025,9.025,0,0,1-7.02,3.884,2.131,2.131,0,0,1-2.124-2.124,2.181,2.181,0,0,1,2.124-2.124c.036,0,.159-.019.2-.022.059-.01.117-.019.18-.031.227-.044.45-.1.675-.16.2-.056.387-.129.58-.2.113-.056.228-.109.338-.17a5.4,5.4,0,0,0,.5-.3l.142-.1v0a4.4,4.4,0,0,1,.392-.369c.09-.09.192-.227.233-.276.147-.226.286-.45.42-.687l0-.007.008-.032c.045-.159.1-.316.137-.479a.08.08,0,0,0,.011.027.125.125,0,0,1-.007-.043c.066-.3.023-.256,0-.153a1.488,1.488,0,0,1,.017-.2c-.013-.042-.025-.084-.036-.127l-.025-.044-.042-.073-.18-.191c-.06-.029-.311-.206-.387-.256a.868.868,0,0,0-.118-.059c-.038-.013-.076-.027-.115-.039-.085-.027-.172-.053-.258-.074-.024-.006-.238-.032-.3-.045h-.105c-.09,0-.18,0-.27.008.414-.018-.206.049-.343.09" fill="#323232"/>
              <path id="パス_3328" data-name="パス 3328" d="M-293.024-820v.005a.323.323,0,0,1,0-.169.97.97,0,0,0,0,.153V-820" fill="#323232"/>
              <path id="パス_3329" data-name="パス 3329" d="M-290.692-799.814c.044.057.062.072.06.064" fill="none"/>
              <path id="パス_3330" data-name="パス 3330" d="M-290.722-797.892l-.018.018a.914.914,0,0,1,.064-.09.777.777,0,0,0-.043.068l0,.007" fill="#323232"/>
              <path id="パス_3331" data-name="パス 3331" d="M-286.66-801.367a5.855,5.855,0,0,1-1.063,6.475c-2.107,2.34-5.278,2.053-8.082,1.51a2.136,2.136,0,0,1-1.483-2.61,2.176,2.176,0,0,1,2.61-1.482c.246.046.491.09.736.138.07.013.421.064.478.077a7.688,7.688,0,0,0,1.509.035c.037-.014.295-.059.367-.079s.128-.04.192-.059c.114-.064.279-.169.313-.19a.339.339,0,0,0,.083-.068h0l.03-.027c.007-.007.133-.128.229-.226-.044.073-.065.119.017-.018a.6.6,0,0,0,.09-.107c0-.007-.023.011-.04.032.035-.055.071-.109.1-.164s.053-.1.08-.146c-.013,0,0-.046.039-.078l-.006.015.01-.018h0l.006-.016c.027-.109.061-.218.09-.327a.37.37,0,0,1,.015-.044c0-.124-.01-.264,0-.392-.009-.044-.02-.09-.031-.129-.005-.018-.022-.085-.041-.147l-.006-.011c-.049-.083-.1-.171-.149-.257l0-.009c-.114-.142-.3-.387-.132-.147l.015.018c-.011-.007-.018-.016-.03-.023-.083-.048-.161-.1-.247-.15-.044-.024-.1-.049-.146-.075h-.014c-.168-.044-.332-.1-.5-.138-.044-.011-.09-.018-.135-.026a2.938,2.938,0,0,1-.513-.032c-.233,0-.464.013-.7.026h-.047l-.074.015c-.158.029-.314.062-.471.1-.285.07-.565.156-.845.249-.659.217-1.3.469-1.949.731-.111.045-.6.289-.326.134s-.192.082-.3.128q-.45.2-.9.4-.426.191-.851.388a2.172,2.172,0,0,1-2.906-.761,2.149,2.149,0,0,1,.762-2.905c1.115-.524,2.25-1.011,3.387-1.475a13.619,13.619,0,0,1,5.13-1.276,6.113,6.113,0,0,1,5.7,3.143" fill="#323232"/>
              <path id="パス_3332" data-name="パス 3332" d="M-291-797.622a.153.153,0,0,0,.041-.059" fill="none"/>
            </g>
          </g>
        </g>
      </g>
      <g id="車のローンが_まだ残ってるんだよなぁ_" data-name="車のローンが まだ残ってるんだよなぁ " style="isolation: isolate">
        <text id="車のローンが" transform="translate(-540.377 -855.214)" fill="#fe9247" font-size="20" font-family="HiraginoSans-W5, Hiragino Sans" letter-spacing="-0.03em" style="isolation: isolate"><tspan x="0" y="0">車のローンが</tspan></text>
        <text id="まだ残ってるん" transform="translate(-540.377 -828.214)" fill="#fe9247" font-size="20" font-family="HiraginoSans-W5, Hiragino Sans" letter-spacing="-0.03em" style="isolation: isolate"><tspan x="0" y="0">まだ残ってるん</tspan></text>
        <text id="だよなぁ_" data-name="だよなぁ…" transform="translate(-540.377 -801.214)" fill="#fe9247" font-size="20" font-family="HiraginoSans-W5, Hiragino Sans" letter-spacing="-0.03em" style="isolation: isolate"><tspan x="0" y="0">だよなぁ</tspan><tspan y="0" font-family="NotoSans-SemiBold, Noto Sans" font-weight="600">…</tspan></text>
      </g>
      <g id="楕円形_6" data-name="楕円形 6">
        <path id="パス_1277" data-name="パス 1277" d="M9.45,0A9.683,9.683,0,0,1,18.9,9.9a9.683,9.683,0,0,1-9.45,9.9A9.683,9.683,0,0,1,0,9.9,9.683,9.683,0,0,1,9.45,0Z" transform="translate(-417.077 -747.214)" fill="#fdf6cb"/>
        <ellipse id="楕円形_1056" data-name="楕円形 1056" cx="7.65" cy="8.1" rx="7.65" ry="8.1" transform="translate(-415.277 -745.414)" fill="none" stroke="#fe9247" stroke-width="3.6"/>
      </g>
      <g id="楕円形_7" data-name="楕円形 7">
        <path id="パス_1276" data-name="パス 1276" d="M11.7,0A11.7,11.7,0,1,1,0,11.7,11.7,11.7,0,0,1,11.7,0Z" transform="translate(-444.077 -756.214)" fill="#fdf6cb"/>
        <circle id="楕円形_1058" data-name="楕円形 1058" cx="9.9" cy="9.9" r="9.9" transform="translate(-442.277 -754.414)" fill="none" stroke="#fe9247" stroke-width="3.6"/>
      </g>
    </g>
  </g>
</svg>
