<svg xmlns="http://www.w3.org/2000/svg" xmlns:xlink="http://www.w3.org/1999/xlink" width="280" height="319.001" viewBox="0 0 280 319.001">
  <defs>
    <clipPath id="clip-path">
      <rect id="長方形_323" data-name="長方形 323" width="96.969" height="97.2" fill="none"/>
    </clipPath>
  </defs>
  <g id="グループ_3160" data-name="グループ 3160" transform="translate(-20 -1984.532)">
    <rect id="長方形_496" data-name="長方形 496" width="280" height="319" transform="translate(20 1984.532)" fill="#f5f6f7"/>
    <text id="現在のローン残額_2_040_150円_" data-name="現在のローン残額：2,040,150円
" transform="translate(35.5 2135.587)" stroke="rgba(0,0,0,0)" stroke-width="0.857" font-size="16" font-family="HiraginoSans-W6, Hiragino Sans"><tspan x="0" y="0">現在のローン残額</tspan><tspan y="0" font-size="17.342">：</tspan><tspan y="0" font-size="20" font-family="NotoSans-ExtraBold, Noto Sans" font-weight="800">2,040,150</tspan><tspan y="0" font-family="HiraginoSans-W8, Hiragino Sans">円</tspan><tspan y="0" font-family="NotoSans-ExtraBold, Noto Sans" font-weight="800"></tspan><tspan font-family="NotoSans-ExtraBold, Noto Sans" font-weight="800"><tspan x="0" y="32.016"></tspan></tspan></text>
    <text id="月々のお支払い金額_" data-name="月々のお支払い金額：" transform="translate(35.5 2107.927)" stroke="rgba(0,0,0,0)" stroke-width="0.857" font-size="16" font-family="HiraginoSans-W6, Hiragino Sans"><tspan x="0" y="0">月々のお支払い金額：</tspan></text>
    <line id="線_237" data-name="線 237" x2="259" transform="translate(30.5 2077.248)" fill="none" stroke="#000" stroke-width="1"/>
    <text id="借入金額_290万円_借入期間_3年_5年_支払総額_340万円" data-name="借入金額：290万円
借入期間：3年/5年
支払総額：340万円" transform="translate(37.349 2013.209)" stroke="rgba(0,0,0,0)" stroke-width="0.857" font-size="12" font-family="HiraginoSans-W5, Hiragino Sans" letter-spacing="-0.02em"><tspan x="0" y="0">借入金額：</tspan><tspan y="0" font-family="NotoSans-SemiBold, Noto Sans" font-weight="600">290</tspan><tspan y="0">万円</tspan><tspan y="0" font-family="NotoSans-SemiBold, Noto Sans" font-weight="600"></tspan><tspan x="0" y="24.012">借入期間：</tspan><tspan y="24.012" font-family="NotoSans-SemiBold, Noto Sans" font-weight="600">3</tspan><tspan y="24.012">年</tspan><tspan y="24.012" font-family="NotoSans-SemiBold, Noto Sans" font-weight="600">/5</tspan><tspan y="24.012">年</tspan><tspan y="24.012" font-family="NotoSans-SemiBold, Noto Sans" font-weight="600"></tspan><tspan x="0" y="48.024">支払総額：</tspan><tspan y="48.024" font-family="NotoSans-SemiBold, Noto Sans" font-weight="600">340</tspan><tspan y="48.024">万円</tspan></text>
    <text id="金利_6.9_ボーナス月増額_なし_" data-name="金利：6.9%
ボーナス月増額：なし
" transform="translate(160 2013.209)" stroke="rgba(0,0,0,0)" stroke-width="0.857" font-size="12" font-family="HiraginoSans-W5, Hiragino Sans" letter-spacing="-0.02em"><tspan x="0" y="0">金利：</tspan><tspan y="0" font-family="NotoSans-SemiBold, Noto Sans" font-weight="600">6.9%</tspan><tspan x="0" y="24.012">ボーナス月増額：なし</tspan><tspan y="24.012" font-family="NotoSans-SemiBold, Noto Sans" font-weight="600"></tspan><tspan font-family="NotoSans-SemiBold, Noto Sans" font-weight="600"><tspan x="0" y="48.024"></tspan></tspan></text>
    <text id="_56_671円" data-name="56,671円" transform="translate(195.5 2108.587)" fill="#eb6100" stroke="rgba(0,0,0,0)" stroke-width="0.857" font-size="24" font-family="NotoSans-ExtraBold, Noto Sans" font-weight="800"><tspan x="0" y="0">56,671</tspan><tspan y="0" font-size="16" font-family="HiraginoSans-W8, Hiragino Sans" font-weight="400">円</tspan></text>
    <g id="グループ_2199" data-name="グループ 2199" transform="translate(48.239 -542.91)">
      <g id="グループ_2198" data-name="グループ 2198" transform="translate(58.141 2697.948)">
        <path id="パス_2665" data-name="パス 2665" d="M-504.693-819.255a13.729,13.729,0,0,1-4.92-.9,13.734,13.734,0,0,1-4.137-2.491,13.774,13.774,0,0,1-4.581-8.394l-.124-.857-.863-.056c-1.718-.113-3.361-.171-4.885-.171a53.655,53.655,0,0,0-15.5,2.321,83.593,83.593,0,0,1-12.574,2.564,29.809,29.809,0,0,1-3.57.222h0c-6.266,0-11.519-2.189-15.193-6.329a19.309,19.309,0,0,1-2.6-3.753,21.477,21.477,0,0,1-1.712-4.313,23.883,23.883,0,0,1-.806-4.7A25.748,25.748,0,0,1-576.03-851a41.21,41.21,0,0,1,3.706-12.093c2.488-5.716,4.638-10.652-.075-17.9a27.113,27.113,0,0,1-3.9-8.97,18.314,18.314,0,0,1-.433-4.082,14.143,14.143,0,0,1,.505-3.653,11.187,11.187,0,0,1,6.1-7.238,20.084,20.084,0,0,1,8.864-2.073c3.775,0,7.408,1.008,11.254,2.076l.533.148c4.547,1.259,8.7,2.3,13.532,2.3a32.225,32.225,0,0,0,3.43-.183c5.671-.607,11.766-2.3,18.219-4.1,8.9-2.478,18.1-5.041,27.207-5.041a42.572,42.572,0,0,1,6.362.461,39.51,39.51,0,0,1,11.44,3.266,15.009,15.009,0,0,1,6.071,5.02,11.3,11.3,0,0,1,1.788,5.256,18.393,18.393,0,0,1-.65,6.279c-2.145,8.149-.689,12.416,1.324,18.322.606,1.777,1.293,3.791,1.934,6.1a29.265,29.265,0,0,1,.936,8.08,37.94,37.94,0,0,1-1.277,9.185,30.932,30.932,0,0,1-3.725,8.642,21.418,21.418,0,0,1-6.333,6.535,36.115,36.115,0,0,1-5.164,2.791,36.042,36.042,0,0,1-5.317,1.846,43.185,43.185,0,0,1-11.086,1.339h-.812l-.266.68a13.738,13.738,0,0,1-2.031,3.532,13.827,13.827,0,0,1-2.951,2.772A13.7,13.7,0,0,1-504.693-819.255Z" transform="translate(577.8 912.885)" fill="#fdf6cb"/>
        <g id="グループ_72" data-name="グループ 72" transform="translate(0 0)">
          <g id="合体_3" data-name="合体 3" transform="translate(0 0)">
            <path id="パス_1272" data-name="パス 1272" d="M-505.424-821.055a12.635,12.635,0,0,0,7.246-2.266,12.777,12.777,0,0,0,2.724-2.558,12.682,12.682,0,0,0,1.874-3.258l.533-1.36,1.54,0a42.141,42.141,0,0,0,10.815-1.3,35.034,35.034,0,0,0,5.16-1.791,35.065,35.065,0,0,0,5.01-2.708,20.368,20.368,0,0,0,6.015-6.213,29.887,29.887,0,0,0,3.593-8.344,36.882,36.882,0,0,0,1.24-8.923,28.152,28.152,0,0,0-.9-7.779c-.632-2.278-1.285-4.19-1.915-6.039-2-5.854-3.573-10.478-1.347-18.938a17.321,17.321,0,0,0,.619-5.911,10.111,10.111,0,0,0-1.617-4.765c-2.555-3.887-8.2-6.517-16.778-7.817a41.629,41.629,0,0,0-6.2-.449c-8.96,0-18.091,2.543-26.921,5-6.5,1.81-12.634,3.519-18.392,4.136a33.432,33.432,0,0,1-3.544.189c-4.964,0-9.195-1.06-13.817-2.34l-.534-.148c-3.774-1.047-7.339-2.037-10.969-2.037a18.389,18.389,0,0,0-4.059.441,19.991,19.991,0,0,0-4.342,1.528,10.456,10.456,0,0,0-3.542,2.714,10.292,10.292,0,0,0-2,3.849,13.093,13.093,0,0,0-.466,3.377,17.269,17.269,0,0,0,.409,3.843,26.06,26.06,0,0,0,3.75,8.614c5.026,7.732,2.662,13.162.158,18.911a40.346,40.346,0,0,0-3.625,11.794,23.891,23.891,0,0,0,.653,9.172,20.4,20.4,0,0,0,1.626,4.1,18.214,18.214,0,0,0,2.452,3.545A17.012,17.012,0,0,0-565-830.465a20.964,20.964,0,0,0,8.428,1.643h0a28.761,28.761,0,0,0,3.441-.214,82.607,82.607,0,0,0,12.428-2.536,54.558,54.558,0,0,1,15.771-2.357c1.547,0,3.214.058,4.955.173l1.727.114.248,1.713a12.706,12.706,0,0,0,4.226,7.742,12.661,12.661,0,0,0,3.816,2.3,12.653,12.653,0,0,0,4.539.834m0,2.138a14.854,14.854,0,0,1-14.7-12.7c-15.745-1.037-18.58,2.99-32.755,4.709a30.779,30.779,0,0,1-3.7.23c-15.388,0-22.759-12.588-21.249-25.177,1.627-13.558,10.846-18.439,3.8-29.286s-5.586-21.506,2.712-25.489c7.93-3.807,14.376-1.861,21.4.084,4.984,1.38,10.26,2.761,16.563,2.086,13.351-1.431,29.638-9.151,45.541-9.151a43.43,43.43,0,0,1,6.522.473c17.9,2.712,22.236,10.846,19.523,21.15s.543,14.1,3.254,23.862,0,26.573-10.846,33.623c-7,4.551-14.471,6.161-22.232,6.149A14.855,14.855,0,0,1-505.424-818.918Z" transform="translate(578.531 913.616)" fill="#fe9247"/>
          </g>
          <g id="グループ_71" data-name="グループ 71" transform="translate(80.65 51.295)">
            <g id="グループ_785" data-name="グループ 785">
              <g id="グループ_784" data-name="グループ 784" clip-path="url(#clip-path)">
                <g id="グループ_70" data-name="グループ 70" transform="translate(0.002 -0.004)">
                  <path id="パス_3306" data-name="パス 3306" d="M-356.875-733.784c.007,0,.011,0,.017.008h0l-.02-.008" transform="translate(407.828 789.266)" fill="#ffe164"/>
                  <path id="パス_3307" data-name="パス 3307" d="M-356.807-733.768h-.034a.415.415,0,0,0,.122.035c.021-.008,0-.027-.087-.033" transform="translate(407.814 789.26)" fill="#ffe164"/>
                  <path id="パス_3308" data-name="パス 3308" d="M-360.836-732.657l.071-.054a.277.277,0,0,0-.071.054" transform="translate(409.437 788.83)" fill="#ffe164"/>
                  <path id="パス_3309" data-name="パス 3309" d="M-290.724-797.936l0,0,.026-.041c.008-.013.02-.024.023-.02s-.021.032-.053.064" transform="translate(380.954 815.355)" fill="#ffe164"/>
                  <path id="パス_3310" data-name="パス 3310" d="M-290.459-798.348l0-.008h0l-.005.011" transform="translate(380.846 815.499)" fill="#ffe164"/>
                  <path id="パス_3311" data-name="パス 3311" d="M-290.758-797.882l.01-.01c-.049.081-.036.053-.01.01" transform="translate(380.976 815.311)" fill="#ffe164"/>
                  <path id="パス_3312" data-name="パス 3312" d="M-293.024-820.01a.13.13,0,0,0,0,.026l-.007-.016v-.01" transform="translate(381.889 824.296)" fill="#ffe164"/>
                  <path id="パス_3313" data-name="パス 3313" d="M-369.442-804.136a1.29,1.29,0,0,1-2.347.9c-1.637-2.428-4.9-.562-6.252,1.224a15.4,15.4,0,0,0-2,4.686c-.4,1.255-.8,2.512-1.225,3.761-.582,1.722-1.215,3.436-1.951,5.1l.107-.019c1.369-.223,2.742-.423,4.115-.621a1.478,1.478,0,0,1,.971.127,1.26,1.26,0,0,1,.452,1.724h0a1.259,1.259,0,0,1-.753.58l-.564.081q-1.237.181-2.474.369c-.66.1-1.332.183-1.984.331a1.308,1.308,0,0,1-1.022-.177,19.291,19.291,0,0,1-4.9,6.14c-1.895,1.489-4.6,2.958-7.114,2.618a6.556,6.556,0,0,0,.873,4.691c.92,1.528,2.357,1.984,4.029,2.3a1.3,1.3,0,0,1,.926,1.216,22.485,22.485,0,0,0,3.226,9.4c3.978,6.257,11.772,9.664,18.891,6.769,3.941-1.6,6.677-4.816,8.531-8.552a27.441,27.441,0,0,0,2.187-8.1,1.215,1.215,0,0,1,.881-.88c2.256-.379,4.524-1.237,5.263-3.576a6.346,6.346,0,0,0,.062-4.256,2.149,2.149,0,0,0-.743-.932c-.154-.021-.307-.041-.458-.054a8.679,8.679,0,0,1-1.079-.176,2.14,2.14,0,0,0-.546.249,1.234,1.234,0,0,1-1.84-1.307,7.049,7.049,0,0,1-.995-.876,18.778,18.778,0,0,1-3.149-5.085,61.769,61.769,0,0,1-3.03-8.29c-.423-1.4-.792-2.826-1.256-4.214-.311-.934-.908-2.182-2.114-1.657-1.458.635-2.725-1.481-1.316-2.153a3.518,3.518,0,0,0-1.4-1.345m-11.733,23.838a1.262,1.262,0,0,1,0-2.522,1.262,1.262,0,0,1,0,2.522m8.039,8.139a1.262,1.262,0,0,1,0,2.522,1.262,1.262,0,0,1,0-2.522m3.858,10.751a1.263,1.263,0,0,1-1.783,0,5.645,5.645,0,0,0-.514-.53c-.056-.037-.112-.077-.17-.112a3.724,3.724,0,0,0-.334-.184l-.042-.021c.125.065-.053-.021-.087-.031-.124-.044-.25-.081-.374-.113-.053-.014-.16-.021-.249-.035a.182.182,0,0,1-.125-.035c-.053,0-.107-.01-.164-.011q-.2-.009-.41,0c-.07,0-.139.01-.209.015-.267.087-.549.138-.817.223-.062.03-.124.059-.185.091a4.554,4.554,0,0,0-.43.256c-.008,0-.043.026-.077.047l-.008.007c-.037.03-.074.061-.11.093-.125.107-.242.22-.356.338a1.262,1.262,0,0,1-1.784-.032,1.262,1.262,0,0,1,0-1.751A5.848,5.848,0,0,1-373.123-765a5.181,5.181,0,0,1,3.847,1.81,1.3,1.3,0,0,1,0,1.783m3.576-18.89a1.262,1.262,0,0,1,0-2.522,1.262,1.262,0,0,1,0,2.522m-2.351-9.446c1.676.481,3.349,1.022,5.048,1.419a1.263,1.263,0,0,1,.847,1.571,1.262,1.262,0,0,1-1.518.861c-.327-.077-.651-.172-.976-.262-1.572-.437-3.14-.888-4.707-1.341a1.261,1.261,0,0,1-.821-1.583,1.262,1.262,0,0,1,1.488-.847l.635.183" transform="translate(423.929 817.953)" fill="#fff"/>
                  <path id="パス_3314" data-name="パス 3314" d="M-356.851-801.392a23.125,23.125,0,0,0,5.44,10.3,19.759,19.759,0,0,0,.061-6.668,43.04,43.04,0,0,0-2.658-10.367,28.45,28.45,0,0,0-2.247-5.01,10.91,10.91,0,0,0-3.28-3.215,13.507,13.507,0,0,0-4.322-1.91,9.359,9.359,0,0,1-2.685-.717l-2.472-1.4c-.87-.495-1.5-1.272-2.4-1.749-2.389-1.275-5.315-.974-7.824-.256-6.107,1.748-10.845,6.067-14.006,11.476a43.9,43.9,0,0,0-4.119,9.628c-1,3.38-1.254,6.825.883,9.824a1.173,1.173,0,0,1,.218.552,10.921,10.921,0,0,0,2.037-2.633,39.744,39.744,0,0,0,3.457-9.142,1.262,1.262,0,0,1,2.431.67c-1.381,4.831-3.572,12.775-8.863,14.519,1.607.471,3.432-.445,4.774-1.3a13.132,13.132,0,0,0,3.22-2.982c3.554-4.5,4.788-10.276,6.665-15.561,1-2.818,2.528-5.272,5.35-6.529a5.3,5.3,0,0,1,6.926,1.792,1.293,1.293,0,0,1,.17.374,3.518,3.518,0,0,1,1.4,1.346c.016-.008.027-.018.044-.025a3.87,3.87,0,0,1,3.889.176,6.064,6.064,0,0,1,2.071,3.44c1,3.268,1.878,6.573,3.153,9.748.916,2.278,2.02,4.96,3.87,6.652a3.615,3.615,0,0,0,1.295.757,4.279,4.279,0,0,1,.93,0,25.687,25.687,0,0,1-5.838-11.124c-.374-1.58,2.057-2.248,2.431-.67" transform="translate(424.58 825.513)" fill="#fff"/>
                  <path id="パス_3315" data-name="パス 3315" d="M-293.023-820.1a.578.578,0,0,1,0-.091c.015-.061.041-.087,0,.091" transform="translate(381.888 824.39)" fill="#ffe164"/>
                  <path id="パス_3316" data-name="パス 3316" d="M-381.716-720.616a1.275,1.275,0,0,1,1.261,1.261,30.437,30.437,0,0,1-.628,5.783.973.973,0,0,1-.094.267l14.289,3.906,1.825-.588,10.416-3.343a31.5,31.5,0,0,1-.655-4.525c-.114-1.269-.2-2.54-.284-3.812a16.921,16.921,0,0,1-20.613,3.324,19.105,19.105,0,0,1-5.629-4.572l-.123,2.33a1.359,1.359,0,0,1,.234-.032" transform="translate(418.015 784.85)" fill="#fff"/>
                  <path id="パス_3317" data-name="パス 3317" d="M-354.444-692.368c-4.982-3.61-10.946-5.088-16.347-7.849a1.058,1.058,0,0,1-1.2-.617l-1.809-3.618-1.155.37-13.733,4.407v2.639l.032-.011,11.5-3.948c1.541-.529,2.2,1.908.67,2.432l-1.627.559-11.5,3.947a1.13,1.13,0,0,1-1.452-.668,1.14,1.14,0,0,1-.069-.347,1.28,1.28,0,0,1-.074-.427v-4.132l-1.55-.423-16.154-4.416q-.267.809-.538,1.617c-.043.131-.086.274-.129.416,2.443.859,4.959,1.54,7.445,2.222,2.057.564,4.119,1.108,6.189,1.616,1.578.388.906,2.819-.67,2.432-2.071-.509-4.133-1.052-6.189-1.616a89.755,89.755,0,0,1-8.878-2.764l-1.941,1.1a16.116,16.116,0,0,1-3.26,1.19,95.642,95.642,0,0,0-10.683,3.814,13.489,13.489,0,0,0-3.594,2.1,19.106,19.106,0,0,0-3.046,3.694c-1.715,2.585-3.081,5.367-4.561,8.087l-.011.015h92.44a1.365,1.365,0,0,1-.16-.214c-2.355-3.966-4.074-8.806-7.946-11.612m-35.032,5.8a1.262,1.262,0,0,1,0-2.521,1.262,1.262,0,0,1,0,2.521" transform="translate(441.102 777.357)" fill="#fcd21c"/>
                  <path id="パス_3318" data-name="パス 3318" d="M-345.457-768.049a1.262,1.262,0,0,0,0,2.522,1.262,1.262,0,0,0,0-2.522" transform="translate(403.684 803.187)" fill="#323232"/>
                  <path id="パス_3319" data-name="パス 3319" d="M-357.98-747.571a1.262,1.262,0,0,0,0-2.522,1.262,1.262,0,0,0,0,2.522" transform="translate(408.772 795.892)" fill="#323232"/>
                  <path id="パス_3320" data-name="パス 3320" d="M-360.366-738.039a5.849,5.849,0,0,0-4.387,1.811,1.261,1.261,0,0,0,.033,1.783,1.261,1.261,0,0,0,1.751,0c.115-.118.232-.232.356-.339.036-.031.072-.062.11-.091l.008-.007.077-.048a4.512,4.512,0,0,1,.431-.255c.061-.032.122-.061.184-.091.267-.087.552-.138.817-.224.069-.005.139-.012.209-.016.137-.006.274-.006.411,0l.164.011-.017-.008.021.009h.034c.091.006.107.025.087.033.09.014.192.021.249.035.127.033.253.07.374.114.031.011.214.1.087.031l.042.02a3.394,3.394,0,0,1,.334.184c.058.036.114.075.171.112a5.684,5.684,0,0,1,.514.53,1.263,1.263,0,0,0,1.783,0,1.3,1.3,0,0,0,0-1.783,5.182,5.182,0,0,0-3.847-1.811m-2.2,3.216c0-.008.033-.032.071-.053l-.071.053" transform="translate(411.172 790.996)" fill="#323232"/>
                  <path id="パス_3321" data-name="パス 3321" d="M-356.847-733.772a.183.183,0,0,0,.125.035.415.415,0,0,1-.122-.035h0" transform="translate(407.817 789.261)" fill="#323232"/>
                  <path id="パス_3322" data-name="パス 3322" d="M-371.521-768.049a1.262,1.262,0,0,0,0,2.522,1.262,1.262,0,0,0,0-2.522" transform="translate(414.273 803.187)" fill="#323232"/>
                  <path id="パス_3323" data-name="パス 3323" d="M-345.91-731.9c-2.523-4.251-4.39-9.109-8.443-12.213-5.125-3.923-11.454-5.374-17.079-8.317a1.38,1.38,0,0,0-.246-.1q-.99-1.981-1.98-3.96a1.268,1.268,0,0,0-1.424-.579l-1.835.588a28.92,28.92,0,0,1-.556-3.941c-.174-1.992-.28-3.988-.424-5.982a1.492,1.492,0,0,0-.112-.467c.121-.183.252-.358.367-.545a22.356,22.356,0,0,0,2.947-7.013c.207-1.006.364-2.027.523-3.046a11.655,11.655,0,0,0,3.4-1.336,7.058,7.058,0,0,0,3.144-5.013,7.766,7.766,0,0,0-.736-5.464,6.7,6.7,0,0,0,.49-.882,13.819,13.819,0,0,0,1.127-5.84,39.354,39.354,0,0,0-2.441-13.141,31.887,31.887,0,0,0-3.153-7.225,14.526,14.526,0,0,0-5.107-4.531,16.614,16.614,0,0,0-2.847-1.235,12,12,0,0,0-1.71-.427c-.2-.035-.41-.062-.615-.09-.115-.016-.23-.026-.346-.038-.274-.189-1.015-.531-1.116-.588-.622-.352-1.275-.676-1.877-1.06-.474-.3-.858-.748-1.4-1.131a9.435,9.435,0,0,0-2.75-1.309,13.233,13.233,0,0,0-5.981-.191,24.222,24.222,0,0,0-10.99,5.25c-4.394,3.6-7.329,8.748-9.376,13.965-2,5.08-3.784,10.984-.309,15.861a1.329,1.329,0,0,0,.423.388,4.207,4.207,0,0,1-1.908.1,1.3,1.3,0,0,0-1.55.881,1.271,1.271,0,0,0,.88,1.55,7.853,7.853,0,0,0,2.262.075,1.2,1.2,0,0,0-.112.16,1.3,1.3,0,0,0-.552.641,8.688,8.688,0,0,0,.868,7.485,7.2,7.2,0,0,0,4.761,3.285,25.131,25.131,0,0,0,2.769,8.538,21.59,21.59,0,0,0,2.425,3.507l.1-1.929-.1,1.929a19.1,19.1,0,0,0,5.629,4.573,16.924,16.924,0,0,0,20.613-3.324c.083,1.271.169,2.543.283,3.811a31.524,31.524,0,0,0,.654,4.526l-10.417,3.344-1.824.588-14.289-3.9a1,1,0,0,0,.094-.267,30.5,30.5,0,0,0,.628-5.785A1.277,1.277,0,0,0-406.392-763a1.421,1.421,0,0,0-.234.032l-.1,1.876.1-1.876a1.263,1.263,0,0,0-1.027,1.229c0,.517-.03,1.035-.067,1.55q-.061.839-.164,1.674c-.009.076-.014.153-.029.229l.017-.083c-.01.046-.02.1-.023.124-.023.163-.047.326-.073.488q-.089.567-.2,1.131a1.44,1.44,0,0,0-.024.29l-.3-.08-2.474-.676a1.287,1.287,0,0,0-1.55.881l-1.008,3.03a1.316,1.316,0,0,0-1.269.772c-.674.4-1.355.8-2.055,1.128a27.222,27.222,0,0,1-3.264,1.032c-1.62.514-3.235,1.044-4.837,1.61a43.343,43.343,0,0,0-7.841,3.35,17.592,17.592,0,0,0-5.329,5.751c-1.638,2.512-2.963,5.2-4.394,7.834a1.183,1.183,0,0,0,.058,1.289h2.105a.108.108,0,0,1,.011-.016c1.479-2.72,2.846-5.5,4.56-8.087a19.1,19.1,0,0,1,3.046-3.694,13.5,13.5,0,0,1,3.594-2.1,95.53,95.53,0,0,1,10.683-3.814,16.183,16.183,0,0,0,3.26-1.19l1.94-1.1a89.574,89.574,0,0,0,8.881,2.764c2.056.565,4.118,1.108,6.188,1.617,1.576.387,2.248-2.045.67-2.432-2.07-.508-4.132-1.052-6.188-1.616-2.487-.682-5-1.363-7.445-2.222.044-.142.086-.286.129-.416q.267-.809.538-1.617l16.155,4.416,1.55.423v4.133a1.282,1.282,0,0,0,.075.427,1.129,1.129,0,0,0,1.174,1.084,1.139,1.139,0,0,0,.347-.069l11.5-3.948,1.627-.559c1.526-.524.871-2.961-.67-2.432l-11.5,3.948-.032.011v-2.639l13.733-4.407,1.155-.371,1.809,3.619a1.058,1.058,0,0,0,1.2.617c5.4,2.76,11.365,4.239,16.347,7.849,3.872,2.806,5.592,7.647,7.945,11.612a1.4,1.4,0,0,0,.16.214h1.807a1.145,1.145,0,0,0,.214-1.489m-41.3-30.307c-7.12,2.894-14.914-.512-18.892-6.769a22.5,22.5,0,0,1-3.226-9.4,1.3,1.3,0,0,0-.925-1.217c-1.673-.312-3.109-.768-4.03-2.3a6.558,6.558,0,0,1-.873-4.691c2.512.343,5.22-1.127,7.114-2.615a19.312,19.312,0,0,0,4.9-6.139,1.306,1.306,0,0,0,1.022.176c.652-.148,1.324-.229,1.984-.331q1.237-.189,2.474-.37l.564-.081a1.26,1.26,0,0,0,.753-.58,1.261,1.261,0,0,0-.451-1.724h0a1.47,1.47,0,0,0-.971-.126c-1.373.2-2.746.4-4.115.62l-.107.019c.736-1.666,1.37-3.38,1.952-5.1.422-1.25.822-2.506,1.225-3.762a15.394,15.394,0,0,1,2-4.685c1.356-1.786,4.614-3.652,6.252-1.224a1.29,1.29,0,0,0,2.347-.9,3.31,3.31,0,0,0-1.473-.308,3.31,3.31,0,0,1,1.473.308,1.265,1.265,0,0,0-.17-.371,5.3,5.3,0,0,0-6.926-1.792c-2.821,1.257-4.349,3.71-5.35,6.529-1.876,5.285-3.111,11.061-6.663,15.561a13.149,13.149,0,0,1-3.221,2.983c-1.342.851-3.167,1.768-4.774,1.3,5.29-1.743,7.481-9.688,8.863-14.517a1.262,1.262,0,0,0-2.432-.671,39.789,39.789,0,0,1-3.457,9.143,10.949,10.949,0,0,1-2.039,2.632,1.17,1.17,0,0,0-.22-.552c-2.137-3-1.886-6.445-.883-9.825a43.9,43.9,0,0,1,4.119-9.627c3.163-5.41,7.9-9.73,14.007-11.477,2.512-.717,5.435-1.019,7.824.256.9.481,1.531,1.255,2.4,1.747l2.472,1.4a9.285,9.285,0,0,0,2.684.718,13.5,13.5,0,0,1,4.322,1.909,10.923,10.923,0,0,1,3.28,3.215,28.523,28.523,0,0,1,2.247,5.01,43.075,43.075,0,0,1,2.658,10.367,19.713,19.713,0,0,1-.061,6.668,23.132,23.132,0,0,1-5.44-10.3c-.374-1.578-2.807-.908-2.431.67a25.682,25.682,0,0,0,5.837,11.118,4.28,4.28,0,0,0-.93,0,3.6,3.6,0,0,1-1.294-.757c-1.85-1.692-2.955-4.374-3.87-6.651-1.275-3.176-2.158-6.481-3.153-9.749a6.054,6.054,0,0,0-2.072-3.441,3.864,3.864,0,0,0-3.888-.175c-.016.007-.028.016-.044.024a9.211,9.211,0,0,1,.493.868,9.211,9.211,0,0,0-.493-.868c-1.407.671-.141,2.787,1.317,2.152,1.206-.525,1.8.723,2.114,1.657.463,1.389.832,2.813,1.255,4.215a61.854,61.854,0,0,0,3.03,8.29,18.794,18.794,0,0,0,3.149,5.085,7.049,7.049,0,0,0,.995.876,1.234,1.234,0,0,0,1.84,1.307,2.123,2.123,0,0,1,.545-.249,8.5,8.5,0,0,0,1.079.177c.15.014.3.034.458.053a2.156,2.156,0,0,1,.743.931,6.354,6.354,0,0,1-.063,4.257c-.739,2.339-3.006,3.2-5.263,3.576a1.217,1.217,0,0,0-.881.881,27.4,27.4,0,0,1-2.187,8.1c-1.854,3.736-4.59,6.951-8.531,8.553" transform="translate(442.692 827.229)"/>
                  <path id="パス_3324" data-name="パス 3324" d="M-283.088-664.166a1.253,1.253,0,0,0,1.772.036l.035-.036Z" transform="translate(377.851 760.983)" fill="#323232"/>
                  <path id="パス_3325" data-name="パス 3325" d="M-356.578-676.039a1.262,1.262,0,0,0,0-2.522,1.262,1.262,0,0,0,0,2.522" transform="translate(408.202 766.831)" fill="#323232"/>
                  <path id="パス_3326" data-name="パス 3326" d="M-345.049-778.445c-1.7-.4-3.372-.936-5.048-1.418l-.634-.183a1.262,1.262,0,0,0-1.532.915,1.261,1.261,0,0,0,.861,1.517c1.567.452,3.135.9,4.707,1.339.324.091.648.186.976.262a1.261,1.261,0,0,0,1.551-.88,1.262,1.262,0,0,0-.881-1.552h0" transform="translate(405.97 808.077)" fill="#323232"/>
                  <path id="パス_3327" data-name="パス 3327" d="M-299.751-822.932c-.039.011-.242.084-.275.091a3.943,3.943,0,0,0-.4.214,2.574,2.574,0,0,0-.567.422c-.235.208-.456.432-.673.658-.305.321-.619.631-.935.94q-.826.81-1.668,1.6a1.261,1.261,0,0,1-1.783,0,1.261,1.261,0,0,1,0-1.783h0q.915-.864,1.813-1.746a10.668,10.668,0,0,1,3.4-2.692,3.715,3.715,0,0,1,4.41,1.229,3.34,3.34,0,0,1-.134,3.659,5.358,5.358,0,0,1-4.168,2.306,1.265,1.265,0,0,1-1.261-1.261,1.3,1.3,0,0,1,1.261-1.261c.021,0,.094-.011.118-.013l.107-.018c.135-.026.267-.058.4-.095.116-.033.23-.077.344-.116.067-.033.135-.065.2-.1a3.2,3.2,0,0,0,.3-.18l.084-.06v0a2.606,2.606,0,0,1,.233-.219c.053-.053.114-.135.138-.164.087-.134.17-.267.249-.408l0,0,0-.019c.027-.094.059-.188.081-.284a.048.048,0,0,0,.007.016.074.074,0,0,1,0-.026c.039-.178.014-.152,0-.091a.883.883,0,0,1,.01-.117c-.008-.025-.015-.05-.021-.075l-.015-.026-.025-.043-.107-.113c-.036-.017-.185-.122-.23-.152a.5.5,0,0,0-.07-.035l-.068-.023c-.05-.016-.1-.031-.153-.044-.014,0-.141-.019-.181-.027h-.062c-.053,0-.107,0-.16,0,.246-.011-.122.029-.2.053" transform="translate(387.331 826.529)" fill="#323232"/>
                  <path id="パス_3328" data-name="パス 3328" d="M-293.029-820.067v0a.191.191,0,0,1,0-.1.571.571,0,0,0,0,.091v.007" transform="translate(381.892 824.359)" fill="#323232"/>
                  <path id="パス_3329" data-name="パス 3329" d="M-290.692-799.814c.026.034.037.043.036.038" transform="translate(380.94 816.092)" fill="none"/>
                  <path id="パス_3330" data-name="パス 3330" d="M-290.729-797.921l-.011.011a.549.549,0,0,1,.038-.053.46.46,0,0,0-.026.04l0,0" transform="translate(380.96 815.34)" fill="#323232"/>
                  <path id="パス_3331" data-name="パス 3331" d="M-292.858-802.644a3.477,3.477,0,0,1-.631,3.844c-1.251,1.389-3.134,1.219-4.8.9a1.268,1.268,0,0,1-.881-1.55,1.292,1.292,0,0,1,1.55-.88c.146.027.292.053.437.082.042.008.25.038.284.046a4.57,4.57,0,0,0,.9.021c.022-.008.175-.035.218-.047s.076-.024.114-.035c.068-.038.166-.1.186-.113a.2.2,0,0,0,.049-.04h0l.018-.016s.079-.076.136-.134c-.026.043-.039.071.01-.011a.359.359,0,0,0,.053-.063s-.014.007-.024.019c.021-.033.042-.065.062-.1s.031-.058.048-.087c-.008,0,0-.027.023-.046l0,.009.006-.011h0l0-.009c.016-.065.036-.129.053-.194a.228.228,0,0,1,.009-.026c0-.074-.006-.157,0-.233-.005-.026-.012-.053-.018-.077s-.013-.05-.024-.087l0-.007c-.029-.049-.061-.1-.088-.153l0-.005c-.068-.084-.18-.23-.078-.087l.009.011c-.007,0-.011-.009-.018-.014-.049-.029-.1-.061-.147-.089l-.087-.044h-.008c-.1-.026-.2-.06-.3-.082-.026-.007-.053-.011-.08-.015a1.736,1.736,0,0,1-.3-.019c-.138,0-.275.008-.413.016h-.028l-.044.009c-.094.017-.186.037-.28.06-.169.042-.335.093-.5.148-.391.129-.775.278-1.157.434-.066.027-.359.172-.194.08s-.114.049-.176.076q-.267.116-.534.235t-.505.23a1.289,1.289,0,0,1-1.725-.452,1.276,1.276,0,0,1,.452-1.725c.662-.311,1.336-.6,2.011-.876a8.086,8.086,0,0,1,3.046-.758,3.629,3.629,0,0,1,3.382,1.866" transform="translate(385.5 818)" fill="#323232"/>
                  <path id="パス_3332" data-name="パス 3332" d="M-291-797.646a.091.091,0,0,0,.024-.035" transform="translate(381.065 815.225)" fill="none"/>
                </g>
              </g>
            </g>
          </g>
          <g id="楕円形_6" data-name="楕円形 6" transform="translate(95.862 98.799)">
            <path id="パス_1277" data-name="パス 1277" d="M5.611,0a5.749,5.749,0,0,1,5.611,5.878,5.749,5.749,0,0,1-5.611,5.878A5.749,5.749,0,0,1,0,5.878,5.749,5.749,0,0,1,5.611,0Z" fill="#fdf6cb"/>
            <ellipse id="楕円形_1056" data-name="楕円形 1056" cx="4.542" cy="4.809" rx="4.542" ry="4.809" transform="translate(1.069 1.069)" fill="none" stroke="#fe9247" stroke-width="2"/>
          </g>
          <g id="楕円形_7" data-name="楕円形 7" transform="translate(79.831 93.456)">
            <path id="パス_1276" data-name="パス 1276" d="M6.947,0A6.947,6.947,0,1,1,0,6.947,6.947,6.947,0,0,1,6.947,0Z" fill="#fdf6cb"/>
            <circle id="楕円形_1058" data-name="楕円形 1058" cx="5.878" cy="5.878" r="5.878" transform="translate(1.069 1.069)" fill="none" stroke="#fe9247" stroke-width="2"/>
          </g>
        </g>
      </g>
    </g>
    <g id="車のローンが_まだ残ってるんだよなぁ_" data-name="車のローンが まだ残ってるんだよなぁ " transform="translate(130.267 2175.375)" style="isolation: isolate">
      <text id="車のローンが" transform="translate(0 11)" fill="#fe9247" font-size="12" font-family="HiraginoSans-W5, Hiragino Sans" letter-spacing="-0.03em" style="isolation: isolate"><tspan x="0" y="0">車のローンが</tspan></text>
      <text id="まだ残ってるん" transform="translate(0 28.145)" fill="#fe9247" font-size="12" font-family="HiraginoSans-W5, Hiragino Sans" letter-spacing="-0.03em" style="isolation: isolate"><tspan x="0" y="0">まだ残ってるん</tspan></text>
      <text id="だよなぁ_" data-name="だよなぁ…" transform="translate(0 45.385)" fill="#fe9247" font-size="12" font-family="HiraginoSans-W5, Hiragino Sans" letter-spacing="-0.03em" style="isolation: isolate"><tspan x="0" y="0">だよなぁ</tspan><tspan y="0" font-family="NotoSans-SemiBold, Noto Sans" font-weight="600">…</tspan></text>
    </g>
  </g>
</svg>
