<svg xmlns="http://www.w3.org/2000/svg" xmlns:xlink="http://www.w3.org/1999/xlink" width="280" height="319.031" viewBox="0 0 280 319.031">
  <defs>
    <clipPath id="clip-path">
      <rect id="長方形_324" data-name="長方形 324" width="113.022" height="126.002" fill="none"/>
    </clipPath>
  </defs>
  <g id="グループ_3163" data-name="グループ 3163" transform="translate(-20 -3619.744)">
    <rect id="長方形_507" data-name="長方形 507" width="280" height="319" transform="translate(20 3619.744)" fill="#f5f6f7"/>
    <text id="現在のローン残額_1_029_200円_" data-name="現在のローン残額：1,029,200円
" transform="translate(35.5 3770.799)" stroke="rgba(0,0,0,0)" stroke-width="0.857" font-size="16" font-family="HiraginoSans-W6, Hiragino Sans"><tspan x="0" y="0">現在のローン残額</tspan><tspan y="0" font-size="17.342">：</tspan><tspan y="0" font-size="20" font-family="NotoSans-ExtraBold, Noto Sans" font-weight="800">1,029,200</tspan><tspan y="0" font-family="HiraginoSans-W8, Hiragino Sans">円</tspan><tspan y="0" font-family="NotoSans-ExtraBold, Noto Sans" font-weight="800"></tspan><tspan font-family="NotoSans-ExtraBold, Noto Sans" font-weight="800"><tspan x="0" y="32.016"></tspan></tspan></text>
    <text id="月々のお支払い金額_" data-name="月々のお支払い金額：" transform="translate(35.5 3743.139)" stroke="rgba(0,0,0,0)" stroke-width="0.857" font-size="16" font-family="HiraginoSans-W6, Hiragino Sans"><tspan x="0" y="0">月々のお支払い金額：</tspan></text>
    <line id="線_253" data-name="線 253" x2="259" transform="translate(30.5 3712.459)" fill="none" stroke="#000" stroke-width="1"/>
    <text id="借入金額_160万円_借入期間_3年_5年_支払総額_199.2万円" data-name="借入金額：160万円
借入期間：3年/5年
支払総額：199.2万円" transform="translate(37.349 3648.42)" stroke="rgba(0,0,0,0)" stroke-width="0.857" font-size="12" font-family="HiraginoSans-W5, Hiragino Sans" letter-spacing="-0.02em"><tspan x="0" y="0">借入金額：</tspan><tspan y="0" font-family="NotoSans-SemiBold, Noto Sans" font-weight="600">160</tspan><tspan y="0">万円</tspan><tspan y="0" font-family="NotoSans-SemiBold, Noto Sans" font-weight="600"></tspan><tspan x="0" y="24.012">借入期間：</tspan><tspan y="24.012" font-family="NotoSans-SemiBold, Noto Sans" font-weight="600">3</tspan><tspan y="24.012">年</tspan><tspan y="24.012" font-family="NotoSans-SemiBold, Noto Sans" font-weight="600">/5</tspan><tspan y="24.012">年</tspan><tspan y="24.012" font-family="NotoSans-SemiBold, Noto Sans" font-weight="600"></tspan><tspan x="0" y="48.024">支払総額：</tspan><tspan y="48.024" font-family="NotoSans-SemiBold, Noto Sans" font-weight="600">199.2</tspan><tspan y="48.024">万円</tspan></text>
    <text id="金利_9.8_ボーナス月増額_なし_" data-name="金利：9.8%
ボーナス月増額：なし
" transform="translate(160 3648.42)" stroke="rgba(0,0,0,0)" stroke-width="0.857" font-size="12" font-family="HiraginoSans-W5, Hiragino Sans" letter-spacing="-0.02em"><tspan x="0" y="0">金利：</tspan><tspan y="0" font-family="NotoSans-SemiBold, Noto Sans" font-weight="600">9.8%</tspan><tspan x="0" y="24.012">ボーナス月増額：なし</tspan><tspan y="24.012" font-family="NotoSans-SemiBold, Noto Sans" font-weight="600"></tspan><tspan font-family="NotoSans-SemiBold, Noto Sans" font-weight="600"><tspan x="0" y="48.024"></tspan></tspan></text>
    <text id="_33_200円" data-name="33,200円" transform="translate(195.5 3743.799)" fill="#eb6100" stroke="rgba(0,0,0,0)" stroke-width="0.857" font-size="24" font-family="NotoSans-ExtraBold, Noto Sans" font-weight="800"><tspan x="0" y="0">33,200</tspan><tspan y="0" font-size="16" font-family="HiraginoSans-W8, Hiragino Sans" font-weight="400">円</tspan></text>
    <g id="グループ_72" data-name="グループ 72" transform="translate(151.97 4699.965)">
      <g id="合体_4" data-name="合体 4" transform="translate(-56.97 -914.667)">
        <path id="パス_1273" data-name="パス 1273" d="M11.928-812.276A30.505,30.505,0,0,1,5.318-813a30.143,30.143,0,0,1-6.1-2.064,30.361,30.361,0,0,1-5.444-3.25,30.533,30.533,0,0,1-4.629-4.282l-.688-.782-.843.612a18.961,18.961,0,0,1-11.206,3.631,18.974,18.974,0,0,1-7.438-1.5,19.042,19.042,0,0,1-6.075-4.1,19.069,19.069,0,0,1-4.1-6.078,19.006,19.006,0,0,1-1.5-7.442,19.114,19.114,0,0,1,.922-5.886l.286-.886-.81-.46a25.491,25.491,0,0,1-9.312-9.122,25.214,25.214,0,0,1-2.62-6.121,25.412,25.412,0,0,1-.93-6.83,25.277,25.277,0,0,1,1.577-8.825,25.263,25.263,0,0,1,4.353-7.475,25.379,25.379,0,0,1,6.563-5.559,25.1,25.1,0,0,1,8.2-3.07l.592-.11.244-.551a33.154,33.154,0,0,1,5.007-7.981,33.3,33.3,0,0,1,7.007-6.234,32.976,32.976,0,0,1,18.287-5.5A33.2,33.2,0,0,1,5.6-911.646a32.965,32.965,0,0,1,8.014,3.443,33.322,33.322,0,0,1,11.926,12.23l.342.607.7-.025c.307-.011.62-.017.929-.017a25.173,25.173,0,0,1,9.864,1.992,25.259,25.259,0,0,1,8.056,5.435,25.255,25.255,0,0,1,5.432,8.059,25.206,25.206,0,0,1,1.992,9.87,25.472,25.472,0,0,1-.758,6.18,25.237,25.237,0,0,1-2.15,5.625,25.574,25.574,0,0,1-7.747,8.86l-.594.424.134.718a30.629,30.629,0,0,1,.521,5.628,30.165,30.165,0,0,1-2.383,11.811,30.238,30.238,0,0,1-6.5,9.646,30.223,30.223,0,0,1-9.641,6.5A30.124,30.124,0,0,1,11.928-812.276Z" transform="translate(56.313 914.01)" fill="#fff8db"/>
        <path id="パス_1274" data-name="パス 1274" d="M11.271-814.076a29,29,0,0,0,11.36-2.293,29.1,29.1,0,0,0,9.277-6.259,29.1,29.1,0,0,0,6.256-9.283,29.022,29.022,0,0,0,2.293-11.365,29.45,29.45,0,0,0-.5-5.417l-.269-1.435,1.189-.848a24.42,24.42,0,0,0,7.4-8.462,24.074,24.074,0,0,0,2.053-5.369,24.338,24.338,0,0,0,.723-5.9,24.076,24.076,0,0,0-1.9-9.425,24.151,24.151,0,0,0-5.188-7.7,24.119,24.119,0,0,0-7.693-5.19,24.037,24.037,0,0,0-9.418-1.9c-.3,0-.594.006-.887.017l-1.391.05-.683-1.213a32.18,32.18,0,0,0-11.516-11.809A31.808,31.808,0,0,0,4.638-911.2,32.051,32.051,0,0,0-4-912.381a31.836,31.836,0,0,0-17.655,5.311,32.144,32.144,0,0,0-6.766,6.02,32.012,32.012,0,0,0-4.835,7.706l-.488,1.1-1.184.22a23.966,23.966,0,0,0-7.827,2.931,24.251,24.251,0,0,0-6.268,5.309,24.114,24.114,0,0,0-4.157,7.138,24.129,24.129,0,0,0-1.506,8.428,24.291,24.291,0,0,0,.887,6.523,24.1,24.1,0,0,0,2.5,5.844,24.352,24.352,0,0,0,8.894,8.714l1.62.919-.572,1.772a17.972,17.972,0,0,0-.867,5.534,17.866,17.866,0,0,0,1.411,7,17.926,17.926,0,0,0,3.852,5.715,17.906,17.906,0,0,0,5.712,3.853,17.848,17.848,0,0,0,6.993,1.412,17.828,17.828,0,0,0,10.535-3.413l1.685-1.223,1.375,1.565A29.456,29.456,0,0,0-6.2-819.884a29.279,29.279,0,0,0,5.239,3.128,29.049,29.049,0,0,0,5.871,1.985,29.39,29.39,0,0,0,6.363.695m0,2.286A31.389,31.389,0,0,1-12.374-822.5a20.156,20.156,0,0,1-11.877,3.848,20.26,20.26,0,0,1-20.254-20.264,20.267,20.267,0,0,1,.977-6.237A26.493,26.493,0,0,1-56.97-868.217a26.5,26.5,0,0,1,21.627-26.053A34.284,34.284,0,0,1-4-914.667a34.261,34.261,0,0,1,29.879,17.475q.483-.017.97-.018a26.493,26.493,0,0,1,26.486,26.5,26.468,26.468,0,0,1-11.134,21.6,31.683,31.683,0,0,1,.54,5.838A31.479,31.479,0,0,1,11.271-811.79Z" transform="translate(56.97 914.667)" fill="#fe9247"/>
      </g>
      <g id="あこがれの_クルマに_乗りたい_" data-name="あこがれの クルマに 乗りたい " transform="translate(-26.809 -885.375)" style="isolation: isolate">
        <text id="あこがれの" transform="translate(0 10)" fill="#fe9247" font-size="12" font-family="HiraginoSans-W5, Hiragino Sans" letter-spacing="-0.03em" style="isolation: isolate"><tspan x="0" y="0">あこがれの</tspan></text>
        <text id="クルマに" transform="translate(0 27.146)" fill="#fe9247" font-size="12" font-family="HiraginoSans-W5, Hiragino Sans" letter-spacing="-0.03em" style="isolation: isolate"><tspan x="0" y="0">クルマに</tspan></text>
        <text id="乗りたい_" data-name="乗りたい！" transform="translate(0 44.293)" fill="#fe9247" font-size="12" font-family="HiraginoSans-W5, Hiragino Sans" letter-spacing="-0.03em" style="isolation: isolate"><tspan x="0" y="0">乗りたい！</tspan></text>
      </g>
      <g id="楕円形_6" data-name="楕円形 6" transform="translate(34.477 -814.648)">
        <ellipse id="楕円形_1059" data-name="楕円形 1059" cx="6.001" cy="6.287" rx="6.001" ry="6.287" fill="#fff8db"/>
        <ellipse id="楕円形_1060" data-name="楕円形 1060" cx="4.858" cy="5.144" rx="4.858" ry="5.144" transform="translate(1.143 1.143)" fill="none" stroke="#f80" stroke-width="2"/>
      </g>
      <g id="楕円形_7" data-name="楕円形 7" transform="translate(17.331 -822.078)">
        <circle id="楕円形_1061" data-name="楕円形 1061" cx="7.43" cy="7.43" r="7.43" fill="#fff8db"/>
        <circle id="楕円形_1062" data-name="楕円形 1062" cx="6.287" cy="6.287" r="6.287" transform="translate(1.143 1.143)" fill="none" stroke="#f80" stroke-width="2"/>
      </g>
      <g id="グループ_92" data-name="グループ 92" transform="translate(9.472 -887.191)">
        <g id="グループ_787" data-name="グループ 787">
          <g id="グループ_786" data-name="グループ 786" clip-path="url(#clip-path)">
            <g id="グループ_91" data-name="グループ 91" transform="translate(0.005 0.004)">
              <path id="パス_3358" data-name="パス 3358" d="M141.919-828.974c-.09.467-12.739-9.515-20-3.58A28.673,28.673,0,0,0,109.792-829c-6.277,3.648-11.3,13.473-9.058,24.05-4.224.542-5.359,7.544-2.152,11.312-1.122-1.133-3.886,3.518-1.886,5.43,2.694,2.572,3.99.514,4.036.875.152,1.2,2.525,7.16,3,8.993-3.544-.943-15.606,11.169-14.476,17.669.1.572-.834,3.113,3.768,8.856a23.6,23.6,0,0,0-5.228,1.649C78.42-745.834,71.783-733.5,72.2-731.911h94.506a23.59,23.59,0,0,0-3.124-7.29,23,23,0,0,0-5.592-5.715,17.822,17.822,0,0,0-4.6-2.729l-9.137-3.2a1.479,1.479,0,0,1-.907-1.886c.013-.039.029-.077.045-.114a7.278,7.278,0,0,1-.953-.532c-.106.162-.6-1.1-.713-.939-.265.369,7.869-16.486,7.631-16-.212.431,2.058-13.628-.972-12.863a67.03,67.03,0,0,1,.314-9.9c.137-.937-1.6-4.323-1.6-4.323.942-5,2.889-11.317,2.277-16.6-.823-7.12-4.821-11.952-7.459-14.967" transform="translate(-56.612 857.91)" fill="#fff"/>
              <path id="パス_3359" data-name="パス 3359" d="M142.426-691.164a1.023,1.023,0,0,1-.057-.182,14.076,14.076,0,0,1-.384-1.393,35.584,35.584,0,0,1-.886-5.054,39.97,39.97,0,0,1-12.011-.743,13.71,13.71,0,0,1,1.074,4,14.5,14.5,0,0,1-5.11,12.22h18.083l-.646-8.068c-.022-.262-.047-.523-.063-.785" transform="translate(-75.907 808.309)" fill="#fcd21c"/>
              <path id="パス_3360" data-name="パス 3360" d="M149.933-763.877a1.432,1.432,0,0,0-.449,2.827,1.432,1.432,0,0,0,.449-2.827" transform="translate(-84.399 832.164)" fill="#323232"/>
              <path id="パス_3361" data-name="パス 3361" d="M140.525-784.191a6.126,6.126,0,0,0-2.523-.615,9.661,9.661,0,0,0-1.865.189,1.558,1.558,0,0,0-.972.463,1.429,1.429,0,0,0,.086,2.019l0,0a1.392,1.392,0,0,0,1.048.373,9.916,9.916,0,0,1,1.858-.182,4.317,4.317,0,0,1,.743.161c.1.041.2.08.3.128a1.509,1.509,0,0,0,1.108.091,1.429,1.429,0,0,0,.92-1.8,1.429,1.429,0,0,0-.7-.83" transform="translate(-79.46 839.794)" fill="#323232"/>
              <path id="パス_3362" data-name="パス 3362" d="M163.9-776.3a3.579,3.579,0,0,1,.67-.025,4.788,4.788,0,0,1,.724.162,5.406,5.406,0,0,1,1.01.529,1.507,1.507,0,0,0,1.011.348,1.459,1.459,0,0,0,.972-.463,1.439,1.439,0,0,0,.373-1.048,1.415,1.415,0,0,0-.462-.972,7.149,7.149,0,0,0-2.148-1.148,4.952,4.952,0,0,0-2.315-.241,1.547,1.547,0,0,0-.972.463,1.46,1.46,0,0,0-.373,1.048,1.445,1.445,0,0,0,.463.972,1.4,1.4,0,0,0,1.048.373" transform="translate(-89.532 837.747)" fill="#323232"/>
              <path id="パス_3363" data-name="パス 3363" d="M150.089-751.3a1.461,1.461,0,0,0,.425-1.978,1.446,1.446,0,0,0-1.978-.425c-.171.12-.343.235-.523.338l-.165.09c-.06.032-.148.068-.165.075q-.281.115-.572.2c-.079.023-.427.1-.425.107a6.962,6.962,0,0,1-1.115.084c-.1,0-.2-.006-.3-.011l-.034,0c-.219-.032-.436-.062-.651-.107-.2-.041-.389-.092-.58-.149-.071-.022-.141-.045-.212-.069l-.1-.041a8.859,8.859,0,0,1-1.042-.544c-.062-.038-.271-.208-.032-.017-.076-.057-.154-.114-.229-.177a5.683,5.683,0,0,1-.429-.382c-.067-.067-.131-.137-.2-.206a.176.176,0,0,0-.021-.017v-.006c-.114-.171-.246-.333-.357-.51a1.431,1.431,0,0,0-1.979-.425,1.431,1.431,0,0,0-.425,1.978h0a8.066,8.066,0,0,0,11.111,2.2m-4.786-1.518c.023,0,.029,0,0,0" transform="translate(-80.906 829.172)" fill="#323232"/>
              <path id="パス_3364" data-name="パス 3364" d="M159.727-798.484a1.251,1.251,0,0,0,1.438-.706,1.452,1.452,0,0,0-.58-1.971,1.469,1.469,0,0,0-.41-.149c-3.24-.624-5.685-2.933-7.452-5.608a21.308,21.308,0,0,1-3.375-9.976c-.153-1.835-3-1.52-2.844.318.629,7.535,5.134,16.533,13.223,18.091" transform="translate(-83.734 851.953)" fill="#323232"/>
              <path id="パス_3365" data-name="パス 3365" d="M186.949-777.38l-.023-.022c-.027-.02-.053-.036-.079-.057-.021,0,0,.032.1.078" transform="translate(-98.456 837.113)" fill="#323232"/>
              <path id="パス_3366" data-name="パス 3366" d="M175.265-787.107a1.421,1.421,0,0,0,1.648-.784,10.853,10.853,0,0,0,.718-4.521,9.337,9.337,0,0,0-1.076-4.2,4.231,4.231,0,0,0-.759-.953,29.364,29.364,0,0,0,2.587-10.486,31.922,31.922,0,0,0-1.354-12.477c-2.462-7.319-9.266-12.8-16.542-14.917a17.346,17.346,0,0,0-12,.491,1.453,1.453,0,0,0-.733,1.918l.017.035a1.253,1.253,0,0,0,1.591.784,1.229,1.229,0,0,0,.164-.069c6.173-2.814,13.518-.053,18.482,3.968a19.432,19.432,0,0,1,6.029,7.922,27.033,27.033,0,0,1,1.577,11.023,27.963,27.963,0,0,1-2.39,10.561,6.036,6.036,0,0,0-1.452-.057,15.882,15.882,0,0,0-.229-3.692,1.72,1.72,0,0,0-.312-.738,1.287,1.287,0,0,0-.773-.862c-5.562-2.421-8.776-8.317-9.762-14a1.466,1.466,0,0,0-1.582-1.263,1.445,1.445,0,0,0-1.263,1.582,24.2,24.2,0,0,0,5.655,12.079,17.1,17.1,0,0,0,5.254,3.957,14.149,14.149,0,0,1,.19,2.511c-.018.526-.046,1.052-.074,1.579a1.546,1.546,0,0,0,.255,1.065,1.369,1.369,0,0,0,.149.166,1.444,1.444,0,0,0,1.76.648c.069-.026.138-.048.208-.068h.006l-.086.015c.042-.007.084-.016.126-.026a.28.28,0,0,0-.04.011c.253-.048.246-.051.167-.038.023-.005.047-.011.071-.015a5.581,5.581,0,0,1,.808-.089h.142c.161.016.321.032.479.062.063.012.125.029.187.044.152.061.3.132.443.2l.007.005c.073.057.148.114.218.175a.482.482,0,0,1,.044.045c.011,0,.03.015.057.051,0,.006.01.011.013.017a.442.442,0,0,0,.067.057c-.022-.013-.03-.022-.046-.033.026.033.051.064.077.1.063.085.111.192.18.27l.006,0c.011.026.022.053.028.068a5,5,0,0,1,.269.726c.021.069.039.137.057.206.03.149.064.3.091.445.057.3.1.609.128.914.035.353.049.707.051,1.062v.062c0,.063-.011.2-.012.216-.012.175-.028.351-.05.526a9.189,9.189,0,0,1-.171.963c-.02.083-.045.165-.063.249v.011c-.062.176-.123.352-.192.526a1.594,1.594,0,0,0,0,1.143Z" transform="translate(-84.144 858.579)" fill="#323232"/>
              <path id="パス_3367" data-name="パス 3367" d="M128.364-731.412a16.451,16.451,0,0,1-4.07,9.5,1.442,1.442,0,0,1-1.908.094,1.085,1.085,0,0,1-.114-.094,1.46,1.46,0,0,1,0-2.023c.152-.162.3-.325.443-.494.064-.076.126-.152.187-.229.083-.1-.039.061.091-.119.229-.32.451-.646.654-.984q.325-.544.6-1.119a7.46,7.46,0,0,0,.383-.92,17.49,17.49,0,0,0,1.008-5.054,1.644,1.644,0,0,1,.163-.612Z" transform="translate(-74.743 821.057)" fill="#323232"/>
              <path id="パス_3368" data-name="パス 3368" d="M163.262-766.73a3.7,3.7,0,0,1,.807,1,8.3,8.3,0,0,1,.612,4.458,1.3,1.3,0,0,1,.8.242c1.9,1.282,1.429,3.837,1.343,5.808-.11,2.613.389,5.087-.334,7.677a52.435,52.435,0,0,1-2.5,5.8c-.417,1-.824,2.012-1.325,2.976-.471.9-1.086,1.725-1.569,2.625-1.111,2.063-1.856,4.262-3.139,6.22-.106.162-.208.324-.321.482-1.139,1.581-2.447,3.061-2.825,5.033a17.745,17.745,0,0,0,.135,5.445c.243,1.917.612,3.82,1.018,5.708.346,1.605.737,3.2,1.155,4.794h-2.956c-.429-1.682-.829-3.372-1.175-5.069-.725-3.555-1.567-7.476-1.025-11.112a11.392,11.392,0,0,1,2.367-5.119,31.208,31.208,0,0,0,3.381-5.949c.881-1.943,2.134-3.658,3-5.6.819-1.821,1.543-3.666,2.429-5.456,1.093-2.208.99-4.515.818-6.892-.005-.07,0-.14-.007-.211q-.52,3.594-1.327,7.136c-.407,1.8-3.166,1.032-2.76-.761a80.094,80.094,0,0,0,1.677-10.059c.152-1.594.26-3.2.278-4.8,0-.391-.035-2.986-1.015-2.364-.013.008-.025.011-.038.018A135.136,135.136,0,0,1,158.94-747.2c-.312,1.814-3.069,1.04-2.759-.761a132.1,132.1,0,0,0,1.557-14.1c.079-1.236.165-2.472.222-3.709.029-.633.121-2.042-.943-1.468-.5.271-.728,1.075-.853,1.607-.15.643-.286,1.28-.457,1.915.782,1.452.514,3.586.281,5.17-.468,3.171-1.016,6.33-1.5,9.5-.277,1.818-3.034,1.041-2.76-.761.493-3.234,1.062-6.458,1.529-9.695.079-.551.52-2.421-.1-2.858-1.009-.706-1.765,2.194-1.912,2.681-.84,2.776-.9,5.7-1.733,8.484a46.4,46.4,0,0,1-4.4,9.379c-1.793,3.164-3.68,6.375-4.56,9.937a24,24,0,0,0-.1,9.784c.261,1.5.846,2.968,1.036,4.465.139,1.1.178,2.221.266,3.325l.468,5.83h-2.863q-.323-4.033-.647-8.068c-.022-.261-.046-.523-.063-.785.01.025.011.039.023.067-.01-.023-.015-.051-.023-.074v-.027c-.014-.238-.077-.275-.057-.149a13.927,13.927,0,0,1-.384-1.392,35.586,35.586,0,0,1-.886-5.054,39.957,39.957,0,0,1-12.013-.743,13.676,13.676,0,0,1,1.074,4,14.494,14.494,0,0,1-5.11,12.224h-6.58a10.776,10.776,0,0,0,7.981-6.587,10.929,10.929,0,0,0-.3-9.259c-1.445-2.867-3.621-5.289-5.454-7.9q-.256-.368-.489-.773c-2.309-4.036-2.6-10.642,1.052-13.837,1.382-1.208,3.412.809,2.023,2.023-2.232,1.953-2.115,5.686-1.472,8.332a8.147,8.147,0,0,0,.714,1.846,43.752,43.752,0,0,0,3.776,5.2q.412.567.8,1.148c.013,0,.027,0,.039.009a27.306,27.306,0,0,0,2.991.954,20.961,20.961,0,0,0,2.8.5,49.194,49.194,0,0,0,8.017.013c0-.5-.016-.992.008-1.486a26.924,26.924,0,0,1,3.361-11.168c.411-.789.843-1.569,1.281-2.343l2.02-3.587a41.508,41.508,0,0,0,2.229-4.606c1.215-3.06,1.315-6.243,2.119-9.387.62-2.429,1.873-6.23,4.972-5.912.406-1.729.8-3.571,2.482-4.453a3.641,3.641,0,0,1,3.927.253,3.473,3.473,0,0,1,1.1,1.851,3.249,3.249,0,0,1,1.515.243Z" transform="translate(-72.125 834.462)"/>
              <path id="パス_3369" data-name="パス 3369" d="M100.516-747.5c-.057.023-.037.151-.1.183-6.093,3.29-11.951,8.124-13.246,15.3a12.947,12.947,0,0,0,2.657,11.027c.04.047.083.092.122.14A29.93,29.93,0,0,0,76.6-712.218a34.78,34.78,0,0,0-7.436,12.034H72.2a32.04,32.04,0,0,1,6.425-10.011,27.053,27.053,0,0,1,12.277-7.96,1.32,1.32,0,0,0,.869-.694,53.358,53.358,0,0,1,6.08,6.773c1.586,2.339,2.526,6.416-1.128,7.316-1.787.439-1.029,3.2.761,2.759.01,0,.018-.007.028-.01a6.15,6.15,0,0,0,4.625-6.707c-.291-3.608-2.907-6.47-5.28-8.985-2.638-2.8-6.254-5.508-6.981-9.495a13.874,13.874,0,0,1,2.717-10.262c2.333-3.226,5.773-5.494,9.225-7.364Z" transform="translate(-55.51 826.181)" fill="#323232"/>
              <path id="パス_3370" data-name="パス 3370" d="M137.728-767.513a17.7,17.7,0,0,1-13.235-2.262c-3.761-2.378-6.215-6.394-7.636-10.555a19.362,19.362,0,0,1-1.122-5.834c-.005-.25,0-.5,0-.756a4.581,4.581,0,0,0,.6-1.377,1.33,1.33,0,0,0,.077-.292,4.5,4.5,0,0,0-2.277-4.584,4.072,4.072,0,0,0-1.531-.482,6.9,6.9,0,0,1-1.421-2.776,6.514,6.514,0,0,1,.715-4.687,2.753,2.753,0,0,1,1.95-1.372,2.547,2.547,0,0,1,1.221.323c.159.077.307.189.465.259a.547.547,0,0,1,.177.132c-.036-.066-.079-.154-.14-.3.53,1.229,2.6,1.188,2.747-.295.722-7.435,4.81-15.279,12.08-18.085a1.333,1.333,0,0,0,.811-1.7l-.008-.021a1.367,1.367,0,0,0-1.649-1.007,1.359,1.359,0,0,0-.193.062c-7.471,2.884-12.168,10.406-13.553,18.111a6.142,6.142,0,0,0-.941-.221,21.768,21.768,0,0,1,3.58-16.336c2.542-3.759,6.779-7.887,11.688-7.686a1.59,1.59,0,0,0,1.619-1.561,1.6,1.6,0,0,0-.027-.325,1.119,1.119,0,0,0-1.143-.939c-5.9-.243-10.959,3.812-14.174,8.438-3.737,5.38-5.726,12.231-4.387,18.739a7.031,7.031,0,0,0-3.652,5.16,9.275,9.275,0,0,0,1.289,6.744,3.8,3.8,0,0,0-.452.335,4.414,4.414,0,0,0-.552,6.217,4.413,4.413,0,0,0,3.615,1.575,3.891,3.891,0,0,0,.69-.083c.046.568.114,1.135.213,1.7.082.461.179.918.286,1.372l.755,2.595.041.133a24.753,24.753,0,0,0,3.55,6.7c.225.392,2.378,2.629,2.378,2.629,4.1,4.236,10,5.656,15.642,5.2,0,0,3.36-.314,4.118-1a9.935,9.935,0,0,0,2.175-3.951,11.466,11.466,0,0,1-4.386,2.058M113.66-789.084c-.033.1-.045.229-.074.326-.011.035-.024.074-.04.114-.068.119-.136.234-.21.35-.033.036-.065.074-.1.108s-.074.074-.114.108l-.019.015c.023-.014.035-.021.071-.04-.114.057-.215.151-.327.213-.043.023-.088.045-.13.069-.114.035-.229.069-.345.1-.152-.008-.182.012-.129.017h-.011c-.119.005-.236,0-.355-.01-.066-.015-.132-.029-.2-.046-.05-.013-.1-.03-.143-.046a.4.4,0,0,0-.123-.068,2.025,2.025,0,0,1-.184-.094l-.086-.057c-.063-.062-.133-.143-.2-.218a.405.405,0,0,0-.089-.088c-.026-.038-.052-.076-.077-.114s-.052-.09-.077-.136v-.006c-.033-.143-.048-.158-.039-.109a1.856,1.856,0,0,1-.069-.208c-.012-.046-.022-.094-.032-.14h0a3.073,3.073,0,0,1,0-.375v-.005c.042-.158.041-.184.03-.151.025-.1.057-.2.087-.3.035-.063.067-.128.1-.19.023-.039.049-.076.074-.114a.39.39,0,0,0,.114-.114,1.525,1.525,0,0,1,.128-.143c.017-.016.064-.052.1-.076.105-.065.244-.119.343-.192.05-.017.1-.034.152-.049s.2-.041.266-.057.135-.005.2,0,.111.005.168.007c.137.034.27.072.4.114.064.036.133.067.2.105.044.026.089.057.132.083a.131.131,0,0,0,.016.01l0,0c.091.089.181.18.272.271.034.051.069.1.1.154s.068.126.1.188c.039.123.072.244.1.368a.346.346,0,0,0,.012.147c0,.036.007.071.008.107,0,.057-.005.118-.007.177" transform="translate(-69.544 857.049)" fill="#323232"/>
              <path id="パス_3371" data-name="パス 3371" d="M185.11-704.437l9.135,3.2a17.84,17.84,0,0,1,4.6,2.729,22.966,22.966,0,0,1,5.591,5.715,23.6,23.6,0,0,1,3.126,7.29h2.923a25.536,25.536,0,0,0-8.588-14.237,22.727,22.727,0,0,0-6.089-3.982c-1.71-.62-3.435-1.2-5.152-1.8l-4.781-1.673a1.221,1.221,0,0,0-1.59.673c-.012.029-.023.059-.032.089a1.482,1.482,0,0,0,.749,1.956c.037.016.075.031.113.044" transform="translate(-97.464 811.504)" fill="#323232"/>
              <path id="パス_3372" data-name="パス 3372" d="M139.3-800.611a5.953,5.953,0,0,0-3.032,1.492,1.439,1.439,0,0,0,0,2.023,1.464,1.464,0,0,0,2.023,0c.016-.013.049-.048.083-.083a.432.432,0,0,0,.065-.041c.041-.028.083-.057.124-.083a5.573,5.573,0,0,1,.554-.31h0c.093-.035.187-.067.286-.1a4.466,4.466,0,0,1,.485-.1,4.375,4.375,0,0,1,.632,0,3.789,3.789,0,0,1,.575.133l.083.03c.124.067.25.128.37.2a1.432,1.432,0,0,0,1.958-.513,1.431,1.431,0,0,0-.513-1.958,5.482,5.482,0,0,0-3.693-.686m-.841,3.354a.117.117,0,0,1,.057-.03.16.16,0,0,0-.057.03m.521-.3a.189.189,0,0,1,.067-.03l-.067.03" transform="translate(-79.849 845.59)" fill="#323232"/>
              <path id="パス_3373" data-name="パス 3373" d="M134.513-857.9a4.98,4.98,0,0,1,1.4,1.364c.069.106.123.218.183.328.091-.185.183-.368.292-.544a4.747,4.747,0,0,1,1.1-1.23,5.112,5.112,0,0,1-.966-.77,5.523,5.523,0,0,1-.4-.5,4.828,4.828,0,0,1-.5.565,4.719,4.719,0,0,1-1.1.784" transform="translate(-79.359 866.963)" fill="#ffe164"/>
              <path id="パス_3376" data-name="パス 3376" d="M57.12-719.964a4.99,4.99,0,0,1,1.4,1.365c.069.105.122.218.183.327.091-.184.183-.368.292-.544a4.723,4.723,0,0,1,1.1-1.23,5.106,5.106,0,0,1-.965-.77,5.51,5.51,0,0,1-.4-.5,4.781,4.781,0,0,1-.5.565,4.733,4.733,0,0,1-1.1.784" transform="translate(-51.114 816.622)" fill="#ffe164"/>
              <path id="パス_3374" data-name="パス 3374" d="M126.067-861.356c1.291.467,3.417.816,4.11,2.143.786,1.506.715,3.463,1.073,5.1a1.441,1.441,0,0,0,2.759,0,21.668,21.668,0,0,1,1.155-5.178c.721-1.582,2.5-1.685,4.036-1.877a1.477,1.477,0,0,0,1.429-1.429,1.455,1.455,0,0,0-1.429-1.429c-1.36-.057-3.109-.114-4.109-1.18a4.942,4.942,0,0,1-1.06-3.283c0-.068.011-.137.015-.2a1.444,1.444,0,0,0-.03-.394v-.924a1.432,1.432,0,0,0-2.862,0c0,.443.011.891.031,1.341-.072,1.167-.109,2.682-1.039,3.533s-2.527.834-3.7.969a1.438,1.438,0,0,0-1.389,1.487,1.439,1.439,0,0,0,1.008,1.324m7-1.829a5.132,5.132,0,0,0,.966.77,4.768,4.768,0,0,0-1.1,1.23c-.108.176-.2.36-.292.544l-.183-.328a9.256,9.256,0,0,0-1.4-1.364,4.737,4.737,0,0,0,1.1-.784,4.834,4.834,0,0,0,.5-.565,5.5,5.5,0,0,0,.4.5" transform="translate(-75.909 871.395)" fill="#323232"/>
              <path id="パス_3375" data-name="パス 3375" d="M48.674-723.418c1.291.467,3.416.816,4.109,2.143.786,1.506.715,3.463,1.073,5.1a1.441,1.441,0,0,0,2.759,0,21.669,21.669,0,0,1,1.155-5.178c.721-1.581,2.5-1.685,4.036-1.877a1.477,1.477,0,0,0,1.429-1.429,1.455,1.455,0,0,0-1.429-1.429c-1.36-.057-3.109-.114-4.108-1.179a4.944,4.944,0,0,1-1.061-3.284c0-.068.011-.137.015-.2a1.47,1.47,0,0,0-.03-.394v-.923a1.432,1.432,0,0,0-2.862,0c0,.442.011.891.03,1.34-.072,1.167-.109,2.683-1.039,3.534s-2.527.834-3.7.968a1.44,1.44,0,0,0-1.389,1.487,1.44,1.44,0,0,0,1.009,1.324m7-1.829a5.164,5.164,0,0,0,.965.77,4.766,4.766,0,0,0-1.1,1.23c-.109.176-.2.36-.292.544-.062-.109-.114-.223-.183-.328a4.979,4.979,0,0,0-1.4-1.364,4.787,4.787,0,0,0,1.1-.784,4.823,4.823,0,0,0,.5-.565,5.608,5.608,0,0,0,.4.5" transform="translate(-47.664 821.054)"/>
            </g>
          </g>
        </g>
      </g>
    </g>
  </g>
</svg>
