<svg xmlns="http://www.w3.org/2000/svg" width="287.998" height="376.512" viewBox="0 0 287.998 376.512">
  <g id="グループ_3164" data-name="グループ 3164" transform="translate(-20 -3967.895)">
    <rect id="長方形_508" data-name="長方形 508" width="280" height="60" transform="translate(20 4041.951)" fill="#fff"/>
    <rect id="長方形_509" data-name="長方形 509" width="90" height="60" transform="translate(210 4041.951)" fill="#eb6100"/>
    <g id="パス_2674" data-name="パス 2674" transform="translate(20 4041.951)" fill="none">
      <path d="M0,0H280V60H0Z" stroke="none"/>
      <path d="M 2.399993896484375 2.400001525878906 L 2.399993896484375 57.59999847412109 L 277.6000061035156 57.59999847412109 L 277.6000061035156 2.400001525878906 L 2.399993896484375 2.400001525878906 M 0 0 L 280 0 L 280 60 L 0 60 L 0 0 Z" stroke="none" fill="#000"/>
    </g>
    <text id="今お乗りのクルマを下取りに出すと_車の売却金額を引いてもローンが残ってしまう_" data-name="今お乗りのクルマを下取りに出すと
車の売却金額を引いてもローンが残ってしまう。
" transform="translate(164.141 3981.752)" fill="#eb6100" stroke="rgba(0,0,0,0)" stroke-width="0.857" font-size="12" font-family="HiraginoSans-W6, Hiragino Sans"><tspan fill="#000"><tspan x="-95.22" y="0">今お乗りのクルマを下取りに出すと</tspan><tspan y="0" font-family="NotoSans-Bold, Noto Sans" font-weight="700"></tspan></tspan><tspan x="-142.26" y="19.2" fill="#000">車の売却金額を引いても</tspan><tspan y="19.2" fill="#eb6100" font-size="14" font-family="HiraginoSans-W8, Hiragino Sans">ローンが残ってしまう。</tspan><tspan y="19.2" fill="#eb6100" font-size="14" font-family="NotoSans-ExtraBold, Noto Sans" font-weight="800"></tspan><tspan font-size="14" font-family="NotoSans-ExtraBold, Noto Sans" font-weight="800"><tspan x="0" y="38.4"></tspan></tspan></text>
    <text id="下取り81.6万円" transform="translate(120 4077.151)" stroke="rgba(0,0,0,0)" stroke-width="0.857" font-size="12" font-family="HiraginoSans-W6, Hiragino Sans"><tspan x="-42.006" y="0">下取り</tspan><tspan y="0" font-family="NotoSans-Bold, Noto Sans" font-weight="700">81.6</tspan><tspan y="0">万円</tspan></text>
    <text id="ローン残額_約103万円" data-name="ローン残額　約103万円" transform="translate(160 4122.151)" stroke="rgba(0,0,0,0)" stroke-width="0.857" font-size="12" font-family="HiraginoSans-W6, Hiragino Sans"><tspan x="-63.936" y="0">ローン残額　約</tspan><tspan y="0" font-family="NotoSans-Bold, Noto Sans" font-weight="700">103</tspan><tspan y="0">万円</tspan></text>
    <path id="パス_2673" data-name="パス 2673" d="M246.88,933.118H134.7l-16.853,20.629-.088-20.629H-33.12" transform="translate(53.12 3080.519)" fill="none" stroke="#1a1311" stroke-miterlimit="10" stroke-width="1"/>
    <path id="パス_2675" data-name="パス 2675" d="M305.7,581.567h68.217V569.1" transform="translate(-74.914 3537.484)" fill="none" stroke="#000" stroke-linecap="round" stroke-linejoin="round" stroke-width="1" fill-rule="evenodd"/>
    <g id="グループ_2213" data-name="グループ 2213" transform="translate(-195.506 -219.248)">
      <text id="ローン不足分_" data-name="ローン不足分
" transform="translate(450.506 4288.6)" fill="#fff" stroke="rgba(0,0,0,0)" stroke-width="0.857" font-size="12" font-family="HiraginoSans-W8, Hiragino Sans"><tspan x="-35.82" y="0">ローン不足分</tspan><tspan y="0" font-family="NotoSans-ExtraBold, Noto Sans" font-weight="800"></tspan><tspan font-family="NotoSans-ExtraBold, Noto Sans" font-weight="800"><tspan x="0" y="19.2"></tspan></tspan></text>
      <text id="万円" transform="translate(466.306 4304.6)" fill="#fff" stroke="rgba(0,0,0,0)" stroke-width="0.857" font-size="12" font-family="HiraginoSans-W8, Hiragino Sans"><tspan x="-12" y="0">万円</tspan></text>
      <text id="_21.3" data-name="21.3" transform="translate(437.306 4305.601)" fill="#fff" stroke="rgba(0,0,0,0)" stroke-width="0.857" font-size="15.6" font-family="NotoSans-ExtraBold, Noto Sans" font-weight="800"><tspan x="-15.764" y="0">21.3</tspan></text>
    </g>
    <path id="パス_2676" data-name="パス 2676" d="M348.747,581.567H277.431V569.1" transform="translate(-256.431 3537.484)" fill="none" stroke="#000" stroke-linecap="round" stroke-linejoin="round" stroke-width="1" fill-rule="evenodd"/>
    <g id="グループ_2214" data-name="グループ 2214" transform="translate(-700.645 -37.674)">
      <path id="楕円形_1038" data-name="楕円形 1038" d="M85.053,206.925l24.161,3.151,5.273-23.792L136.1,197.537,149.222,177l16.472,17.96,19.33-14.841,9.348,22.5,23.247-7.3,1.057,24.352,24.352,1.057-7.3,23.248,22.5,9.348-14.841,19.33,17.96,16.472-20.536,13.118,11.254,21.616-23.792,5.272,3.151,24.161-24.161-3.151-5.273,23.792-21.616-11.254-13.118,20.536-16.472-17.96L131.453,380.1,122.1,357.6l-23.247,7.3L97.8,340.548l-24.352-1.057,7.3-23.248-22.5-9.348,14.841-19.33L55.13,271.092l20.536-13.118L64.413,236.358,88.2,231.086Z" transform="translate(702.407 3998.863)" fill="#fcd21c"/>
      <text id="アレンジ7なら_ローン不足分を" data-name="アレンジ7なら
ローン不足分を" transform="translate(861.268 4236.147)" stroke="rgba(0,0,0,0)" stroke-width="0.857" font-size="14.724" font-family="HiraginoSans-W6, Hiragino Sans"><tspan x="-48.089" y="0">アレンジ</tspan><tspan y="0" font-family="NotoSans-Bold, Noto Sans" font-weight="700">7</tspan><tspan y="0">なら</tspan><tspan y="0" font-family="NotoSans-Bold, Noto Sans" font-weight="700"></tspan><tspan x="-51.092" y="21.268">ローン不足分を</tspan></text>
      <text id="次のおクルマの_ローンに_組み込めます" data-name="次のおクルマの
ローンに
組み込めます" transform="translate(860.816 4287.41)" fill="#eb6100" stroke="rgba(0,0,0,0)" stroke-width="0.857" font-size="17.996" font-family="HiraginoSans-W8, Hiragino Sans"><tspan x="-62.266" y="0">次のおクルマの</tspan><tspan y="0" font-family="NotoSans-ExtraBold, Noto Sans" font-weight="800"></tspan><tspan x="-35.722" y="21.268">ローンに</tspan><tspan y="21.268" font-family="NotoSans-ExtraBold, Noto Sans" font-weight="800"></tspan><tspan x="-53.988" y="42.536">組み込めます</tspan></text>
    </g>
  </g>
</svg>
