<svg xmlns="http://www.w3.org/2000/svg" width="881.234" height="262.714" viewBox="0 0 881.234 262.714">
  <g id="グループ_3151" data-name="グループ 3151" transform="translate(-158.766 -3506.139)">
    <rect id="長方形_813" data-name="長方形 813" width="161" height="261" transform="translate(879 3507)" fill="none"/>
    <g id="グループ_3150" data-name="グループ 3150">
      <rect id="長方形_304" data-name="長方形 304" width="560" height="100" transform="translate(160 3628.996)" fill="#fff"/>
      <rect id="長方形_306" data-name="長方形 306" width="150" height="100" transform="translate(570 3628.996)" fill="#eb6100"/>
      <g id="長方形_307" data-name="長方形 307" transform="translate(160 3628.996)" fill="none" stroke="#000" stroke-width="4">
        <rect width="560" height="100" stroke="none"/>
        <rect x="2" y="2" width="556" height="96" fill="none"/>
      </g>
      <g id="グループ_764" data-name="グループ 764" transform="translate(7 -665.869)">
        <path id="楕円形_1038" data-name="楕円形 1038" d="M91.711,213.582l29.537,3.852,6.446-29.085,26.425,13.758L170.157,177l20.137,21.956,23.631-18.143,11.428,27.51,28.42-8.928,1.292,29.77,29.77,1.292-8.928,28.42,27.51,11.428-18.144,23.631,21.956,20.137-25.105,16.037,13.758,26.425L266.8,362.982l3.852,29.537-29.537-3.852-6.446,29.085L208.24,404,192.2,429.1l-20.137-21.956-23.631,18.143-11.428-27.51-28.42,8.928-1.292-29.77-29.77-1.292,8.928-28.42L58.942,335.8l18.144-23.631L55.13,292.027,80.235,275.99,66.478,249.565l29.085-6.446Z" transform="translate(702.407 3998.863)" fill="#fcd21c"/>
        <text id="アレンジ7なら_ローン不足分を" data-name="アレンジ7なら
ローン不足分を" transform="translate(884 4249)" stroke="rgba(0,0,0,0)" stroke-width="0.857" font-size="18" font-family="HiraginoSans-W6, Hiragino Sans"><tspan x="-58.788" y="0">アレンジ</tspan><tspan y="0" font-family="NotoSans-Bold, Noto Sans" font-weight="700">7</tspan><tspan y="0">なら</tspan><tspan y="0" font-family="NotoSans-Bold, Noto Sans" font-weight="700"></tspan><tspan x="-62.46" y="26">ローン不足分を</tspan></text>
        <text id="次のおクルマの_ローンに_組み込めます" data-name="次のおクルマの
ローンに
組み込めます" transform="translate(884 4313)" fill="#eb6100" stroke="rgba(0,0,0,0)" stroke-width="0.857" font-size="22" font-family="HiraginoSans-W8, Hiragino Sans"><tspan x="-76.12" y="0">次のおクルマの</tspan><tspan y="0" font-family="NotoSans-ExtraBold, Noto Sans" font-weight="800"></tspan><tspan x="-43.67" y="26">ローンに</tspan><tspan y="26" font-family="NotoSans-ExtraBold, Noto Sans" font-weight="800"></tspan><tspan x="-66" y="52">組み込めます</tspan></text>
      </g>
      <text id="今お乗りのクルマを下取りに出すと_車の売却金額を引いてもローンが残ってしまう_" data-name="今お乗りのクルマを下取りに出すと
車の売却金額を引いてもローンが残ってしまう。
" transform="translate(440 3527.996)" fill="#eb6100" stroke="rgba(0,0,0,0)" stroke-width="0.857" font-size="20" font-family="HiraginoSans-W6, Hiragino Sans"><tspan fill="#000"><tspan x="-158.7" y="0">今お乗りのクルマを下取りに出すと</tspan><tspan y="0" font-family="NotoSans-Bold, Noto Sans" font-weight="700"></tspan></tspan><tspan x="-240.74" y="32" fill="#000">車の売却金額を引いても</tspan><tspan y="32" fill="#eb6100" font-size="24" font-family="HiraginoSans-W8, Hiragino Sans">ローンが残ってしまう。</tspan><tspan y="32" fill="#eb6100" font-size="24" font-family="NotoSans-ExtraBold, Noto Sans" font-weight="800"></tspan><tspan font-size="24" font-family="NotoSans-ExtraBold, Noto Sans" font-weight="800"><tspan x="0" y="64"></tspan></tspan></text>
      <text id="下取り162万円" transform="translate(359 3686.996)" stroke="rgba(0,0,0,0)" stroke-width="0.857" font-size="20" font-family="HiraginoSans-W6, Hiragino Sans"><tspan x="-67.16" y="0">下取り</tspan><tspan y="0" font-family="NotoSans-Bold, Noto Sans" font-weight="700">162</tspan><tspan y="0">万円</tspan></text>
      <text id="ローン残額_約204万円" data-name="ローン残額　約204万円" transform="translate(442 3761.996)" stroke="rgba(0,0,0,0)" stroke-width="0.857" font-size="20" font-family="HiraginoSans-W6, Hiragino Sans"><tspan x="-106.56" y="0">ローン残額　約</tspan><tspan y="0" font-family="NotoSans-Bold, Noto Sans" font-weight="700">204</tspan><tspan y="0">万円</tspan></text>
      <g id="グループ_765" data-name="グループ 765" transform="translate(0 -681.004)">
        <text id="ローン不足分_" data-name="ローン不足分
" transform="translate(645 4355)" fill="#fff" stroke="rgba(0,0,0,0)" stroke-width="0.857" font-size="20" font-family="HiraginoSans-W8, Hiragino Sans"><tspan x="-59.7" y="0">ローン不足分</tspan><tspan y="0" font-family="NotoSans-ExtraBold, Noto Sans" font-weight="800"></tspan><tspan font-family="NotoSans-ExtraBold, Noto Sans" font-weight="800"><tspan x="0" y="32"></tspan></tspan></text>
        <text id="万円" transform="translate(661 4382)" fill="#fff" stroke="rgba(0,0,0,0)" stroke-width="0.857" font-size="20" font-family="HiraginoSans-W8, Hiragino Sans"><tspan x="-20" y="0">万円</tspan></text>
        <text id="_42" data-name="42" transform="translate(623 4383)" fill="#fff" stroke="rgba(0,0,0,0)" stroke-width="0.857" font-size="26" font-family="NotoSans-ExtraBold, Noto Sans" font-weight="800"><tspan x="-15.028" y="0">42</tspan></text>
      </g>
      <path id="パス_1257" data-name="パス 1257" d="M501.187,933.118h-238.6L234.5,967.5l-.147-34.382H-57.121" transform="translate(215.886 2648.687)" fill="none" stroke="#1a1311" stroke-miterlimit="10" stroke-width="1"/>
      <path id="パス_1263" data-name="パス 1263" d="M438.236,589.879H277.431V569.1" transform="translate(-115.236 3167.616)" fill="none" stroke="#000" stroke-linecap="round" stroke-linejoin="round" stroke-width="1" fill-rule="evenodd"/>
      <path id="パス_1264" data-name="パス 1264" d="M277.431,589.879H438.236V569.1" transform="translate(281.764 3167.616)" fill="none" stroke="#000" stroke-linecap="round" stroke-linejoin="round" stroke-width="1" fill-rule="evenodd"/>
    </g>
  </g>
</svg>
