<svg xmlns="http://www.w3.org/2000/svg" xmlns:xlink="http://www.w3.org/1999/xlink" width="402.476" height="264.869" viewBox="0 0 402.476 264.869">
  <defs>
    <clipPath id="clip-path">
      <path id="パス_1461" data-name="パス 1461" d="M553.3,491.4c-8.661,7.826-14.529,15.679-21.252,25.283-.9,1.292-1.775,2.5-2.621,3.646l55.472,30.6q.987-1.353,2.032-2.844c6.71-9.586,12.79-17.712,21.732-25.847Z" transform="translate(-529.425 -491.403)" fill="#9ed8f5"/>
    </clipPath>
  </defs>
  <g id="グループ_990" data-name="グループ 990" transform="translate(-91.559 -410.494)">
    <g id="グループ_992" data-name="グループ 992" transform="translate(91.559 432.07)">
      <g id="グループ_991" data-name="グループ 991" style="isolation: isolate">
        <path id="パス_1362" data-name="パス 1362" d="M91.559,834.9l.03-10.488c-.009,3.218,2.115,6.44,6.366,8.895l-.03,10.488C93.674,841.341,91.55,838.119,91.559,834.9Z" transform="translate(-91.559 -711.413)" fill="none"/>
        <path id="パス_1363" data-name="パス 1363" d="M494.018,831.6c-.006.109-.012.217-.023.325s-.023.189-.036.284-.031.215-.051.323-.038.191-.06.286-.048.209-.076.314-.054.191-.084.286-.066.208-.1.312-.068.186-.1.278q-.065.164-.138.328-.061.136-.127.272c-.053.108-.109.216-.167.324-.047.087-.1.175-.146.261-.075.128-.155.256-.237.383-.05.077-.1.154-.15.23-.1.14-.2.279-.3.417-.046.061-.089.122-.137.183q-.262.33-.56.653c-.05.055-.105.109-.157.163q-.235.246-.49.487c-.077.073-.155.146-.236.219-.1.091-.206.182-.311.272s-.2.166-.3.248-.223.176-.337.264-.212.162-.322.241-.242.172-.365.257-.227.156-.343.232-.26.167-.393.249c-.165.1-.328.205-.5.305L314.721,940.557c-.323.188-.656.365-.994.539-.1.049-.195.1-.293.146q-.394.2-.8.377c-.091.041-.181.083-.274.123q-.529.23-1.076.439c-.065.025-.131.047-.2.071q-.462.172-.935.328-.195.064-.391.127-.261.082-.526.16-.222.065-.446.128c-.178.05-.358.1-.538.144-.15.039-.3.077-.452.114-.184.044-.369.086-.554.128-.151.034-.3.067-.453.1-.189.039-.378.076-.568.112-.144.028-.288.055-.432.081-.4.071-.811.138-1.221.195l-.173.022q-.535.072-1.076.128l-.41.04q-.347.032-.7.058c-.145.011-.29.021-.435.03-.242.015-.484.026-.727.036-.136.006-.272.013-.409.017-.209.006-.418.009-.627.012-.148,0-.3.006-.444.006-.224,0-.448,0-.671-.007-.134,0-.267,0-.4-.005-.207-.006-.414-.015-.621-.024-.142-.006-.285-.01-.428-.018-.223-.012-.446-.029-.669-.046-.126-.009-.251-.016-.376-.026-.272-.023-.542-.05-.813-.079-.075-.008-.15-.014-.225-.022q-.518-.058-1.032-.131l-.142-.022c-.3-.044-.6-.09-.9-.142-.12-.02-.238-.045-.358-.067-.225-.041-.45-.082-.673-.128-.115-.023-.228-.05-.343-.075-.244-.053-.487-.107-.729-.165-.134-.032-.266-.067-.4-.1q-.329-.083-.654-.173c-.124-.034-.246-.07-.369-.105q-.515-.15-1.019-.317l-.181-.058c-.386-.131-.766-.271-1.141-.417-.079-.031-.157-.063-.235-.095-.488-.2-.967-.4-1.432-.624l-.137-.068c-.486-.236-.962-.483-1.42-.747L97.955,833.308c-4.251-2.455-6.375-5.677-6.366-8.895l-.03,10.488c-.009,3.218,2.115,6.44,6.366,8.895l186.252,107.25c.457.264.933.511,1.419.747l.138.069c.465.221.943.428,1.431.623.043.017.083.038.126.055s.073.026.11.04c.375.146.754.286,1.141.417l.181.058q.5.167,1.019.317c.058.017.113.036.17.053s.133.034.2.052q.324.09.653.173c.134.034.267.069.4.1.241.058.483.112.726.164.091.019.18.042.271.061l.073.014c.223.045.447.087.672.128.119.022.238.046.358.067.3.052.6.1.9.142l.136.021h.007q.513.073,1.031.131c.086.009.172.016.258.025.26.027.52.054.781.076l.02,0c.118.01.237.016.356.024.223.016.446.033.67.045.142.008.284.012.427.018.207.009.415.019.622.024l.051,0c.115,0,.231,0,.347,0,.225,0,.45.007.675.007.147,0,.294,0,.441-.006.21,0,.42-.006.63-.012l.116,0c.1,0,.2-.01.293-.015.242-.01.483-.021.725-.036.146-.009.292-.02.438-.031q.348-.025.694-.057c.08-.008.162-.012.242-.02.056-.006.112-.014.168-.02q.538-.056,1.071-.127l.179-.023c.409-.058.815-.123,1.219-.194l.114-.019c.108-.019.214-.043.322-.063.189-.036.377-.072.564-.111.153-.032.3-.066.456-.1.184-.041.368-.083.55-.127.152-.037.3-.076.455-.115.179-.046.358-.093.535-.143.15-.042.3-.085.449-.129q.264-.078.524-.16c.076-.024.153-.045.229-.07.055-.017.107-.038.162-.057q.473-.157.934-.328c.066-.024.132-.047.2-.071q.548-.208,1.076-.439c.092-.04.182-.082.273-.123q.406-.182.8-.377c.1-.049.2-.1.295-.147.337-.173.67-.351.993-.538L487.733,850.485q.134-.078.264-.156c.081-.049.156-.1.236-.149.133-.083.265-.165.393-.249s.23-.154.343-.232.247-.17.366-.257.215-.16.32-.24.229-.176.339-.265.2-.164.3-.247.211-.181.312-.272c.042-.038.087-.074.128-.112s.07-.072.108-.107q.255-.241.49-.487c.052-.055.107-.109.157-.164q.3-.323.56-.653c.007-.01.017-.019.024-.029.04-.051.074-.1.113-.155.1-.138.207-.276.3-.415.053-.077.1-.155.151-.232.082-.127.162-.254.236-.382.021-.035.045-.07.065-.105.029-.052.053-.1.081-.156.058-.108.114-.216.167-.324.044-.091.087-.181.127-.273.048-.109.094-.217.138-.326.02-.049.044-.1.062-.147s.028-.088.044-.132c.037-.1.071-.207.1-.311s.058-.19.084-.286.053-.209.076-.314c.013-.057.03-.114.042-.171.007-.038.011-.077.018-.115.02-.107.036-.215.051-.322s.026-.19.036-.285.017-.216.023-.323c0-.064.012-.128.014-.192v-.13c0-.02,0-.04,0-.059l.03-10.488C494.034,831.347,494.025,831.474,494.018,831.6Z" transform="translate(-91.559 -711.413)" fill="#0079c2"/>
        <g id="グループ_990-2" data-name="グループ 990" transform="translate(0.03)">
          <path id="パス_1364" data-name="パス 1364" d="M487.725,587.764c8.456,4.882,8.5,12.793.1,17.675L314.782,706c-8.4,4.882-22.058,4.882-30.514,0L98.016,598.75c-8.45-4.879-8.495-12.79-.094-17.672L270.965,480.518c8.4-4.882,22.058-4.882,30.509,0Z" transform="translate(-91.65 -476.856)" fill="#00b8ee"/>
        </g>
      </g>
    </g>
    <g id="グループ_1010" data-name="グループ 1010" transform="translate(278.379 497.215)">
      <g id="グループ_993" data-name="グループ 993" transform="translate(0 0)">
        <path id="パス_1365" data-name="パス 1365" d="M869.944,728.582,755.123,795.309l-88.955-51.359,114.821-66.727Z" transform="translate(-666.168 -677.224)" fill="#fff"/>
      </g>
      <g id="グループ_1009" data-name="グループ 1009" transform="translate(37.687 9.363)">
        <g id="グループ_994" data-name="グループ 994" transform="translate(75.126)">
          <path id="パス_1366" data-name="パス 1366" d="M1036.42,718.708l-1.3.753-21.973-12.686,1.3-.753Z" transform="translate(-1013.15 -706.022)" fill="#3d3939"/>
        </g>
        <g id="グループ_997" data-name="グループ 997" transform="translate(64.444 6.209)" style="isolation: isolate">
          <g id="グループ_995" data-name="グループ 995" transform="translate(62.884 28.011)">
            <path id="パス_1367" data-name="パス 1367" d="M1189.595,819.7l-1.3.753-14.59-8.423,1.3-.753Z" transform="translate(-1173.709 -811.274)" fill="#3d3939"/>
          </g>
          <g id="グループ_996" data-name="グループ 996">
            <path id="パス_1368" data-name="パス 1368" d="M1051.9,765.716l-1.295.752-70.315-40.6,1.295-.752Z" transform="translate(-980.294 -725.12)" fill="#3d3939"/>
          </g>
        </g>
        <g id="グループ_998" data-name="グループ 998" transform="translate(57.283 10.37)">
          <path id="パス_1369" data-name="パス 1369" d="M1029.879,778.513l-1.3.753-70.315-40.6,1.3-.753Z" transform="translate(-958.268 -737.917)" fill="#3d3939"/>
        </g>
        <g id="グループ_999" data-name="グループ 999" transform="translate(50.123 14.531)">
          <path id="パス_1370" data-name="パス 1370" d="M1007.856,791.313l-1.295.752-70.314-40.6,1.295-.752Z" transform="translate(-936.247 -750.717)" fill="#3d3939"/>
        </g>
        <g id="グループ_1008" data-name="グループ 1008" transform="translate(0 18.692)" style="isolation: isolate">
          <g id="グループ_1000" data-name="グループ 1000" transform="translate(35.803 4.162)">
            <path id="パス_1371" data-name="パス 1371" d="M930.939,797.932l-1.295.752L892.2,777.066l1.295-.752Z" transform="translate(-892.201 -776.314)" fill="#3d3939"/>
          </g>
          <g id="グループ_1001" data-name="グループ 1001" transform="translate(42.962)">
            <path id="パス_1372" data-name="パス 1372" d="M985.832,804.11l-1.3.753-70.314-40.6,1.3-.753Z" transform="translate(-914.221 -763.514)" fill="#3d3939"/>
          </g>
          <g id="グループ_1002" data-name="グループ 1002" transform="translate(14.321 16.645)">
            <path id="パス_1373" data-name="パス 1373" d="M882.271,846.373l-1.3.753-54.846-31.665,1.3-.753Z" transform="translate(-826.128 -814.708)" fill="#3d3939"/>
          </g>
          <g id="グループ_1003" data-name="グループ 1003" transform="translate(28.641 8.322)">
            <path id="パス_1374" data-name="パス 1374" d="M941.786,829.707l-1.3.753-70.314-40.6,1.3-.753Z" transform="translate(-870.175 -789.111)" fill="#3d3939"/>
          </g>
          <g id="グループ_1004" data-name="グループ 1004" transform="translate(21.482 12.484)">
            <path id="パス_1375" data-name="パス 1375" d="M919.763,842.507l-1.295.752-70.314-40.6,1.295-.752Z" transform="translate(-848.154 -801.911)" fill="#3d3939"/>
          </g>
          <g id="グループ_1005" data-name="グループ 1005" transform="translate(7.161 20.806)">
            <path id="パス_1376" data-name="パス 1376" d="M875.717,868.1l-1.295.752-70.314-40.6,1.294-.752Z" transform="translate(-804.108 -827.508)" fill="#3d3939"/>
          </g>
          <g id="グループ_1006" data-name="グループ 1006" transform="translate(0 24.968)">
            <path id="パス_1377" data-name="パス 1377" d="M853.691,880.9l-1.295.752-70.314-40.6,1.295-.752Z" transform="translate(-782.082 -840.308)" fill="#3d3939"/>
          </g>
          <g id="グループ_1007" data-name="グループ 1007" transform="translate(18.132 53.402)">
            <path id="パス_1378" data-name="パス 1378" d="M852.779,928.88a2.75,2.75,0,0,1,.792.654c1.287,1.619-.174,2.976-1.459,4.174-1.028.957-1.916,1.784-1.16,2.525a1.781,1.781,0,0,0,.363.27c1.124.649,3.48.8,5.765.945,2.431.156,4.735.3,5.992,1.026a2.676,2.676,0,0,1,.294.2,3.589,3.589,0,0,1,1.326,3.3,2.5,2.5,0,0,0,.439,1.84,5.656,5.656,0,0,0,1.174.873c3.338,1.927,9.634,2.33,9.705,2.334a.85.85,0,0,1,.37.1.291.291,0,0,1,.179.287c-.034.194-.334.336-.671.317-.313-.021-6.8-.431-10.44-2.533a6.64,6.64,0,0,1-1.378-1.026,2.82,2.82,0,0,1-.6-2.2,3.126,3.126,0,0,0-1.079-2.876,1.512,1.512,0,0,0-.17-.113c-.951-.549-3.146-.693-5.268-.829-2.5-.16-5.075-.326-6.5-1.147a2.812,2.812,0,0,1-.557-.414c-1.132-1.112.042-2.2,1.176-3.262,1.177-1.1,2.4-2.229,1.386-3.5a1.92,1.92,0,0,0-.554-.455c-2.519-1.455-10.269-.809-13.3-.4a.939.939,0,0,1-.575-.095.374.374,0,0,1-.164-.169c-.078-.192.125-.382.454-.428C838.8,928.221,849.221,926.826,852.779,928.88Z" transform="translate(-837.852 -927.763)" fill="#3d3939"/>
          </g>
        </g>
      </g>
    </g>
    <g id="グループ_1047" data-name="グループ 1047" transform="translate(112.026 489.628)">
      <g id="グループ_1016" data-name="グループ 1016" transform="translate(0 0)">
        <g id="グループ_1015" data-name="グループ 1015" style="isolation: isolate">
          <g id="グループ_1011" data-name="グループ 1011" transform="translate(0 41.533)">
            <path id="パス_1379" data-name="パス 1379" d="M155.294,781.635l21.552,30.5-1.415,4.22-20.92-29.68Z" transform="translate(-154.512 -781.635)" fill="#c8c9ca"/>
          </g>
          <g id="グループ_1012" data-name="グループ 1012" transform="translate(0.783)">
            <path id="パス_1380" data-name="パス 1380" d="M229.138,653.89,250.693,684.4l-72.222,41.529-21.552-30.5Z" transform="translate(-156.919 -653.89)" fill="#fff"/>
          </g>
          <g id="グループ_1013" data-name="グループ 1013" transform="translate(7.909 6.592)">
            <path id="パス_1381" data-name="パス 1381" d="M242.065,674.166l3.045,4.306-63.228,36.361-3.045-4.306Z" transform="translate(-178.837 -674.166)" fill="#bac3e3"/>
          </g>
          <g id="グループ_1014" data-name="グループ 1014" transform="translate(13.453 14.43)">
            <path id="パス_1382" data-name="パス 1382" d="M259.116,698.274l11.553,16.342-63.228,36.361-11.553-16.342Z" transform="translate(-195.888 -698.274)" fill="#87b0b2"/>
          </g>
        </g>
      </g>
      <g id="グループ_1046" data-name="グループ 1046" transform="translate(20.92 30.28)">
        <g id="グループ_1045" data-name="グループ 1045" style="isolation: isolate">
          <g id="グループ_1017" data-name="グループ 1017" transform="translate(62.141 5.033)">
            <path id="パス_1383" data-name="パス 1383" d="M420.859,762.5l10.8,6.276-10.871,6.276-10.8-6.279Z" transform="translate(-409.984 -762.502)" fill="#81bfba"/>
          </g>
          <g id="グループ_1018" data-name="グループ 1018" transform="translate(74.791 12.384)">
            <path id="パス_1384" data-name="パス 1384" d="M459.766,785.112l10.8,6.279-10.871,6.276-10.8-6.276Z" transform="translate(-448.891 -785.112)" fill="#728c99"/>
          </g>
          <g id="グループ_1019" data-name="グループ 1019" transform="translate(49.113 12.552)">
            <path id="パス_1385" data-name="パス 1385" d="M380.784,785.63l10.8,6.278-10.875,6.274-10.8-6.276Z" transform="translate(-369.913 -785.63)" fill="#81bfba"/>
          </g>
          <g id="グループ_1020" data-name="グループ 1020" transform="translate(87.44 19.737)">
            <path id="パス_1386" data-name="パス 1386" d="M498.668,807.729l10.8,6.276L498.6,820.281l-10.8-6.276Z" transform="translate(-487.798 -807.729)" fill="#728c99"/>
          </g>
          <g id="グループ_1021" data-name="グループ 1021" transform="translate(61.762 19.903)">
            <path id="パス_1387" data-name="パス 1387" d="M419.69,808.24l10.8,6.279L419.616,820.8l-10.8-6.278Z" transform="translate(-408.82 -808.24)" fill="#83a2b0"/>
          </g>
          <g id="グループ_1022" data-name="グループ 1022" transform="translate(36.081 20.072)">
            <path id="パス_1388" data-name="パス 1388" d="M340.708,808.759l10.8,6.278-10.871,6.276-10.8-6.278Z" transform="translate(-329.829 -808.759)" fill="#92c5aa"/>
          </g>
          <g id="グループ_1023" data-name="グループ 1023" transform="translate(100.09 27.088)">
            <path id="パス_1389" data-name="パス 1389" d="M537.575,830.339l10.8,6.281L537.5,842.894l-10.8-6.278Z" transform="translate(-526.705 -830.339)" fill="#728c99"/>
          </g>
          <g id="グループ_1024" data-name="グループ 1024" transform="translate(74.408 27.259)">
            <path id="パス_1390" data-name="パス 1390" d="M458.589,830.864l10.8,6.276-10.874,6.274-10.8-6.276Z" transform="translate(-447.714 -830.864)" fill="#83a2b0"/>
          </g>
          <g id="グループ_1025" data-name="グループ 1025" transform="translate(23.056 27.592)">
            <path id="パス_1391" data-name="パス 1391" d="M300.64,831.887l10.8,6.281-10.874,6.274-10.8-6.278Z" transform="translate(-289.77 -831.887)" fill="#92c5aa"/>
          </g>
          <g id="グループ_1026" data-name="グループ 1026" transform="translate(112.736 34.442)">
            <path id="パス_1392" data-name="パス 1392" d="M576.47,852.956l10.8,6.279L576.4,865.509l-10.8-6.276Z" transform="translate(-565.599 -852.956)" fill="#728c99"/>
          </g>
          <g id="グループ_1027" data-name="グループ 1027" transform="translate(87.058 34.61)">
            <path id="パス_1393" data-name="パス 1393" d="M497.5,853.475l10.8,6.276-10.874,6.278-10.8-6.281Z" transform="translate(-486.621 -853.475)" fill="#83a2b0"/>
          </g>
          <g id="グループ_1028" data-name="グループ 1028" transform="translate(61.384 34.776)">
            <path id="パス_1394" data-name="パス 1394" d="M418.525,853.986l10.8,6.279-10.871,6.276-10.8-6.278Z" transform="translate(-407.655 -853.986)" fill="#83a2b0"/>
          </g>
          <g id="グループ_1029" data-name="グループ 1029" transform="translate(35.702 34.947)">
            <path id="パス_1395" data-name="パス 1395" d="M339.539,854.511l10.8,6.276-10.874,6.274-10.8-6.276Z" transform="translate(-328.664 -854.511)" fill="#83a2b0"/>
          </g>
          <g id="グループ_1030" data-name="グループ 1030" transform="translate(10.028 35.114)">
            <path id="パス_1396" data-name="パス 1396" d="M260.568,855.023l10.8,6.276L260.5,867.575,249.7,861.3Z" transform="translate(-249.698 -855.023)" fill="#da776c"/>
          </g>
          <g id="グループ_1031" data-name="グループ 1031" transform="translate(99.707 41.961)">
            <path id="パス_1397" data-name="パス 1397" d="M536.4,876.085l10.8,6.279-10.87,6.276-10.8-6.276Z" transform="translate(-525.528 -876.085)" fill="#83a2b0"/>
          </g>
          <g id="グループ_1032" data-name="グループ 1032" transform="translate(74.029 42.13)">
            <path id="パス_1398" data-name="パス 1398" d="M457.42,876.6l10.8,6.279-10.875,6.274-10.8-6.276Z" transform="translate(-446.549 -876.603)" fill="#83a2b0"/>
          </g>
          <g id="グループ_1033" data-name="グループ 1033" transform="translate(22.674 42.465)">
            <path id="パス_1399" data-name="パス 1399" d="M299.467,877.633l10.8,6.278-10.87,6.276-10.8-6.276Z" transform="translate(-288.593 -877.633)" fill="#728c99"/>
          </g>
          <g id="グループ_1034" data-name="グループ 1034" transform="translate(86.679 49.483)">
            <path id="パス_1400" data-name="パス 1400" d="M496.331,899.22l10.8,6.278-10.874,6.274-10.8-6.278Z" transform="translate(-485.456 -899.22)" fill="#83a2b0"/>
          </g>
          <g id="グループ_1035" data-name="グループ 1035" transform="translate(1.345)">
            <path id="パス_1401" data-name="パス 1401" d="M222.993,788.741l70.043,40.718,72.277-41.716-70.047-40.72Zm32.582-14.126,10.8,6.28L255.5,787.169l-10.8-6.278ZM281.182,787l-10.8-6.276,10.871-6.276,10.8,6.276Zm12.72-5.2,10.8,6.279-10.871,6.276-10.8-6.279Zm-10.492-8.6,10.871-6.276,10.8,6.278-10.878,6.276Zm23.52,1.08,10.8,6.276-10.875,6.274-10.8-6.276Zm12.65,7.351,10.8,6.276-10.875,6.278-10.8-6.28Zm-2.228,13.8-10.875,6.274-10.8-6.276,10.871-6.276Zm-13.032,7.52-10.871,6.276-10.8-6.276,10.874-6.278Zm-23.52-1.075L270,795.6l10.874-6.274,10.8,6.276Zm-12.65-7.356-10.8-6.276,10.874-6.274,10.8,6.276Zm.457-27.425,10.8,6.279-10.871,6.276-10.8-6.279Zm13.025-7.519,10.8,6.278-10.874,6.274-10.8-6.276Zm23.832-1.244-10.871,6.276-10.8-6.278,10.875-6.274Zm12.646,7.353-10.871,6.276-10.8-6.276,10.874-6.279Zm12.65,7.351-10.871,6.276-10.8-6.276,10.871-6.276Zm12.65,7.356-10.875,6.274-10.8-6.279,10.871-6.276Zm1.775,13.625-10.8-6.276,10.871-6.276,10.8,6.279Zm-13.028,7.522-10.8-6.276,10.874-6.278,10.8,6.278Zm-13.032,7.52-10.8-6.279,10.875-6.274,10.8,6.279Zm-13.029,7.522L295.3,810.3l10.871-6.276,10.8,6.276Zm-23.828,1.241,10.874-6.274,10.8,6.276L293.066,824.1Zm-12.646-7.353,10.871-6.276,10.8,6.281-10.875,6.274Zm-12.65-7.351,10.871-6.276,10.8,6.278-10.875,6.274Zm-12.649-7.351,10.874-6.279,10.8,6.279-10.87,6.276Zm-1.846-1.077-10.8-6.276,10.871-6.276,10.8,6.276Z" transform="translate(-222.993 -747.023)" fill="#fff"/>
          </g>
          <g id="グループ_1036" data-name="グループ 1036" transform="translate(48.734 27.425)">
            <path id="パス_1402" data-name="パス 1402" d="M379.619,831.376l10.8,6.276-10.871,6.276-10.8-6.276Z" transform="translate(-368.748 -831.376)" fill="#83a2b0"/>
          </g>
          <g id="グループ_1037" data-name="グループ 1037" transform="translate(48.352 42.298)">
            <path id="パス_1403" data-name="パス 1403" d="M378.446,877.121l10.8,6.276-10.874,6.278-10.8-6.281Z" transform="translate(-367.571 -877.121)" fill="#83a2b0"/>
          </g>
          <g id="グループ_1038" data-name="グループ 1038" transform="translate(61.001 49.65)">
            <path id="パス_1404" data-name="パス 1404" d="M417.352,899.732l10.8,6.279-10.871,6.276-10.8-6.276Z" transform="translate(-406.478 -899.732)" fill="#83a2b0"/>
          </g>
          <g id="グループ_1039" data-name="グループ 1039" transform="translate(35.323 49.818)">
            <path id="パス_1405" data-name="パス 1405" d="M338.37,900.25l10.8,6.279L338.3,912.8l-10.8-6.276Z" transform="translate(-327.499 -900.25)" fill="#728c99"/>
          </g>
          <g id="グループ_1040" data-name="グループ 1040" transform="translate(73.651 57.003)">
            <path id="パス_1406" data-name="パス 1406" d="M456.255,922.349l10.8,6.276L456.18,934.9l-10.8-6.279Z" transform="translate(-445.384 -922.349)" fill="#83a2b0"/>
          </g>
          <g id="グループ_1041" data-name="グループ 1041" transform="translate(47.973 57.169)">
            <path id="パス_1407" data-name="パス 1407" d="M377.277,922.86l10.8,6.281L377.2,935.415l-10.8-6.278Z" transform="translate(-366.406 -922.86)" fill="#728c99"/>
          </g>
          <g id="グループ_1042" data-name="グループ 1042" transform="translate(60.618 64.525)">
            <path id="パス_1408" data-name="パス 1408" d="M416.175,945.484l10.8,6.276L416.1,958.034l-10.8-6.276Z" transform="translate(-405.301 -945.484)" fill="#728c99"/>
          </g>
          <g id="グループ_1043" data-name="グループ 1043" transform="translate(0 41.718)">
            <path id="パス_1409" data-name="パス 1409" d="M290.243,916.054l.014,4.973-71.4-41.432,1.345-4.258Z" transform="translate(-218.855 -875.336)" fill="#c8c9ca"/>
          </g>
          <g id="グループ_1044" data-name="グループ 1044" transform="translate(71.388 40.72)">
            <path id="パス_1410" data-name="パス 1410" d="M510.7,872.268l.014,4.973L438.44,918.956l-.014-4.973Z" transform="translate(-438.426 -872.268)" fill="#c8c9ca"/>
          </g>
        </g>
      </g>
    </g>
    <g id="グループ_1053" data-name="グループ 1053" transform="translate(373.659 499.985)">
      <g id="グループ_1052" data-name="グループ 1052">
        <g id="グループ_1049" data-name="グループ 1049" transform="translate(0 77.805)">
          <g id="グループ_1048" data-name="グループ 1048">
            <path id="パス_1411" data-name="パス 1411" d="M960.031,933.462l-.808,12.835.962.465,9.822-20.339-2.836-1.369Z" transform="translate(-959.223 -925.053)" fill="#e2cc72"/>
            <path id="パス_1412" data-name="パス 1412" d="M974.841,930.634l-2.836-1.369L962.184,949.6l.962.465,9.55-8.614Z" transform="translate(-961.221 -927.896)" fill="#efd871"/>
          </g>
          <path id="パス_1413" data-name="パス 1413" d="M969.064,948.582c.527-1.091.394-2.247-.3-2.581s-1.679.281-2.205,1.372a2.209,2.209,0,0,0,.043,2.391L961.323,960.7l.559.27,5.283-10.939A2.209,2.209,0,0,0,969.064,948.582Z" transform="translate(-960.64 -939.129)" fill="#3d3939"/>
        </g>
        <g id="グループ_1050" data-name="グループ 1050" transform="translate(6.443 34.309)">
          <path id="パス_1414" data-name="パス 1414" d="M1003.918,793.608,982.55,837.856l-3.512-1.7,20.041-44.888Z" transform="translate(-979.038 -791.271)" fill="#324650"/>
          <path id="パス_1415" data-name="パス 1415" d="M1011.208,798.459,989.84,842.706l3.512,1.7,22.695-43.607Z" transform="translate(-986.328 -796.122)" fill="#49616d"/>
        </g>
        <g id="グループ_1051" data-name="グループ 1051" transform="translate(21.935)">
          <path id="パス_1416" data-name="パス 1416" d="M1027.012,727.064l5.7,2.752,21.133-43.761C1044.581,681.582,1027.012,727.064,1027.012,727.064Z" transform="translate(-1026.907 -685.745)" fill="#324650"/>
          <path id="パス_1417" data-name="パス 1417" d="M1055.64,716.005l-.961,1.989,4.479,2.163-8.6,18.958a4.91,4.91,0,0,0-1.871,2.132c-.9,1.855-.671,3.819.5,4.386l12.822-26.551Z" transform="translate(-1041.164 -706.167)" fill="#e2cc72"/>
          <path id="パス_1418" data-name="パス 1418" d="M1050.233,733.21l-5.7-2.751,21.133-43.761C1074.93,691.169,1050.233,733.21,1050.233,733.21Z" transform="translate(-1038.734 -686.388)" fill="#49616d"/>
          <path id="パス_1419" data-name="パス 1419" d="M1070.568,728.546l-.96,1.989-4.478-2.163-9.5,18.525a4.911,4.911,0,0,1-.506,2.791c-.9,1.855-2.574,2.9-3.749,2.332l12.822-26.551Z" transform="translate(-1043.349 -712.554)" fill="#efd871"/>
          <rect id="長方形_441" data-name="長方形 441" width="1.591" height="12.879" transform="translate(0 41.269) rotate(-64.223)" fill="#dbd0af"/>
        </g>
      </g>
    </g>
    <g id="グループ_1073" data-name="グループ 1073" transform="translate(205.452 410.494)">
      <g id="グループ_1072" data-name="グループ 1072">
        <g id="グループ_1071" data-name="グループ 1071">
          <path id="パス_1420" data-name="パス 1420" d="M667.5,740.78l-6.472-3.761c-5.115,2.953-9.249,10.113-9.232,15.992a9.813,9.813,0,0,0,.353,2.689,5.309,5.309,0,0,0,2.349,3.252l6.472,3.761a5.308,5.308,0,0,1-2.349-3.252,9.813,9.813,0,0,1-.353-2.689C658.249,750.893,662.383,743.734,667.5,740.78Z" transform="translate(-583.54 -630.857)" fill="#3e3a39"/>
          <path id="パス_1421" data-name="パス 1421" d="M911.5,599.938l-6.472-3.761c-5.116,2.953-9.25,10.113-9.233,15.992a9.823,9.823,0,0,0,.353,2.689,5.309,5.309,0,0,0,2.349,3.252l6.472,3.761a5.309,5.309,0,0,1-2.349-3.252,9.813,9.813,0,0,1-.353-2.689C902.255,610.051,906.389,602.891,911.5,599.938Z" transform="translate(-748.213 -535.807)" fill="#3e3a39"/>
          <g id="グループ_1057" data-name="グループ 1057">
            <g id="グループ_1056" data-name="グループ 1056" style="isolation: isolate">
              <g id="グループ_1054" data-name="グループ 1054" transform="translate(78.584)">
                <path id="パス_1422" data-name="パス 1422" d="M772.065,448.382,713.079,414.1c-6.261-3.639-16.424-6.341-29.514,1.217L742.551,449.6C755.641,442.041,765.8,444.743,772.065,448.382Z" transform="translate(-683.565 -410.494)" fill="#eb6d56"/>
              </g>
              <path id="パス_1423" data-name="パス 1423" d="M501.489,542.48c.294-2.036.591-3.106,5.107-10s10.952-9.918,23.29-27.542S552,475.449,579.432,459.613l-58.986-34.279c-27.428,15.836-37.205,27.7-49.546,45.328s-18.776,20.653-23.29,27.542-4.813,7.96-5.107,10a132.836,132.836,0,0,0-.641,15.918L500.848,558.4A132.911,132.911,0,0,1,501.489,542.48Z" transform="translate(-441.862 -420.509)" fill="#eb6d56"/>
              <g id="グループ_1055" data-name="グループ 1055" transform="translate(58.736 34.13)">
                <path id="パス_1424" data-name="パス 1424" d="M741.891,525.82c-6.516-3.28-18.692-17.991-40.788-5.235-27.428,15.836-37.206,27.7-49.546,45.327s-18.776,20.653-23.29,27.543-4.813,7.96-5.107,10a132.848,132.848,0,0,0-.641,15.918l119.424-68.915Z" transform="translate(-622.519 -515.468)" fill="#e95532"/>
              </g>
            </g>
          </g>
          <g id="グループ_1061" data-name="グループ 1061" transform="translate(93.754 37.39)">
            <g id="グループ_1058" data-name="グループ 1058" transform="translate(39.343 5.867)">
              <path id="パス_1425" data-name="パス 1425" d="M856.035,543.541q-2.5,1.483-4.8,2.921l.062,21.883,4.8-2.773Z" transform="translate(-851.232 -543.541)" fill="#3e3a39"/>
            </g>
            <g id="グループ_1059" data-name="グループ 1059" transform="translate(0 8.788)">
              <path id="パス_1426" data-name="パス 1426" d="M769.567,552.525c-20.583,12.88-29.315,23.291-39.342,37.456l.02,7.165,39.384-22.739Z" transform="translate(-730.225 -552.525)" fill="#9ed8f5"/>
            </g>
            <g id="グループ_1060" data-name="グループ 1060" transform="translate(44.146)">
              <path id="パス_1427" data-name="パス 1427" d="M894.221,527.821c-6.125-2.764-15.006-4.107-25.653,2.04q-1.311.756-2.562,1.5l.063,22.031,28.179-16.269Z" transform="translate(-866.006 -525.494)" fill="#9ed8f5"/>
            </g>
          </g>
          <g id="グループ_1062" data-name="グループ 1062" transform="translate(124.63 51.451)">
            <path id="パス_1428" data-name="パス 1428" d="M833.709,627.989l-8.519,4.919.01,3.5,8.52-4.919Z" transform="translate(-825.189 -608.727)" fill="#e50020"/>
            <path id="パス_1429" data-name="パス 1429" d="M935.152,568.745l-8.521,4.92.01,3.5,8.521-4.919Z" transform="translate(-893.65 -568.745)" fill="#e50020"/>
          </g>
          <path id="パス_1430" data-name="パス 1430" d="M933.292,607.571c-.019-6.432-4.57-9.027-10.167-5.8s-10.121,11.066-10.1,17.5a13.043,13.043,0,0,0,.335,2.888l.9-.521v-.006l18.727-10.994A15.925,15.925,0,0,0,933.292,607.571Z" transform="translate(-759.836 -538.647)" fill="#3e3a39"/>
          <g id="グループ_1063" data-name="グループ 1063" transform="translate(154.059 62.861)">
            <path id="パス_1431" data-name="パス 1431" d="M948.01,646.42l-1.78-1.884a4.426,4.426,0,0,1-.863.907l.544,3.174A10.761,10.761,0,0,0,948.01,646.42Z" transform="translate(-935.723 -631.303)" fill="#888"/>
            <path id="パス_1432" data-name="パス 1432" d="M950,635.651a4.384,4.384,0,0,1-.352,1.2l2.544.577a10.757,10.757,0,0,0,.873-2.923Z" transform="translate(-938.614 -624.532)" fill="#888"/>
            <path id="パス_1433" data-name="パス 1433" d="M931.466,645.583l-2.984,2.328a3.6,3.6,0,0,0,.863,1.893l2.48-3.434A1.5,1.5,0,0,1,931.466,645.583Z" transform="translate(-924.328 -632.01)" fill="#888"/>
            <path id="パス_1434" data-name="パス 1434" d="M952.157,622.172l-2.532,3.507a1.487,1.487,0,0,1,.358.788l3.06-2.387A3.573,3.573,0,0,0,952.157,622.172Z" transform="translate(-938.597 -616.211)" fill="#888"/>
            <path id="パス_1435" data-name="パス 1435" d="M947.954,619.8a3.686,3.686,0,0,0-2.1.23l-.524,3.79a1.508,1.508,0,0,1,.865-.089Z" transform="translate(-935.695 -614.566)" fill="#888"/>
            <path id="パス_1436" data-name="パス 1436" d="M929.314,637.508a10.7,10.7,0,0,0-.85,2.883l2.988-1.12a4.486,4.486,0,0,1,.354-1.2Z" transform="translate(-924.316 -626.56)" fill="#888"/>
            <path id="パス_1437" data-name="パス 1437" d="M925,626.394c4.245-2.45,7.813-7.8,8.9-12.9a14.753,14.753,0,0,0,.337-3.088c-.017-5.879-4.178-8.249-9.293-5.3s-9.25,10.113-9.233,15.992a9.817,9.817,0,0,0,.353,2.689C917.167,627.63,920.754,628.845,925,626.394Zm-.013-18.412c3.717-2.146,6.751-.417,6.763,3.854a14.829,14.829,0,0,1-6.719,11.637c-3.717,2.146-6.751.417-6.763-3.854A14.828,14.828,0,0,1,924.985,607.982Z" transform="translate(-915.705 -603.836)" fill="#595757"/>
            <path id="パス_1438" data-name="パス 1438" d="M937.659,648.656a1.505,1.505,0,0,1-.865.091l-1.738,3.873a3.607,3.607,0,0,0,2.081-.189Z" transform="translate(-928.764 -634.084)" fill="#888"/>
            <path id="パス_1439" data-name="パス 1439" d="M937.588,627.077l-.542-3.159a10.888,10.888,0,0,0-2.075,2.211l1.754,1.857A4.477,4.477,0,0,1,937.588,627.077Z" transform="translate(-928.707 -617.389)" fill="#888"/>
            <path id="パス_1440" data-name="パス 1440" d="M926.42,626.943l-.337.126-.648,1.479.654.728.336-.263,2.984-2.328a1.5,1.5,0,0,0,.359.787l-2.48,3.434-.277.383.223,1.183,1.141-.406.188-.418,1.738-3.873a1.5,1.5,0,0,0,.865-.091l-.523,3.775-.053.383.964.193.958-1.3-.053-.307-.545-3.174a4.427,4.427,0,0,0,.863-.907l1.78,1.885.163.173,1.139-.91.216-1.436-.225-.051-2.544-.577a4.386,4.386,0,0,0,.353-1.2l3.064-1.149.262-.1.648-1.479-.654-.728-.262.2-3.061,2.388a1.487,1.487,0,0,0-.358-.788l2.532-3.507.224-.31-.223-1.182-1.14.406-.162.36-1.764,3.931a1.509,1.509,0,0,0-.865.089l.524-3.79.051-.366-.962-.193-.959,1.3.055.321.542,3.159a4.477,4.477,0,0,0-.863.908l-1.754-1.857-.19-.2-1.139.91L926.991,624l.279.063,2.491.564a4.479,4.479,0,0,0-.354,1.2Z" transform="translate(-922.271 -613.113)" fill="#dbdcdc"/>
            <path id="パス_1441" data-name="パス 1441" d="M930.344,630.167a14.829,14.829,0,0,0,6.719-11.637c-.012-4.271-3.046-6-6.763-3.854a14.828,14.828,0,0,0-6.719,11.637C923.594,630.584,926.628,632.313,930.344,630.167Zm-3.22-.684-1.141.406-.223-1.183.277-.383a3.6,3.6,0,0,1-.863-1.893l-.337.263-.654-.728.648-1.479.337-.126a10.7,10.7,0,0,1,.85-2.883l-.279-.063.216-1.435,1.139-.91.19.2a10.875,10.875,0,0,1,2.075-2.211l-.055-.321.959-1.3.962.193-.051.366a3.688,3.688,0,0,1,2.1-.23l.162-.36,1.141-.406.223,1.182-.224.31a3.574,3.574,0,0,1,.887,1.908l.262-.2.654.728-.648,1.479-.262.1a10.758,10.758,0,0,1-.873,2.923l.225.051-.216,1.436-1.139.91-.164-.173a10.759,10.759,0,0,1-2.1,2.2l.053.307-.958,1.3-.964-.193.053-.383a3.609,3.609,0,0,1-2.081.188Z" transform="translate(-921.021 -610.529)" fill="#dbdcdc"/>
          </g>
          <path id="パス_1442" data-name="パス 1442" d="M689.285,748.413c-.018-6.432-4.57-9.027-10.167-5.8s-10.12,11.066-10.1,17.5a13.073,13.073,0,0,0,.335,2.888l.9-.521v-.006l18.727-10.993A15.9,15.9,0,0,0,689.285,748.413Z" transform="translate(-595.162 -633.697)" fill="#3e3a39"/>
          <g id="グループ_1064" data-name="グループ 1064" transform="translate(74.726 108.652)">
            <path id="パス_1443" data-name="パス 1443" d="M704,787.262l-1.78-1.884a4.418,4.418,0,0,1-.863.907l.545,3.175A10.772,10.772,0,0,0,704,787.262Z" transform="translate(-691.717 -772.146)" fill="#888"/>
            <path id="パス_1444" data-name="パス 1444" d="M706,776.493a4.4,4.4,0,0,1-.352,1.2l2.544.577a10.766,10.766,0,0,0,.873-2.923Z" transform="translate(-694.608 -765.374)" fill="#888"/>
            <path id="パス_1445" data-name="パス 1445" d="M687.46,786.425l-2.984,2.328a3.6,3.6,0,0,0,.863,1.893l2.48-3.434A1.494,1.494,0,0,1,687.46,786.425Z" transform="translate(-680.322 -772.852)" fill="#888"/>
            <path id="パス_1446" data-name="パス 1446" d="M708.151,763.015l-2.532,3.507a1.485,1.485,0,0,1,.358.788l3.061-2.387A3.576,3.576,0,0,0,708.151,763.015Z" transform="translate(-694.591 -757.053)" fill="#888"/>
            <path id="パス_1447" data-name="パス 1447" d="M703.947,760.644a3.686,3.686,0,0,0-2.1.229l-.525,3.791a1.509,1.509,0,0,1,.865-.089Z" transform="translate(-691.688 -755.408)" fill="#888"/>
            <path id="パス_1448" data-name="パス 1448" d="M685.308,778.35a10.7,10.7,0,0,0-.85,2.883l2.988-1.12a4.452,4.452,0,0,1,.354-1.2Z" transform="translate(-680.31 -767.402)" fill="#888"/>
            <path id="パス_1449" data-name="パス 1449" d="M680.992,767.236c4.244-2.45,7.813-7.8,8.9-12.9a14.759,14.759,0,0,0,.337-3.088c-.017-5.878-4.178-8.249-9.293-5.3s-9.249,10.113-9.233,15.992a9.815,9.815,0,0,0,.353,2.689C673.161,768.472,676.748,769.687,680.992,767.236Zm-.013-18.412c3.717-2.146,6.751-.417,6.763,3.854a14.829,14.829,0,0,1-6.719,11.638c-3.717,2.146-6.75.417-6.763-3.854A14.828,14.828,0,0,1,680.979,748.825Z" transform="translate(-671.699 -744.678)" fill="#595757"/>
            <path id="パス_1450" data-name="パス 1450" d="M693.653,789.5a1.5,1.5,0,0,1-.865.091l-1.738,3.872a3.607,3.607,0,0,0,2.081-.188Z" transform="translate(-684.758 -774.927)" fill="#888"/>
            <path id="パス_1451" data-name="パス 1451" d="M693.581,767.92l-.542-3.159a10.882,10.882,0,0,0-2.075,2.211l1.754,1.857A4.477,4.477,0,0,1,693.581,767.92Z" transform="translate(-684.7 -758.232)" fill="#888"/>
            <path id="パス_1452" data-name="パス 1452" d="M682.414,767.785l-.337.126-.648,1.479.654.728.337-.263,2.984-2.328a1.5,1.5,0,0,0,.359.787l-2.48,3.434-.277.383.223,1.183,1.14-.406.188-.419,1.738-3.873a1.5,1.5,0,0,0,.865-.091l-.522,3.775-.053.383.964.193.958-1.3-.053-.307-.545-3.174a4.423,4.423,0,0,0,.863-.907l1.78,1.884.163.173,1.139-.91.216-1.436-.225-.051-2.544-.577a4.4,4.4,0,0,0,.352-1.2l3.064-1.149.262-.1.648-1.479-.654-.728-.262.2-3.061,2.387a1.484,1.484,0,0,0-.358-.788l2.532-3.507.224-.311-.223-1.182-1.14.406-.162.361-1.764,3.931a1.509,1.509,0,0,0-.866.089l.525-3.791.051-.366-.962-.193-.959,1.3.055.321.542,3.159a4.478,4.478,0,0,0-.863.908l-1.754-1.857-.19-.2-1.139.91-.215,1.434.279.063,2.491.565a4.447,4.447,0,0,0-.354,1.2Z" transform="translate(-678.265 -753.955)" fill="#dbdcdc"/>
            <path id="パス_1453" data-name="パス 1453" d="M686.338,771.009a14.829,14.829,0,0,0,6.719-11.638c-.012-4.271-3.046-6-6.763-3.854a14.83,14.83,0,0,0-6.719,11.638C679.587,771.426,682.621,773.155,686.338,771.009Zm-3.22-.683-1.14.406-.223-1.183.277-.383a3.6,3.6,0,0,1-.863-1.893l-.337.263-.654-.728.648-1.479.337-.126a10.7,10.7,0,0,1,.85-2.883l-.279-.063.216-1.435,1.139-.91.19.2a10.887,10.887,0,0,1,2.075-2.211l-.055-.321.959-1.3.962.193-.051.366a3.685,3.685,0,0,1,2.1-.23l.162-.361,1.14-.406.223,1.182-.224.311a3.574,3.574,0,0,1,.887,1.908l.262-.2.654.728-.647,1.479-.262.1a10.759,10.759,0,0,1-.873,2.922l.225.051-.216,1.436-1.139.91-.163-.173a10.776,10.776,0,0,1-2.1,2.2l.053.307-.958,1.3-.964-.193.053-.383a3.607,3.607,0,0,1-2.081.189Z" transform="translate(-677.014 -751.371)" fill="#dbdcdc"/>
          </g>
          <g id="グループ_1065" data-name="グループ 1065" transform="translate(3 87.366)">
            <path id="パス_1454" data-name="パス 1454" d="M452.144,679.207l-1.053,5.867,12.01,6.979.576-3.355Z" transform="translate(-451.09 -679.207)" fill="#fff"/>
            <path id="パス_1455" data-name="パス 1455" d="M566.155,752.283l-.574,3.74,15.592,9.061,2.647-6.71Z" transform="translate(-528.357 -728.524)" fill="#fff"/>
          </g>
          <path id="パス_1456" data-name="パス 1456" d="M716.176,674.821v3.6L720,676.013v-6.22Z" transform="translate(-626.989 -585.488)" fill="#3e3a39"/>
          <path id="パス_1457" data-name="パス 1457" d="M737.33,681.054c.324-.206.292-4.147.244-4.432a2.124,2.124,0,0,0-.429-.721l-4.289-1.71-7.555,1.072v3.6s5.7,2,6.649,2.192S736.317,681.7,737.33,681.054Z" transform="translate(-633.148 -588.456)" fill="#e50020"/>
          <path id="パス_1458" data-name="パス 1458" d="M755.831,684.125a29.61,29.61,0,0,0,0-4.123c-.191-.405-1.43-1.12-1.43-1.12s.954.858,1,1.168.024,4.075.024,4.075Z" transform="translate(-652.786 -591.622)" fill="#ee846d"/>
          <g id="グループ_1070" data-name="グループ 1070" transform="translate(26.862 26.306)">
            <path id="パス_1459" data-name="パス 1459" d="M581.561,610.986l-55.471-30.6c-.547.741-1.084,1.461-1.607,2.146l54.9,31.376Q580.438,612.526,581.561,610.986Z" transform="translate(-524.483 -551.452)" fill="#3e3a39"/>
            <g id="グループ_1069" data-name="グループ 1069" transform="translate(1.607)">
              <path id="パス_1460" data-name="パス 1460" d="M553.3,491.4c-8.661,7.826-14.529,15.679-21.252,25.283-.9,1.292-1.775,2.5-2.621,3.646l55.472,30.6q.987-1.353,2.032-2.844c6.71-9.586,12.79-17.712,21.732-25.847Z" transform="translate(-529.425 -491.403)" fill="#9ed8f5"/>
              <g id="グループ_1068" data-name="グループ 1068" clip-path="url(#clip-path)">
                <g id="グループ_1067" data-name="グループ 1067" transform="translate(11.018 2.459)">
                  <g id="グループ_1066" data-name="グループ 1066" transform="translate(2.405 0)">
                    <rect id="長方形_442" data-name="長方形 442" width="21.932" height="1.061" transform="translate(0 4.96) rotate(-13.072)" fill="#fff"/>
                  </g>
                  <rect id="長方形_443" data-name="長方形 443" width="25.769" height="2.121" transform="translate(0 7.874) rotate(-13.072)" fill="#fff"/>
                </g>
              </g>
            </g>
          </g>
          <path id="パス_1462" data-name="パス 1462" d="M499.767,743.459v4.954l13.244,7.765v-4.954Z" transform="translate(-480.941 -635.204)" fill="#fff"/>
          <path id="パス_1463" data-name="パス 1463" d="M514.976,727.089l-22.345-12.876-.643,2.216,22.449,13.227Z" transform="translate(-475.69 -615.466)" fill="#3e3a39"/>
          <path id="パス_1464" data-name="パス 1464" d="M445.918,708.055v6.4l2.252,1.358v-6.4Z" transform="translate(-444.6 -611.31)" fill="#3e3a39"/>
          <path id="パス_1465" data-name="パス 1465" d="M612.262,804.116v6.4l2.252,1.358v-6.4Z" transform="translate(-556.861 -676.139)" fill="#3e3a39"/>
        </g>
      </g>
    </g>
    <g id="グループ_1086" data-name="グループ 1086" transform="translate(265.087 518.4)">
      <g id="グループ_1079" data-name="グループ 1079" transform="translate(0 79.13)">
        <g id="グループ_1077" data-name="グループ 1077">
          <g id="グループ_1076" data-name="グループ 1076" style="isolation: isolate">
            <g id="グループ_1074" data-name="グループ 1074" transform="translate(0 21.829)">
              <path id="パス_1466" data-name="パス 1466" d="M701.052,1053.118l-.028,9.747c-.016,5.578-3.682,11.148-11.008,15.405-14.741,8.566-38.717,8.566-53.554,0-7.466-4.31-11.2-9.969-11.179-15.618l.028-9.747c-.016,5.65,3.713,11.308,11.179,15.619,14.837,8.566,38.814,8.566,53.554,0C697.37,1064.266,701.036,1058.7,701.052,1053.118Z" transform="translate(-625.284 -1052.905)" fill="#3d3939"/>
            </g>
            <g id="グループ_1075" data-name="グループ 1075" transform="translate(0.028)">
              <path id="パス_1467" data-name="パス 1467" d="M689.93,992.19c14.837,8.566,14.915,22.454.171,31.023s-38.717,8.566-53.554,0-14.915-22.454-.175-31.02S675.094,983.624,689.93,992.19Z" transform="translate(-625.368 -985.766)" fill="#585757"/>
            </g>
          </g>
        </g>
        <g id="グループ_1078" data-name="グループ 1078" transform="translate(6.722 3.828)">
          <path id="パス_1468" data-name="パス 1468" d="M698.95,1002.806c12.161,7.021,12.225,18.446.139,25.469s-31.805,7.022-43.966,0-12.229-18.448-.147-25.469S686.789,995.785,698.95,1002.806Z" transform="translate(-645.958 -997.539)" fill="#e95520"/>
        </g>
      </g>
      <g id="グループ_1085" data-name="グループ 1085" transform="translate(38.628)">
        <g id="グループ_1084" data-name="グループ 1084" style="isolation: isolate">
          <g id="グループ_1080" data-name="グループ 1080" transform="translate(0 76.609)">
            <path id="パス_1469" data-name="パス 1469" d="M759.133,989.211c3.37-1.308,3.289-4.763-.18-7.716s-9.013-4.287-12.383-2.979-3.289,4.763.18,7.716S755.764,990.52,759.133,989.211Z" transform="translate(-744.095 -978.013)" fill="#e95520"/>
          </g>
          <g id="グループ_1081" data-name="グループ 1081" transform="translate(34.599 0)">
            <path id="パス_1470" data-name="パス 1470" d="M850.512,742.384c.384.008.9.017,1.278.054a14.71,14.71,0,0,1,1.489.208,14.46,14.46,0,0,1,2.534.736,13.94,13.94,0,0,1,2.323,1.168,14.859,14.859,0,0,1,2.061,1.557q-.134-.121-.274-.241A15.311,15.311,0,0,0,850.512,742.384Z" transform="translate(-850.512 -742.384)" fill="#e95520"/>
          </g>
          <g id="グループ_1082" data-name="グループ 1082" transform="translate(0.2)">
            <path id="パス_1471" data-name="パス 1471" d="M744.71,821.551a3.722,3.722,0,0,1,2.276-2.056c3.37-1.308,8.914.026,12.383,2.979,2.252,1.917,3.076,4.045,2.456,5.661l29.151-76.609c.621-1.616-.2-3.744-2.455-5.661-3.469-2.953-9.013-4.287-12.383-2.979a3.722,3.722,0,0,0-2.276,2.056C767.195,762.3,751.376,804.2,744.71,821.551Z" transform="translate(-744.71 -742.384)" fill="#e95520"/>
          </g>
          <g id="グループ_1083" data-name="グループ 1083" transform="translate(15.039 9.142)">
            <path id="パス_1472" data-name="パス 1472" d="M792.625,847.112,821.776,770.5a3.721,3.721,0,0,1-2.275,2.055L790.35,849.168A3.723,3.723,0,0,0,792.625,847.112Z" transform="translate(-790.35 -770.503)" fill="#d07d0c"/>
          </g>
          <path id="パス_1473" data-name="パス 1473" d="M836.23,742.886a8.327,8.327,0,0,1,2.973-.5,14.653,14.653,0,0,1,2.254.172,13.9,13.9,0,0,1,2.463.611,12.457,12.457,0,0,1,1.171.461c.545.244.942.456,1.178.591a14.448,14.448,0,0,1,2.279,1.588c.1.088.239.21.341.3,3.2,2.9,3.184,6.2-.094,7.475-3.37,1.308-8.914-.026-12.383-2.979S832.86,744.195,836.23,742.886Z" transform="translate(-804.604 -742.384)" fill="#d18507"/>
          <path id="パス_1474" data-name="パス 1474" d="M775.9,755.912c3.469,2.953,9.013,4.287,12.383,2.979L759.134,835.5c-3.37,1.308-8.914-.026-12.383-2.979-2.252-1.917-3.076-4.045-2.456-5.66l29.15-76.609C772.825,751.867,773.649,754,775.9,755.912Z" transform="translate(-744.095 -747.694)" fill="#db8e00"/>
        </g>
      </g>
    </g>
  </g>
</svg>
