<svg xmlns="http://www.w3.org/2000/svg" width="31.319" height="31.32" viewBox="0 0 31.319 31.32">
  <defs>
    <style>
      .cls-1 {
        stroke: rgba(0,0,0,0);
        stroke-width: 0.6px;
      }
    </style>
  </defs>
  <path id="パス_1351" data-name="パス 1351" class="cls-1" d="M29.971,12.6l-3.351-.155a.787.787,0,0,1-.693-.486l-.69-1.662a.791.791,0,0,1,.147-.835l2.26-2.48a.792.792,0,0,0-.025-1.091L24.833,3.105a.791.791,0,0,0-1.092-.025l-2.479,2.26a.79.79,0,0,1-.835.146L18.765,4.8a.787.787,0,0,1-.486-.694L18.124.754A.79.79,0,0,0,17.336,0H13.393A.791.791,0,0,0,12.6.754L12.449,4.1a.788.788,0,0,1-.486.694L10.3,5.487a.789.789,0,0,1-.835-.146l-2.48-2.26a.791.791,0,0,0-1.092.025L3.11,5.892a.79.79,0,0,0-.025,1.091l2.26,2.48a.788.788,0,0,1,.145.835L4.8,11.959a.789.789,0,0,1-.694.486L.758,12.6A.79.79,0,0,0,0,13.389v3.942a.791.791,0,0,0,.754.789l3.35.155a.789.789,0,0,1,.694.486l.688,1.662a.788.788,0,0,1-.145.835l-2.26,2.479a.791.791,0,0,0,.024,1.092L5.9,27.615a.791.791,0,0,0,1.091.025l2.479-2.261a.79.79,0,0,1,.835-.146l1.662.689a.789.789,0,0,1,.486.694l.154,3.35a.791.791,0,0,0,.789.754h3.942a.79.79,0,0,0,.788-.754l.155-3.35a.789.789,0,0,1,.486-.694l1.662-.689a.791.791,0,0,1,.835.146l2.479,2.261a.792.792,0,0,0,1.092-.025l2.786-2.787a.793.793,0,0,0,.025-1.092l-2.26-2.479a.789.789,0,0,1-.147-.835l.69-1.662a.787.787,0,0,1,.693-.486l3.351-.155a.79.79,0,0,0,.753-.789V13.389A.789.789,0,0,0,29.971,12.6ZM15.364,20.377A5.017,5.017,0,1,1,20.38,15.36,5.018,5.018,0,0,1,15.364,20.377Z" transform="translate(0.296 0.3)"/>
</svg>
