<svg id="グループ_947" data-name="グループ 947" xmlns="http://www.w3.org/2000/svg" width="30.597" height="30.512" viewBox="0 0 30.597 30.512">
  <defs>
    <style>
      .cls-1 {
        fill: #231815;
        fill-rule: evenodd;
      }
    </style>
  </defs>
  <path id="パス_1323" data-name="パス 1323" class="cls-1" d="M92.2,81.748c-.33-.094-.55.185-.707.293a3.1,3.1,0,0,0-1.243,1.926q-.012.268-.024.537c-.1.415-.137.913-.244,1.317-.069.259-.009.59-.146.78l-.025.048a4.323,4.323,0,0,0-1.048.025,8.146,8.146,0,0,1-1.78-.049c-.122-.61-.2-1.226-.341-1.828a8.8,8.8,0,0,0-.219-1.194,4.692,4.692,0,0,0-.682-1.1,3.19,3.19,0,0,0-3.242-.8,8.335,8.335,0,0,0-1.926,1.268,5.984,5.984,0,0,0-.975.707c-.228-.017-.5-.373-.634-.512l-.341-.341a1.61,1.61,0,0,1-.292-.219,2.947,2.947,0,0,0-.464-.512c-.034-.027-.07-.018-.1-.049a1.684,1.684,0,0,0-.268-.293c.036-.274.305-.506.439-.707.209-.315.393-.621.609-.927.17-.24.4-.455.561-.707a3.39,3.39,0,0,0,.317-.731A3.219,3.219,0,0,0,77.8,75a13.519,13.519,0,0,0-2.511-.512c-.248-.064-.536,0-.731-.122a.7.7,0,0,1-.219-.025c-.1-.252.037-1.039-.073-1.219a6.158,6.158,0,0,1,.048-1.657,7.835,7.835,0,0,0,1.414-.268c.454-.12.883-.113,1.317-.244a3.263,3.263,0,0,0,2-1.511,2.984,2.984,0,0,0,.171-2.487A11.093,11.093,0,0,0,77.893,64.9c-.192-.267-.551-.55-.634-.9a13.162,13.162,0,0,0,1.1-1.194l.122-.073A4.733,4.733,0,0,0,79.161,62c.3.021.5.283.707.414.336.213.654.407.975.634.253.179.487.417.755.585a3.467,3.467,0,0,0,.732.292,2.55,2.55,0,0,0,1.17.049,4.4,4.4,0,0,0,.731-.146,3.381,3.381,0,0,0,1.78-1.657,14.452,14.452,0,0,0,.463-2.438c.073-.286.016-.692.171-.9l.025-.049a4.2,4.2,0,0,0,1.024-.025,8.3,8.3,0,0,1,1.8.049,21.638,21.638,0,0,0,.658,3.169,3.957,3.957,0,0,0,.731,1.121,2.821,2.821,0,0,0,2.414.756l.317-.025a8.757,8.757,0,0,0,2.316-1.39c.228-.16.439-.333.658-.487a1.32,1.32,0,0,0,.292-.2c.228.024.515.393.658.537l.341.341a1.778,1.778,0,0,1,.292.219,4.486,4.486,0,0,0,.8.829c-.035.278-.3.5-.439.707s-.247.421-.39.634c-.232.346-.551.646-.78,1a3.052,3.052,0,0,0-.317.755,3.179,3.179,0,0,0,1.8,3.73,17.966,17.966,0,0,0,2.364.439c.248.061.537,0,.731.122.139,0,.185-.005.219.1.142.23-.093.938.049,1.17a6.05,6.05,0,0,1-.049,1.634,3.874,3.874,0,0,0-.853.171c-.352.1-.712.116-1.024.219-.289.1-.626.122-.9.195l-.39.049a2.443,2.443,0,0,0-1.17.853,1.748,1.748,0,0,0-.561,1.195l.171.219c.178.181.379.335.561.512a.321.321,0,0,0,.219-.049c.2-.086.194-.493.292-.682a1.736,1.736,0,0,1,.878-.8,21.738,21.738,0,0,1,2.365-.512c.631-.155,1.222-.154,1.536-.609.394-.572.2-1.878.2-2.754a3.008,3.008,0,0,0-.292-1.731c-.315-.424-.979-.392-1.585-.537-1.478-.353-2.8-.071-3.291-1.487a2.021,2.021,0,0,1,.244-1.682c.1-.137.244-.256.341-.39.308-.419.561-.853.854-1.292a3.341,3.341,0,0,0,.561-1.024c.105-.391-.262-.835-.415-1-.4-.436-.846-.825-1.267-1.243a7.261,7.261,0,0,0-1.073-1c-.65-.421-1.258.037-1.682.341a17.368,17.368,0,0,1-2.243,1.536,1.978,1.978,0,0,1-1.414.024c-1-.44-1.034-1.84-1.316-3a4.554,4.554,0,0,0-.415-1.56c-.4-.565-1.4-.459-2.364-.463a3.664,3.664,0,0,1-.927.024c-.713,0-1.308.057-1.609.464a3.14,3.14,0,0,0-.317,1.17c-.342,1.409-.119,2.926-1.39,3.462a2.15,2.15,0,0,1-1.755-.122c-.29-.189-.541-.465-.829-.658-.333-.224-.665-.411-1-.634-.26-.173-.775-.641-1.292-.512-.744.185-1.491,1.248-2,1.756a3.7,3.7,0,0,0-1.072,1.317c-.172.534.3,1.068.487,1.341.417.609.831,1.181,1.244,1.8a3.2,3.2,0,0,1,.365.609,1.918,1.918,0,0,1-.1,1.365c-.533.862-1.553.849-2.633,1.145l-.365.025c-.872.224-1.638.239-1.926,1.048a7.027,7.027,0,0,0-.024,1.853v1.438a1.437,1.437,0,0,0,.561,1.048,10.874,10.874,0,0,0,2.535.537c.3.069.573.008.854.1a1.887,1.887,0,0,1,1.194,1.121c.451,1.123-.363,1.793-.78,2.413-.246.367-.461.727-.707,1.1a1.564,1.564,0,0,0-.415,1.487,5.011,5.011,0,0,0,1.219,1.292c.088.067.139.192.219.268A4.245,4.245,0,0,0,79.4,85.015c.475.108.982-.363,1.219-.537.381-.279.767-.523,1.145-.8a4.19,4.19,0,0,1,1.073-.731,2.237,2.237,0,0,1,1.39.024c1.165.507,1.01,1.71,1.341,3a4.609,4.609,0,0,0,.414,1.536c.471.653,1.825.439,2.877.439a4.9,4.9,0,0,0,1.584-.122c.857-.343.811-2.076,1.048-3.072l.025-.536c.245-.979.673-1.066,1.39-1.536.008-.081.016-.162.024-.244C92.727,82.231,92.5,81.834,92.2,81.748Zm10.239,1.487c-1.774-1.777-3.563-3.539-5.339-5.314l-2.438-2.438a2.085,2.085,0,0,1,0-1.682,5.346,5.346,0,0,0-.024-1.975l-.025-.414a6.475,6.475,0,0,0-6.655-5.168,7.347,7.347,0,0,1-.854.1l-.585.146c-.082.048-.138.143-.219.2-.026.111-.115.23-.073.39.059.225.247.344.39.487l.829.829,1.828,1.853a2.71,2.71,0,0,1,.951,1.243c.053.2-.1.374-.146.488-.008.081-.016.162-.024.244-.049.17-.137.421-.2.585a4.12,4.12,0,0,1-.317,1.048c-.27.365-.956.382-1.438.537a3.479,3.479,0,0,1-1.219.268c-.52-.139-.752-.609-1.1-.927-.7-.648-1.373-1.323-2.048-2l-1-1a1.119,1.119,0,0,0-.414-.024c-.087.084-.227.142-.293.244-.114.175-.062.419-.122.658a3.874,3.874,0,0,0-.1,1.56v.39c.11.4.172.927.317,1.317a8.336,8.336,0,0,0,1.414,2.291c.068.086.2.132.268.219a6.012,6.012,0,0,0,2.73,1.584c.453.139.944.112,1.438.219a1.75,1.75,0,0,0,.585-.024c.312-.066.536-.005.829-.073a2.315,2.315,0,0,1,1.463-.074,3.352,3.352,0,0,1,.78.707c.369.363.733.73,1.121,1.073.168.149.292.368.463.512.514.432.941.942,1.414,1.414,1.195,1.194,2.413,2.364,3.608,3.559.675.675,1.645,1.994,3.145,1.56l.317-.049a3.643,3.643,0,0,0,.853-.488,2.621,2.621,0,0,0,.829-2.682A3.432,3.432,0,0,0,102.442,83.235Zm-1.584,2.974a.944.944,0,0,1-.8-1.414,1.08,1.08,0,0,1,.488-.39c.072-.029.183-.013.244-.049a1,1,0,0,1,.951.609A.955.955,0,0,1,100.858,86.21Z" transform="translate(-72.944 -57.462)"/>
</svg>
