<svg xmlns="http://www.w3.org/2000/svg" width="166.298" height="166.297" viewBox="0 0 166.298 166.297">
  <g id="グループ_2843" data-name="グループ 2843" transform="translate(-805.08 -512.559)">
    <rect id="長方形_52" data-name="長方形 52" width="163.739" height="163.738" rx="36.913" transform="translate(806.359 513.838)" fill="#06c755" stroke="rgba(0,0,0,0)" stroke-width="2.558"/>
    <path id="パス_33" data-name="パス 33" d="M1036.133,651.228h0c-11.452,13.181-37.063,29.238-42.891,31.694s-4.966-1.563-4.728-2.942c.138-.821.78-4.674.78-4.674a11.212,11.212,0,0,0-.177-4.935c-.612-1.52-3.032-2.308-4.81-2.694-26.234-3.467-45.654-21.805-45.654-43.706,0-24.428,24.491-44.3,54.588-44.3s54.591,19.874,54.591,44.3C1047.835,633.747,1044.046,642.55,1036.133,651.228Zm-5.416-14.194v-3.873a1.044,1.044,0,0,0-1.041-1.041h-10.423V628.1h10.423a1.043,1.043,0,0,0,1.041-1.044v-3.871a1.044,1.044,0,0,0-1.041-1.041h-10.423v-4.022h10.423a1.04,1.04,0,0,0,1.041-1.041v-3.874a1.044,1.044,0,0,0-1.041-1.041h-15.337a1.043,1.043,0,0,0-1.044,1.041v23.809h0v.018a1.043,1.043,0,0,0,1.044,1.041h15.337A1.041,1.041,0,0,0,1030.717,637.034Zm-57.773,1.041a1.041,1.041,0,0,0,1.041-1.041v-3.873a1.044,1.044,0,0,0-1.041-1.041H962.521V613.207a1.046,1.046,0,0,0-1.044-1.041h-3.871a1.041,1.041,0,0,0-1.041,1.041v23.809h0v.018a1.041,1.041,0,0,0,1.041,1.041h15.337Zm9.233-25.909H978.3a1.041,1.041,0,0,0-1.041,1.041v23.827a1.041,1.041,0,0,0,1.041,1.041h3.874a1.041,1.041,0,0,0,1.041-1.041V613.207A1.041,1.041,0,0,0,982.177,612.166Zm26.354,0h-3.871a1.041,1.041,0,0,0-1.041,1.041v14.151l-10.9-14.719a1.134,1.134,0,0,0-.084-.11l-.005-.008-.064-.064-.018-.018-.058-.049-.028-.021-.054-.038-.033-.018-.056-.033-.033-.015-.062-.025-.033-.013-.064-.02-.036-.01-.064-.013-.043-.008-.056-.005-.056,0-.036,0h-3.848a1.043,1.043,0,0,0-1.044,1.041v23.827a1.043,1.043,0,0,0,1.044,1.041h3.871a1.041,1.041,0,0,0,1.041-1.041V622.886l10.914,14.742a1.079,1.079,0,0,0,.269.261l.013.008.066.041.028.016.051.026.051.023.033.01.072.023.015.005a1.072,1.072,0,0,0,.272.036h3.85a1.043,1.043,0,0,0,1.044-1.041V613.207A1.043,1.043,0,0,0,1008.53,612.166Z" transform="translate(-105.033 -35.976)" fill="#fff" stroke="rgba(0,0,0,0)" stroke-width="2.558"/>
  </g>
</svg>
