<svg xmlns="http://www.w3.org/2000/svg" width="37.612" height="35.641" viewBox="0 0 37.612 35.641">
  <g id="グループ_975" data-name="グループ 975" transform="translate(-709.269 -58.4)">
    <g id="グループ_974" data-name="グループ 974" transform="translate(709.269 58.4)">
      <path id="パス_1352" data-name="パス 1352" d="M719.167,84.382l-7.46-.527,5.575-4.984a.657.657,0,0,0-.016-.995l-5.724-4.812,7.443-.754a.657.657,0,0,0,.572-.813l-1.81-7.257,6.464,3.768a.658.658,0,0,0,.941-.322l2.8-6.937,3.013,6.846a.658.658,0,0,0,.951.293l6.346-3.962-1.58,7.309a.658.658,0,1,0,1.286.278l1.909-8.831a.658.658,0,0,0-.991-.7l-7.022,4.385-3.336-7.577a.658.658,0,0,0-.6-.393h-.01a.659.659,0,0,0-.6.412l-3.1,7.677-7.154-4.169a.658.658,0,0,0-.969.727l2,8.032-8.237.833a.658.658,0,0,0-.357,1.158l6.336,5.325-6.169,5.516a.658.658,0,0,0,.392,1.147l9.012.637.047,0a.658.658,0,0,0,.046-1.315Z" transform="translate(-709.269 -58.4)"/>
    </g>
    <g id="グループ_929" data-name="グループ 929" transform="translate(721.139 74.035)">
      <path id="パス_157" data-name="パス 157" d="M729.435,93.527c.113-.247.328-.657.711-1.37.175-.329.37-.693.57-1.068h-1.754a1.218,1.218,0,1,0,0,2.436Z" transform="translate(-727.744 -85.722)"/>
      <path id="パス_158" data-name="パス 158" d="M764.139,91.091h-1.755c.2.373.4.739.571,1.068.38.715.6,1.122.71,1.37h.474a1.218,1.218,0,0,0,0-2.436Z" transform="translate(-740.129 -85.723)"/>
      <path id="パス_159" data-name="パス 159" d="M730.764,110.454a1.643,1.643,0,0,0,3.285,0V108.9h-3.285Z" transform="translate(-728.824 -92.09)"/>
      <path id="パス_160" data-name="パス 160" d="M758.876,110.454a1.642,1.642,0,0,0,3.285,0V108.9h-3.285Z" transform="translate(-738.874 -92.09)"/>
      <path id="パス_161" data-name="パス 161" d="M752.295,90.435c.087.026-3.191-5.995-3.348-6.317a2.709,2.709,0,0,0-2.435-1.381H736.154a2.709,2.709,0,0,0-2.435,1.381c-.157.328-3.435,6.343-3.347,6.317,0,0-1.061,1.059-1.142,1.143a1.609,1.609,0,0,0-.411,1.31v4.788c0,.894.159,1.382,1.213,1.382h22.6c1.054,0,1.214-.493,1.214-1.382V92.888a1.609,1.609,0,0,0-.416-1.31C753.357,91.493,752.295,90.435,752.295,90.435Zm-19.21-1.845s2.106-3.793,2.23-4.039a1.644,1.644,0,0,1,1.439-.731h9.159a1.644,1.644,0,0,1,1.439.731c.125.246,2.231,4.041,2.231,4.041a.673.673,0,0,1-.262.916.665.665,0,0,1-.29.084H733.636a.673.673,0,0,1-.552-1Zm-.281,8.435a1.934,1.934,0,1,1,1.935-1.935,1.935,1.935,0,0,1-1.935,1.935Zm11.467.524a.256.256,0,0,1-.255.256h-5.363a.256.256,0,0,1-.256-.256V95.184a.255.255,0,0,1,.256-.254h5.363a.255.255,0,0,1,.255.254v2.362Zm5.593-.524A1.934,1.934,0,1,1,751.8,95.09,1.934,1.934,0,0,1,749.863,97.025Z" transform="translate(-728.123 -82.735)"/>
    </g>
  </g>
</svg>
