<svg xmlns="http://www.w3.org/2000/svg" width="27.687" height="31.013" viewBox="0 0 27.687 31.013">
  <defs>
    <style>
      .cls-1 {
        fill: #eb6100;
        stroke: rgba(0,0,0,0);
        stroke-width: 0.6px;
      }
    </style>
  </defs>
  <g id="グループ_349" data-name="グループ 349" transform="translate(-84.2 -457.07)">
    <path id="パス_162" data-name="パス 162" class="cls-1" d="M192.284,441.157H199.3l.345-1.8h-7.708Z" transform="translate(-97.696 44.112)"/>
    <path id="パス_163" data-name="パス 163" class="cls-1" d="M219.073,485.054c1.265,0,2.29-.762,2.29-1.7h-4.581C216.783,484.292,217.808,485.054,219.073,485.054Z" transform="translate(-121.069 2.729)"/>
    <path id="パス_164" data-name="パス 164" class="cls-1" d="M88.7,352.4c.2.219.415.433.633.639l1.487-1.629q-.245-.233-.476-.481Z" transform="translate(-0.592 127.289)"/>
    <path id="パス_165" data-name="パス 165" class="cls-1" d="M27.969,212.084q-.009.25-.01.5,0,.2.006.4l1.572-.082h.63c0-.107,0-.215,0-.321q0-.19.006-.379Z" transform="translate(56.54 257.883)"/>
    <path id="パス_166" data-name="パス 166" class="cls-1" d="M92.225,55.216l-1.473-1.641q-.331.308-.638.633l1.63,1.485Q91.979,55.447,92.225,55.216Z" transform="translate(-1.924 406.977)"/>
    <path id="パス_167" data-name="パス 167" class="cls-1" d="M249.6,2.2q.186,0,.37.006l.117-2.2C249.926,0,249.762,0,249.6,0c-.139,0-.277,0-.411.006l.137,2.2Q249.464,2.2,249.6,2.2Z" transform="translate(-151.549 457.37)"/>
    <path id="パス_168" data-name="パス 168" class="cls-1" d="M449.007,213.649l-2.2.113c0,.106,0,.211,0,.316q0,.2-.007.4l2.2.128q.011-.264.01-.53C449.014,213.937,449.012,213.795,449.007,213.649Z" transform="translate(-337.427 256.412)"/>
    <path id="パス_169" data-name="パス 169" class="cls-1" d="M387.341,56.295q.246.233.476.479l1.641-1.472c-.2-.219-.416-.433-.635-.639Z" transform="translate(-281.495 405.954)"/>
    <path id="パス_170" data-name="パス 170" class="cls-1" d="M386.081,352.961l1.469,1.645c.219-.2.434-.414.641-.633l-1.629-1.487C386.406,352.649,386.245,352.808,386.081,352.961Z" transform="translate(-280.31 125.819)"/>
    <path id="パス_171" data-name="パス 171" class="cls-1" d="M125.292,84.883A8.643,8.643,0,0,0,110.538,91a10.691,10.691,0,0,0,2.824,6.978,12.917,12.917,0,0,1,2.323,2.8h-.928l.389,2.007h8.169l.384-2.007h-1.026a12.921,12.921,0,0,1,2.323-2.8A10.691,10.691,0,0,0,127.819,91,8.635,8.635,0,0,0,125.292,84.883Z" transform="translate(-21.134 379.91)"/>
  </g>
</svg>
