<svg xmlns="http://www.w3.org/2000/svg" width="24.319" height="24.319" viewBox="0 0 24.319 24.319">
  <g id="グループ_875" data-name="グループ 875" transform="translate(-250.92 -4651.92)">
    <g id="グループ_50" data-name="グループ 50" transform="translate(556 4272)">
      <g id="グループ_52" data-name="グループ 52" transform="translate(-79.08 -12.08)">
        <path id="パス_31" data-name="パス 31" d="M437.254,300.757a12.16,12.16,0,1,0,12.159,12.159A12.173,12.173,0,0,0,437.254,300.757Zm0,23.435a11.275,11.275,0,1,1,11.276-11.276A11.288,11.288,0,0,1,437.254,324.192Z" transform="translate(-651.095 91.243)"/>
        <path id="パス_32" data-name="パス 32" d="M458.309,327.392c-1.049-1.051-1.934.33-2.349,1.342a6.828,6.828,0,0,1-3.231-1.983,6.65,6.65,0,0,1-1.968-3.216c1.011-.415,2.393-1.3,1.347-2.348-.366-.366-1.734-1.732-2.146-2.141-.637-.642-1.615-.385-2.333,1.652s.113,4.947,3.159,8,5.969,3.9,8.009,3.177,2.294-1.7,1.655-2.338C460.041,329.123,458.674,327.757,458.309,327.392Z" transform="translate(-667.33 78.15)"/>
      </g>
    </g>
  </g>
</svg>
