<svg xmlns="http://www.w3.org/2000/svg" xmlns:xlink="http://www.w3.org/1999/xlink" width="39" height="38" viewBox="0 0 39 38">
  <defs>
    <style>
      .cls-1 {
        fill: none;
      }

      .cls-2 {
        clip-path: url(#clip-path);
      }

      .cls-3 {
        stroke: rgba(0,0,0,0);
        stroke-width: 0.6px;
      }
    </style>
    <clipPath id="clip-path">
      <rect id="長方形_812" data-name="長方形 812" class="cls-1" width="39" height="38" transform="translate(125 1535)"/>
    </clipPath>
  </defs>
  <g id="マスクグループ_73" data-name="マスクグループ 73" class="cls-2" transform="translate(-125 -1535)">
    <g id="グループ_929" data-name="グループ 929" transform="translate(91.3 1132.49)">
      <path id="パス_157" data-name="パス 157" class="cls-3" d="M2.059,157.028c.138-.3.4-.8.865-1.669.213-.4.451-.844.695-1.3H1.483a1.483,1.483,0,0,0,0,2.966Z" transform="translate(37.7 262.985)"/>
      <path id="パス_158" data-name="パス 158" class="cls-3" d="M453.823,154.063h-2.136c.245.454.482.9.695,1.3.463.871.727,1.367.865,1.669h.576a1.483,1.483,0,1,0,0-2.966Z" transform="translate(-386.886 262.983)"/>
      <path id="パス_159" data-name="パス 159" class="cls-3" d="M39.391,388.156a2,2,0,1,0,4,0v-1.891h-4Z" transform="translate(0.672 44.714)"/>
      <path id="パス_160" data-name="パス 160" class="cls-3" d="M405.938,388.156a2,2,0,0,0,4,0v-1.891h-4Z" transform="translate(-343.882 44.714)"/>
      <path id="パス_161" data-name="パス 161" class="cls-3" d="M42.642,70.265c.106.032-3.886-7.3-4.077-7.692A3.3,3.3,0,0,0,35.6,60.891H22.987a3.3,3.3,0,0,0-2.965,1.682c-.191.4-4.182,7.723-4.076,7.692,0,0-1.292,1.289-1.39,1.392a1.958,1.958,0,0,0-.5,1.595v5.831c0,1.088.194,1.683,1.477,1.683H43.059c1.283,0,1.478-.6,1.478-1.683V73.252a1.955,1.955,0,0,0-.507-1.595C43.935,71.554,42.642,70.265,42.642,70.265ZM19.249,68.018S21.814,63.4,21.965,63.1a2,2,0,0,1,1.752-.89H34.87a2,2,0,0,1,1.752.89c.153.3,2.717,4.921,2.717,4.921a.82.82,0,0,1-.672,1.217H19.921A.82.82,0,0,1,19.249,68.018ZM18.907,78.29a2.356,2.356,0,1,1,2.356-2.356A2.356,2.356,0,0,1,18.907,78.29Zm13.964.637a.312.312,0,0,1-.311.312H26.029a.312.312,0,0,1-.312-.312V76.049a.311.311,0,0,1,.312-.309H32.56a.311.311,0,0,1,.311.309v2.877Zm6.81-.637a2.356,2.356,0,1,1,2.357-2.356A2.357,2.357,0,0,1,39.681,78.29Z" transform="translate(24.492 349.619)"/>
    </g>
  </g>
</svg>
