<svg id="グループ_969" data-name="グループ 969" xmlns="http://www.w3.org/2000/svg" width="31.799" height="30.711" viewBox="0 0 31.799 30.711">
  <g id="グループ_961" data-name="グループ 961" transform="translate(3.468)">
    <path id="パス_1336" data-name="パス 1336" d="M422.054,87.235a.82.82,0,0,1-.394-.1,12.646,12.646,0,0,1-2.329-1.625.826.826,0,0,1-.227-.9,12.47,12.47,0,0,1,2.5-4.08,4.532,4.532,0,0,1-.831-2.631V76a4.579,4.579,0,0,1,4.574-4.574H432.9c2.192,0,2.371-1.03,2.667-2.735a8.784,8.784,0,0,1,.486-1.923,4.037,4.037,0,0,1,2.448-2.235c.8-.351,1.171-.511,1.267-1.375a.822.822,0,0,1,.566-.692l.06-.02a9.346,9.346,0,0,1,3.445-.546.823.823,0,0,1,.819.78,4.649,4.649,0,0,1-.894,2.751c.416.544.794,1.03,1.136,1.467,2.551,3.276,3.506,4.5,1.1,6.533-.016.014-.032.026-.049.038-1.41,1.021-2.765.345-3.756-.149-.229-.115-.453-.227-.672-.319a12.7,12.7,0,0,1-.672,6.438,12.38,12.38,0,0,1,3.409,4.587.824.824,0,0,1-.174.908,12.882,12.882,0,0,1-2.227,1.782.823.823,0,0,1-1.22-.43,8.158,8.158,0,0,0-3.1-4.1,13.149,13.149,0,0,1-3.388.289h-8.48a8.183,8.183,0,0,0-2.821,4.173.825.825,0,0,1-.791.6Zm-1.192-2.592c.241.191.49.371.749.543a9.83,9.83,0,0,1,3.3-4.207.821.821,0,0,1,.484-.157h8.76a10.721,10.721,0,0,0,3.188-.3.815.815,0,0,1,.609-.013.8.8,0,0,1,.155.077,9.787,9.787,0,0,1,3.69,4.164q.369-.282.714-.595a10.683,10.683,0,0,0-3.2-3.844l-.008-.005a.825.825,0,0,1-.17-1.148c.855-1.37,1.067-3.764.628-7.116a.823.823,0,0,1,.816-.929,5.29,5.29,0,0,1,2.355.729c1.039.519,1.491.683,2.033.3,1.17-.988,1.151-1.011-1.364-4.242-.451-.579-.967-1.243-1.548-2.008a.822.822,0,0,1,.072-1.077,3.059,3.059,0,0,0,.754-1.244,6.831,6.831,0,0,0-1.56.252,3.154,3.154,0,0,1-2.16,2.21,2.447,2.447,0,0,0-1.585,1.359,7.486,7.486,0,0,0-.385,1.573c-.3,1.73-.712,4.1-4.289,4.1H425.35A2.931,2.931,0,0,0,422.422,76v1.9a2.9,2.9,0,0,0,.857,2.069.824.824,0,0,1,.008,1.2A10.8,10.8,0,0,0,420.862,84.643Z" transform="translate(-419.053 -61.895)"/>
  </g>
  <g id="グループ_962" data-name="グループ 962" transform="translate(0.117 7.542)">
    <path id="パス_1337" data-name="パス 1337" d="M416.088,87.008a4.625,4.625,0,0,1-2.813-.976.822.822,0,0,1,.01-1.325,3.365,3.365,0,0,0,1.264-4.253,3.448,3.448,0,1,1,6.616-1.363l0,.149a.825.825,0,0,1-.327.627,2.906,2.906,0,0,0-1.169,2.335v1.9a2.916,2.916,0,0,0,.1.746.823.823,0,0,1-.259.834A5.365,5.365,0,0,1,416.088,87.008Zm-.906-1.794a3.223,3.223,0,0,0,2.881-.5,4.408,4.408,0,0,1-.044-.616V82.2a4.53,4.53,0,0,1,1.485-3.369,1.8,1.8,0,0,0-3.59.258,1.783,1.783,0,0,0,.139.7A4.818,4.818,0,0,1,415.182,85.213Zm5.156-6h0Z" transform="translate(-412.945 -75.642)"/>
  </g>
  <g id="グループ_963" data-name="グループ 963" transform="translate(16.488 0.292)">
    <path id="パス_1338" data-name="パス 1338" d="M443.61,73.308a.823.823,0,0,1-.823-.823c0-5.169,1.813-7.622,3.333-8.771a6.456,6.456,0,0,1,5.54-1.066.823.823,0,0,1-.45,1.583,4.771,4.771,0,0,0-4.1.8c-1.753,1.324-2.679,3.9-2.679,7.458A.823.823,0,0,1,443.61,73.308Z" transform="translate(-442.787 -62.427)"/>
  </g>
  <g id="グループ_965" data-name="グループ 965" transform="translate(0 21.133)">
    <g id="グループ_964" data-name="グループ 964">
      <path id="パス_1339" data-name="パス 1339" d="M429.136,110h-1.181q-.066,0-.132,0c-4.956-.246-10.13-1.057-14.355-5.282a2.514,2.514,0,1,1,3.556-3.555c2.852,2.852,6.482,3.588,11.055,3.815h.974c4.531-.226,8.161-.962,11.014-3.815a2.514,2.514,0,1,1,3.556,3.556c-4.225,4.225-9.4,5.036-14.362,5.282C429.223,109.995,429.179,110,429.136,110Zm-13.89-7.932a.868.868,0,0,0-.614,1.482c3.831,3.831,8.646,4.573,13.279,4.8h1.263c4.638-.231,9.454-.972,13.285-4.8a.87.87,0,0,0,0-1.228.889.889,0,0,0-1.228,0c-3.226,3.225-7.185,4.05-12.138,4.3h-1.055c-4.994-.247-8.954-1.072-12.179-4.3A.861.861,0,0,0,415.246,102.064Z" transform="translate(-412.731 -100.418)"/>
    </g>
  </g>
  <g id="グループ_966" data-name="グループ 966" transform="translate(25.452 6.224)">
    <path id="パス_1340" data-name="パス 1340" d="M459.948,78.19a.823.823,0,0,1-.576-1.412l3.379-3.3a.823.823,0,0,1,1.151,1.177l-3.379,3.3A.82.82,0,0,1,459.948,78.19Z" transform="translate(-459.125 -73.241)"/>
  </g>
  <g id="グループ_967" data-name="グループ 967" transform="translate(10.124 9.527)">
    <path id="パス_1341" data-name="パス 1341" d="M436.523,86.445H433.86a2.677,2.677,0,0,1-2.674-2.673V80.085a.823.823,0,1,1,1.646,0v3.687A1.029,1.029,0,0,0,433.86,84.8h2.663a1.029,1.029,0,0,0,1.028-1.028V80.085a.823.823,0,1,1,1.646,0v3.687A2.677,2.677,0,0,1,436.523,86.445Z" transform="translate(-431.186 -79.262)"/>
  </g>
  <g id="グループ_968" data-name="グループ 968" transform="translate(25.482 5.172)">
    <path id="パス_1342" data-name="パス 1342" d="M460,72.968a.832.832,0,0,1-.582-.241.9.9,0,0,1-.225-.422.776.776,0,0,1,0-.318.717.717,0,0,1,.049-.154.591.591,0,0,1,.077-.143.558.558,0,0,1,.1-.126.831.831,0,0,1,.746-.225c.049.011.1.027.154.044s.093.049.143.077a1.145,1.145,0,0,1,.121.1.582.582,0,0,1,.1.126.873.873,0,0,1,.077.143.494.494,0,0,1,.044.154.778.778,0,0,1,0,.318.494.494,0,0,1-.044.154,1.178,1.178,0,0,1-.077.143.75.75,0,0,1-.1.126,1.142,1.142,0,0,1-.121.1c-.049.027-.094.055-.143.077s-.1.033-.154.044A.838.838,0,0,1,460,72.968Z" transform="translate(-459.181 -71.323)"/>
  </g>
</svg>
