<svg xmlns="http://www.w3.org/2000/svg" width="25.569" height="19.999" viewBox="0 0 25.569 19.999">
  <g id="グループ_3139" data-name="グループ 3139" transform="translate(-34.298 -49.554)">
    <path id="パス_157" data-name="パス 157" d="M1.646,156.431c.11-.241.322-.637.692-1.333.17-.32.361-.674.555-1.036H1.186a1.185,1.185,0,1,0,0,2.369Z" transform="translate(34.564 -99.02)" fill="#ffb423" stroke="rgba(0,0,0,0)" stroke-width="0.533"/>
    <path id="パス_158" data-name="パス 158" d="M453.393,154.063h-1.706c.2.363.385.716.555,1.037.37.7.581,1.093.691,1.334h.46a1.185,1.185,0,0,0,0-2.371Z" transform="translate(-395.465 -99.02)" fill="#ffb423" stroke="rgba(0,0,0,0)" stroke-width="0.533"/>
    <path id="パス_159" data-name="パス 159" d="M39.391,387.776a1.6,1.6,0,1,0,3.195,0v-1.511H39.391Z" transform="translate(-2.938 -320.088)" fill="#ffb423" stroke="rgba(0,0,0,0)" stroke-width="0.533"/>
    <path id="パス_160" data-name="パス 160" d="M405.938,387.776a1.6,1.6,0,1,0,3.2,0v-1.511h-3.2Z" transform="translate(-351.91 -320.088)" fill="#ffb423" stroke="rgba(0,0,0,0)" stroke-width="0.533"/>
    <path id="パス_161" data-name="パス 161" d="M36.9,68.383c.085.025-3.106-5.831-3.259-6.148a2.639,2.639,0,0,0-2.37-1.345H21.192a2.64,2.64,0,0,0-2.37,1.345c-.153.316-3.342,6.173-3.258,6.148,0,0-1.032,1.03-1.111,1.112a1.565,1.565,0,0,0-.4,1.275v4.661c0,.869.155,1.345,1.18,1.345h22c1.025,0,1.181-.476,1.181-1.345V70.77A1.562,1.562,0,0,0,38.01,69.5C37.934,69.413,36.9,68.383,36.9,68.383Zm-18.7-1.8s2.049-3.691,2.171-3.933a1.6,1.6,0,0,1,1.4-.711H30.69a1.6,1.6,0,0,1,1.4.711c.122.242,2.171,3.933,2.171,3.933a.655.655,0,0,1-.537.972H18.742A.655.655,0,0,1,18.205,66.587Zm-.274,8.21a1.883,1.883,0,1,1,1.883-1.883A1.883,1.883,0,0,1,17.932,74.8Zm11.16.509a.249.249,0,0,1-.249.249h-5.22a.249.249,0,0,1-.249-.249v-2.3a.248.248,0,0,1,.249-.247h5.22a.248.248,0,0,1,.249.247v2.3Zm5.442-.509a1.883,1.883,0,1,1,1.883-1.883A1.884,1.884,0,0,1,34.534,74.8Z" transform="translate(21.186 -11.07)" fill="#ffb423" stroke="rgba(0,0,0,0)" stroke-width="0.533"/>
  </g>
</svg>
