<svg xmlns="http://www.w3.org/2000/svg" xmlns:xlink="http://www.w3.org/1999/xlink" width="39" height="38" viewBox="0 0 39 38">
  <defs>
    <style>
      .cls-1 {
        fill: none;
      }

      .cls-2 {
        clip-path: url(#clip-path);
      }
    </style>
    <clipPath id="clip-path">
      <rect id="長方形_813" data-name="長方形 813" class="cls-1" width="39" height="38" transform="translate(126 1668)"/>
    </clipPath>
  </defs>
  <g id="マスクグループ_75" data-name="マスクグループ 75" class="cls-2" transform="translate(-126 -1668)">
    <g id="グループ_970" data-name="グループ 970" transform="translate(127.384 1679.152)">
      <path id="パス_1343" data-name="パス 1343" d="M595.738,71.965a5.032,5.032,0,0,0-4.234-.653l.251-2.172a1.578,1.578,0,0,0-1.446-1.857H568.021a1.577,1.577,0,0,0-1.446,1.857L568.05,81.9c.486,3.792,4.087,5.392,8.369,5.392h5.493c4.026,0,7.449-1.414,8.248-4.736a8.837,8.837,0,0,0,4.582-1.478,6.563,6.563,0,0,0,2.65-4.662A4.415,4.415,0,0,0,595.738,71.965Zm-.621,4.145a4.3,4.3,0,0,1-1.709,3.1,6.182,6.182,0,0,1-2.935,1.017l.723-6.264a2.718,2.718,0,0,1,.416-.25,2.83,2.83,0,0,1,2.779.111A2.238,2.238,0,0,1,595.117,76.11Z" transform="translate(-561.98 -67.284)"/>
      <rect id="長方形_440" data-name="長方形 440" width="35.177" height="2.401" rx="1.201" transform="translate(0 21.822)"/>
    </g>
  </g>
</svg>
