<svg id="コンポーネント_39_1" data-name="コンポーネント 39 – 1" xmlns="http://www.w3.org/2000/svg" width="34.852" height="30.745" viewBox="0 0 34.852 30.745">
  <path id="パス_1" data-name="パス 1" d="M884.4,519.493h0c-3.656,3.9-11.832,8.641-13.692,9.367s-1.585-.462-1.509-.87c.044-.243.249-1.381.249-1.381a3.076,3.076,0,0,0-.056-1.459c-.2-.449-.968-.682-1.535-.8-8.374-1.025-14.574-6.445-14.574-12.917,0-7.219,7.818-13.093,17.426-13.093s17.426,5.874,17.426,13.093C888.131,514.327,886.922,516.929,884.4,519.493Zm-1.729-4.195v-1.144a.322.322,0,0,0-.333-.308h-3.327v-1.188h3.327a.321.321,0,0,0,.333-.308v-1.144a.322.322,0,0,0-.333-.308h-3.327v-1.188h3.327a.321.321,0,0,0,.333-.308v-1.144a.322.322,0,0,0-.333-.308h-4.9a.321.321,0,0,0-.333.308v.007h0v7.029h0v.005a.321.321,0,0,0,.333.308h4.9A.321.321,0,0,0,882.667,515.3Zm-18.443.308a.321.321,0,0,0,.333-.308v-1.144a.322.322,0,0,0-.333-.308H860.9v-5.589a.322.322,0,0,0-.333-.308h-1.236a.321.321,0,0,0-.333.308v7.036h0v.005a.321.321,0,0,0,.333.308h4.9Zm2.947-7.657h-1.236a.321.321,0,0,0-.333.308V515.3a.321.321,0,0,0,.333.308h1.236a.321.321,0,0,0,.333-.308v-7.041A.321.321,0,0,0,867.172,507.949Zm8.413,0h-1.236a.321.321,0,0,0-.333.308v4.182l-3.479-4.351a.315.315,0,0,0-.027-.032l0,0-.02-.019-.006-.005-.018-.014-.009-.006-.018-.011-.01-.006-.019-.009-.01,0-.019-.008-.011,0-.02-.006-.012,0-.02,0-.014,0-.018,0h-1.258a.321.321,0,0,0-.333.308V515.3a.321.321,0,0,0,.333.308h1.236a.321.321,0,0,0,.333-.308v-4.181l3.484,4.356a.328.328,0,0,0,.086.078l0,0,.021.012.01,0,.016.007.016.006.011,0,.023.007h0a.361.361,0,0,0,.087.011h1.229a.321.321,0,0,0,.333-.308v-7.041A.321.321,0,0,0,875.585,507.949Z" transform="translate(-853.279 -498.345)" fill="#333"/>
</svg>
