<svg xmlns="http://www.w3.org/2000/svg" width="35.473" height="24.224" viewBox="0 0 35.473 24.224">
  <g id="グループ_970" data-name="グループ 970" transform="translate(0 0)">
    <path id="パス_1343" data-name="パス 1343" d="M595.738,71.965a5.032,5.032,0,0,0-4.234-.653l.251-2.172a1.578,1.578,0,0,0-1.446-1.857H568.021a1.577,1.577,0,0,0-1.446,1.857L568.05,81.9c.486,3.792,4.087,5.392,8.369,5.392h5.493c4.026,0,7.449-1.414,8.248-4.736a8.837,8.837,0,0,0,4.582-1.478,6.563,6.563,0,0,0,2.65-4.662A4.415,4.415,0,0,0,595.738,71.965Zm-.621,4.145a4.3,4.3,0,0,1-1.709,3.1,6.182,6.182,0,0,1-2.935,1.017l.723-6.264a2.718,2.718,0,0,1,.416-.25,2.83,2.83,0,0,1,2.779.111A2.238,2.238,0,0,1,595.117,76.11Z" transform="translate(-561.98 -67.284)"/>
    <rect id="長方形_440" data-name="長方形 440" width="35.177" height="2.401" rx="1.201" transform="translate(0 21.822)"/>
  </g>
</svg>
