<svg xmlns="http://www.w3.org/2000/svg" width="25.083" height="25.085" viewBox="0 0 25.083 25.085">
  <g id="グループ_3141" data-name="グループ 3141" transform="translate(-38.583 -137.191)">
    <path id="パス_154" data-name="パス 154" d="M23.953,10.07l-2.678-.124a.629.629,0,0,1-.554-.389L20.169,8.23a.632.632,0,0,1,.118-.667l1.806-1.982a.633.633,0,0,0-.02-.872L19.846,2.482a.633.633,0,0,0-.873-.02L16.993,4.268a.631.631,0,0,1-.668.117L15,3.834a.629.629,0,0,1-.388-.555L14.485.6a.632.632,0,0,0-.63-.6H10.7a.632.632,0,0,0-.631.6L9.95,3.28a.629.629,0,0,1-.388.555l-1.328.551a.63.63,0,0,1-.668-.117L5.585,2.462a.632.632,0,0,0-.873.02L2.486,4.709a.631.631,0,0,0-.02.872L4.272,7.563a.63.63,0,0,1,.116.667l-.55,1.328a.631.631,0,0,1-.554.389L.606,10.07a.631.631,0,0,0-.6.63v3.15a.632.632,0,0,0,.6.63l2.677.124a.63.63,0,0,1,.554.389l.55,1.328a.63.63,0,0,1-.116.667L2.466,18.97a.632.632,0,0,0,.019.873L4.714,22.07a.632.632,0,0,0,.872.02l1.981-1.807a.632.632,0,0,1,.668-.117l1.328.55a.631.631,0,0,1,.388.555l.123,2.677a.632.632,0,0,0,.631.6h3.151a.632.632,0,0,0,.63-.6l.124-2.677A.631.631,0,0,1,15,20.717l1.328-.55a.632.632,0,0,1,.668.117l1.981,1.807a.633.633,0,0,0,.873-.02l2.227-2.227a.634.634,0,0,0,.02-.873l-1.806-1.981a.63.63,0,0,1-.118-.667l.552-1.328a.629.629,0,0,1,.554-.389l2.678-.124a.631.631,0,0,0,.6-.63V10.7A.63.63,0,0,0,23.953,10.07ZM12.28,16.286a4.01,4.01,0,1,1,4.009-4.009A4.01,4.01,0,0,1,12.28,16.286Z" transform="translate(38.846 137.457)" fill="#ffb423" stroke="rgba(0,0,0,0)" stroke-width="0.533"/>
  </g>
</svg>
