<svg xmlns="http://www.w3.org/2000/svg" width="85.336" height="59.397" viewBox="0 0 85.336 59.397">
  <defs>
    <style>
      .cls-1, .cls-2, .cls-3 {
        fill-rule: evenodd;
      }

      .cls-2 {
        fill: #fdfdfd;
      }

      .cls-3 {
        fill: #fcfcfc;
      }
    </style>
  </defs>
  <g id="グループ_2478" data-name="グループ 2478" transform="translate(-140.245 -232.638)">
    <path id="パス_1353" data-name="パス 1353" class="cls-1" d="M225.581,250.253c-.38,1.024-.741,2-1.107,2.978q-3.007,8.031-6.02,16.06a.835.835,0,0,0,.017.641q3.491,9.164,6.968,18.333c.046.122.081.248.133.411h-.418q-12.792,0-25.583.008c-.346,0-.434-.075-.43-.427.021-1.82,0-3.64.017-5.459,0-.284-.077-.345-.352-.345q-25.8.01-51.6,0c-.361,0-.365.152-.365.418,0,8.289.083-1.025.084,7.264a2.614,2.614,0,0,1-.089.828,1.576,1.576,0,0,1-3.068-.393c-.01-.159,0-.319,0-.478,0-21.612-.081-25.621-.072-47.233a.56.56,0,0,0-.408-.628,5,5,0,1,1,3.884.036c-.25.1-.354.213-.33.485a4.064,4.064,0,0,1,0,.875c-.048.372.105.42.436.42q32.418-.012,64.835-.007a2.333,2.333,0,0,0,.358,0c.3-.047.376.062.374.365-.016,1.82,0,3.64-.017,5.459,0,.34.091.4.414.4,3.958-.012,7.917-.008,11.875-.008Z" transform="translate(0)"/>
    <path id="パス_1354" data-name="パス 1354" class="cls-2" d="M196.419,284.512q15.7,0,31.4-.01c.394,0,.467.1.467.479q-.016,16.356,0,32.711c0,.389-.1.471-.477.471q-31.417-.015-62.833,0c-.329,0-.438-.05-.438-.418q.018-16.415,0-32.831c0-.328.073-.409.406-.409Q180.681,284.519,196.419,284.512Z" transform="translate(-17.837 -38.085)"/>
    <path id="パス_1355" data-name="パス 1355" class="cls-2" d="M392.365,307.915c-.507,1.361-.993,2.674-1.483,3.985q-2.365,6.32-4.738,12.638a.884.884,0,0,0,0,.68q3.047,7.993,6.081,15.991c.037.1.068.2.111.324H372.075l-.014-.041q1.3-.448,2.6-.9c2.716-.931,5.431-1.867,8.151-2.783.273-.092.251-.25.251-.449q-.006-5.239-.008-10.478,0-9.283-.008-18.567c0-.328.07-.413.406-.411C386.4,307.921,389.351,307.915,392.365,307.915Z" transform="translate(-170.23 -55.272)"/>
    <path id="パス_1356" data-name="パス 1356" class="cls-2" d="M159.474,241.408A1.578,1.578,0,1,1,161.032,243,1.582,1.582,0,0,1,159.474,241.408Z" transform="translate(-14.12 -5.289)"/>
    <path id="パス_1357" data-name="パス 1357" class="cls-1" d="M196.061,329.016v.4c0,2.524,0,5.047.007,7.571,0,.283-.045.382-.359.376-1.261-.022-2.524-.019-3.785,0-.288,0-.344-.082-.343-.354q.013-7.352,0-14.7c0-.275.064-.357.347-.353q1.853.024,3.706,0a.665.665,0,0,1,.643.336q2.624,3.893,5.274,7.769c.072.106.152.207.294.4v-.472c0-2.537.009-5.074-.01-7.611,0-.367.105-.427.439-.422,1.248.02,2.5.014,3.746,0,.238,0,.311.048.311.3q-.012,7.412,0,14.824c0,.228-.065.284-.287.282-1.315-.01-2.63-.015-3.945,0-.255,0-.348-.131-.46-.295q-2.632-3.863-5.267-7.725C196.292,329.235,196.252,329.084,196.061,329.016Z" transform="translate(-37.697 -65.587)"/>
    <path id="パス_1358" data-name="パス 1358" class="cls-1" d="M321.753,344.824c.564-2.2,1.133-4.391,1.681-6.587.066-.265.166-.33.421-.328,1.243.013,2.486.006,3.773.006-.472,1.284-.926,2.523-1.383,3.762-.869,2.358-1.745,4.714-2.6,7.077a.412.412,0,0,1-.476.327c-1.036-.017-2.072-.021-3.107,0-.287.006-.376-.1-.458-.347-.667-2.009-1.35-4.013-2.027-6.018-.029-.086-.026-.187-.147-.257l-1.458,4.468c-.205.629-.422,1.255-.609,1.889a.306.306,0,0,1-.359.26c-1.1-.009-2.2-.007-3.306,0-.161,0-.262-.024-.326-.2q-2-5.438-4.017-10.871c0-.011,0-.026.016-.092h1.155c.863,0,1.727.01,2.589-.006.254,0,.357.058.423.324.546,2.193,1.114,4.381,1.678,6.578.166-.068.147-.227.184-.34q1.009-3.095,2-6.2c.083-.263.177-.376.477-.369,1.048.023,2.1.019,3.147,0a.4.4,0,0,1,.468.331c.694,2.112,1.408,4.217,2.117,6.324C321.63,344.647,321.622,344.751,321.753,344.824Z" transform="translate(-122.711 -77.301)"/>
    <path id="パス_1359" data-name="パス 1359" class="cls-1" d="M268.511,345.51A5.667,5.667,0,0,1,263.4,348.6a9.789,9.789,0,0,1-4.237-.461,5.035,5.035,0,0,1-3.105-3.812,6,6,0,0,1,.973-5.142,5.486,5.486,0,0,1,3.75-2.105,10.1,10.1,0,0,1,4.027.2,5.1,5.1,0,0,1,3.864,4.405c.08.607.09,1.216.137,1.825.022.281-.071.354-.35.353-2.6-.011-5.205,0-7.808-.014-.349,0-.45.048-.363.427a2.081,2.081,0,0,0,1.484,1.744,2.212,2.212,0,0,0,2.353-.661c.125-.135.219-.269.453-.245,1.241.129,2.483.237,3.725.353A2.137,2.137,0,0,1,268.511,345.51Z" transform="translate(-84.903 -76.611)"/>
    <path id="パス_1360" data-name="パス 1360" class="cls-3" d="M274.465,348.866c-.624,0-1.247,0-1.871,0-.106,0-.251.05-.228-.164a2.116,2.116,0,0,1,2.706-2.063,1.919,1.919,0,0,1,1.41,1.733c.1.494.086.5-.425.5Z" transform="translate(-97.019 -83.656)"/>
  </g>
</svg>
