<svg xmlns="http://www.w3.org/2000/svg" width="28.247" height="28.249" viewBox="0 0 28.247 28.249">
  <g id="グループ_350" data-name="グループ 350" transform="translate(-66.776 -727.037)">
    <path id="パス_154" data-name="パス 154" d="M26.974,11.34,23.958,11.2a.709.709,0,0,1-.623-.438l-.621-1.5a.712.712,0,0,1,.133-.751L24.88,6.285a.713.713,0,0,0-.023-.982L22.349,2.795a.712.712,0,0,0-.983-.022L19.136,4.807a.711.711,0,0,1-.752.132l-1.5-.62a.709.709,0,0,1-.437-.625L16.312.678A.711.711,0,0,0,15.6,0H12.054a.712.712,0,0,0-.71.678L11.2,3.693a.709.709,0,0,1-.437.625l-1.5.62a.71.71,0,0,1-.752-.132L6.288,2.773a.712.712,0,0,0-.983.022L2.8,5.3a.711.711,0,0,0-.023.982L4.811,8.517a.709.709,0,0,1,.13.751l-.619,1.5A.71.71,0,0,1,3.7,11.2L.682,11.34A.711.711,0,0,0,0,12.05V15.6a.712.712,0,0,0,.678.71l3.015.139a.71.71,0,0,1,.624.438l.619,1.5a.709.709,0,0,1-.13.751L2.776,21.363a.712.712,0,0,0,.022.983l2.509,2.508a.712.712,0,0,0,.982.023L8.52,22.842a.711.711,0,0,1,.752-.131l1.5.62a.71.71,0,0,1,.437.625l.139,3.015a.712.712,0,0,0,.71.678H15.6a.711.711,0,0,0,.709-.678l.14-3.015a.71.71,0,0,1,.437-.625l1.5-.62a.712.712,0,0,1,.752.131l2.231,2.035a.713.713,0,0,0,.983-.023l2.507-2.508a.714.714,0,0,0,.023-.983l-2.034-2.231a.71.71,0,0,1-.133-.751l.621-1.5a.708.708,0,0,1,.623-.438l3.016-.139a.711.711,0,0,0,.677-.71V12.05A.71.71,0,0,0,26.974,11.34Zm-13.146,7a4.515,4.515,0,1,1,4.514-4.515A4.516,4.516,0,0,1,13.828,18.34Z" transform="translate(67.072 727.337)" fill="#eb6100" stroke="rgba(0,0,0,0)" stroke-width="0.6"/>
  </g>
</svg>
