<svg xmlns="http://www.w3.org/2000/svg" xmlns:xlink="http://www.w3.org/1999/xlink" width="39" height="38" viewBox="0 0 39 38">
  <defs>
    <style>
      .cls-1 {
        fill: none;
      }

      .cls-2 {
        clip-path: url(#clip-path);
      }

      .cls-3 {
        fill: #231815;
        fill-rule: evenodd;
      }
    </style>
    <clipPath id="clip-path">
      <rect id="長方形_820" data-name="長方形 820" class="cls-1" width="39" height="38" transform="translate(847 1623)"/>
    </clipPath>
  </defs>
  <g id="マスクグループ_82" data-name="マスクグループ 82" class="cls-2" transform="translate(-847 -1623)">
    <g id="グループ_948" data-name="グループ 948" transform="translate(850.397 1628.343)">
      <path id="パス_1324" data-name="パス 1324" class="cls-3" d="M153.277,70.662a3.376,3.376,0,0,0,2.229.488,4.355,4.355,0,0,0,1.707-.732c1.279-.947,2.087-3.487,1.393-5.643-.628-1.952-2.02-3.716-4.633-3.693-.109.068-.274.03-.418.07l-.766.279a4.571,4.571,0,0,0-2.055,2.717,6,6,0,0,0,0,2.926A5.316,5.316,0,0,0,153.277,70.662Zm8.012-2.474a4.029,4.029,0,0,0,3.135,2.961,3.689,3.689,0,0,0,2.717-.8,5.634,5.634,0,0,0,2.055-3.1c.1-.349.053-.654.139-1.045a4.238,4.238,0,0,0-.1-1.742,4.112,4.112,0,0,0-2.717-3.274,4.218,4.218,0,0,0-1.289-.1c-.109.068-.274.03-.418.07l-.731.244a5.03,5.03,0,0,0-2.125,1.95,7.126,7.126,0,0,0-.7,1.707,4.415,4.415,0,0,0-.139,1.916C161.213,67.428,161.161,67.792,161.289,68.189ZM151.083,75.4a5.246,5.246,0,0,0,.209-2.125c-.08-.367-.1-.764-.209-1.115-.654-2.034-1.978-3.786-4.7-3.762-.1.061-.258.033-.383.07l-.766.279a4.535,4.535,0,0,0-2.02,2.647,4.226,4.226,0,0,0-.174,1.881c.117.545.057.989.209,1.463a5.513,5.513,0,0,0,2.438,3.2,3.4,3.4,0,0,0,2.229.523A3.944,3.944,0,0,0,151.083,75.4Zm22.99-6.9a4.534,4.534,0,0,0-1.359-.1c-.1.061-.258.033-.383.07l-.732.244a4.983,4.983,0,0,0-2.09,1.916,7.543,7.543,0,0,0-.766,1.951,5.786,5.786,0,0,0,.035,2.543c.507,1.842,1.326,2.909,3.239,3.344a3.768,3.768,0,0,0,2.752-.871,5.513,5.513,0,0,0,1.916-2.856C177.6,71.922,176.136,69.174,174.073,68.5Zm-6.828,9.126c-.394-.3-.724-.715-1.115-1.01a7.132,7.132,0,0,1-1.114-1.045c-.324-.429-.763-.765-1.08-1.184a5.279,5.279,0,0,0-4.215-2.334l-.662.1a4.852,4.852,0,0,0-1.15.488c-1.551.964-2.63,2.572-3.9,3.832-1.431,1.418-3.423,2.415-4.285,4.389a9.4,9.4,0,0,0-.488,1.637,4.672,4.672,0,0,0,.244,2.4,4.921,4.921,0,0,0,3.553,3.274,4.98,4.98,0,0,0,2.264.174c1.094-.249,2.04-.505,3.066-.836a4.381,4.381,0,0,1,1.916-.279l1.184.209c1.678.535,3.738,1.375,5.782.627a4.9,4.9,0,0,0,.906-.348,5.348,5.348,0,0,0,1.742-1.672,5.564,5.564,0,0,0,.7-1.5,5.648,5.648,0,0,0-.383-3.588A8.519,8.519,0,0,0,167.245,77.629Z" transform="translate(-142.99 -61.08)"/>
    </g>
  </g>
</svg>
