<svg xmlns="http://www.w3.org/2000/svg" xmlns:xlink="http://www.w3.org/1999/xlink" width="39" height="38" viewBox="0 0 39 38">
  <defs>
    <style>
      .cls-1 {
        fill: none;
      }

      .cls-2 {
        clip-path: url(#clip-path);
      }
    </style>
    <clipPath id="clip-path">
      <rect id="長方形_819" data-name="長方形 819" class="cls-1" width="39" height="38" transform="translate(847 1669)"/>
    </clipPath>
  </defs>
  <g id="マスクグループ_83" data-name="マスクグループ 83" class="cls-2" transform="translate(-847 -1669)">
    <path id="パス_1326" data-name="パス 1326" d="M298.465,63.207l-4.5,4.965h2.61l-3.823,5.161H294.9l-7.086,7.473,3.264-6.2h-2.611l3.59-5.1h-3.264l4.66-6.418a7.981,7.981,0,0,0-3.608,2.312,7.952,7.952,0,0,0-13.9,5.292c0,2.48,1.144,4.112,2.912,6.154l10.98,11.525,10.965-11.509c2.066-2.211,2.934-3.68,2.934-6.17A7.956,7.956,0,0,0,298.465,63.207Z" transform="translate(577.54 1614.956)"/>
  </g>
</svg>
