<svg xmlns="http://www.w3.org/2000/svg" width="23.097" height="23.76" viewBox="0 0 23.097 23.76">
  <g id="グループ_922" data-name="グループ 922" transform="translate(-12.849 -2.97)">
    <g id="グループ_4" data-name="グループ 4" transform="translate(0 0)">
      <path id="パス_3" data-name="パス 3" d="M23.531,4.376H22.247V2H19.681V4.376H9.416V2H6.849V4.376H5.566A2.464,2.464,0,0,0,3.013,6.752L3,23.384A2.476,2.476,0,0,0,5.566,25.76H23.531A2.484,2.484,0,0,0,26.1,23.384V6.752A2.484,2.484,0,0,0,23.531,4.376Zm0,19.008H5.566V11.5H23.531ZM10.7,16.256H8.133V13.88H10.7Zm5.133,0H13.265V13.88h2.566Zm5.133,0H18.4V13.88h2.566ZM10.7,21.008H8.133V18.632H10.7Zm5.133,0H13.265V18.632h2.566Zm5.133,0H18.4V18.632h2.566Z" transform="translate(9.849 0.97)" fill="#333"/>
    </g>
  </g>
</svg>
