<svg xmlns="http://www.w3.org/2000/svg" width="24.587" height="27.54" viewBox="0 0 24.587 27.54">
  <g id="グループ_3140" data-name="グループ 3140" transform="translate(-38.582 -87.499)">
    <path id="パス_162" data-name="パス 162" d="M192.245,440.954h6.228l.306-1.6h-6.846Z" transform="translate(-144.438 -328.416)" fill="#ffb423" stroke="rgba(0,0,0,0)" stroke-width="0.533"/>
    <path id="パス_163" data-name="パス 163" d="M218.817,484.863c1.123,0,2.034-.676,2.034-1.511h-4.067C216.783,484.186,217.693,484.863,218.817,484.863Z" transform="translate(-167.977 -370.09)" fill="#ffb423" stroke="rgba(0,0,0,0)" stroke-width="0.533"/>
    <path id="パス_164" data-name="パス 164" d="M88.7,352.232c.18.195.368.384.562.567l1.32-1.446q-.217-.207-.423-.427Z" transform="translate(-46.646 -244.648)" fill="#ffb423" stroke="rgba(0,0,0,0)" stroke-width="0.533"/>
    <path id="パス_165" data-name="パス 165" d="M27.968,212.084q-.008.223-.008.447,0,.179.005.358l1.4-.072h.559c0-.1,0-.191,0-.286q0-.169.005-.337Z" transform="translate(10.889 -113.131)" fill="#ffb423" stroke="rgba(0,0,0,0)" stroke-width="0.533"/>
    <path id="パス_166" data-name="パス 166" d="M91.989,55.033l-1.308-1.458q-.294.274-.567.562l1.448,1.319Q91.77,55.238,91.989,55.033Z" transform="translate(-47.988 37.018)" fill="#ffb423" stroke="rgba(0,0,0,0)" stroke-width="0.533"/>
    <path id="パス_167" data-name="パス 167" d="M249.556,1.957q.165,0,.329.005l.1-1.954C249.844,0,249.7,0,249.554,0c-.123,0-.246,0-.365.005l.121,1.954Z" transform="translate(-198.672 87.766)" fill="#ffb423" stroke="rgba(0,0,0,0)" stroke-width="0.533"/>
    <path id="パス_168" data-name="パス 168" d="M448.76,213.649l-1.954.1c0,.094,0,.188,0,.281q0,.18-.006.358l1.954.113q.01-.235.009-.471C448.766,213.905,448.764,213.779,448.76,213.649Z" transform="translate(-385.863 -114.613)" fill="#ffb423" stroke="rgba(0,0,0,0)" stroke-width="0.533"/>
    <path id="パス_169" data-name="パス 169" d="M387.341,56.112q.219.207.422.425l1.456-1.308c-.181-.195-.37-.385-.563-.567Z" transform="translate(-329.537 35.988)" fill="#ffb423" stroke="rgba(0,0,0,0)" stroke-width="0.533"/>
    <path id="パス_170" data-name="パス 170" d="M386.081,352.908l1.3,1.46c.195-.18.385-.368.569-.562l-1.446-1.32C386.37,352.631,386.227,352.772,386.081,352.908Z" transform="translate(-328.344 -246.129)" fill="#ffb423" stroke="rgba(0,0,0,0)" stroke-width="0.533"/>
    <path id="パス_171" data-name="パス 171" d="M123.64,84.6a7.675,7.675,0,0,0-13.1,5.428,9.493,9.493,0,0,0,2.507,6.2,11.47,11.47,0,0,1,2.063,2.485h-.824l.345,1.782h7.254l.341-1.782h-.911a11.474,11.474,0,0,1,2.063-2.485,9.494,9.494,0,0,0,2.507-6.2A7.668,7.668,0,0,0,123.64,84.6Z" transform="translate(-67.336 9.758)" fill="#ffb423" stroke="rgba(0,0,0,0)" stroke-width="0.533"/>
  </g>
</svg>
