<svg xmlns="http://www.w3.org/2000/svg" width="26.24" height="29.972" viewBox="0 0 26.24 29.972">
  <defs>
    <style>
      .cls-1 {
        fill: #231815;
        fill-rule: evenodd;
      }
    </style>
  </defs>
  <path id="パス_1325" data-name="パス 1325" class="cls-1" d="M233.52,65.28h-.1a1.24,1.24,0,0,0-.314-.227c-.19-.136-.4-.29-.594-.419-.067-.043-.141-.044-.21-.087a9.758,9.758,0,0,0-2.41-1.013l-.193-.018c-.116-.035-.3-.092-.419-.122l-.262-.018a4.664,4.664,0,0,0-1.676-.122v.035c-.043.07,0,.205,0,.28v.716c0,.9.03,1.786.035,2.62-.036-.007-.033,0-.052-.018-.145-.053-.327-.289-.454-.384-.36-.272-.674-.6-1.03-.873-.422-.318-.8-.68-1.223-1l-.227-.227a20.747,20.747,0,0,1-1.8-1.52c-.127-.12-.293-.195-.419-.314a6.671,6.671,0,0,0-.559-.506c-.111-.083-.4-.251-.419-.4.221-.113.367-.345.559-.489a10.786,10.786,0,0,0,.925-.8,4.231,4.231,0,0,1,.384-.3l.3-.3c.312-.234.58-.5.891-.733l.279-.279c.422-.318.783-.7,1.205-1.013l.245-.245c.293-.222.545-.478.838-.7.124-.093.321-.37.471-.4a.315.315,0,0,1,.018.1.57.57,0,0,0,0,.3v.663l.018,2.637a2.381,2.381,0,0,0,.821.035c.2.117.515.005.769.07.569.144,1.2.17,1.712.349l.192.018c.33.11.7.219,1.013.349.112.047.2.037.314.088a17.19,17.19,0,0,1,1.921.943c.424.263.827.571,1.222.856.11.079.244.123.349.21l.053.087c.059.039.135.049.174.1.026.037.022.075.053.1a3.339,3.339,0,0,0,.331.262,4.8,4.8,0,0,1,.541.559l.245.227c.3.4.679.753.961,1.17a14.685,14.685,0,0,1,1.694,3.179c.241.663.391,1.373.576,2.1.091.355.078.764.157,1.117V72.3a5.956,5.956,0,0,1,0,1.921v.366c-.088.387-.106.848-.21,1.205l-.018.245c-.035.133-.1.328-.14.454-.048.161-.03.284-.087.437-.1.272-.175.568-.279.856-.145.4-.338.794-.506,1.188-.049.114-.153.24-.21.349-.091.174-.141.345-.245.507l-.053.035a12.465,12.465,0,0,1-2.183,2.812,13.551,13.551,0,0,1-4.8,2.969,22.773,22.773,0,0,1-2.323.576l-.367.018c-.21.049-.516.035-.751.087h-.21a4.854,4.854,0,0,1-1.572-.018l-.541-.018c-.348-.082-.76-.1-1.083-.192l-.262-.018c-.628-.18-1.264-.36-1.834-.576A13.322,13.322,0,0,1,219.2,83.53c-.3-.233-.558-.519-.838-.769a12.154,12.154,0,0,1-.926-.961l-.087-.035c-.049-.054-.076-.159-.122-.21s-.118-.07-.157-.122a2.625,2.625,0,0,1-.21-.279l-.018-.1a12.48,12.48,0,0,1-1-1.5c-.116-.217-.182-.421-.3-.646a12.206,12.206,0,0,1-1.292-5.361,3.141,3.141,0,0,1,.8-.018h1.764a1.338,1.338,0,0,1,.489-.018.8.8,0,0,1,.017.227c.046.078-.007.228.018.332.044.187.018.421.07.629.133.535.194,1.09.366,1.589a10.643,10.643,0,0,0,.786,1.764,3.231,3.231,0,0,0,.244.471c.018.017.055,0,.07.018.061.083.081.179.139.262.106.151.249.3.349.454l.053.14c.032.035.093.048.122.087s.019.086.053.14c.075.122.278.266.366.384a4.6,4.6,0,0,0,.908.873c.1.078.189.2.3.279.35.241.7.524,1.065.733a14.784,14.784,0,0,0,2.113.943l.157.018c.107.037.275.108.385.14.17.05.279.024.454.07a9.637,9.637,0,0,0,4.872-.21,11.367,11.367,0,0,0,1.589-.594,12.292,12.292,0,0,0,1.555-.961c.191-.138.355-.331.541-.472a5.392,5.392,0,0,0,.576-.524l.192-.174c.117-.155.275-.282.385-.437a1.128,1.128,0,0,1,.21-.349c.024-.025.085-.024.1-.052s.01-.086.035-.122c.037-.057.12-.087.157-.14a10.72,10.72,0,0,0,.733-1.275c.059-.112.16-.249.21-.366.186-.446.346-.914.506-1.38s.182-.959.3-1.449v-.245a6.049,6.049,0,0,0,0-2.113l-.018-.4c-.089-.341-.107-.7-.21-1.048a11.4,11.4,0,0,0-1.606-3.388,9.784,9.784,0,0,0-1.4-1.555C233.959,65.7,233.539,65.441,233.52,65.28Z" transform="translate(-214.257 -56.408)"/>
</svg>
