<svg xmlns="http://www.w3.org/2000/svg" width="28.795" height="22.523" viewBox="0 0 28.795 22.523">
  <g id="グループ_348" data-name="グループ 348" transform="translate(-40.534 -411.428)">
    <path id="パス_157" data-name="パス 157" d="M1.853,156.73c.124-.272.362-.718.779-1.5.192-.361.406-.759.625-1.167H1.335a1.334,1.334,0,1,0,0,2.668Z" transform="translate(40.834 263.549)" fill="#eb6100" stroke="rgba(0,0,0,0)" stroke-width="0.6"/>
    <path id="パス_158" data-name="パス 158" d="M453.609,154.063h-1.922c.22.408.434.807.625,1.168.417.784.654,1.23.779,1.5h.518a1.335,1.335,0,0,0,0-2.67Z" transform="translate(-386.463 263.548)" fill="#eb6100" stroke="rgba(0,0,0,0)" stroke-width="0.6"/>
    <path id="パス_159" data-name="パス 159" d="M39.391,387.967a1.8,1.8,0,1,0,3.6,0v-1.7h-3.6Z" transform="translate(3.569 43.884)" fill="#eb6100" stroke="rgba(0,0,0,0)" stroke-width="0.6"/>
    <path id="パス_160" data-name="パス 160" d="M405.938,387.967a1.8,1.8,0,0,0,3.6,0v-1.7h-3.6Z" transform="translate(-343.185 43.884)" fill="#eb6100" stroke="rgba(0,0,0,0)" stroke-width="0.6"/>
    <path id="パス_161" data-name="パス 161" d="M39.783,69.328c.1.028-3.5-6.567-3.67-6.923a2.971,2.971,0,0,0-2.668-1.514H22.093a2.973,2.973,0,0,0-2.668,1.514c-.172.356-3.763,6.952-3.669,6.923,0,0-1.162,1.16-1.251,1.253a1.763,1.763,0,0,0-.454,1.435v5.249c0,.979.175,1.515,1.329,1.515H40.158c1.154,0,1.33-.536,1.33-1.515V72.017a1.759,1.759,0,0,0-.456-1.435C40.947,70.488,39.783,69.328,39.783,69.328ZM18.729,67.306s2.308-4.157,2.444-4.429a1.8,1.8,0,0,1,1.577-.8H32.788a1.8,1.8,0,0,1,1.577.8c.137.272,2.445,4.429,2.445,4.429a.738.738,0,0,1-.605,1.1H19.334A.738.738,0,0,1,18.729,67.306Zm-.308,9.245a2.121,2.121,0,1,1,2.12-2.12A2.12,2.12,0,0,1,18.421,76.551Zm12.568.573a.281.281,0,0,1-.28.281H24.831a.281.281,0,0,1-.281-.281v-2.59a.28.28,0,0,1,.281-.278h5.878a.28.28,0,0,1,.28.278v2.59Zm6.129-.573a2.121,2.121,0,1,1,2.121-2.12A2.121,2.121,0,0,1,37.118,76.551Z" transform="translate(27.541 350.837)" fill="#eb6100" stroke="rgba(0,0,0,0)" stroke-width="0.6"/>
  </g>
</svg>
