<svg id="グループ_960" data-name="グループ 960" xmlns="http://www.w3.org/2000/svg" width="19.504" height="33.641" viewBox="0 0 19.504 33.641">
  <g id="グループ_954" data-name="グループ 954" transform="translate(2.856)">
    <path id="パス_1330" data-name="パス 1330" d="M514.765,66.635a.823.823,0,0,1-.733-.448,6.415,6.415,0,0,0-2.827-2.263c-.172-.088-.318-.162-.424-.223a1.906,1.906,0,0,1-1.016-1.186,2.58,2.58,0,0,1,.552-2.034,1.694,1.694,0,0,0,.035-1.752,1.894,1.894,0,0,0-3.318,0,1.692,1.692,0,0,0,.035,1.754,2.571,2.571,0,0,1,.55,2.032,1.914,1.914,0,0,1-1.025,1.192c-.1.055-.242.129-.415.218a6.423,6.423,0,0,0-2.827,2.262.823.823,0,0,1-1.465-.751,7.75,7.75,0,0,1,3.546-2.979c.144-.073.266-.134.354-.184a.8.8,0,0,0,.241-.168h0a1.713,1.713,0,0,0-.338-.722,3.359,3.359,0,0,1-.1-3.438,3.54,3.54,0,0,1,6.211,0,3.359,3.359,0,0,1-.1,3.436c-.341.52-.334.721-.332.74a1.083,1.083,0,0,0,.224.146c.1.057.219.117.364.19a7.755,7.755,0,0,1,3.546,2.979.823.823,0,0,1-.732,1.2Z" transform="translate(-501.796 -56.104)"/>
  </g>
  <g id="グループ_955" data-name="グループ 955" transform="translate(0 8.884)">
    <path id="パス_1331" data-name="パス 1331" d="M513.4,77.681H499.281a2.691,2.691,0,0,1,0-5.382H513.4a2.691,2.691,0,0,1,0,5.382Zm-14.122-3.736a1.045,1.045,0,0,0,0,2.091H513.4a1.045,1.045,0,0,0,0-2.091Z" transform="translate(-496.59 -72.299)"/>
  </g>
  <g id="グループ_956" data-name="グループ 956" transform="translate(0 14.11)">
    <path id="パス_1332" data-name="パス 1332" d="M512.975,101.355H499.709a3.123,3.123,0,0,1-3.119-3.119V91a20.531,20.531,0,0,1,1.947-8.7.822.822,0,1,1,1.488.7,18.9,18.9,0,0,0-1.789,8v7.239a1.475,1.475,0,0,0,1.474,1.474h13.266a1.475,1.475,0,0,0,1.474-1.474V91a18.889,18.889,0,0,0-1.789-8,.823.823,0,0,1,1.489-.7,20.55,20.55,0,0,1,1.946,8.7v7.239A3.123,3.123,0,0,1,512.975,101.355Z" transform="translate(-496.59 -81.824)"/>
  </g>
  <g id="グループ_957" data-name="グループ 957" transform="translate(9.965 16.919)">
    <path id="パス_1333" data-name="パス 1333" d="M519.586,88.59h-4.009a.823.823,0,1,1,0-1.646h4.009a.823.823,0,1,1,0,1.646Z" transform="translate(-514.755 -86.944)"/>
  </g>
  <g id="グループ_958" data-name="グループ 958" transform="translate(9.965 21.044)">
    <path id="パス_1334" data-name="パス 1334" d="M519.586,96.11h-4.009a.823.823,0,1,1,0-1.646h4.009a.823.823,0,1,1,0,1.646Z" transform="translate(-514.755 -94.464)"/>
  </g>
  <g id="グループ_959" data-name="グループ 959" transform="translate(9.965 25.17)">
    <path id="パス_1335" data-name="パス 1335" d="M519.586,103.631h-4.009a.823.823,0,1,1,0-1.646h4.009a.823.823,0,1,1,0,1.646Z" transform="translate(-514.755 -101.985)"/>
  </g>
</svg>
