<svg id="グループ_953" data-name="グループ 953" xmlns="http://www.w3.org/2000/svg" width="30.002" height="25.688" viewBox="0 0 30.002 25.688">
  <g id="グループ_949" data-name="グループ 949" transform="translate(11.726 18.786)">
    <ellipse id="楕円形_1066" data-name="楕円形 1066" cx="3.451" cy="3.451" rx="3.451" ry="3.451"/>
  </g>
  <g id="グループ_950" data-name="グループ 950" transform="translate(6.94 12.637)">
    <path id="パス_1327" data-name="パス 1327" d="M377.315,89.448a1.627,1.627,0,0,1-1.292-.636,6.052,6.052,0,0,0-4.889-1.9h0c-2.275,0-4.541.8-5.389,1.9a1.629,1.629,0,0,1-2.581-1.988c1.484-1.926,4.611-3.17,7.969-3.17h.007a9.22,9.22,0,0,1,7.47,3.171,1.629,1.629,0,0,1-1.29,2.621Z" transform="translate(-362.821 -83.656)"/>
  </g>
  <g id="グループ_951" data-name="グループ 951" transform="translate(4.258 6.328)">
    <path id="パス_1328" data-name="パス 1328" d="M377.79,79a1.626,1.626,0,0,1-1.292-.636c-1.443-1.877-4.164-2.955-7.466-2.956h-.008c-3.472,0-6.832,1.216-8.174,2.957a1.628,1.628,0,1,1-2.58-1.987c1.978-2.569,6.2-4.227,10.754-4.227h.009c4.321,0,7.983,1.544,10.046,4.229A1.629,1.629,0,0,1,377.79,79Z" transform="translate(-357.932 -72.155)"/>
  </g>
  <g id="グループ_952" data-name="グループ 952" transform="translate(0 0)">
    <path id="パス_1329" data-name="パス 1329" d="M378.545,69.148a1.627,1.627,0,0,1-1.292-.636c-2.262-2.943-6.474-4.632-11.557-4.635h-.011c-5.315,0-10.493,1.906-12.6,4.636a1.628,1.628,0,1,1-2.581-1.987,14.4,14.4,0,0,1,6.468-4.384,25.2,25.2,0,0,1,8.708-1.522h.013c6.1,0,11.254,2.157,14.137,5.907a1.628,1.628,0,0,1-1.29,2.621Z" transform="translate(-350.17 -60.62)"/>
  </g>
</svg>
